<?xml version="1.0" standalone="no"?>
<!DOCTYPE svg PUBLIC "-//W3C//DTD SVG 1.1//EN" "http://www.w3.org/Graphics/SVG/1.1/DTD/svg11.dtd" >
<svg xmlns="http://www.w3.org/2000/svg">
<metadata></metadata>
<defs>
<font id="archerprohairline" horiz-adv-x="1376" >
<font-face units-per-em="2048" ascent="1638" descent="-410" />
<missing-glyph horiz-adv-x="471" />
<glyph unicode="&#xfb01;" horiz-adv-x="880" d="M59 0v10h170v807h-170v10h170v359q0 177 84 252q62 59 158 59q47 0 78 -18t31 -41q0 -9 -7 -16t-16 -7q-11 0 -17 8.5t-3 20t16 18.5q-33 25 -82 25q-89 0 -149 -57q-80 -71 -80 -244v-359h426v-817h172v-10h-355v10h170v807h-413v-807h172v-10h-355z" />
<glyph unicode="&#xfb02;" horiz-adv-x="927" d="M59 0v10h170v807h-170v10h170v398q0 148 72 217q68 65 172 65q103 0 166 -63q46 -49 57 -107l2 150h9v-1477h172v-10h-355v10h170v807h-452v-807h172v-10h-355zM242 827h452v457h-6q-9 0 -14.5 6.5t-5.5 14.5q0 17 20 24q-16 68 -55 107q-61 61 -160 61q-98 0 -164 -63 q-67 -64 -67 -209v-398z" />
<glyph unicode="&#xfb03;" horiz-adv-x="1343" d="M59 0v10h170v807h-170v10h170v328q0 159 72 234q65 71 178 71q88 0 129 -41q27 -27 27 -57q0 -13 -7 -21t-16 -8q-14 0 -19.5 12.5t1 26.5t22.5 17q-6 12 -16 22q-39 39 -121 39q-108 0 -170 -68q-67 -67 -67 -227v-328h450v359q0 177 84 252q62 59 158 59q47 0 77.5 -18 t30.5 -41q0 -9 -6.5 -16t-15.5 -7q-11 0 -17 8.5t-3 20t16 18.5q-33 25 -82 25q-90 0 -150 -57q-79 -70 -79 -244v-359h425v-817h173v-10h-355v10h170v807h-413v-807h172v-10h-355v10h170v807h-450v-807h172v-10h-355z" />
<glyph unicode="&#xfb04;" horiz-adv-x="1390" d="M59 0v10h170v807h-170v10h170v328q0 159 72 234q65 71 178 71q88 0 129 -41q27 -27 27 -57q0 -13 -7 -21t-16 -8q-14 0 -20 12.5t0 26t22 17.5q-8 16 -14 22q-39 39 -121 39q-108 0 -170 -68q-67 -67 -67 -227v-328h450v398q0 148 72 217q68 65 172 65q103 0 166 -63 q46 -49 57 -109l2 152h8v-1477h172v-10h-354v10h170v807h-452v-807h172v-10h-355v10h170v807h-450v-807h172v-10h-355zM705 827h452v457h-6q-9 0 -15 6.5t-6 14.5q0 16 21 24q-16 68 -55 107q-61 61 -160 61q-98 0 -164 -63q-67 -64 -67 -209v-398z" />
<glyph horiz-adv-x="2048" />
<glyph horiz-adv-x="2048" />
<glyph horiz-adv-x="682" />
<glyph unicode="&#x9;" horiz-adv-x="471" />
<glyph unicode="&#xd;" horiz-adv-x="471" />
<glyph unicode=" "  horiz-adv-x="471" />
<glyph unicode="&#x09;" horiz-adv-x="471" />
<glyph unicode="&#xa0;" horiz-adv-x="471" />
<glyph unicode="!" horiz-adv-x="356" d="M154 8q0 11 7 18t17 7t17.5 -7.5t7.5 -17.5t-7 -17t-18 -7q-10 0 -17 7t-7 17zM172 1348h14l-2 -1047h-10z" />
<glyph unicode="&#x22;" horiz-adv-x="413" d="M115 1352q0 10 10 10t10 -10l-8 -250h-4zM279 1352q0 10 10 10t10 -10l-8 -250h-4z" />
<glyph unicode="#" horiz-adv-x="944" d="M31 311v13h221l59 389h-217v12h219l45 287h13l-45 -287h354l45 287h12l-45 -287h221v-12h-223l-59 -389h219v-13h-221l-47 -311h-13l47 311h-354l-47 -311h-12l47 311h-219zM264 324h354l60 389h-354z" />
<glyph unicode="$" horiz-adv-x="833" d="M80 199q0 37 22 37q8 0 14.5 -7t6.5 -18t-8 -20t-21 -9q8 -65 86 -117.5t201 -58.5l37 500q-150 56 -218.5 112t-68.5 152q0 95 83.5 159t215.5 64h23l10 158h10l-10 -158q107 -7 179.5 -57.5t72.5 -108.5q0 -36 -23 -36q-20 0 -20 24q0 10 7.5 19t20.5 10q-11 50 -77 91 t-160 48l-35 -467q156 -56 231.5 -118.5t75.5 -161.5q0 -104 -92 -172t-233 -68h-19l-16 -205h-10l16 205q-137 6 -219 67t-82 136zM143 770q0 -48 19 -86.5t59 -68t84.5 -51t112.5 -46.5l35 465h-23q-126 0 -206.5 -61t-80.5 -152zM391 6h19q136 0 224.5 65t88.5 165 q0 50 -19.5 89.5t-61 71t-90.5 55.5t-124 52z" />
<glyph unicode="%" horiz-adv-x="1171" d="M115 805q0 91 61 156t150 65q88 0 148.5 -64.5t60.5 -156.5t-60.5 -156.5t-148.5 -64.5q-89 0 -150 65t-61 156zM127 805q0 -87 57.5 -149t141.5 -62t140 62t56 149t-56 149t-140 62t-141.5 -62t-57.5 -149zM182 -14l389 508l390 510l10 -7l-389 -508l-389 -509zM637 223 q0 92 60.5 156.5t148.5 64.5q89 0 150 -65t61 -156t-61 -156t-150 -65q-88 0 -148.5 64.5t-60.5 156.5zM649 223q0 -87 56.5 -149t140.5 -62t141 62t57 149t-57 149t-141 62t-140.5 -62t-56.5 -149z" />
<glyph unicode="&#x26;" horiz-adv-x="1138" d="M66 279q0 69 22.5 126.5t67.5 105.5t93.5 84t119.5 77q-76 87 -116 162.5t-40 150.5q0 112 69.5 186t178.5 74q105 0 170 -63t65 -162q0 -47 -18.5 -91t-44 -76.5t-71.5 -68t-82 -58.5t-93 -56q79 -83 127 -129l295 -287q100 147 164 350h-144v10h279v-10h-123 q-69 -214 -168 -356l266 -256l-8 -8l-264 254q-180 -254 -432 -254q-145 0 -229 85t-84 210zM78 279q0 -121 80.5 -203t220.5 -82q248 0 424 250l-297 288q-71 68 -129 132q-69 -40 -118 -76t-93 -83t-66 -103.5t-22 -122.5zM225 985q0 -133 154 -307q72 42 114.5 70 t92.5 72t74 93.5t24 106.5q0 94 -62.5 154.5t-160.5 60.5q-104 0 -170 -71t-66 -179z" />
<glyph unicode="'" horiz-adv-x="249" d="M115 1352q0 10 10 10t10 -10l-8 -250h-4z" />
<glyph unicode="(" horiz-adv-x="593" d="M139 532q0 130 28 263t83.5 264t146.5 252.5t209 214.5l8 -8q-155 -122 -261.5 -293.5t-153.5 -345t-47 -347.5t47 -347t153.5 -344.5t261.5 -293.5l-8 -8q-118 93 -209 214.5t-146.5 252t-83.5 263.5t-28 263z" />
<glyph unicode=")" horiz-adv-x="593" d="M-20 -453q155 122 261.5 293.5t153.5 344.5t47 347t-47 347.5t-153.5 345t-261.5 293.5l8 8q118 -93 209 -214.5t146.5 -252.5t83.5 -264t28 -263t-28 -263t-83.5 -263.5t-146.5 -252t-209 -214.5z" />
<glyph unicode="*" horiz-adv-x="671" d="M84 1255q0 9 10 7l238 -82l-4 250q0 8 8 8t8 -8l-4 -250l238 82q10 2 10 -7q0 -8 -6 -10l-240 -74l150 -198q7 -10 -3 -15q-7 -3 -12 5l-141 202l-141 -202q-6 -9 -13 -5q-9 4 -2 15l150 198l-240 74q-6 2 -6 10z" />
<glyph unicode="+" horiz-adv-x="745" d="M90 528v11h277v284h12v-284h276v-11h-276v-284h-12v284h-277z" />
<glyph unicode="," horiz-adv-x="233" d="M53 -184q74 86 74 172q-14 -7 -25.5 1.5t-11.5 22.5q0 9 6 16t15 7q28 0 28 -49q0 -90 -80 -176z" />
<glyph unicode="-" horiz-adv-x="466" d="M70 541v12h327v-12h-327z" />
<glyph unicode="." horiz-adv-x="233" d="M92 8q0 10 7 17.5t18 7.5q10 0 17 -7t7 -18q0 -10 -6.5 -17t-17.5 -7t-18 7t-7 17z" />
<glyph unicode="/" horiz-adv-x="808" d="M-80 -399l840 1896l10 -6l-840 -1897z" />
<glyph unicode="0" horiz-adv-x="999" d="M72 504q0 223 121 371.5t307 148.5t307 -148.5t121 -371.5t-121 -371.5t-307 -148.5t-307 148.5t-121 371.5zM84 504q0 -218 118 -364t298 -146t297.5 146t117.5 364t-117.5 364t-297.5 146t-298 -146t-118 -364z" />
<glyph unicode="1" horiz-adv-x="671" d="M109 0v10h241v996l-229 -68l-2 10l237 70h6v-1008h244v-10h-497z" />
<glyph unicode="2" horiz-adv-x="892" d="M68 6q26 71 67.5 134t99 117.5t106 92.5t118.5 86q63 44 103.5 77t78.5 75t56 88.5t18 99.5q0 104 -76.5 171t-212.5 67q-94 0 -164.5 -36t-109.5 -99q-23 -39 -27 -76q27 -6 27 -31q0 -20 -21 -20q-20 0 -20 30q0 54 32 105q40 63 112.5 100t170.5 37q143 0 222 -69.5 t79 -178.5q0 -55 -17.5 -101.5t-56.5 -89.5t-80 -76.5t-108 -80.5q-56 -39 -90 -64.5t-85 -69t-84.5 -82t-68 -92t-55.5 -110.5h659v189h13v-199h-682z" />
<glyph unicode="3" horiz-adv-x="886" d="M82 -29q0 31 20 31q9 0 15 -6.5t6 -15.5q0 -23 -27 -29q7 -40 33 -76q39 -55 115.5 -88t175.5 -33q156 0 254 94t98 234q0 111 -61.5 186t-173.5 111q-89 27 -207 27h-15v10h15q119 0 209 35q101 39 156 112t55 172q0 115 -85.5 197t-232.5 82q-188 0 -274 -131 q-25 -42 -31 -78q27 -6 27 -29q0 -9 -6 -15.5t-15 -6.5q-20 0 -20 30q0 52 37 107q40 61 112 97t170 36q153 0 241.5 -84.5t88.5 -204.5q0 -104 -58.5 -181.5t-164.5 -115.5q-58 -21 -111 -26q46 -3 109 -21q118 -36 182.5 -114.5t64.5 -194.5q0 -145 -101.5 -241.5 t-262.5 -96.5q-103 0 -180.5 32.5t-118.5 88.5q-39 50 -39 106z" />
<glyph unicode="4" horiz-adv-x="894" d="M14 174l621 858l10 -6l-612 -846h585v438l13 5v-443h239v-10h-239v-416h-13v416h-600z" />
<glyph unicode="5" horiz-adv-x="854" d="M74 -33q0 33 20 33q9 0 14 -6t5 -14q0 -23 -25 -29q9 -38 35 -74q39 -52 113.5 -84.5t171.5 -32.5q163 0 269.5 103.5t106.5 265.5q0 168 -109 262t-288 94q-146 0 -252 -61l-8 6l68 582h522v-13h-512l-66 -561q110 58 248 58q184 0 297 -97t113 -270 q0 -166 -110.5 -272.5t-278.5 -106.5q-100 0 -175.5 32.5t-115.5 84.5q-43 55 -43 100z" />
<glyph unicode="6" horiz-adv-x="958" d="M109 526q0 151 25 277t67.5 212.5t100 146t122.5 87t135 27.5q141 0 225 -84q45 -45 45 -92q0 -33 -20 -33q-18 0 -18 23q0 22 24 28q-12 39 -39 66q-35 36 -91 59t-126 23q-68 0 -131 -27t-119.5 -86t-98 -144t-65.5 -209t-24 -274q0 -79 2 -114q4 52 16 88 q38 113 135.5 189.5t231.5 76.5q166 0 273.5 -110t107.5 -275t-111 -282t-270 -117q-169 0 -277 108q-62 64 -91 164t-29 272zM131 383q0 -76 28.5 -155.5t80.5 -131.5q104 -104 266 -104q154 0 261 114t107 275t-104 268t-264 107q-108 0 -195.5 -55.5t-133.5 -140.5 t-46 -177z" />
<glyph unicode="7" horiz-adv-x="804" d="M72 739v273h688l2 -4l-520 -1250l-11 4l517 1239h-664v-262h-12z" />
<glyph unicode="8" horiz-adv-x="929" d="M84 322q0 129 88.5 219.5t226.5 109.5q-128 19 -208 103.5t-80 206.5q0 132 99.5 223.5t252.5 91.5t252.5 -91.5t99.5 -223.5q0 -122 -81.5 -206.5t-209.5 -103.5q137 -18 227.5 -109t90.5 -220q0 -146 -108.5 -243t-270.5 -97t-270.5 97t-108.5 243zM96 322 q0 -141 105 -235.5t262 -94.5t261.5 94.5t104.5 235.5q0 139 -105.5 232t-260.5 93t-261 -93t-106 -232zM123 961q0 -132 98 -219t242 -87t242 87t98 219q0 128 -96.5 216.5t-243.5 88.5t-243.5 -88.5t-96.5 -216.5z" />
<glyph unicode="9" horiz-adv-x="958" d="M94 621q0 165 111 284t270 119q168 0 277 -109q62 -64 91 -164t29 -272q0 -152 -24.5 -278t-66.5 -214t-99 -148.5t-121.5 -89t-134.5 -28.5q-141 0 -225 84q-45 45 -45 93q0 32 20 32q19 0 19 -22q0 -23 -25 -29q11 -37 39 -65q35 -36 91 -59t126 -23q86 0 162.5 45.5 t138 134t97.5 235t36 332.5q0 80 -2 115q-3 -51 -16 -88q-38 -115 -136 -195t-231 -80q-166 0 -273.5 112t-107.5 278zM106 621q0 -161 104.5 -270t264.5 -109q81 0 153 34t119.5 88.5t75 122.5t27.5 136q0 76 -28.5 155t-80.5 131q-105 105 -266 105q-154 0 -261.5 -116 t-107.5 -277z" />
<glyph unicode=":" horiz-adv-x="270" d="M111 8q0 11 7 18t17 7q11 0 18 -7.5t7 -17.5t-7 -17t-18 -7t-17.5 7t-6.5 17zM111 641q0 11 7 18t17 7q11 0 18 -7t7 -18t-7 -18t-18 -7q-10 0 -17 7t-7 18z" />
<glyph unicode=";" horiz-adv-x="270" d="M76 -184q74 86 74 172q-14 -7 -25.5 1.5t-11.5 22.5q0 9 5.5 16t14.5 7q29 0 29 -49q0 -90 -80 -176zM111 641q0 11 7 18t17 7q11 0 18 -7t7 -18t-7 -18t-18 -7q-10 0 -17 7t-7 18z" />
<glyph unicode="&#x3c;" horiz-adv-x="704" d="M111 514v4l450 295l6 -8l-442 -289l442 -289l-6 -8z" />
<glyph unicode="=" horiz-adv-x="745" d="M90 377v10h565v-10h-565zM90 641v10h565v-10h-565z" />
<glyph unicode="&#x3e;" horiz-adv-x="704" d="M137 227l443 289l-443 289l6 8l451 -295v-4l-451 -295z" />
<glyph unicode="?" horiz-adv-x="782" d="M37 1077q0 62 39 123q98 156 309 156q154 0 255 -97t101 -241q0 -141 -102.5 -243t-273.5 -138l-3 -336h-10l-2 344q174 34 276.5 133.5t102.5 239.5q0 139 -97.5 233.5t-246.5 94.5q-204 0 -301 -154q-29 -44 -33 -94q27 -5 27 -31q0 -8 -6 -14t-15 -6q-20 0 -20 30z M332 8q0 11 7 18t17 7t17.5 -7.5t7.5 -17.5t-7 -17t-18 -7q-10 0 -17 7t-7 17z" />
<glyph unicode="@" horiz-adv-x="1540" d="M92 244q0 196 67 375t179.5 309t266 207t319.5 77q250 0 392 -148.5t142 -397.5q0 -145 -45.5 -275.5t-122 -209.5t-162.5 -79q-84 0 -116.5 53.5t-14.5 149.5q-46 -101 -124.5 -162t-176.5 -61q-113 0 -174 72t-61 198q0 180 105.5 308t254.5 128q119 0 176.5 -82 t46.5 -202l68 276h12l-110 -448q-25 -102 3 -160.5t111 -58.5t157 77.5t117.5 205.5t43.5 270q0 245 -138.5 390.5t-383.5 145.5q-164 0 -315 -76.5t-262 -204.5t-177 -306t-66 -371q0 -254 140.5 -412t376.5 -158q195 0 354 86l6 -8q-161 -88 -360 -88q-242 0 -385.5 160.5 t-143.5 419.5zM473 352q0 -121 58.5 -190.5t164.5 -69.5q102 0 182 69.5t119 169t39 204.5q0 112 -59 177.5t-156 65.5q-144 0 -246 -125.5t-102 -300.5z" />
<glyph unicode="A" d="M2 0v10h186l488 1327h-221v11h471v-11h-226l488 -1327h186v-10h-438v10h240l-193 525h-590l-192 -525h239v-10h-438zM397 545h582l-291 792z" />
<glyph unicode="B" horiz-adv-x="1177" d="M68 0v10h215v1327h-215v11h559q102 0 181 -27.5t126.5 -74.5t71.5 -105.5t24 -124.5q0 -130 -87 -221.5t-234 -104.5q173 -13 266.5 -107.5t93.5 -232.5q0 -165 -120 -257.5t-318 -92.5h-563zM295 10h336q192 0 309 90t117 250q0 149 -108 241.5t-314 92.5h-340v-674z M295 694h336q180 0 283.5 90.5t103.5 231.5q0 65 -23.5 121.5t-69.5 102t-122.5 71.5t-175.5 26h-332v-643z" />
<glyph unicode="C" horiz-adv-x="1402" d="M106 668q0 194 88 355.5t243.5 255.5t344.5 95h6q102 0 194 -31q95 -32 158.5 -82.5t100.5 -111.5t37 -119q0 -19 -7.5 -29t-17.5 -10q-20 0 -20 23q0 11 9 19t22 7q-1 40 -22.5 84.5t-63.5 87t-99 76.5t-134.5 55t-162.5 21q-186 0 -338.5 -93t-238.5 -252.5t-86 -350.5 q0 -192 85 -348.5t237.5 -246t340.5 -89.5q145 0 273 59t219 164l8 -8q-96 -108 -224 -167t-276 -59q-191 0 -346.5 91t-242.5 250t-87 354z" />
<glyph unicode="D" horiz-adv-x="1433" d="M68 0v10h215v1327h-215v11h503q178 0 320 -49.5t234.5 -139t141 -212t48.5 -269.5q0 -149 -48.5 -273.5t-140.5 -214.5t-232 -140t-316 -50h-510zM295 10h283q173 0 310.5 49t228 137.5t138.5 211t48 270.5q0 298 -191.5 478.5t-540.5 180.5h-276v-1327z" />
<glyph unicode="E" horiz-adv-x="1138" d="M68 0v10h215v1327h-215v11h938v-306h-13v295h-698v-643h524v-10h-524v-674h698v295h13v-305h-938z" />
<glyph unicode="F" horiz-adv-x="1083" d="M68 0v10h215v1327h-215v11h917v-306h-12v295h-678v-643h504v-10h-504v-674h225v-10h-452z" />
<glyph unicode="G" horiz-adv-x="1470" d="M106 668q0 194 88 355.5t243.5 255.5t344.5 95h7q107 0 203 -30q99 -30 163.5 -76.5t101.5 -101t37 -103.5q0 -39 -22 -39q-21 0 -21 23q0 11 8.5 19t22.5 7q-4 47 -42 98t-100.5 94.5t-157.5 71.5q-91 27 -193 27h-7q-93 0 -180.5 -25t-160 -70t-133 -109t-102 -140 t-64.5 -166t-23 -186q0 -192 84.5 -348.5t235 -246t337.5 -89.5q157 0 290.5 62t227.5 173v359h-473v10h486v-588h-13v203q-95 -108 -228 -169t-290 -61q-190 0 -343.5 91t-240 250t-86.5 354z" />
<glyph unicode="H" horiz-adv-x="1529" d="M68 0v10h215v1327h-215v11h446v-11h-219v-639h940v639h-219v11h446v-11h-215v-1327h215v-10h-446v10h219v678h-940v-678h219v-10h-446z" />
<glyph unicode="I" horiz-adv-x="598" d="M68 0v10h225v1327h-225v11h462v-11h-225v-1327h225v-10h-462z" />
<glyph unicode="J" horiz-adv-x="993" d="M84 299q0 45 25 45q18 0 18 -22q0 -12 -8.5 -21.5t-22.5 -9.5q1 -133 92 -220t215 -87q137 0 224 90q112 115 112 358v905h-239v11h446v-11h-194v-905q0 -249 -117 -366q-93 -93 -232 -93q-131 0 -225 91.5t-94 234.5z" />
<glyph unicode="K" horiz-adv-x="1316" d="M68 0v10h215v1327h-215v11h446v-11h-219v-827l821 827h-252v11h447v-11h-178l-572 -575l549 -752h213v-10h-219l-551 754l-258 -260v-484h219v-10h-446z" />
<glyph unicode="L" horiz-adv-x="1038" d="M68 0v10h215v1327h-215v11h452v-11h-225v-1327h663v295h13v-305h-903z" />
<glyph unicode="M" horiz-adv-x="1701" d="M47 0v10h223l47 1327h-221v11h234l520 -1137l522 1137h234v-11h-222l48 -1327h223v-10h-436v10h200l-45 1315l-520 -1132h-8l-518 1132l-45 -1315h200v-10h-436z" />
<glyph unicode="N" horiz-adv-x="1505" d="M68 0v10h215v1327h-215v11h225l940 -1338v1327h-219v11h446v-11h-215v-1349h-10l-940 1337v-1315h225v-10h-452z" />
<glyph unicode="O" horiz-adv-x="1560" d="M106 674q0 192 87.5 352.5t242.5 254t344 93.5t344 -93.5t242.5 -254t87.5 -352.5t-87.5 -353t-242.5 -254.5t-344 -93.5t-344 93.5t-242.5 254.5t-87.5 353zM119 674q0 -142 50.5 -269t137.5 -219.5t210.5 -147t262.5 -54.5t262.5 54.5t211 147t138 219.5t50.5 269 t-50.5 269t-138 219.5t-211 147t-262.5 54.5t-262.5 -54.5t-210.5 -147t-137.5 -219.5t-50.5 -269z" />
<glyph unicode="P" horiz-adv-x="1103" d="M68 0v10h215v1327h-215v11h528q209 0 327.5 -111t118.5 -291t-120.5 -291.5t-346.5 -111.5q-170 0 -280 8v-541h219v-10h-446zM295 561q110 -8 280 -8q220 0 337.5 108t117.5 285q0 176 -116 283.5t-318 107.5h-301v-776z" />
<glyph unicode="Q" horiz-adv-x="1560" d="M106 674q0 192 87.5 352.5t242.5 254t344 93.5t344 -93.5t242.5 -254t87.5 -352.5q0 -190 -86 -350.5t-241 -255.5t-345 -95q84 -15 143.5 -39.5t133.5 -74.5q108 -74 173.5 -103.5t143.5 -29.5q81 0 158 49l6 -8q-80 -52 -164 -52q-81 0 -147 30.5t-180 107.5 q-81 55 -151.5 79.5t-190.5 42.5q-227 33 -379 175q-105 97 -163.5 232.5t-58.5 291.5zM119 674q0 -153 57 -286t160 -230q184 -174 444 -174q139 0 262.5 54.5t211 147t138 219.5t50.5 269t-50.5 269t-138 219.5t-211 147t-262.5 54.5t-262.5 -54.5t-210.5 -147 t-137.5 -219.5t-50.5 -269z" />
<glyph unicode="R" horiz-adv-x="1189" d="M68 0v10h215v1327h-215v11h518q210 0 327 -99t117 -262q0 -157 -98 -254t-268 -119l358 -604h178v-10h-186l-363 612q-36 -4 -86 -4q-184 0 -270 4v-602h225v-10h-452zM295 623q107 -5 270 -5q205 0 329 97t124 272q0 159 -113.5 254.5t-318.5 95.5h-291v-714z" />
<glyph unicode="S" horiz-adv-x="1017" d="M109 233q0 39 22 39q8 0 14.5 -6.5t6.5 -17.5t-9 -20t-22 -9q10 -90 117 -162.5t268 -72.5q171 0 281 89.5t110 231.5q0 63 -22.5 116.5t-55 91t-85 72t-96.5 55.5t-106 46q-47 19 -77 32t-73.5 34.5t-71.5 41.5t-59.5 49.5t-50 60.5t-30.5 72t-12 87q0 132 107 221.5 t272 89.5q148 0 248 -74.5t100 -169.5q0 -38 -23 -38q-20 0 -20 24q0 11 8.5 20t21.5 9q-8 86 -104.5 152.5t-230.5 66.5q-160 0 -263.5 -86t-103.5 -215q0 -45 12.5 -85t29.5 -70t49.5 -59t58 -47t70.5 -40.5t71.5 -34t75.5 -31.5q62 -24 108 -46.5t99 -57.5t86.5 -74 t56 -94t22.5 -119q0 -146 -113 -239t-290 -93q-88 0 -165 24t-126.5 62t-77.5 84t-28 90z" />
<glyph unicode="T" horiz-adv-x="1249" d="M66 1042v306h1118v-306h-13v295h-540v-1327h225v-10h-463v10h225v1327h-540v-295h-12z" />
<glyph unicode="U" horiz-adv-x="1363" d="M41 1337v11h442v-11h-215v-868q0 -238 105.5 -361.5t308.5 -123.5t308.5 123.5t105.5 361.5v868h-215v11h442v-11h-215v-868q0 -242 -110 -369t-316 -127q-207 0 -316.5 126.5t-109.5 369.5v868h-215z" />
<glyph unicode="V" d="M2 1337v11h438v-11h-233l481 -1345l481 1345h-233v11h438v-11h-192l-490 -1366h-8l-489 1366h-193z" />
<glyph unicode="W" horiz-adv-x="1953" d="M-10 1337v11h463v-11h-246l395 -1343l371 1159h8l371 -1159l395 1343h-246v11h463v-11h-205l-403 -1366h-8l-371 1157l-371 -1157h-8l-403 1366h-205z" />
<glyph unicode="X" horiz-adv-x="1359" d="M25 0v10h178l471 682l-445 645h-172v11h392v-11h-205l436 -635l436 635h-205v11h392v-11h-173l-444 -645l471 -682h178v-10h-387v10h195l-463 672l-463 -672h195v-10h-387z" />
<glyph unicode="Y" horiz-adv-x="1269" d="M0 1337v11h463v-11h-244l416 -743l416 743h-244v11h463v-11h-205l-424 -753v-574h225v-10h-463v10h226v574l-424 753h-205z" />
<glyph unicode="Z" horiz-adv-x="1153" d="M82 0v6l950 1331h-895v-295h-12v306h924v-7l-951 -1331h963v295h12v-305h-991z" />
<glyph unicode="[" horiz-adv-x="595" d="M217 -410v1909h361v-10h-349v-1888h349v-11h-361z" />
<glyph unicode="\" horiz-adv-x="808" d="M39 1491l10 6l840 -1896l-10 -7z" />
<glyph unicode="]" horiz-adv-x="595" d="M18 -399h349v1888h-349v10h361v-1909h-361v11z" />
<glyph unicode="^" horiz-adv-x="806" d="M162 842l241 192l242 -192l-4 -4l-238 178l-237 -178z" />
<glyph unicode="_" horiz-adv-x="972" d="M-10 -227h993v-13h-993v13z" />
<glyph unicode="`" horiz-adv-x="1024" d="M270 1147q0 8 9 8q6 0 14 -4l291 -143l-2 -4l-299 131q-13 7 -13 12z" />
<glyph unicode="a" horiz-adv-x="915" d="M86 221q0 105 84.5 174.5t224.5 69.5q143 0 297 -62v156q0 119 -45 178q-33 43 -91.5 67.5t-133.5 24.5q-98 0 -169 -38t-93 -82q22 -6 22 -27q0 -9 -6 -16t-16 -7q-21 0 -21 27q0 43 82.5 98.5t200.5 55.5q79 0 141 -26.5t96 -72.5q46 -63 46 -180v-551h169v-10h-182 v176q-65 -83 -152.5 -135.5t-187.5 -52.5q-131 0 -198.5 66.5t-67.5 166.5zM98 221q0 -94 65 -158.5t189 -64.5q101 0 187.5 54.5t152.5 140.5v198q-154 64 -297 64q-135 0 -216 -67t-81 -167z" />
<glyph unicode="b" horiz-adv-x="1048" d="M16 1452v10h183v-800q161 178 354 178q175 0 290 -121t115 -305q0 -182 -120 -304t-293 -122q-85 0 -178 42t-168 107l-4 -137h-9v1452h-170zM199 152q72 -66 167.5 -110t178.5 -44q167 0 284 119.5t117 296.5q0 179 -111.5 297t-281.5 118q-193 0 -354 -182v-495z" />
<glyph unicode="c" horiz-adv-x="909" d="M88 408q0 186 120.5 309t287.5 123q132 0 221.5 -71.5t89.5 -156.5q0 -30 -21 -30q-10 0 -16 7t-6 17t7.5 19t21.5 10q-11 75 -95.5 134.5t-201.5 59.5q-162 0 -279 -120t-117 -301q0 -187 119.5 -298.5t296.5 -111.5q171 0 277 92v-12q-107 -90 -277 -90 q-184 0 -306 113.5t-122 306.5z" />
<glyph unicode="d" horiz-adv-x="1081" d="M90 414q0 181 120 303.5t292 122.5q86 0 179.5 -42t168.5 -108v762h-170v10h182v-1452h170v-10h-182v166q-161 -178 -354 -178q-175 0 -290.5 121t-115.5 305zM102 414q0 -179 112 -297.5t282 -118.5q193 0 354 182v496q-72 66 -167.5 109.5t-178.5 43.5 q-167 0 -284.5 -119t-117.5 -296z" />
<glyph unicode="e" horiz-adv-x="925" d="M90 420q0 181 111.5 300.5t269.5 119.5q91 0 162 -33t114.5 -89.5t66 -126.5t22.5 -149v-6h-734v-16q0 -195 112 -308.5t290 -113.5q163 0 287 90v-12q-126 -88 -287 -88q-183 0 -298.5 116.5t-115.5 315.5zM102 446h721q-1 77 -22.5 144.5t-63.5 121.5t-110.5 85.5 t-155.5 31.5q-148 0 -253.5 -108t-115.5 -275z" />
<glyph unicode="f" horiz-adv-x="520" d="M59 0v10h170v807h-170v10h170v390q0 167 72 239q55 55 133 55q39 0 63.5 -14t24.5 -35q0 -9 -6.5 -15.5t-15.5 -6.5q-16 0 -19.5 16.5t15.5 28.5q-22 16 -62 16q-74 0 -125 -51q-67 -67 -67 -233v-390h233v-10h-233v-807h172v-10h-355z" />
<glyph unicode="g" horiz-adv-x="1064" d="M90 414q0 182 118.5 304t291.5 122q84 0 171.5 -41.5t164.5 -108.5v137h182v-10h-170v-872q0 -83 -12.5 -136t-42.5 -94q-92 -125 -301 -125q-128 0 -207.5 43t-102.5 95q-6 15 -6 26t6.5 20t16.5 9q9 0 14.5 -7t5.5 -16q0 -22 -24 -28q22 -51 98 -91t199 -40 q203 0 290 120q54 73 54 224v221q-161 -178 -344 -178q-175 0 -288.5 120.5t-113.5 305.5zM102 414q0 -179 110 -297.5t280 -118.5q183 0 344 182v496q-73 67 -163.5 110t-172.5 43q-167 0 -282.5 -119t-115.5 -296z" />
<glyph unicode="h" horiz-adv-x="1044" d="M45 0v10h170v1442h-170v10h182v-846q71 94 165 159t198 65q77 0 131.5 -32.5t81.5 -88.5q31 -61 31 -193v-516h170v-10h-355v10h172v516q0 132 -28 187q-26 53 -78 84.5t-125 31.5q-103 0 -197.5 -66.5t-165.5 -164.5v-588h172v-10h-354z" />
<glyph unicode="i" horiz-adv-x="454" d="M59 0v10h170v807h-170v10h183v-817h172v-10h-355zM201 1210q0 11 7 18t17 7q11 0 18 -7.5t7 -17.5t-7 -17t-18 -7t-17.5 7t-6.5 17z" />
<glyph unicode="j" horiz-adv-x="421" d="M-98 -307q0 11 6 19.5t16 8.5q9 0 15 -6.5t6 -15.5q0 -21 -27 -27q13 -30 47.5 -50.5t81.5 -20.5q62 0 112 43.5t68 132.5q13 69 13 198v842h-207v10h219v-852q0 -136 -12 -200q-19 -92 -73 -138.5t-120 -46.5q-64 0 -104.5 33t-40.5 70zM205 1210q0 11 7 18t17 7 q11 0 18 -7.5t7 -17.5t-7 -17t-18 -7t-17.5 7t-6.5 17z" />
<glyph unicode="k" horiz-adv-x="974" d="M45 0v10h170v1442h-170v10h182v-1147l527 502h-224v10h406v-10h-168l-319 -305l350 -502h139v-10h-147l-351 504l-213 -203v-291h172v-10h-354z" />
<glyph unicode="l" horiz-adv-x="448" d="M45 0v10h170v1442h-170v10h182v-1452h172v-10h-354z" />
<glyph unicode="m" horiz-adv-x="1632" d="M59 0v10h170v807h-170v10h183v-211q71 94 163 159t195 65q75 0 127 -33t78 -90q21 -50 24 -103q171 226 357 226q143 0 205 -121q30 -59 30 -193v-516h170v-10h-354v10h172v516q0 130 -29 187q-26 53 -75.5 84.5t-118.5 31.5q-184 0 -355 -231v-588h170v-10h-354v10h172 v516q0 134 -24 185q-24 53 -75 85.5t-120 32.5q-103 0 -194.5 -66t-163.5 -165v-588h172v-10h-355z" />
<glyph unicode="n" horiz-adv-x="1058" d="M59 0v10h170v807h-170v10h183v-213q70 95 163.5 160.5t198.5 65.5q77 0 131.5 -32.5t81.5 -88.5q31 -61 31 -193v-516h170v-10h-354v10h172v516q0 130 -29 187q-26 53 -78 84.5t-125 31.5q-103 0 -197 -66.5t-165 -164.5v-588h172v-10h-355z" />
<glyph unicode="o" horiz-adv-x="1003" d="M90 414q0 178 119 302t293 124q177 0 294 -122.5t117 -303.5q0 -178 -118.5 -302t-292.5 -124q-177 0 -294.5 122.5t-117.5 303.5zM102 414q0 -176 114 -296t286 -120q169 0 284 121.5t115 294.5q0 176 -113.5 295.5t-285.5 119.5q-169 0 -284.5 -121t-115.5 -294z" />
<glyph unicode="p" horiz-adv-x="1056" d="M45 -391h170v1208h-170v10h182v-165q161 178 344 178q174 0 285 -120.5t111 -305.5q0 -183 -116 -304.5t-288 -121.5q-84 0 -172 41.5t-164 107.5v-528h172v-10h-354v10zM227 152q74 -67 164 -110.5t172 -43.5q166 0 278.5 119t112.5 297q0 180 -107 297.5t-276 117.5 q-180 0 -344 -184v-493z" />
<glyph unicode="q" horiz-adv-x="1036" d="M90 414q0 182 120.5 304t293.5 122q85 0 178 -42.5t168 -107.5l4 137h8v-1218h170v-10h-354v10h172v557q-161 -178 -354 -178q-175 0 -290.5 121t-115.5 305zM102 414q0 -179 112 -297.5t282 -118.5q193 0 354 182v496q-72 66 -167.5 109.5t-178.5 43.5 q-169 0 -285.5 -119t-116.5 -296z" />
<glyph unicode="r" horiz-adv-x="657" d="M59 0v10h170v807h-170v10h183v-204q128 217 282 217q39 0 61.5 -13t22.5 -32q0 -27 -22 -27q-21 0 -21 20t17 27q-18 14 -58 14q-147 0 -282 -225v-594h172v-10h-355z" />
<glyph unicode="s" horiz-adv-x="784" d="M86 176q0 11 6.5 19t16.5 8q9 0 14.5 -7t5.5 -16q0 -23 -27 -26q16 -57 94 -106.5t195 -49.5q130 0 209.5 59t79.5 148q0 41 -15 72.5t-37 52t-63.5 39t-78 29.5t-97.5 26q-69 17 -113.5 33t-83 39.5t-56 56t-17.5 76.5q0 91 77.5 151t196.5 60q172 0 248 -92 q29 -36 29 -68q0 -13 -7 -21t-16 -8t-14.5 7t-5.5 16t7 17t21 9q-6 22 -26 45q-76 84 -236 84q-114 0 -188 -56t-74 -144q0 -35 13.5 -62.5t34.5 -47t58.5 -36t73.5 -27.5t90 -24q59 -15 97.5 -27t78.5 -31t63 -41t37.5 -54.5t14.5 -73.5q0 -93 -83 -155t-218 -62 q-106 0 -181.5 40.5t-107.5 94.5q-16 29 -16 53z" />
<glyph unicode="t" horiz-adv-x="555" d="M29 817v10h153v238l13 2v-240h307v-10h-307v-604q0 -76 10 -115q13 -51 51.5 -75.5t87.5 -24.5q75 0 152 47l2 -10q-80 -47 -156 -47q-121 0 -149 108q-11 43 -11 117v604h-153z" />
<glyph unicode="u" horiz-adv-x="1048" d="M41 817v10h182v-526q0 -129 29 -186q26 -53 78.5 -85t124.5 -32q103 0 197 66.5t165 164.5v588h-172v10h184v-817h170v-10h-182v211q-71 -94 -164.5 -158.5t-197.5 -64.5q-77 0 -131.5 32.5t-81.5 88.5q-31 61 -31 192v516h-170z" />
<glyph unicode="v" horiz-adv-x="962" d="M-8 817v10h346v-10h-191l334 -827l334 827h-190v10h346v-10h-144l-340 -842h-12l-340 842h-143z" />
<glyph unicode="w" horiz-adv-x="1306" d="M-8 817v10h346v-10h-191l226 -827l276 735h8l277 -735l225 827h-190v10h346v-10h-144l-231 -842h-12l-275 730l-274 -730h-12l-232 842h-143z" />
<glyph unicode="x" horiz-adv-x="960" d="M31 0v10h135l307 418l-287 389h-141v10h324v-10h-168l280 -381l279 381h-168v10h323v-10h-141l-285 -389l306 -418h135v-10h-324v10h174l-299 410l-301 -410h174v-10h-323z" />
<glyph unicode="y" horiz-adv-x="942" d="M-6 817v10h346v-10h-190l323 -790l324 790h-191v10h346v-10h-143l-367 -893q-68 -165 -118 -235q-72 -99 -170 -99q-34 0 -57 13.5t-23 31.5q0 23 20 23q14 0 19.5 -16t-7.5 -29q16 -12 48 -12q92 0 159 92q49 67 117 229l37 90l-330 805h-143z" />
<glyph unicode="z" horiz-adv-x="753" d="M61 0v10l615 807h-557v-188h-13v198h584v-10l-614 -807h600v189h12v-199h-627z" />
<glyph unicode="{" horiz-adv-x="569" d="M92 539v8h47q114 0 182 60.5t68 146.5q0 50 -33 105t-92 124q-64 77 -99.5 139.5t-35.5 124.5q0 110 97.5 192.5t254.5 86.5v-10q-151 -4 -245.5 -83.5t-94.5 -185.5q0 -102 133 -258q127 -142 127 -235q0 -79 -54 -137.5t-142 -73.5q88 -17 142 -76.5t54 -136.5 q0 -94 -127 -236q-133 -156 -133 -258q0 -106 94.5 -185t245.5 -83v-10q-157 4 -254.5 86t-97.5 192q0 62 35.5 124.5t99.5 139.5q58 68 91.5 124t33.5 106q0 86 -68 147.5t-182 61.5h-47z" />
<glyph unicode="|" horiz-adv-x="442" d="M215 -410v1909h12v-1909h-12z" />
<glyph unicode="}" horiz-adv-x="569" d="M88 -432q151 4 245.5 83t94.5 185q0 102 -133 258q-127 142 -127 236q0 77 54 136.5t143 76.5q-89 15 -143 73.5t-54 137.5q0 93 127 235q133 156 133 258q0 106 -94.5 185.5t-245.5 83.5v10q157 -4 254.5 -86.5t97.5 -192.5q0 -62 -35.5 -124.5t-99.5 -139.5 q-59 -69 -92 -124t-33 -105q0 -86 68 -146.5t182 -60.5h47v-8h-47q-114 0 -182 -61.5t-68 -147.5q0 -50 33.5 -106t91.5 -124q64 -77 99.5 -139.5t35.5 -124.5q0 -110 -97.5 -192t-254.5 -86v10z" />
<glyph unicode="~" horiz-adv-x="778" d="M106 446q26 66 65 103t83 37q33 0 61 -14t86 -54q81 -57 129 -57q39 0 75 32t59 89l8 -4q-25 -61 -62.5 -94t-81.5 -33q-31 0 -60.5 12.5t-76.5 46.5q-55 38 -82.5 51.5t-56.5 13.5q-39 0 -76 -35t-61 -98z" />
<glyph unicode="&#xa1;" horiz-adv-x="356" d="M154 1339q0 11 7 18t17 7t17.5 -7t7.5 -18q0 -10 -7 -17t-18 -7q-10 0 -17 6.5t-7 17.5zM170 0l2 1047h10l2 -1047h-14z" />
<glyph unicode="&#xa2;" horiz-adv-x="864" d="M70 504q0 185 123 307.5t294 122.5h11l20 233h10l-20 -233q128 -6 213.5 -76t85.5 -151q0 -31 -21 -31q-10 0 -16 7t-6 17t7.5 18t21.5 9q-13 75 -92.5 134t-194.5 63l-72 -826q50 -4 74 -4q143 0 278 78v-12q-135 -76 -278 -76q-28 0 -74 4l-26 -299h-11l27 301 q-157 24 -255.5 134t-98.5 280zM82 504q0 -166 95 -273t247 -131l72 824h-9q-166 0 -285.5 -119.5t-119.5 -300.5z" />
<glyph unicode="&#xa3;" horiz-adv-x="856" d="M47 -197q0 10 22 24t52 23q68 52 116 133t48 193q0 66 -13 129h-192v10h190q-8 46 -24 99q-3 8 -11.5 35.5t-12 39t-10.5 36t-10 41.5t-7 41t-5.5 48t-1.5 50q0 142 91 229.5t221 87.5q120 0 195 -61t75 -134q0 -41 -22 -41q-8 0 -14.5 7t-6.5 18t9.5 20t21.5 9 q-10 68 -80 120t-178 52q-125 0 -212 -85t-87 -222q0 -55 9.5 -111.5t18 -85t27.5 -88.5q23 -81 27 -105h364v-10h-362q12 -59 12 -129q0 -106 -44.5 -186.5t-109.5 -132.5q33 10 80 10q74 0 199 -41q117 -37 184 -37q142 0 219 115l9 -6q-81 -119 -228 -119q-73 0 -198 41 q-117 37 -185 37q-49 0 -90 -13q-48 -53 -72 -53q-14 0 -14 12z" />
<glyph unicode="&#xa5;" horiz-adv-x="901" d="M-14 1001v11h336v-11h-175l310 -503l309 503h-174v11h336v-11h-148l-313 -509h309v-11h-313v-200h313v-11h-313v-260h190v-10h-405v10h203v260h-314v11h314v200h-314v11h309l-313 509h-147z" />
<glyph unicode="&#xa7;" horiz-adv-x="819" d="M127 514q0 69 73 114.5t175 55.5q-106 30 -155.5 70t-49.5 102q0 76 73.5 122t186.5 46q109 0 178.5 -40.5t69.5 -92.5q0 -11 -6.5 -19t-16.5 -8q-9 0 -14.5 7t-5.5 16q0 23 27 26q-18 43 -80 72t-152 29q-108 0 -178 -42.5t-70 -113.5q0 -68 58 -106t198 -74 q133 -34 197.5 -74.5t64.5 -107.5q0 -70 -72 -114t-175 -56q107 -32 155.5 -71t48.5 -101q0 -76 -73.5 -122t-186.5 -46q-109 0 -178 40.5t-69 92.5q0 26 22 26q9 0 15 -6.5t6 -15.5q0 -24 -27 -27q14 -41 77 -70.5t154 -29.5q108 0 178 42.5t70 113.5q0 68 -58 106t-198 74 q-133 34 -197.5 74.5t-64.5 107.5zM139 516q0 -65 62 -103t190 -71l39 -10q106 8 182 51t76 111q0 65 -62 103t-190 71l-39 10q-108 -8 -183 -51.5t-75 -110.5z" />
<glyph unicode="&#xa8;" horiz-adv-x="1024" d="M385 1067q0 11 7.5 18t17.5 7t17 -7t7 -18t-7 -18t-17 -7t-17.5 7t-7.5 18zM590 1067q0 11 7 18t17 7t17.5 -7t7.5 -18t-7.5 -18t-17.5 -7t-17 7t-7 18z" />
<glyph unicode="&#xa9;" horiz-adv-x="1142" d="M45 512q0 148 67 272t188.5 196.5t270.5 72.5t270.5 -72.5t189 -196.5t67.5 -272t-67.5 -271.5t-189 -195.5t-270.5 -72t-270.5 72t-188.5 195.5t-67 271.5zM57 512q0 -145 65.5 -266t184 -191.5t264.5 -70.5t264.5 70.5t184 191.5t65.5 266t-65.5 266.5t-184 192.5 t-264.5 71t-264.5 -71t-184 -192.5t-65.5 -266.5zM326 518q0 -108 73 -188t191 -80q103 0 188 76l-8 8q-83 -74 -180 -74q-112 0 -182 77.5t-70 180.5q0 117 74 191.5t176 74.5q65 0 116.5 -30t63.5 -72q-10 -1 -17.5 -9.5t-7.5 -17.5q0 -22 19 -22q20 0 20 31 q0 49 -58.5 90t-135.5 41q-106 0 -184 -78t-78 -199z" />
<glyph unicode="&#xaa;" horiz-adv-x="577" d="M57 985q0 65 51.5 107.5t137.5 42.5q75 0 176 -37v98q0 65 -25 104q-38 56 -135 56q-55 0 -94.5 -18.5t-54.5 -43.5q16 -5 16 -22q0 -23 -20 -23q-8 0 -13.5 6.5t-5.5 16.5q0 30 48 62t124 32q105 0 146 -59q26 -38 26 -111v-336h105v-10h-117v104q-38 -50 -91 -81 t-112 -31q-80 0 -121 40.5t-41 102.5zM59 690v10h480v-10h-480zM70 985q0 -56 38 -94.5t111 -38.5q115 0 203 119v114q-96 39 -176 39t-128 -39.5t-48 -99.5z" />
<glyph unicode="&#xab;" horiz-adv-x="774" d="M47 541l342 317l8 -8l-334 -309l334 -310l-8 -8zM334 541l342 317l8 -8l-334 -309l334 -310l-8 -8z" />
<glyph unicode="&#xad;" horiz-adv-x="466" d="M70 541v12h327v-12h-327z" />
<glyph unicode="&#xae;" horiz-adv-x="724" d="M10 1053q0 154 99.5 260t252.5 106t253 -106t100 -260q0 -153 -100 -259t-253 -106t-252.5 106t-99.5 259zM23 1053q0 -149 96 -252t243 -103t243.5 103t96.5 252q0 150 -96.5 253t-243.5 103t-243 -103t-96 -253zM215 874v11h70v352h-70v10h143q62 0 96.5 -27t34.5 -79 q0 -40 -27.5 -67.5t-68.5 -35.5l86 -153h64v-11h-72l-90 162q-17 -2 -31 -2h-53v-149h68v-11h-150zM297 1044h57q53 0 88 26.5t35 70.5q0 47 -31.5 71.5t-87.5 24.5h-61v-193z" />
<glyph unicode="&#xaf;" horiz-adv-x="1024" d="M256 1063v12h512v-12h-512z" />
<glyph unicode="&#xb0;" horiz-adv-x="503" d="M31 1118q0 94 64 161t157 67t157 -67t64 -161t-64 -160.5t-157 -66.5t-157 66.5t-64 160.5zM43 1118q0 -90 60.5 -153.5t148.5 -63.5t148.5 63.5t60.5 153.5t-60.5 153.5t-148.5 63.5t-148.5 -63.5t-60.5 -153.5z" />
<glyph unicode="&#xb1;" horiz-adv-x="745" d="M90 188v11h565v-11h-565zM90 616v11h277v284h12v-284h276v-11h-276v-284h-12v284h-277z" />
<glyph unicode="&#xb2;" horiz-adv-x="722" d="M119 891q46 179 256 307q115 70 169 126t54 128q0 74 -60 125t-157 51q-91 0 -154 -43.5t-73 -95.5q26 -5 26 -31q0 -20 -20 -20q-23 0 -23 30q0 60 68.5 115t175.5 55q102 0 165.5 -54t63.5 -132q0 -40 -15 -75t-48.5 -67t-69.5 -58t-94 -62q-95 -57 -161.5 -133.5 t-90.5 -163.5h473v156h12v-166h-491z" />
<glyph unicode="&#xb3;" horiz-adv-x="722" d="M119 1020q0 22 20 22q9 0 16 -6.5t7 -15.5q0 -19 -25 -25q15 -48 84 -81t148 -33q107 0 176 55.5t69 136.5q0 87 -75.5 138t-204.5 53h-37v10h37q109 0 183.5 54t74.5 132q0 72 -60.5 119t-156.5 47q-81 0 -142 -34t-75 -79q24 -5 24 -26q0 -8 -6 -14.5t-16 -6.5 q-21 0 -21 23q0 56 69.5 101.5t166.5 45.5q101 0 165 -49.5t64 -126.5q0 -71 -60 -125t-149 -65q112 -12 172 -64t60 -133q0 -86 -71.5 -144.5t-186.5 -58.5q-94 0 -172 44.5t-78 105.5z" />
<glyph unicode="&#xb4;" horiz-adv-x="1024" d="M440 1008l291 143q8 4 14 4q9 0 9 -8q0 -5 -13 -12l-299 -131z" />
<glyph unicode="&#xb6;" horiz-adv-x="968" d="M84 700q0 136 105.5 224t263.5 88h454v-11h-174v-991h174v-10h-499v10h182v373q-49 -4 -144 -4q-160 0 -261 87t-101 234zM602 10h119v991h-119v-991z" />
<glyph unicode="&#xb7;" horiz-adv-x="397" d="M174 475q0 11 7 18t18 7q10 0 17 -7t7 -18t-6.5 -17.5t-17.5 -6.5t-18 7t-7 17z" />
<glyph unicode="&#xb8;" horiz-adv-x="1024" d="M328 -371l2 11q86 -39 176 -39q79 0 119.5 33t40.5 90q0 54 -48 84.5t-135 35.5h-10l-4 4l27 146l10 -2l-23 -137q89 -3 142 -37t53 -94q0 -62 -43.5 -98t-128.5 -36q-92 0 -178 39z" />
<glyph unicode="&#xb9;" horiz-adv-x="722" d="M154 1567l225 61h8v-735h215v-10h-446v10h219v723l-219 -60z" />
<glyph unicode="&#xba;" horiz-adv-x="618" d="M57 1102q0 108 72.5 184t177.5 76q108 0 180 -74.5t72 -185.5q0 -108 -72.5 -183t-179.5 -75t-178.5 74.5t-71.5 183.5zM70 1102q0 -105 67.5 -176.5t169.5 -71.5t171 72t69 176q0 106 -68 178t-172 72q-100 0 -168.5 -73t-68.5 -177zM86 690v10h446v-10h-446z" />
<glyph unicode="&#xbb;" horiz-adv-x="774" d="M90 231l334 310l-334 309l8 8l342 -317l-342 -318zM377 231l334 310l-334 309l8 8l342 -317l-342 -318z" />
<glyph unicode="&#xbc;" horiz-adv-x="1628" d="M154 1260l225 61h8v-735h215v-11h-446v11h219v723l-219 -60zM432 -14l404 659l409 676l10 -4l-413 -682l-400 -653zM942 231l418 512l10 -6l-409 -499h382v251l13 5v-256h149v-11h-149v-219h129v-10h-291v10h149v219h-397z" />
<glyph unicode="&#xbd;" horiz-adv-x="1628" d="M115 1260l225 61h8v-735h215v-11h-446v11h219v723l-219 -60zM393 -14l404 659l409 676l11 -4l-414 -682l-400 -653zM1004 6q46 179 256 307q115 70 169 126t54 128q0 74 -60 125t-157 51q-91 0 -154.5 -43.5t-73.5 -95.5q27 -5 27 -31q0 -20 -21 -20q-22 0 -22 31 q0 60 68.5 115t175.5 55q102 0 165.5 -54t63.5 -133q0 -40 -15 -75t-48.5 -67t-69.5 -58t-94 -62q-95 -57 -161.5 -133.5t-90.5 -163.5h473v156h12v-166h-491z" />
<glyph unicode="&#xbe;" horiz-adv-x="1628" d="M150 713q0 22 20 22q9 0 16 -6.5t7 -15.5q0 -19 -25 -25q15 -48 84 -81.5t147 -33.5q107 0 176.5 56t69.5 137q0 87 -75 137.5t-205 52.5h-37v11h37q109 0 183.5 54t74.5 132q0 72 -60.5 119t-156.5 47q-81 0 -142.5 -34t-75.5 -79q25 -6 25 -26q0 -8 -6.5 -14.5 t-16.5 -6.5q-20 0 -20 23q0 56 69.5 101.5t166.5 45.5q101 0 165 -49.5t64 -126.5q0 -71 -60 -125t-149 -65q112 -12 171.5 -64t59.5 -133q0 -86 -71.5 -144.5t-186.5 -58.5q-94 0 -171.5 44.5t-77.5 105.5zM465 -14l403 659l410 676l10 -4l-414 -682l-399 -653zM954 231 l418 512l10 -6l-409 -499h383v251l12 5v-256h150v-11h-150v-219h129v-10h-291v10h150v219h-398z" />
<glyph unicode="&#xbf;" horiz-adv-x="782" d="M41 332q0 141 103 243t274 138l2 336h10l2 -344q-174 -34 -276.5 -133.5t-102.5 -239.5q0 -139 97.5 -233.5t246.5 -94.5q204 0 301 154q29 44 33 94q-26 5 -26 31q0 8 5.5 14t14.5 6q20 0 20 -31q0 -63 -38 -122q-98 -156 -310 -156q-154 0 -255 97t-101 241zM401 1341 q0 11 7.5 18t17.5 7t17.5 -7t7.5 -18q0 -10 -7 -17t-18 -7t-18 7t-7 17z" />
<glyph unicode="&#xc0;" d="M2 0v10h186l488 1327h-221v11h471v-11h-226l488 -1327h186v-10h-438v10h240l-193 525h-590l-192 -525h239v-10h-438zM397 545h582l-291 792zM449 1618q0 8 8 8q6 0 14 -4l291 -143l-2 -4l-299 131q-12 6 -12 12z" />
<glyph unicode="&#xc1;" d="M2 0v10h186l488 1327h-221v11h471v-11h-226l488 -1327h186v-10h-438v10h240l-193 525h-590l-192 -525h239v-10h-438zM397 545h582l-291 792zM618 1479l291 143q8 4 15 4q8 0 8 -8q0 -6 -12 -12l-299 -131z" />
<glyph unicode="&#xc2;" d="M2 0v10h186l488 1327h-221v11h471v-11h-226l488 -1327h186v-10h-438v10h240l-193 525h-590l-192 -525h239v-10h-438zM397 545h582l-291 792zM449 1464l241 193l242 -193l-4 -4l-238 178l-237 -178z" />
<glyph unicode="&#xc3;" d="M2 0v10h186l488 1327h-221v11h471v-11h-226l488 -1327h186v-10h-438v10h240l-193 525h-590l-192 -525h239v-10h-438zM397 545h582l-291 792zM410 1497q26 66 64.5 102.5t82.5 36.5q34 0 63 -14t85 -53q82 -58 129 -58q39 0 74.5 31.5t58.5 89.5l8 -4q-25 -61 -62.5 -94 t-81.5 -33q-31 0 -60 13t-77 47q-55 38 -82.5 51.5t-56.5 13.5q-39 0 -76 -35t-61 -98z" />
<glyph unicode="&#xc4;" d="M2 0v10h186l488 1327h-221v11h471v-11h-226l488 -1327h186v-10h-438v10h240l-193 525h-590l-192 -525h239v-10h-438zM397 545h582l-291 792zM563 1538q0 10 7.5 17.5t17.5 7.5t17 -7t7 -18t-7 -18t-17 -7t-17.5 7.5t-7.5 17.5zM768 1538q0 10 7 17.5t18 7.5q10 0 17 -7 t7 -18t-7 -18t-17 -7q-11 0 -18 7.5t-7 17.5z" />
<glyph unicode="&#xc5;" d="M-10 0v10h198l488 1327h-221v11h180q-38 15 -60 48.5t-22 76.5q0 58 38 97.5t97 39.5t97 -39.5t38 -97.5q0 -43 -22.5 -77.5t-61.5 -47.5h187v-11h-226l488 -1327h198v-10h-462v10h252l-193 525h-590l-192 -525h252v-10h-463zM397 545h582l-291 792zM565 1473 q0 -53 35 -89t88 -36t88 36t35 89t-35 89.5t-88 36.5t-88 -36.5t-35 -89.5z" />
<glyph unicode="&#xc6;" horiz-adv-x="1699" d="M-74 0v10h178l719 1327h-205v11h949v-306h-13v295h-698v-643h524v-10h-524v-674h698v295h13v-305h-949v10h226v527h-443l-284 -527h194v-10h-385zM408 547h436v790h-8z" />
<glyph unicode="&#xc7;" horiz-adv-x="1402" d="M106 668q0 193 88 355t243.5 256.5t344.5 94.5q106 0 200.5 -32t158 -82t100.5 -110.5t37 -119.5q0 -19 -7.5 -29t-17.5 -10q-20 0 -20 23q0 12 8.5 19t22.5 7q-1 40 -22.5 84.5t-63.5 87t-99 76.5t-134.5 55t-162.5 21q-186 0 -338.5 -93t-238.5 -252.5t-86 -350.5 q0 -192 85 -348.5t237.5 -246t340.5 -89.5q145 0 273 59t219 164l8 -8q-198 -226 -528 -226l-23 -131q89 -3 142 -37t53 -94q0 -62 -43.5 -97.5t-128.5 -35.5q-93 0 -179 39l3 10q86 -39 176 -39q79 0 119 33t40 90q0 54 -47.5 85t-134.5 36h-10l-4 4l26 137 q-183 11 -328.5 103.5t-227 247.5t-81.5 344z" />
<glyph unicode="&#xc8;" horiz-adv-x="1138" d="M68 0v10h215v1327h-215v11h938v-306h-13v295h-698v-643h524v-10h-524v-674h698v295h13v-305h-938zM346 1618q0 8 8 8q7 0 15 -4l290 -143l-2 -4l-299 131q-12 6 -12 12z" />
<glyph unicode="&#xc9;" horiz-adv-x="1138" d="M68 0v10h215v1327h-215v11h938v-306h-13v295h-698v-643h524v-10h-524v-674h698v295h13v-305h-938zM516 1479l291 143q8 4 14 4q8 0 8 -8q0 -6 -12 -12l-299 -131z" />
<glyph unicode="&#xca;" horiz-adv-x="1138" d="M68 0v10h215v1327h-215v11h938v-306h-13v295h-698v-643h524v-10h-524v-674h698v295h13v-305h-938zM346 1464l242 193l241 -193l-4 -4l-237 178l-238 -178z" />
<glyph unicode="&#xcb;" horiz-adv-x="1138" d="M68 0v10h215v1327h-215v11h938v-306h-13v295h-698v-643h524v-10h-524v-674h698v295h13v-305h-938zM461 1538q0 11 7 18t17 7q11 0 18 -7.5t7 -17.5t-7 -17.5t-18 -7.5q-10 0 -17 7t-7 18zM666 1538q0 11 7 18t17 7t17.5 -7.5t7.5 -17.5t-7.5 -17.5t-17.5 -7.5t-17 7 t-7 18z" />
<glyph unicode="&#xcc;" horiz-adv-x="598" d="M57 1618q0 8 9 8q6 0 14 -4l291 -143l-2 -4l-299 131q-13 6 -13 12zM68 0v10h225v1327h-225v11h462v-11h-225v-1327h225v-10h-462z" />
<glyph unicode="&#xcd;" horiz-adv-x="598" d="M68 0v10h225v1327h-225v11h462v-11h-225v-1327h225v-10h-462zM227 1479l291 143q8 4 14 4q9 0 9 -8q0 -6 -13 -12l-299 -131z" />
<glyph unicode="&#xce;" horiz-adv-x="598" d="M57 1464l242 193l242 -193l-4 -4l-238 178l-238 -178zM68 0v10h225v1327h-225v11h462v-11h-225v-1327h225v-10h-462z" />
<glyph unicode="&#xcf;" horiz-adv-x="598" d="M68 0v10h225v1327h-225v11h462v-11h-225v-1327h225v-10h-462zM172 1538q0 10 7 17.5t18 7.5q10 0 17 -7t7 -18t-7 -18t-17 -7q-11 0 -18 7.5t-7 17.5zM377 1538q0 11 7 18t17 7q11 0 18 -7.5t7 -17.5t-7 -17.5t-18 -7.5q-10 0 -17 7t-7 18z" />
<glyph unicode="&#xd0;" horiz-adv-x="1433" d="M68 0v10h215v676h-174v10h174v641h-215v11h503q178 0 320 -49.5t234.5 -139t141 -212t48.5 -269.5q0 -149 -48.5 -273.5t-140.5 -214.5t-232 -140t-316 -50h-510zM295 10h283q173 0 310.5 49t228 137.5t138.5 211t48 270.5q0 298 -191.5 478.5t-540.5 180.5h-276v-641 h354v-10h-354v-676z" />
<glyph unicode="&#xd1;" horiz-adv-x="1505" d="M68 0v10h215v1327h-215v11h225l940 -1338v1327h-219v11h446v-11h-215v-1349h-10l-940 1337v-1315h225v-10h-452zM475 1497q26 66 65 102.5t83 36.5q33 0 61.5 -13.5t85.5 -53.5q82 -58 129 -58q39 0 74.5 31.5t58.5 89.5l8 -4q-51 -127 -143 -127q-31 0 -60 13t-77 47 q-55 38 -82.5 51.5t-56.5 13.5q-39 0 -76.5 -35t-61.5 -98z" />
<glyph unicode="&#xd2;" horiz-adv-x="1560" d="M106 674q0 192 87.5 352.5t242.5 254t344 93.5t344 -93.5t242.5 -254t87.5 -352.5t-87.5 -353t-242.5 -254.5t-344 -93.5t-344 93.5t-242.5 254.5t-87.5 353zM119 674q0 -142 50.5 -269t137.5 -219.5t210.5 -147t262.5 -54.5t262.5 54.5t211 147t138 219.5t50.5 269 t-50.5 269t-138 219.5t-211 147t-262.5 54.5t-262.5 -54.5t-210.5 -147t-137.5 -219.5t-50.5 -269zM539 1618q0 8 8 8q6 0 14 -4l291 -143l-2 -4l-299 131q-12 6 -12 12z" />
<glyph unicode="&#xd3;" horiz-adv-x="1560" d="M106 674q0 192 87.5 352.5t242.5 254t344 93.5t344 -93.5t242.5 -254t87.5 -352.5t-87.5 -353t-242.5 -254.5t-344 -93.5t-344 93.5t-242.5 254.5t-87.5 353zM119 674q0 -142 50.5 -269t137.5 -219.5t210.5 -147t262.5 -54.5t262.5 54.5t211 147t138 219.5t50.5 269 t-50.5 269t-138 219.5t-211 147t-262.5 54.5t-262.5 -54.5t-210.5 -147t-137.5 -219.5t-50.5 -269zM709 1479l290 143q8 4 15 4q8 0 8 -8q0 -6 -12 -12l-299 -131z" />
<glyph unicode="&#xd4;" horiz-adv-x="1560" d="M106 674q0 192 87.5 352.5t242.5 254t344 93.5t344 -93.5t242.5 -254t87.5 -352.5t-87.5 -353t-242.5 -254.5t-344 -93.5t-344 93.5t-242.5 254.5t-87.5 353zM119 674q0 -142 50.5 -269t137.5 -219.5t210.5 -147t262.5 -54.5t262.5 54.5t211 147t138 219.5t50.5 269 t-50.5 269t-138 219.5t-211 147t-262.5 54.5t-262.5 -54.5t-210.5 -147t-137.5 -219.5t-50.5 -269zM539 1464l241 193l242 -193l-4 -4l-238 178l-237 -178z" />
<glyph unicode="&#xd5;" horiz-adv-x="1560" d="M106 674q0 192 87.5 352.5t242.5 254t344 93.5t344 -93.5t242.5 -254t87.5 -352.5t-87.5 -353t-242.5 -254.5t-344 -93.5t-344 93.5t-242.5 254.5t-87.5 353zM119 674q0 -142 50.5 -269t137.5 -219.5t210.5 -147t262.5 -54.5t262.5 54.5t211 147t138 219.5t50.5 269 t-50.5 269t-138 219.5t-211 147t-262.5 54.5t-262.5 -54.5t-210.5 -147t-137.5 -219.5t-50.5 -269zM500 1497q26 66 64.5 102.5t82.5 36.5q34 0 63 -14t85 -53q82 -58 129 -58q39 0 74.5 31.5t58.5 89.5l8 -4q-51 -127 -143 -127q-31 0 -61 13t-77 47q-55 38 -82.5 51.5 t-56.5 13.5q-39 0 -76 -35t-61 -98z" />
<glyph unicode="&#xd6;" horiz-adv-x="1560" d="M106 674q0 192 87.5 352.5t242.5 254t344 93.5t344 -93.5t242.5 -254t87.5 -352.5t-87.5 -353t-242.5 -254.5t-344 -93.5t-344 93.5t-242.5 254.5t-87.5 353zM119 674q0 -142 50.5 -269t137.5 -219.5t210.5 -147t262.5 -54.5t262.5 54.5t211 147t138 219.5t50.5 269 t-50.5 269t-138 219.5t-211 147t-262.5 54.5t-262.5 -54.5t-210.5 -147t-137.5 -219.5t-50.5 -269zM653 1538q0 10 7.5 17.5t17.5 7.5t17 -7t7 -18t-7 -18t-17 -7t-17.5 7.5t-7.5 17.5zM858 1538q0 10 7 17.5t18 7.5q10 0 17 -7t7 -18t-7 -18t-17 -7q-11 0 -18 7.5t-7 17.5z " />
<glyph unicode="&#xd7;" horiz-adv-x="745" d="M102 272l265 265l-265 264l9 8l264 -264l264 264l8 -8l-264 -264l264 -265l-8 -8l-264 264l-264 -264z" />
<glyph unicode="&#xd8;" horiz-adv-x="1560" d="M106 674q0 192 87.5 352.5t242.5 254t344 93.5q251 0 439 -164l161 189l9 -6l-162 -189q107 -98 167 -235.5t60 -294.5q0 -192 -87.5 -353t-242.5 -254.5t-344 -93.5q-133 0 -250 47.5t-206 133.5l-172 -201l-9 6l172 201q-99 99 -154 231t-55 283zM119 674 q0 -149 53.5 -278.5t151.5 -227.5l886 1034q-183 162 -430 162q-139 0 -262.5 -54.5t-210.5 -147t-137.5 -219.5t-50.5 -269zM330 162q191 -178 450 -178q139 0 262.5 54.5t211 147t138 219.5t50.5 269q0 154 -59 289.5t-164 232.5z" />
<glyph unicode="&#xd9;" horiz-adv-x="1363" d="M41 1337v11h442v-11h-215v-868q0 -238 105.5 -361.5t308.5 -123.5t308.5 123.5t105.5 361.5v868h-215v11h442v-11h-215v-868q0 -242 -110 -369t-316 -127q-207 0 -316.5 126.5t-109.5 369.5v868h-215zM440 1618q0 8 9 8q6 0 14 -4l291 -143l-2 -4l-299 131q-13 6 -13 12z " />
<glyph unicode="&#xda;" horiz-adv-x="1363" d="M41 1337v11h442v-11h-215v-868q0 -238 105.5 -361.5t308.5 -123.5t308.5 123.5t105.5 361.5v868h-215v11h442v-11h-215v-868q0 -242 -110 -369t-316 -127q-207 0 -316.5 126.5t-109.5 369.5v868h-215zM610 1479l291 143q8 4 14 4q9 0 9 -8q0 -6 -13 -12l-299 -131z" />
<glyph unicode="&#xdb;" horiz-adv-x="1363" d="M41 1337v11h442v-11h-215v-868q0 -238 105.5 -361.5t308.5 -123.5t308.5 123.5t105.5 361.5v868h-215v11h442v-11h-215v-868q0 -242 -110 -369t-316 -127q-207 0 -316.5 126.5t-109.5 369.5v868h-215zM440 1464l242 193l242 -193l-4 -4l-238 178l-238 -178z" />
<glyph unicode="&#xdc;" horiz-adv-x="1363" d="M41 1337v11h442v-11h-215v-868q0 -238 105.5 -361.5t308.5 -123.5t308.5 123.5t105.5 361.5v868h-215v11h442v-11h-215v-868q0 -242 -110 -369t-316 -127q-207 0 -316.5 126.5t-109.5 369.5v868h-215zM555 1538q0 10 7.5 17.5t17.5 7.5t17 -7t7 -18t-7 -18t-17 -7 t-17.5 7.5t-7.5 17.5zM760 1538q0 11 7 18t17 7t17.5 -7.5t7.5 -17.5t-7.5 -17.5t-17.5 -7.5t-17 7t-7 18z" />
<glyph unicode="&#xdd;" horiz-adv-x="1269" d="M0 1337v11h463v-11h-244l416 -743l416 743h-244v11h463v-11h-205l-424 -753v-574h225v-10h-463v10h226v574l-424 753h-205zM563 1479l291 143q8 4 14 4q9 0 9 -8q0 -6 -13 -12l-299 -131z" />
<glyph unicode="&#xde;" horiz-adv-x="1138" d="M68 0v10h225v1327h-225v11h462v-11h-225v-278q126 8 281 8q226 0 346.5 -105t120.5 -276t-120.5 -276t-346.5 -105q-155 0 -281 8v-303h225v-10h-462zM305 324q142 -9 281 -9q220 0 337 102.5t117 268.5t-117 268.5t-337 102.5q-155 0 -281 -8v-725z" />
<glyph unicode="&#xdf;" horiz-adv-x="1024" d="M59 0v10h170v807h-170v10h170v310q0 157 33 229q30 66 90.5 104.5t143.5 38.5q122 0 194 -71t72 -193q0 -49 -13 -92t-40.5 -81.5t-48 -61.5t-56.5 -58q-5 -5 -31.5 -30.5t-37 -37.5t-28.5 -35t-25 -45.5t-7 -47.5q0 -39 19 -76.5t56.5 -71.5t65.5 -54.5t72 -49.5 q47 -31 67 -45t60 -47t58.5 -58.5t34.5 -63.5t16 -79q0 -100 -72.5 -161.5t-204.5 -61.5q-91 0 -147 30.5t-56 65.5q0 22 21 22q20 0 20 -22q0 -18 -14 -29q50 -57 176 -57q127 0 195.5 59t68.5 154q0 39 -15.5 76.5t-34 62.5t-57 57t-59 45.5t-65.5 43.5q-47 31 -74 51 t-66 55.5t-58 74t-19 79.5q0 16 4 32t8.5 28t15 28t16.5 25t21 24.5t21 21.5t23 22t20 19q36 34 56.5 56.5t48 60t40.5 80.5t13 92q0 118 -69 186t-185 68q-79 0 -137 -37.5t-87 -101.5q-30 -64 -30 -223v-1137h-183z" />
<glyph unicode="&#xe0;" horiz-adv-x="915" d="M86 221q0 105 84.5 174.5t224.5 69.5q143 0 297 -62v156q0 119 -45 178q-33 43 -91.5 67.5t-133.5 24.5q-98 0 -169 -38t-93 -82q22 -6 22 -27q0 -9 -6 -16t-16 -7q-21 0 -21 27q0 43 82.5 98.5t200.5 55.5q79 0 141 -26.5t96 -72.5q46 -63 46 -180v-551h169v-10h-182 v176q-65 -83 -152.5 -135.5t-187.5 -52.5q-131 0 -198.5 66.5t-67.5 166.5zM98 221q0 -94 65 -158.5t189 -64.5q101 0 187.5 54.5t152.5 140.5v198q-154 64 -297 64q-135 0 -216 -67t-81 -167zM182 1147q0 8 8 8q7 0 15 -4l291 -143l-2 -4l-299 131q-13 7 -13 12z" />
<glyph unicode="&#xe1;" horiz-adv-x="915" d="M86 221q0 105 84.5 174.5t224.5 69.5q143 0 297 -62v156q0 119 -45 178q-33 43 -91.5 67.5t-133.5 24.5q-98 0 -169 -38t-93 -82q22 -6 22 -27q0 -9 -6 -16t-16 -7q-21 0 -21 27q0 43 82.5 98.5t200.5 55.5q79 0 141 -26.5t96 -72.5q46 -63 46 -180v-551h169v-10h-182 v176q-65 -83 -152.5 -135.5t-187.5 -52.5q-131 0 -198.5 66.5t-67.5 166.5zM98 221q0 -94 65 -158.5t189 -64.5q101 0 187.5 54.5t152.5 140.5v198q-154 64 -297 64q-135 0 -216 -67t-81 -167zM352 1008l291 143q8 4 14 4q9 0 9 -8q0 -5 -13 -12l-299 -131z" />
<glyph unicode="&#xe2;" horiz-adv-x="915" d="M86 221q0 105 84.5 174.5t224.5 69.5q143 0 297 -62v156q0 119 -45 178q-33 43 -91.5 67.5t-133.5 24.5q-98 0 -169 -38t-93 -82q22 -6 22 -27q0 -9 -6 -16t-16 -7q-21 0 -21 27q0 43 82.5 98.5t200.5 55.5q79 0 141 -26.5t96 -72.5q46 -63 46 -180v-551h169v-10h-182 v176q-65 -83 -152.5 -135.5t-187.5 -52.5q-131 0 -198.5 66.5t-67.5 166.5zM98 221q0 -94 65 -158.5t189 -64.5q101 0 187.5 54.5t152.5 140.5v198q-154 64 -297 64q-135 0 -216 -67t-81 -167zM182 993l242 193l242 -193l-4 -4l-238 178l-238 -178z" />
<glyph unicode="&#xe3;" horiz-adv-x="915" d="M86 221q0 105 84.5 174.5t224.5 69.5q143 0 297 -62v156q0 119 -45 178q-33 43 -91.5 67.5t-133.5 24.5q-98 0 -169 -38t-93 -82q22 -6 22 -27q0 -9 -6 -16t-16 -7q-21 0 -21 27q0 43 82.5 98.5t200.5 55.5q79 0 141 -26.5t96 -72.5q46 -63 46 -180v-551h169v-10h-182 v176q-65 -83 -152.5 -135.5t-187.5 -52.5q-131 0 -198.5 66.5t-67.5 166.5zM98 221q0 -94 65 -158.5t189 -64.5q101 0 187.5 54.5t152.5 140.5v198q-154 64 -297 64q-135 0 -216 -67t-81 -167zM143 1026q26 66 65 102.5t83 36.5q33 0 61.5 -13.5t85.5 -53.5q82 -58 129 -58 q39 0 74.5 31.5t58.5 89.5l9 -4q-25 -61 -62.5 -94t-81.5 -33q-31 0 -60 13t-77 47q-55 38 -82.5 51.5t-56.5 13.5q-39 0 -76 -35t-61 -98z" />
<glyph unicode="&#xe4;" horiz-adv-x="915" d="M86 221q0 105 84.5 174.5t224.5 69.5q143 0 297 -62v156q0 119 -45 178q-33 43 -91.5 67.5t-133.5 24.5q-98 0 -169 -38t-93 -82q22 -6 22 -27q0 -9 -6 -16t-16 -7q-21 0 -21 27q0 43 82.5 98.5t200.5 55.5q79 0 141 -26.5t96 -72.5q46 -63 46 -180v-551h169v-10h-182 v176q-65 -83 -152.5 -135.5t-187.5 -52.5q-131 0 -198.5 66.5t-67.5 166.5zM98 221q0 -94 65 -158.5t189 -64.5q101 0 187.5 54.5t152.5 140.5v198q-154 64 -297 64q-135 0 -216 -67t-81 -167zM297 1067q0 11 7.5 18t17.5 7t17 -7t7 -18t-7 -18t-17 -7t-17.5 7t-7.5 18z M502 1067q0 11 7 18t17 7t17.5 -7t7.5 -18t-7.5 -18t-17.5 -7t-17 7t-7 18z" />
<glyph unicode="&#xe5;" horiz-adv-x="915" d="M86 221q0 105 84.5 174.5t224.5 69.5q143 0 297 -62v156q0 119 -45 178q-33 43 -91.5 67.5t-133.5 24.5q-98 0 -169 -38t-93 -82q22 -6 22 -27q0 -9 -6 -16t-16 -7q-21 0 -21 27q0 43 82.5 98.5t200.5 55.5q79 0 141 -26.5t96 -72.5q46 -63 46 -180v-551h169v-10h-182 v176q-65 -83 -152.5 -135.5t-187.5 -52.5q-131 0 -198.5 66.5t-67.5 166.5zM98 221q0 -94 65 -158.5t189 -64.5q101 0 187.5 54.5t152.5 140.5v198q-154 64 -297 64q-135 0 -216 -67t-81 -167zM289 1151q0 58 38 97.5t97 39.5t97 -39.5t38 -97.5t-38 -96.5t-97 -38.5 t-97 38.5t-38 96.5zM301 1151q0 -53 35 -89t88 -36t88 36t35 89t-35 90t-88 37t-88 -37t-35 -90z" />
<glyph unicode="&#xe6;" horiz-adv-x="1513" d="M86 221q0 105 84.5 174.5t224.5 69.5q143 0 297 -62v156q0 119 -45 178q-33 43 -91.5 67.5t-133.5 24.5q-98 0 -169 -38t-93 -82q22 -6 22 -27q0 -9 -6 -16t-16 -7q-21 0 -21 27q0 43 82.5 98.5t200.5 55.5q79 0 141 -26.5t96 -72.5q46 -63 46 -180v-37q29 142 128 229 t232 87q90 0 160.5 -33t112.5 -89.5t63.5 -126.5t21.5 -149v-6h-718v-16q0 -198 107.5 -310t283.5 -112q156 0 282 92v-12q-129 -90 -282 -90q-126 0 -219.5 56.5t-143.5 160.5q-65 -94 -165 -155.5t-216 -61.5q-131 0 -198.5 66.5t-67.5 166.5zM98 221q0 -94 65 -158.5 t189 -64.5q114 0 214 62.5t163 156.5q-34 83 -37 174q-154 64 -297 64q-135 0 -216 -67t-81 -167zM705 446h706q-1 77 -22 144t-61.5 121.5t-108 86t-154.5 31.5q-147 0 -248.5 -107.5t-111.5 -275.5z" />
<glyph unicode="&#xe7;" horiz-adv-x="909" d="M88 408q0 186 120.5 309t287.5 123q132 0 221.5 -71.5t89.5 -156.5q0 -30 -21 -30q-10 0 -16 7t-6 17t7.5 19t21.5 10q-11 75 -95.5 134.5t-201.5 59.5q-162 0 -279 -120t-117 -301q0 -187 119.5 -298.5t296.5 -111.5q171 0 277 92v-12q-107 -90 -277 -90h-33l-26 -133 q89 -3 141.5 -37t52.5 -94q0 -62 -43.5 -98t-128.5 -36q-92 0 -178 39l2 11q86 -39 176 -39q79 0 119.5 33t40.5 90q0 54 -47.5 84.5t-134.5 35.5h-11l-4 4l29 142q-168 14 -275.5 126t-107.5 292z" />
<glyph unicode="&#xe8;" horiz-adv-x="925" d="M90 420q0 181 111.5 300.5t269.5 119.5q91 0 162 -33t114.5 -89.5t66 -126.5t22.5 -149v-6h-734v-16q0 -195 112 -308.5t290 -113.5q163 0 287 90v-12q-126 -88 -287 -88q-183 0 -298.5 116.5t-115.5 315.5zM102 446h721q-1 77 -22.5 144.5t-63.5 121.5t-110.5 85.5 t-155.5 31.5q-148 0 -253.5 -108t-115.5 -275zM221 1147q0 8 8 8q7 0 15 -4l291 -143l-3 -4l-299 131q-12 6 -12 12z" />
<glyph unicode="&#xe9;" horiz-adv-x="925" d="M90 420q0 181 111.5 300.5t269.5 119.5q91 0 162 -33t114.5 -89.5t66 -126.5t22.5 -149v-6h-734v-16q0 -195 112 -308.5t290 -113.5q163 0 287 90v-12q-126 -88 -287 -88q-183 0 -298.5 116.5t-115.5 315.5zM102 446h721q-1 77 -22.5 144.5t-63.5 121.5t-110.5 85.5 t-155.5 31.5q-148 0 -253.5 -108t-115.5 -275zM391 1008l291 143q8 4 14 4q9 0 9 -8q0 -5 -13 -12l-299 -131z" />
<glyph unicode="&#xea;" horiz-adv-x="925" d="M90 420q0 181 111.5 300.5t269.5 119.5q91 0 162 -33t114.5 -89.5t66 -126.5t22.5 -149v-6h-734v-16q0 -195 112 -308.5t290 -113.5q163 0 287 90v-12q-126 -88 -287 -88q-183 0 -298.5 116.5t-115.5 315.5zM102 446h721q-1 77 -22.5 144.5t-63.5 121.5t-110.5 85.5 t-155.5 31.5q-148 0 -253.5 -108t-115.5 -275zM221 993l242 193l242 -193l-5 -4l-237 178l-238 -178z" />
<glyph unicode="&#xeb;" horiz-adv-x="925" d="M90 420q0 181 111.5 300.5t269.5 119.5q91 0 162 -33t114.5 -89.5t66 -126.5t22.5 -149v-6h-734v-16q0 -195 112 -308.5t290 -113.5q163 0 287 90v-12q-126 -88 -287 -88q-183 0 -298.5 116.5t-115.5 315.5zM102 446h721q-1 77 -22.5 144.5t-63.5 121.5t-110.5 85.5 t-155.5 31.5q-148 0 -253.5 -108t-115.5 -275zM336 1067q0 11 7 18t17 7t17.5 -7t7.5 -18t-7.5 -18t-17.5 -7t-17 7t-7 18zM541 1067q0 11 7 18t17 7q11 0 18 -7t7 -18t-7 -18t-18 -7q-10 0 -17 7t-7 18z" />
<glyph unicode="&#xec;" horiz-adv-x="509" d="M-33 1147q0 8 8 8q7 0 15 -4l291 -143l-2 -4l-299 131q-13 7 -13 12zM59 0v10h170v807h-170v10h183v-817h172v-10h-355z" />
<glyph unicode="&#xed;" horiz-adv-x="509" d="M59 0v10h170v807h-170v10h183v-817h172v-10h-355zM137 1008l291 143q8 4 14 4q9 0 9 -8q0 -5 -13 -12l-299 -131z" />
<glyph unicode="&#xee;" horiz-adv-x="509" d="M-33 993l242 193l242 -193l-5 -4l-237 178l-238 -178zM59 0v10h170v807h-170v10h183v-817h172v-10h-355z" />
<glyph unicode="&#xef;" horiz-adv-x="509" d="M59 0v10h170v807h-170v10h183v-817h172v-10h-355zM82 1067q0 11 7 18t17 7t17.5 -7t7.5 -18t-7.5 -18t-17.5 -7t-17 7t-7 18zM287 1067q0 11 7 18t17 7q11 0 18 -7t7 -18t-7 -18t-18 -7q-10 0 -17 7t-7 18z" />
<glyph unicode="&#xf0;" horiz-adv-x="1017" d="M90 410q0 115 51.5 211t147.5 153t217 57q181 0 297.5 -125t116.5 -294v-11q6 55 6 131q0 200 -73.5 390.5t-213.5 345.5l-301 -275l-6 8l301 273q-94 98 -201 159.5t-196 69.5q-3 -16 -11.5 -23t-17.5 -7q-6 0 -11.5 4.5t-5.5 11.5q0 24 37 24q21 0 60 -8 q83 -19 176.5 -78t177.5 -147l203 186l6 -8l-203 -184q291 -318 291 -742q0 -241 -98 -376q-57 -80 -143.5 -124t-194.5 -44q-179 0 -295.5 121.5t-116.5 300.5zM102 410q0 -174 113.5 -293t286.5 -119q102 0 185.5 42t139.5 120q80 115 80 252q0 108 -49.5 201 t-142.5 150.5t-209 57.5q-177 0 -290.5 -119.5t-113.5 -291.5z" />
<glyph unicode="&#xf1;" horiz-adv-x="1058" d="M59 0v10h170v807h-170v10h183v-213q70 95 163.5 160.5t198.5 65.5q77 0 131.5 -32.5t81.5 -88.5q31 -61 31 -193v-516h170v-10h-354v10h172v516q0 130 -29 187q-26 53 -78 84.5t-125 31.5q-103 0 -197 -66.5t-165 -164.5v-588h172v-10h-355zM258 1026q26 66 65 102.5 t83 36.5q33 0 61.5 -13.5t85.5 -53.5q82 -58 129 -58q39 0 74.5 31.5t58.5 89.5l8 -4q-51 -127 -143 -127q-30 0 -59.5 13t-77.5 47q-55 38 -83 51.5t-57 13.5q-39 0 -76 -35t-61 -98z" />
<glyph unicode="&#xf2;" horiz-adv-x="1003" d="M90 414q0 178 119 302t293 124q177 0 294 -122.5t117 -303.5q0 -178 -118.5 -302t-292.5 -124q-177 0 -294.5 122.5t-117.5 303.5zM102 414q0 -176 114 -296t286 -120q169 0 284 121.5t115 294.5q0 176 -113.5 295.5t-285.5 119.5q-169 0 -284.5 -121t-115.5 -294z M260 1147q0 8 8 8q7 0 15 -4l290 -143l-2 -4l-299 131q-12 6 -12 12z" />
<glyph unicode="&#xf3;" horiz-adv-x="1003" d="M90 414q0 178 119 302t293 124q177 0 294 -122.5t117 -303.5q0 -178 -118.5 -302t-292.5 -124q-177 0 -294.5 122.5t-117.5 303.5zM102 414q0 -176 114 -296t286 -120q169 0 284 121.5t115 294.5q0 176 -113.5 295.5t-285.5 119.5q-169 0 -284.5 -121t-115.5 -294z M430 1008l291 143q8 4 14 4q8 0 8 -8q0 -6 -12 -12l-299 -131z" />
<glyph unicode="&#xf4;" horiz-adv-x="1003" d="M90 414q0 178 119 302t293 124q177 0 294 -122.5t117 -303.5q0 -178 -118.5 -302t-292.5 -124q-177 0 -294.5 122.5t-117.5 303.5zM102 414q0 -176 114 -296t286 -120q169 0 284 121.5t115 294.5q0 176 -113.5 295.5t-285.5 119.5q-169 0 -284.5 -121t-115.5 -294z M260 993l242 193l241 -193l-4 -4l-237 178l-238 -178z" />
<glyph unicode="&#xf5;" horiz-adv-x="1003" d="M90 414q0 178 119 302t293 124q177 0 294 -122.5t117 -303.5q0 -178 -118.5 -302t-292.5 -124q-177 0 -294.5 122.5t-117.5 303.5zM102 414q0 -176 114 -296t286 -120q169 0 284 121.5t115 294.5q0 176 -113.5 295.5t-285.5 119.5q-169 0 -284.5 -121t-115.5 -294z M221 1026q26 66 65 102.5t83 36.5q33 0 61.5 -13.5t85.5 -53.5q82 -58 129 -58q39 0 74.5 31.5t58.5 89.5l8 -4q-51 -127 -143 -127q-31 0 -60 13t-77 47q-55 38 -82.5 51.5t-56.5 13.5q-39 0 -76.5 -35t-61.5 -98z" />
<glyph unicode="&#xf6;" horiz-adv-x="1003" d="M90 414q0 178 119 302t293 124q177 0 294 -122.5t117 -303.5q0 -178 -118.5 -302t-292.5 -124q-177 0 -294.5 122.5t-117.5 303.5zM102 414q0 -176 114 -296t286 -120q169 0 284 121.5t115 294.5q0 176 -113.5 295.5t-285.5 119.5q-169 0 -284.5 -121t-115.5 -294z M375 1067q0 11 7 18t17 7q11 0 18 -7t7 -18t-7 -18t-18 -7q-10 0 -17 7t-7 18zM580 1067q0 11 7 18t17 7t17.5 -7t7.5 -18t-7.5 -18t-17.5 -7t-17 7t-7 18z" />
<glyph unicode="&#xf7;" horiz-adv-x="745" d="M90 528v11h565v-11h-565zM348 301q0 11 7 18t18 7q10 0 17 -7t7 -18t-7 -18t-17 -7q-11 0 -18 7t-7 18zM348 766q0 10 7 17.5t18 7.5q10 0 17 -7t7 -18t-7 -18t-17 -7q-11 0 -18 7.5t-7 17.5z" />
<glyph unicode="&#xf8;" horiz-adv-x="1003" d="M90 414q0 178 119 302t293 124q155 0 268 -99l121 142l8 -9l-121 -141q135 -125 135 -319q0 -178 -118.5 -302t-292.5 -124q-167 0 -279 106l-106 -125l-8 8l106 125q-125 122 -125 312zM102 414q0 -185 121 -303l539 622q-107 96 -260 96q-169 0 -284.5 -121 t-115.5 -294zM231 102q110 -104 271 -104q169 0 284 121.5t115 294.5q0 93 -34.5 173t-96.5 138z" />
<glyph unicode="&#xf9;" horiz-adv-x="1048" d="M41 817v10h182v-526q0 -129 29 -186q26 -53 78.5 -85t124.5 -32q103 0 197 66.5t165 164.5v588h-172v10h184v-817h170v-10h-182v211q-71 -94 -164.5 -158.5t-197.5 -64.5q-77 0 -131.5 32.5t-81.5 88.5q-31 61 -31 192v516h-170zM266 1147q0 8 8 8q7 0 15 -4l291 -143 l-2 -4l-299 131q-13 7 -13 12z" />
<glyph unicode="&#xfa;" horiz-adv-x="1048" d="M41 817v10h182v-526q0 -129 29 -186q26 -53 78.5 -85t124.5 -32q103 0 197 66.5t165 164.5v588h-172v10h184v-817h170v-10h-182v211q-71 -94 -164.5 -158.5t-197.5 -64.5q-77 0 -131.5 32.5t-81.5 88.5q-31 61 -31 192v516h-170zM436 1008l291 143q8 4 14 4q9 0 9 -8 q0 -5 -13 -12l-299 -131z" />
<glyph unicode="&#xfb;" horiz-adv-x="1048" d="M41 817v10h182v-526q0 -129 29 -186q26 -53 78.5 -85t124.5 -32q103 0 197 66.5t165 164.5v588h-172v10h184v-817h170v-10h-182v211q-71 -94 -164.5 -158.5t-197.5 -64.5q-77 0 -131.5 32.5t-81.5 88.5q-31 61 -31 192v516h-170zM266 993l242 193l242 -193l-5 -4 l-237 178l-238 -178z" />
<glyph unicode="&#xfc;" horiz-adv-x="1048" d="M41 817v10h182v-526q0 -129 29 -186q26 -53 78.5 -85t124.5 -32q103 0 197 66.5t165 164.5v588h-172v10h184v-817h170v-10h-182v211q-71 -94 -164.5 -158.5t-197.5 -64.5q-77 0 -131.5 32.5t-81.5 88.5q-31 61 -31 192v516h-170zM381 1067q0 11 7.5 18t17.5 7t17 -7 t7 -18t-7 -18t-17 -7t-17.5 7t-7.5 18zM586 1067q0 11 7 18t17 7t17.5 -7t7.5 -18t-7.5 -18t-17.5 -7t-17 7t-7 18z" />
<glyph unicode="&#xfd;" horiz-adv-x="942" d="M-6 817v10h346v-10h-190l323 -790l324 790h-191v10h346v-10h-143l-367 -893q-68 -165 -118 -235q-72 -99 -170 -99q-34 0 -57 13.5t-23 31.5q0 23 20 23q14 0 19.5 -16t-7.5 -29q16 -12 48 -12q92 0 159 92q49 67 117 229l37 90l-330 805h-143zM401 1008l291 143 q8 4 15 4q8 0 8 -8q0 -5 -13 -12l-299 -131z" />
<glyph unicode="&#xfe;" horiz-adv-x="1048" d="M16 -391h170v1843h-170v10h183v-800q161 178 354 178q175 0 290 -121t115 -305q0 -182 -120 -304t-293 -122q-85 0 -178 42t-168 107v-528h172v-10h-355v10zM199 152q72 -66 167.5 -110t178.5 -44q167 0 284 119.5t117 296.5q0 179 -111.5 297t-281.5 118 q-193 0 -354 -182v-495z" />
<glyph unicode="&#xff;" horiz-adv-x="942" d="M-6 817v10h346v-10h-190l323 -790l324 790h-191v10h346v-10h-143l-367 -893q-68 -165 -118 -235q-72 -99 -170 -99q-34 0 -57 13.5t-23 31.5q0 23 20 23q14 0 19.5 -16t-7.5 -29q16 -12 48 -12q92 0 159 92q49 67 117 229l37 90l-330 805h-143zM346 1067q0 11 7 18t18 7 q10 0 17 -7t7 -18t-7 -18t-17 -7q-11 0 -18 7t-7 18zM551 1067q0 11 7 18t17 7q11 0 18 -7t7 -18t-7 -18t-18 -7q-10 0 -17 7t-7 18z" />
<glyph unicode="&#x152;" horiz-adv-x="1818" d="M106 670q0 149 49 273.5t141 214.5t232 140t316 50h842v-306h-13v295h-698v-643h524v-10h-524v-674h698v295h13v-305h-836q-178 0 -320 49.5t-234.5 139t-141 212t-48.5 269.5zM119 670q0 -146 47.5 -266.5t138.5 -208.5t230 -136.5t315 -48.5h113v1327h-119 q-173 0 -310.5 -49t-228 -137.5t-138.5 -210.5t-48 -270z" />
<glyph unicode="&#x153;" horiz-adv-x="1736" d="M90 414q0 178 119 302t293 124q159 0 271 -102t134 -259q17 158 123.5 259.5t251.5 101.5q91 0 162 -33t114.5 -89.5t66 -126.5t22.5 -149v-6h-734v-16q0 -195 112 -308.5t290 -113.5q163 0 287 90v-12q-126 -88 -287 -88q-166 0 -277 97t-131 267 q-22 -157 -134.5 -260.5t-270.5 -103.5q-177 0 -294.5 122.5t-117.5 303.5zM102 414q0 -176 114 -296t286 -120q169 0 284 121.5t115 294.5q0 176 -113.5 295.5t-285.5 119.5q-169 0 -284.5 -121t-115.5 -294zM913 446h721q-1 77 -22.5 144.5t-63.5 121.5t-110.5 85.5 t-155.5 31.5q-148 0 -253.5 -108t-115.5 -275z" />
<glyph unicode="&#x178;" horiz-adv-x="1269" d="M0 1337v11h463v-11h-244l416 -743l416 743h-244v11h463v-11h-205l-424 -753v-574h225v-10h-463v10h226v574l-424 753h-205zM508 1538q0 11 7 18t17 7t17.5 -7.5t7.5 -17.5t-7.5 -17.5t-17.5 -7.5t-17 7t-7 18zM713 1538q0 11 7 18t17 7q11 0 18 -7.5t7 -17.5t-7 -17.5 t-18 -7.5q-10 0 -17 7t-7 18z" />
<glyph unicode="&#x2c6;" horiz-adv-x="1024" d="M270 993l242 193l242 -193l-4 -4l-238 178l-238 -178z" />
<glyph unicode="&#x2dc;" horiz-adv-x="1024" d="M227 1026q26 66 65 102.5t83 36.5q33 0 61.5 -13.5t85.5 -53.5q82 -58 129 -58q39 0 74.5 31.5t58.5 89.5l9 -4q-25 -61 -62.5 -94t-81.5 -33q-31 0 -60 13t-77 47q-55 38 -82.5 51.5t-56.5 13.5q-39 0 -76 -35t-61 -98z" />
<glyph unicode="&#x2000;" horiz-adv-x="828" />
<glyph unicode="&#x2001;" horiz-adv-x="1657" />
<glyph unicode="&#x2002;" horiz-adv-x="828" />
<glyph unicode="&#x2003;" horiz-adv-x="1657" />
<glyph unicode="&#x2004;" horiz-adv-x="552" />
<glyph unicode="&#x2005;" horiz-adv-x="414" />
<glyph unicode="&#x2006;" horiz-adv-x="276" />
<glyph unicode="&#x2007;" horiz-adv-x="276" />
<glyph unicode="&#x2008;" horiz-adv-x="207" />
<glyph unicode="&#x2009;" horiz-adv-x="331" />
<glyph unicode="&#x200a;" horiz-adv-x="92" />
<glyph unicode="&#x2010;" horiz-adv-x="466" d="M70 541v12h327v-12h-327z" />
<glyph unicode="&#x2011;" horiz-adv-x="466" d="M70 541v12h327v-12h-327z" />
<glyph unicode="&#x2012;" horiz-adv-x="466" d="M70 541v12h327v-12h-327z" />
<glyph unicode="&#x2013;" horiz-adv-x="794" d="M49 541v12h696v-12h-696z" />
<glyph unicode="&#x2014;" horiz-adv-x="1296" d="M49 541v12h1198v-12h-1198z" />
<glyph unicode="&#x2018;" horiz-adv-x="229" d="M90 1198q0 90 80 176l6 -6q-74 -86 -74 -172q14 7 25.5 -2t11.5 -23q0 -9 -5.5 -15.5t-14.5 -6.5q-29 0 -29 49z" />
<glyph unicode="&#x2019;" horiz-adv-x="229" d="M53 1141q74 86 74 172q-14 -7 -25.5 1.5t-11.5 22.5q0 9 6 16t15 7q28 0 28 -49q0 -90 -80 -176z" />
<glyph unicode="&#x201a;" horiz-adv-x="233" d="M53 -184q74 86 74 172q-14 -7 -25.5 1.5t-11.5 22.5q0 9 6 16t15 7q28 0 28 -49q0 -90 -80 -176z" />
<glyph unicode="&#x201c;" horiz-adv-x="372" d="M90 1198q0 90 80 176l6 -6q-74 -86 -74 -172q14 7 25.5 -2t11.5 -23q0 -9 -5.5 -15.5t-14.5 -6.5q-29 0 -29 49zM233 1198q0 90 80 176l6 -6q-73 -85 -73 -172q14 7 25.5 -2t11.5 -23q0 -9 -6 -15.5t-15 -6.5q-29 0 -29 49z" />
<glyph unicode="&#x201d;" horiz-adv-x="372" d="M53 1141q74 86 74 172q-14 -7 -25.5 1.5t-11.5 22.5q0 9 6 16t15 7q28 0 28 -49q0 -90 -80 -176zM197 1141q73 85 73 172q-14 -7 -25.5 1.5t-11.5 22.5q0 9 6 16t15 7q29 0 29 -49q0 -90 -80 -176z" />
<glyph unicode="&#x201e;" horiz-adv-x="376" d="M53 -184q74 86 74 172q-14 -7 -25.5 1.5t-11.5 22.5q0 9 6 16t15 7q28 0 28 -49q0 -90 -80 -176zM197 -184q73 85 73 172q-14 -7 -25.5 1.5t-11.5 22.5q0 9 6 16t15 7q29 0 29 -49q0 -90 -80 -176z" />
<glyph unicode="&#x2022;" horiz-adv-x="438" d="M86 551q0 55 39 94t94 39t94 -39t39 -94t-39 -94t-94 -39t-94 39t-39 94z" />
<glyph unicode="&#x2026;" horiz-adv-x="765" d="M92 8q0 10 7 17.5t18 7.5q10 0 17 -7t7 -18q0 -10 -6.5 -17t-17.5 -7t-18 7t-7 17zM358 8q0 10 7 17.5t18 7.5t18 -7.5t7 -17.5t-7 -17t-18 -7t-18 7t-7 17zM625 8q0 11 7 18t17 7q11 0 18 -7.5t7 -17.5t-7 -17t-18 -7t-17.5 7t-6.5 17z" />
<glyph unicode="&#x202f;" horiz-adv-x="331" />
<glyph unicode="&#x2039;" horiz-adv-x="487" d="M47 541l342 317l8 -8l-334 -309l334 -310l-8 -8z" />
<glyph unicode="&#x203a;" horiz-adv-x="487" d="M90 231l334 310l-334 309l8 8l342 -317l-342 -318z" />
<glyph unicode="&#x205f;" horiz-adv-x="414" />
<glyph unicode="&#x20ac;" horiz-adv-x="1069" d="M51 375v10h135q-10 62 -10 115q0 66 12 127h-137v10h139q40 170 164.5 278t292.5 109q144 0 242 -81.5t98 -174.5q0 -41 -22 -41q-8 0 -14.5 7t-6.5 18t9.5 19.5t21.5 8.5q-8 88 -102 161t-226 73q-163 -1 -284 -106.5t-160 -270.5h469v-10h-471q-13 -67 -13 -127 q0 -61 11 -115h473v-10h-471q36 -171 157 -276t289 -105q199 0 330 131l6 -8q-133 -133 -336 -133q-173 0 -297.5 108t-161.5 283h-137z" />
<glyph unicode="&#x2122;" horiz-adv-x="1122" d="M20 1235v113h422v-113h-12v102h-192v-481h75v-10h-163v10h75v481h-192v-102h-13zM496 846v10h73l17 481h-72v11h88l197 -424l196 424h88v-11h-71l16 -481h74v-10h-166v10h80l-15 477l-196 -424h-12l-197 424l-14 -477h80v-10h-166z" />
<glyph unicode="&#x25fc;" horiz-adv-x="829" d="M0 0v829h829v-829h-829z" />
</font>
</defs>
</svg>
