<?xml version="1.0" standalone="no"?>
<!DOCTYPE svg PUBLIC "-//W3C//DTD SVG 1.1//EN" "http://www.w3.org/Graphics/SVG/1.1/DTD/svg11.dtd" >
<svg xmlns="http://www.w3.org/2000/svg">
<metadata></metadata>
<defs>
<font id="archerproextra_light" horiz-adv-x="1572" >
<font-face units-per-em="2048" ascent="1638" descent="-410" />
<missing-glyph horiz-adv-x="444" />
<glyph unicode="&#xfb01;" horiz-adv-x="976" d="M74 803v41h162v325q0 94 25.5 167t70.5 112q67 59 157 59q76 0 116 -26.5t40 -65.5q0 -20 -14.5 -35.5t-34.5 -15.5q-37 0 -50.5 30.5t3.5 61.5q-32 12 -57 12q-81 0 -140 -65q-67 -77 -67 -229v-330h473v-803h164v-41h-379v41h166v762h-424v-762h172v-41h-373v41h152 v762h-162z" />
<glyph unicode="&#xfb02;" horiz-adv-x="999" d="M74 803v41h162v356q0 160 79 236q75 75 199 75q115 0 186 -71q18 -18 31 -41l21 98h26v-1456h166v-41h-381v41h166v762h-444v-762h172v-41h-373v41h152v762h-162zM285 844h444v362q0 7 -1 22.5t-1 22.5q-21 0 -35 14t-14 35q0 34 24 48q-16 37 -38 59q-58 61 -156 61 q-92 0 -156 -61q-67 -67 -67 -207v-356z" />
<glyph unicode="&#xfb03;" horiz-adv-x="1482" d="M74 803v41h162v307q0 162 77 242q75 75 199 75q55 0 102 -20q70 -26 70 -84q0 -22 -14 -37.5t-35 -15.5q-39 0 -52.5 34.5t7.5 63.5q-43 18 -84 18q-96 0 -156 -63q-65 -65 -65 -213v-307h456v325q0 93 26.5 166.5t70.5 112.5q67 59 157 59q76 0 116 -26.5t40 -65.5 q0 -20 -14.5 -35.5t-34.5 -15.5q-37 0 -50.5 30.5t3.5 61.5q-24 12 -58 12q-74 0 -131 -57q-75 -78 -75 -237v-330h473v-803h163v-41h-378v41h165v762h-423v-762h172v-41h-373v41h151v762h-456v-762h172v-41h-373v41h152v762h-162z" />
<glyph unicode="&#xfb04;" horiz-adv-x="1497" d="M74 803v41h162v307q0 162 77 242q75 75 199 75q64 0 111 -24q61 -24 61 -80q0 -22 -14 -37.5t-35 -15.5q-39 0 -52.5 34.5t7.5 63.5q-37 18 -84 18q-96 0 -156 -63q-65 -65 -65 -213v-307h456v356q0 159 80 236q75 75 199 75q115 0 186 -71q18 -18 31 -41l20 98h27v-1456 h166v-41h-381v41h166v762h-444v-762h172v-41h-373v41h151v762h-456v-762h172v-41h-373v41h152v762h-162zM791 844h444v362q0 7 -1 22.5t-1 22.5q-21 0 -35 14t-14 35q0 34 24 48q-14 33 -37 59q-61 61 -157 61q-92 0 -156 -61q-67 -67 -67 -207v-356z" />
<glyph horiz-adv-x="2048" />
<glyph horiz-adv-x="2048" />
<glyph horiz-adv-x="682" />
<glyph unicode="&#x9;" horiz-adv-x="444" />
<glyph unicode="&#xd;" horiz-adv-x="444" />
<glyph unicode=" "  horiz-adv-x="444" />
<glyph unicode="&#x09;" horiz-adv-x="444" />
<glyph unicode="&#xa0;" horiz-adv-x="444" />
<glyph unicode="!" horiz-adv-x="432" d="M156 45q0 26 17.5 43.5t43.5 17.5q25 0 42 -17.5t17 -43.5t-17 -43.5t-42 -17.5q-26 0 -43.5 17.5t-17.5 43.5zM182 1348h68l-19 -1020h-30z" />
<glyph unicode="&#x22;" horiz-adv-x="487" d="M88 1294q-6 72 39 72q49 0 39 -72l-27 -288h-22zM319 1294q-6 72 39 72q23 0 33.5 -19t5.5 -53l-26 -288h-23z" />
<glyph unicode="#" horiz-adv-x="989" d="M43 297v43h217l55 356h-209v43h216l43 279h45l-43 -279h321l45 279h45l-43 -279h209v-43h-215l-55 -356h207v-43h-215l-45 -297h-46l46 297h-322l-45 -297h-47l45 297h-209zM305 340h324l53 356h-322z" />
<glyph unicode="$" horiz-adv-x="878" d="M92 197q0 29 13 45t34 16q22 0 35.5 -15t13.5 -36q0 -15 -9.5 -30t-24.5 -21q20 -42 82.5 -75t152.5 -40l37 465q-72 24 -116.5 43t-90 49.5t-67 72.5t-21.5 97q0 104 90.5 175t229.5 71h12l12 153l41 -4l-12 -151q110 -12 181 -62t71 -110q0 -27 -13 -41.5t-34 -14.5 q-18 0 -31.5 13t-13.5 34q0 36 28 52q-22 33 -72.5 57t-117.5 31l-33 -434q59 -20 97 -34.5t83 -39t70.5 -51t43 -65.5t17.5 -87q0 -119 -93.5 -189.5t-254.5 -70.5h-4l-16 -213l-41 4l16 211q-126 9 -210.5 66t-84.5 129zM176 768q0 -44 18.5 -78.5t57 -60t77.5 -42 t99 -36.5l33 424h-15q-121 0 -195.5 -58.5t-74.5 -148.5zM430 39h4q143 0 221 61.5t78 159.5q0 47 -19.5 84t-59 64.5t-82.5 46t-107 39.5z" />
<glyph unicode="%" horiz-adv-x="1214" d="M117 801q0 96 62 162.5t155 66.5q92 0 154.5 -66.5t62.5 -162.5q0 -94 -62.5 -161t-154.5 -67q-93 0 -155 66.5t-62 161.5zM166 801q0 -77 47.5 -133t120.5 -56t119.5 56t46.5 133q0 79 -46.5 134.5t-119.5 55.5t-120.5 -56t-47.5 -134zM184 -10l396 514l393 518l37 -27 l-396 -514l-393 -516zM664 217q0 95 63 162t154 67t154 -67t63 -162t-63 -162t-154 -67t-154 67t-63 162zM715 217q0 -79 46.5 -133.5t119.5 -54.5t119.5 54.5t46.5 133.5t-46.5 134t-119.5 55t-119.5 -55t-46.5 -134z" />
<glyph unicode="&#x26;" horiz-adv-x="1183" d="M74 289q0 64 24 122t68 105.5t93 84.5t112 73q-75 83 -112.5 155t-37.5 148q0 119 76 198.5t190 79.5q107 0 177.5 -66.5t70.5 -176.5q0 -105 -75.5 -186.5t-219.5 -161.5q49 -51 133 -129l261 -254q87 126 139 299h-133v41h299v-41h-123q-58 -186 -154 -328l252 -242 l-29 -35l-249 242q-176 -229 -418 -229q-156 0 -250 84.5t-94 216.5zM125 287q0 -110 78.5 -184t214.5 -74q223 0 389 215l-264 256q-88 82 -144 143q-126 -74 -200 -159t-74 -197zM272 975q0 -71 35 -137.5t105 -143.5q136 77 203 149t67 169q0 91 -54 145.5t-141 54.5 q-95 0 -155 -67t-60 -170z" />
<glyph unicode="'" horiz-adv-x="258" d="M88 1294q-6 72 39 72q49 0 39 -72l-27 -288h-22z" />
<glyph unicode="(" horiz-adv-x="638" d="M141 532q0 130 30 263t89 263.5t156 252.5t221 215l31 -37q-124 -94 -217.5 -212t-148 -243.5t-81 -251t-26.5 -250.5q0 -124 26.5 -249t81 -250.5t148 -244t217.5 -212.5l-31 -37q-124 93 -221 214.5t-156 252t-89 263.5t-30 263z" />
<glyph unicode=")" horiz-adv-x="638" d="M-29 -424q123 94 216.5 212t148 243.5t81.5 250.5t27 250q0 124 -27 249t-81.5 251t-148 244.5t-216.5 212.5l29 37q124 -93 221 -215t156 -252.5t89 -263.5t30 -263t-30 -263t-89 -263.5t-156 -252t-221 -214.5z" />
<glyph unicode="*" horiz-adv-x="716" d="M98 1247q12 35 72 8l178 -86l-22 199q-10 66 32 66q20 0 28.5 -18.5t2.5 -47.5l-22 -199l180 86q20 12 42.5 11.5t28.5 -19.5q11 -43 -53 -53l-192 -41l135 -141q43 -43 16 -70q-20 -17 -38 -7t-31 38l-97 168l-96 -168q-10 -24 -27 -35t-38 0q-17 15 -12.5 34.5 t24.5 39.5l135 141l-192 41q-30 5 -46 18t-8 35z" />
<glyph unicode="+" horiz-adv-x="790" d="M96 514v45h275v283h47v-283h276v-45h-276v-283h-47v283h-275z" />
<glyph unicode="," horiz-adv-x="309" d="M49 -209q109 95 115 201q-31 1 -49.5 17.5t-18.5 41.5q0 23 16 39t38 16q29 0 47 -22t18 -59q0 -77 -43 -144.5t-111 -109.5z" />
<glyph unicode="-" horiz-adv-x="512" d="M76 528v50h360v-50h-360z" />
<glyph unicode="." horiz-adv-x="309" d="M94 45q0 26 18 43.5t44 17.5q25 0 42 -17.5t17 -43.5t-17 -43.5t-42 -17.5q-26 0 -44 17.5t-18 43.5z" />
<glyph unicode="/" horiz-adv-x="854" d="M-74 -393l840 1896l43 -20l-840 -1897z" />
<glyph unicode="0" horiz-adv-x="1044" d="M92 510q0 147 54.5 266.5t153 188.5t222.5 69t222.5 -68.5t153 -188t54.5 -267.5t-54.5 -268t-153 -189t-222.5 -69q-189 0 -309.5 149.5t-120.5 376.5zM145 510q0 -209 105 -346t272 -137t272 137t105 346q0 207 -105.5 344t-271.5 137q-167 0 -272 -136t-105 -345z" />
<glyph unicode="1" horiz-adv-x="739" d="M125 0v43h244v928l-232 -68l-8 41l272 82h19v-983h242v-43h-537z" />
<glyph unicode="2" horiz-adv-x="917" d="M82 14q29 74 71.5 138.5t97.5 117.5t99.5 89t106.5 79q65 45 104 76.5t74 71.5t50 83t15 95q0 103 -70 166t-198 63q-79 0 -145.5 -34t-98.5 -91q-15 -24 -18 -49q49 -9 49 -55q0 -20 -14.5 -33.5t-34.5 -13.5q-24 0 -38.5 17t-14.5 48q0 52 30 105q40 65 116.5 106 t170.5 41q148 0 233 -75.5t85 -194.5q0 -58 -19.5 -108.5t-59 -95t-82 -79.5t-106.5 -78q-119 -79 -205 -163.5t-135 -196.5h592v201h45v-244h-694z" />
<glyph unicode="3" horiz-adv-x="931" d="M84 -18q0 33 15 51t40 18q20 0 33.5 -13.5t13.5 -33.5q0 -40 -49 -53q6 -28 27 -55q37 -49 109.5 -79t170.5 -30q147 0 235.5 87.5t88.5 213.5q0 182 -176 258q-91 45 -234 45h-30v43h32q138 0 240 60q69 41 107 102.5t38 138.5q0 109 -79.5 182.5t-216.5 73.5 q-83 0 -148.5 -29.5t-101.5 -80.5q-19 -28 -27 -62q23 -4 36 -19t13 -36t-14 -34t-33 -13q-24 0 -39.5 18t-15.5 49q0 55 35 107q42 64 121.5 103.5t173.5 39.5q160 0 255 -87.5t95 -211.5q0 -96 -49 -166.5t-136 -111.5q-65 -30 -129 -41q56 -5 127 -33q95 -39 152 -114 t57 -179q0 -151 -107.5 -248.5t-271.5 -97.5q-106 0 -193 37.5t-130 99.5q-35 47 -35 101z" />
<glyph unicode="4" horiz-adv-x="940" d="M31 168l626 864l37 -28l-588 -807h519v397l45 18v-415h243v-43h-243v-400h-45v400h-588z" />
<glyph unicode="5" horiz-adv-x="899" d="M84 -41q0 24 14.5 42.5t36.5 18.5t34.5 -12.5t12.5 -32.5q0 -41 -43 -53q12 -24 27 -41q87 -94 264 -94q146 0 241 96.5t95 251.5q0 153 -95.5 239.5t-260.5 86.5q-133 0 -258 -58l-21 17l66 598h551v-47h-508l-58 -512q106 47 228 47q182 0 295.5 -98t113.5 -273 q0 -170 -112 -280.5t-277 -110.5q-88 0 -166 28.5t-125 75.5q-55 55 -55 111z" />
<glyph unicode="6" horiz-adv-x="995" d="M111 516q0 156 26 285.5t71 218t105 150t127.5 90t139.5 28.5q141 0 221 -84q47 -50 47 -100q0 -33 -14.5 -51.5t-38.5 -18.5q-21 0 -33 13t-12 32q0 42 41 62q-10 20 -23 35q-59 71 -190 71q-63 0 -122 -26t-113 -83.5t-94.5 -141t-65 -207t-25.5 -273.5v-16 q29 114 130.5 194t231.5 80q168 0 276.5 -111t108.5 -278q0 -166 -111 -283.5t-272 -117.5q-169 0 -284 112q-65 65 -96 165.5t-31 254.5zM170 383q0 -151 98 -254q99 -102 254 -102q141 0 236.5 103.5t95.5 254.5q0 152 -92 249t-242 97t-250 -104.5t-100 -243.5z" />
<glyph unicode="7" horiz-adv-x="841" d="M86 739v279h688l10 -21l-522 -1245l-43 19l506 1206h-594v-238h-45z" />
<glyph unicode="8" horiz-adv-x="958" d="M94 332q0 116 77 205t202 120q-112 32 -182 112.5t-70 186.5q0 141 102 236.5t256 95.5t255.5 -95t101.5 -237q0 -105 -69.5 -185.5t-180.5 -113.5q124 -29 200 -118t76 -207q0 -149 -110.5 -248.5t-272.5 -99.5q-165 0 -275 99t-110 249zM147 334q0 -132 95 -220.5 t237 -88.5t237 88.5t95 220.5q0 129 -96.5 216t-235.5 87q-142 0 -237 -86t-95 -217zM174 961q0 -125 86.5 -205t218.5 -80t218.5 80t86.5 205q0 119 -87.5 202.5t-217.5 83.5q-132 0 -218.5 -83t-86.5 -203z" />
<glyph unicode="9" horiz-adv-x="995" d="M94 629q0 164 112.5 282.5t272.5 118.5q174 0 283 -112q65 -67 96 -167t31 -253q0 -195 -39.5 -344t-107 -236.5t-150.5 -130.5t-178 -43q-149 0 -228 82q-47 50 -47 100q0 34 15 53t39 19q21 0 34 -13t13 -32q0 -41 -41 -62q7 -21 24 -38q65 -68 193 -68q67 0 128.5 25 t117 81t96 137.5t63.5 202t21 267.5v18q-7 -22 -23 -59q-47 -95 -138 -155t-202 -60q-168 0 -276.5 109.5t-108.5 277.5zM145 629q0 -153 92 -248.5t242 -95.5t251 103.5t101 242.5q0 157 -106 260q-95 98 -246 98q-141 0 -237.5 -105.5t-96.5 -254.5z" />
<glyph unicode=":" horiz-adv-x="346" d="M113 45q0 26 17.5 43.5t43.5 17.5q25 0 42 -17.5t17 -43.5t-17 -43.5t-42 -17.5q-26 0 -43.5 17.5t-17.5 43.5zM113 641q0 26 17.5 43.5t43.5 17.5q25 0 42 -17.5t17 -43.5t-17 -43.5t-42 -17.5q-26 0 -43.5 17.5t-17.5 43.5z" />
<glyph unicode=";" horiz-adv-x="346" d="M57 -211q56 47 87 100.5t34 98.5q-32 0 -50.5 17t-18.5 46q0 23 17 40.5t40 17.5q31 0 50.5 -25t19.5 -66q0 -65 -47 -136.5t-117 -114.5zM113 641q0 26 17.5 43.5t43.5 17.5q25 0 42 -17.5t17 -43.5t-17 -43.5t-42 -17.5q-26 0 -43.5 17.5t-17.5 43.5z" />
<glyph unicode="&#x3c;" horiz-adv-x="749" d="M104 506v16l474 312l26 -37l-432 -283l432 -283l-26 -36z" />
<glyph unicode="=" horiz-adv-x="790" d="M96 352v45h598v-45h-598zM96 631v45h598v-45h-598z" />
<glyph unicode="&#x3e;" horiz-adv-x="749" d="M145 231l430 283l-430 283l27 37l473 -312v-16l-473 -311z" />
<glyph unicode="?" horiz-adv-x="827" d="M47 1073q0 77 45 139q45 69 129 110.5t187 41.5q159 0 262.5 -100t103.5 -250q0 -138 -97.5 -242.5t-275.5 -144.5l-8 -299h-31l-10 327q180 37 275.5 133t95.5 226q0 135 -88 221t-227 86q-95 0 -169.5 -37.5t-113.5 -101.5q-17 -25 -27 -68q33 -3 49.5 -20t16.5 -43 q0 -22 -16.5 -38t-38.5 -16q-26 0 -44 21t-18 55zM324 39q-2 25 12 42.5t37 18.5q23 3 40 -11.5t19 -37.5q3 -25 -11.5 -42t-37.5 -19q-22 -3 -39 11.5t-20 37.5z" />
<glyph unicode="@" horiz-adv-x="1585" d="M94 244q0 199 69.5 382t185 314.5t272 210t325.5 78.5q256 0 403.5 -153.5t147.5 -409.5q0 -152 -47.5 -286.5t-128 -215t-170.5 -80.5q-89 0 -129.5 50.5t-28.5 131.5q-32 -75 -110 -132.5t-168 -57.5q-116 0 -183 72t-67 208q0 181 109 306.5t257 125.5q101 0 160 -61 t68 -162l55 219h47l-114 -456q-28 -94 -2 -149.5t106 -55.5t151.5 76.5t113.5 202.5t42 264q0 240 -135 383t-377 143q-163 0 -313.5 -75.5t-259 -203t-173.5 -303t-65 -366.5q0 -251 136.5 -405t371.5 -154q194 0 350 86l19 -33q-166 -90 -369 -90q-249 0 -399 165 t-150 431zM514 356q0 -112 54 -176.5t153 -64.5q94 0 167 64t108.5 155.5t35.5 187.5q0 104 -55 166t-146 62q-132 0 -224.5 -115.5t-92.5 -278.5z" />
<glyph unicode="A" horiz-adv-x="1423" d="M29 0v45h159l469 1258h-184v45h477v-45h-182l467 -1258h162v-45h-412v45h193l-172 469h-588l-174 -469h196v-45h-411zM434 559h555l-276 750z" />
<glyph unicode="B" horiz-adv-x="1189" d="M90 0v45h195v1258h-195v45h533q104 0 185.5 -27t131 -74.5t75 -107t25.5 -127.5q0 -123 -79.5 -211.5t-208.5 -110.5q154 -22 240.5 -108t86.5 -217q0 -168 -125 -266.5t-327 -98.5h-537zM338 45h291q177 0 287 86.5t110 233.5q0 138 -104 219.5t-304 81.5h-280v-621z M338 713h285q94 0 166 24t114 66.5t63 95t21 113.5q0 126 -93.5 208.5t-275.5 82.5h-280v-590z" />
<glyph unicode="C" horiz-adv-x="1425" d="M117 664q0 193 85 354t237 255.5t339 94.5q137 0 253 -50.5t179.5 -129t63.5 -162.5q0 -36 -18 -57t-48 -21q-24 0 -40.5 17t-16.5 41q0 26 16.5 44t46.5 21q-15 89 -138.5 170.5t-297.5 81.5q-172 0 -311.5 -88t-217 -238t-77.5 -331q0 -178 76 -324t216.5 -231.5 t319.5 -85.5q265 0 457 192l29 -35q-208 -202 -486 -202q-196 0 -350 93.5t-235.5 248.5t-81.5 342z" />
<glyph unicode="D" horiz-adv-x="1445" d="M90 0v45h195v1258h-195v45h498q176 0 316.5 -49.5t232 -138.5t140 -211.5t48.5 -270.5q0 -150 -48.5 -274.5t-140 -214t-230 -139.5t-312.5 -50h-504zM338 45h260q324 0 499 171.5t175 461.5q0 139 -44 253.5t-128.5 197.5t-215 128.5t-296.5 45.5h-250v-1258z" />
<glyph unicode="E" horiz-adv-x="1163" d="M90 0v45h195v1258h-195v45h930v-295h-51v250h-631v-590h496v-47h-496v-621h631v250h51v-295h-930z" />
<glyph unicode="F" horiz-adv-x="1107" d="M90 0v45h195v1258h-195v45h909v-295h-51v250h-610v-611h485v-45h-485v-602h207v-45h-455z" />
<glyph unicode="G" horiz-adv-x="1482" d="M121 657q0 158 55.5 292.5t148.5 225t216 141.5t258 52q106 0 201.5 -29t158.5 -73.5t100 -97.5t37 -103q0 -31 -16.5 -49.5t-42.5 -18.5q-24 0 -38.5 15.5t-14.5 40.5q0 46 43 65q-34 79 -153 141t-277 62q-139 0 -257 -53t-197.5 -143.5t-124 -211.5t-44.5 -256 q0 -140 46.5 -259t126.5 -200.5t190 -127t235 -45.5q264 0 490 182v352h-435v45h486v-604h-51v154q-116 -89 -234 -131.5t-258 -42.5q-130 0 -247.5 47t-207 132.5t-142 214.5t-52.5 283z" />
<glyph unicode="H" horiz-adv-x="1542" d="M90 0v45h195v1258h-195v45h447v-45h-199v-586h866v586h-198v45h446v-45h-195v-1258h195v-45h-446v45h198v625h-866v-625h199v-45h-447z" />
<glyph unicode="I" horiz-adv-x="645" d="M92 0v45h203v1258h-203v45h463v-45h-205v-1258h205v-45h-463z" />
<glyph unicode="J" horiz-adv-x="1021" d="M66 307q0 49 18 74t49 25q23 0 39 -16.5t16 -41.5q0 -26 -19.5 -43.5t-53.5 -17.5q3 -108 88 -185t207 -77q126 0 202 79q109 109 109 338v861h-227v45h462v-45h-182v-863q0 -244 -123 -364q-93 -96 -241 -96q-142 0 -243 93.5t-101 233.5z" />
<glyph unicode="K" horiz-adv-x="1329" d="M90 0v45h195v1258h-195v45h447v-45h-199v-768l737 768h-219v45h444v-45h-165l-512 -531l510 -727h180v-45h-213l-512 735l-250 -260v-430h199v-45h-447z" />
<glyph unicode="L" horiz-adv-x="1064" d="M90 0v45h195v1258h-195v45h447v-45h-199v-1258h580v260h51v-305h-879z" />
<glyph unicode="M" horiz-adv-x="1714" d="M66 0v45h206l45 1258h-198v45h262l479 -1072l479 1072h256v-45h-198l45 -1258h207v-45h-437v45h181l-43 1210l-482 -1071h-20l-481 1076l-45 -1215h180v-45h-436z" />
<glyph unicode="N" horiz-adv-x="1525" d="M90 0v45h195v1258h-195v45h238l893 -1250v1205h-199v45h444v-45h-194v-1309h-37l-901 1259v-1208h203v-45h-447z" />
<glyph unicode="O" d="M117 674q0 142 51.5 270.5t140 221.5t213 147.5t264.5 54.5q188 0 342 -92.5t241 -251.5t87 -350q0 -190 -87.5 -349.5t-241.5 -252t-341 -92.5q-188 0 -342 92.5t-240.5 251.5t-86.5 350zM172 674q0 -179 79 -327.5t220 -235t315 -86.5q130 0 245 50.5t196 137 t127.5 206.5t46.5 255q0 179 -79 327.5t-220.5 235t-315.5 86.5q-130 0 -244.5 -50.5t-195.5 -137t-127.5 -206.5t-46.5 -255z" />
<glyph unicode="P" horiz-adv-x="1134" d="M90 0v45h195v1258h-195v45h490q210 0 342.5 -114t132.5 -292q0 -190 -127 -301t-346 -111q-126 0 -244 5v-490h199v-45h-447zM338 580q127 -5 244 -5q202 0 310.5 99t108.5 266q0 158 -115 260.5t-304 102.5h-244v-723z" />
<glyph unicode="Q" d="M117 674q0 142 51.5 270.5t140 221.5t213 147.5t264.5 54.5q188 0 342 -92.5t241 -251.5t87 -350q0 -276 -169.5 -469t-426.5 -215q56 -14 106 -38t126 -75q100 -70 155.5 -93.5t130.5 -23.5q72 0 146 45l22 -38q-88 -52 -168 -52q-85 0 -152.5 31t-199.5 119 q-71 49 -139 75.5t-166 43.5q-231 40 -379 170q-105 93 -165 226t-60 294zM172 674q0 -311 203 -492q82 -71 192.5 -114t223.5 -43q172 0 312 85.5t219 234.5t79 329q0 179 -79 327.5t-220.5 235t-315.5 86.5q-130 0 -244.5 -50.5t-195.5 -137t-127.5 -206.5t-46.5 -255z " />
<glyph unicode="R" horiz-adv-x="1212" d="M90 0v45h195v1258h-195v45h502q203 0 325.5 -104.5t122.5 -268.5q0 -148 -92 -244.5t-252 -124.5l355 -561h163v-45h-198l-373 600q-46 -4 -78 -4q-164 0 -227 2v-553h199v-45h-447zM338 643q70 -2 229 -2q193 0 305.5 86.5t112.5 247.5q0 148 -106.5 238t-290.5 90h-250 v-660z" />
<glyph unicode="S" horiz-adv-x="1050" d="M119 244q0 34 16 53.5t41 19.5q21 0 37 -16t16 -39q0 -21 -13 -38.5t-34 -24.5q28 -71 122 -121.5t222 -50.5q162 0 259.5 85t97.5 220q0 54 -21 100t-50.5 78t-81.5 64t-92.5 51t-105.5 45q-66 27 -108 46t-96 52.5t-85 68t-53 86t-22 111.5q0 144 109 238t270 94 q149 0 256.5 -77.5t107.5 -168.5q0 -30 -15.5 -48.5t-39.5 -18.5q-21 0 -37 15t-16 38q0 42 41 63q-25 64 -111 108t-188 44q-141 0 -234.5 -81.5t-93.5 -201.5q0 -39 11.5 -73.5t26 -59.5t46 -51.5t53.5 -42t68 -37.5t69 -31.5t76 -31.5q63 -25 108.5 -46.5t97.5 -56 t84.5 -71t54.5 -89t22 -112.5q0 -159 -115.5 -256.5t-296.5 -97.5q-174 0 -288.5 83.5t-114.5 178.5z" />
<glyph unicode="T" horiz-adv-x="1261" d="M88 1042v306h1086v-306h-52v261h-465v-1258h209v-45h-471v45h209v1258h-465v-261h-51z" />
<glyph unicode="U" horiz-adv-x="1402" d="M59 1303v45h447v-45h-199v-834q0 -217 100.5 -330.5t294.5 -113.5q195 0 295.5 112.5t100.5 331.5v834h-201v45h446v-45h-194v-838q0 -233 -116 -359t-333 -126q-216 0 -331 126t-115 359v838h-195z" />
<glyph unicode="V" horiz-adv-x="1374" d="M12 1303v45h412v-45h-193l457 -1254l459 1254h-197v45h412v-45h-164l-493 -1330h-37l-492 1330h-164z" />
<glyph unicode="W" horiz-adv-x="1947" d="M12 1303v45h428v-45h-194l358 -1248l354 1098h33l357 -1098l358 1248h-201v45h430v-45h-178l-393 -1332h-35l-356 1088l-355 -1088h-34l-394 1332h-178z" />
<glyph unicode="X" horiz-adv-x="1427" d="M72 0v45h151l461 645l-436 613h-150v45h375v-45h-166l406 -582l407 582h-168v45h375v-45h-151l-435 -609l463 -649h150v-45h-375v45h166l-432 617l-434 -617h167v-45h-374z" />
<glyph unicode="Y" horiz-adv-x="1286" d="M27 1303v45h409v-45h-188l397 -689l395 689h-188v45h408v-45h-162l-428 -730v-528h215v-45h-486v45h217v528l-430 730h-159z" />
<glyph unicode="Z" horiz-adv-x="1165" d="M82 0v25l903 1278h-805v-250h-51v295h930v-25l-903 -1278h872v250h51v-295h-997z" />
<glyph unicode="[" horiz-adv-x="641" d="M219 -410v1909h389v-45h-338v-1819h338v-45h-389z" />
<glyph unicode="\" horiz-adv-x="854" d="M43 1483l45 20l840 -1896l-45 -21z" />
<glyph unicode="]" horiz-adv-x="641" d="M31 -365h338v1819h-338v45h391v-1909h-391v45z" />
<glyph unicode="^" horiz-adv-x="837" d="M160 823l260 244l258 -244l-19 -20l-239 180l-242 -180z" />
<glyph unicode="_" horiz-adv-x="1017" d="M-4 -209h1026v-49h-1026v49z" />
<glyph unicode="`" horiz-adv-x="1036" d="M266 1194q0 17 11 29t26 12q18 0 51 -23l252 -172l-14 -22l-279 127q-47 23 -47 49z" />
<glyph unicode="a" horiz-adv-x="940" d="M88 227q0 112 86.5 182t224.5 70q151 0 281 -49v164q0 89 -45 143q-64 80 -205 80q-78 0 -133.5 -23.5t-83.5 -58.5q25 -19 25 -55q0 -18 -13.5 -32.5t-34.5 -14.5q-24 0 -36.5 15.5t-12.5 39.5q0 59 80 113.5t211 54.5q167 0 242 -90q55 -64 55 -168v-557h152v-41h-199 v139q-57 -64 -138.5 -107.5t-172.5 -43.5q-134 0 -208.5 68.5t-74.5 170.5zM137 229q0 -83 59 -141.5t173 -58.5q174 0 311 155v209q-133 45 -279 45q-127 0 -195.5 -61.5t-68.5 -147.5z" />
<glyph unicode="b" horiz-adv-x="1062" d="M20 1450v41h203v-797q141 162 340 162q179 0 293.5 -123t114.5 -311q0 -187 -119.5 -310.5t-298.5 -123.5q-94 0 -179 36t-149 95l-26 -119h-25v1450h-154zM223 170q63 -63 148 -102t182 -39q160 0 263.5 111.5t103.5 281.5q0 171 -99.5 282t-259.5 111q-199 0 -338 -170 v-475z" />
<glyph unicode="c" horiz-adv-x="917" d="M90 412q0 127 57.5 229.5t152 158.5t204.5 56q133 0 225 -71.5t92 -159.5q0 -30 -15.5 -49t-41.5 -19q-19 0 -32 13t-13 34q0 47 49 62q-18 62 -91.5 105.5t-170.5 43.5q-152 0 -259.5 -114t-107.5 -289q0 -173 111 -278t278 -105q150 0 275 86l-2 -47q-119 -80 -275 -80 q-188 0 -312 114.5t-124 309.5z" />
<glyph unicode="d" horiz-adv-x="1093" d="M92 422q0 186 120 310t296 124q90 0 177.5 -37t150.5 -96v727h-179v41h228v-1450h153v-41h-200v150q-65 -73 -153.5 -117.5t-186.5 -44.5q-175 0 -290.5 123.5t-115.5 310.5zM141 422q0 -171 100.5 -282t258.5 -111q194 0 336 170v477q-66 61 -151.5 100t-176.5 39 q-157 0 -262 -112t-105 -281z" />
<glyph unicode="e" horiz-adv-x="950" d="M92 428q0 183 116 305.5t277 122.5q87 0 159 -32t118.5 -87t72 -126t25.5 -150q0 -17 -4 -33h-715q0 -190 103.5 -294.5t275.5 -104.5q164 0 297 98l-4 -49q-129 -90 -297 -90q-189 0 -306.5 118t-117.5 322zM141 469h670q-2 95 -38.5 171.5t-111.5 125.5t-178 49 q-134 0 -232 -98t-110 -248z" />
<glyph unicode="f" horiz-adv-x="563" d="M74 803v41h162v358q0 173 77 250q62 59 146 59q46 0 74 -18.5t28 -50.5q0 -19 -14 -33t-35 -14q-26 0 -40.5 19.5t-16.5 53.5h-13q-57 0 -100 -49q-57 -66 -57 -213v-362h229v-41h-229v-762h172v-41h-373v41h152v762h-162z" />
<glyph unicode="g" horiz-adv-x="1095" d="M98 426q0 183 118.5 306.5t295.5 123.5q91 0 174.5 -38t147.5 -97v123h200v-41h-153v-866q0 -149 -72 -230q-97 -117 -303 -117q-100 0 -175 29t-112 72q-31 36 -31 71q0 27 15.5 43.5t38.5 16.5q22 0 36.5 -14.5t14.5 -36.5q0 -16 -10 -31t-27 -21q27 -37 93.5 -62.5 t158.5 -25.5q179 0 264 105q59 71 59 198v224q-142 -160 -329 -160q-176 0 -290 122t-114 306zM147 426q0 -168 99 -278.5t258 -110.5q186 0 327 170v465q-143 143 -319 143q-159 0 -262 -111t-103 -278z" />
<glyph unicode="h" horiz-adv-x="1064" d="M55 0v41h154v1409h-154v41h203v-819q66 78 153.5 131t186.5 53q141 0 207 -98q47 -66 47 -195v-522h154v-41h-355v41h152v518q0 117 -41 178q-53 76 -170 76q-168 0 -334 -195v-577h152v-41h-355z" />
<glyph unicode="i" horiz-adv-x="509" d="M76 0v41h166v762h-166v41h215v-803h166v-41h-381zM197 1210q0 23 15.5 39.5t37.5 16.5q23 0 38 -16t15 -40q0 -23 -15 -39t-38 -16q-22 0 -37.5 16t-15.5 39z" />
<glyph unicode="j" horiz-adv-x="438" d="M-86 -307q0 21 12 37t35 16q21 0 33 -13t12 -32q0 -32 -20 -47q19 -23 63 -23q54 0 94.5 35t59.5 107q22 70 22 198v832h-184v41h233v-869q0 -137 -24 -219q-51 -166 -201 -166q-60 0 -97.5 29t-37.5 74zM178 1210q0 23 15.5 39.5t37.5 16.5q23 0 38.5 -16.5t15.5 -39.5 t-15.5 -39t-38.5 -16q-22 0 -37.5 16t-15.5 39z" />
<glyph unicode="k" horiz-adv-x="1001" d="M55 0v41h154v1409h-154v41h203v-1137l479 449h-213v41h430v-41h-155l-314 -295l326 -467h143v-41h-176l-327 479l-193 -182v-256h152v-41h-355z" />
<glyph unicode="l" horiz-adv-x="489" d="M55 0v41h164v1409h-164v41h213v-1450h166v-41h-379z" />
<glyph unicode="m" horiz-adv-x="1646" d="M78 0v41h153v762h-153v41h201v-172q67 78 154 131t177 53q149 0 209 -111q23 -47 27 -79q73 87 161.5 138.5t180.5 51.5q156 0 215 -125q31 -61 31 -168v-522h153v-41h-354v41h151v518q0 95 -24 150q-47 104 -178 104q-83 0 -169 -53.5t-157 -138.5v-580h154v-41h-355v41 h152v518q0 94 -25 148q-45 106 -176 106q-84 0 -168 -53t-157 -137v-582h151v-41h-354z" />
<glyph unicode="n" horiz-adv-x="1087" d="M78 0v41h153v762h-153v41h201v-174q68 80 155.5 133t186.5 53q154 0 217 -113q36 -58 36 -180v-522h154v-41h-354v41h151v518q0 95 -26 154q-49 100 -185 100q-171 0 -333 -195v-577h151v-41h-354z" />
<glyph unicode="o" horiz-adv-x="1032" d="M92 422q0 184 121.5 309t302.5 125q184 0 304 -123.5t120 -310.5q0 -184 -121.5 -309t-302.5 -125q-184 0 -304 123.5t-120 310.5zM141 422q0 -167 106.5 -280t268.5 -113q161 0 267 113t106 280t-106 280t-267 113q-162 0 -268.5 -113t-106.5 -280z" />
<glyph unicode="p" horiz-adv-x="1083" d="M61 -360h154v1163h-154v41h201v-150q144 162 332 162q173 0 285 -123t112 -311q0 -187 -116.5 -310.5t-290.5 -123.5q-90 0 -173 36t-147 95v-479h152v-41h-355v41zM264 168q146 -139 320 -139q156 0 257 111t101 282q0 172 -96.5 282.5t-253.5 110.5q-186 0 -328 -170 v-477z" />
<glyph unicode="q" horiz-adv-x="1062" d="M92 422q0 187 119 310.5t299 123.5q94 0 179 -36t149 -95l26 119h25v-1204h153v-41h-354v41h152v507q-145 -159 -340 -159q-179 0 -293.5 123t-114.5 311zM141 422q0 -171 100 -282t261 -111q196 0 338 170v473q-147 143 -330 143q-161 0 -265 -112t-104 -281z" />
<glyph unicode="r" horiz-adv-x="669" d="M78 0v41h153v762h-153v41h201v-187q50 86 119 142.5t137 56.5q38 0 60.5 -19t22.5 -46q0 -21 -13.5 -35.5t-37.5 -14.5q-21 0 -36 16t-15 44v8q-115 -8 -235 -207v-561h168v-41h-371z" />
<glyph unicode="s" horiz-adv-x="813" d="M88 170q0 24 14 39.5t35 15.5q22 0 35.5 -13.5t13.5 -35.5q0 -36 -32 -47q25 -39 96.5 -69.5t157.5 -30.5q126 0 195 52.5t69 133.5q0 32 -9 57.5t-30.5 45.5t-42 33.5t-57.5 26.5t-62.5 20.5t-71.5 19.5q-53 13 -86 23.5t-73.5 29t-63.5 39.5t-39 53.5t-16 73.5 q0 95 82.5 157t204.5 62q87 0 152.5 -24t101.5 -62q34 -34 34 -76q0 -23 -14 -38t-35 -15q-20 0 -33.5 14.5t-13.5 34.5q0 32 29 49q-7 11 -21 21q-73 55 -202 55q-108 0 -173 -50t-65 -128q0 -27 8.5 -49t28.5 -39t38.5 -29t55 -24.5t59.5 -19.5t68 -19q53 -13 89 -24.5 t78 -31.5t67 -43.5t42 -60t17 -82.5q0 -102 -84.5 -164.5t-226.5 -62.5q-91 0 -168.5 30t-120.5 78q-31 34 -31 74z" />
<glyph unicode="t" horiz-adv-x="577" d="M29 803v41h155v233l49 15v-248h279v-41h-279v-613q0 -54 15 -88q26 -71 112 -71q70 0 152 51l-8 -49q-68 -45 -146 -45q-117 0 -155 92q-19 46 -19 106v617h-155z" />
<glyph unicode="u" horiz-adv-x="1071" d="M57 803v41h203v-559q0 -99 29 -158q49 -96 182 -96q89 0 175.5 58t158.5 151v563h-152v41h201v-803h154v-41h-201v190q-68 -87 -155.5 -144.5t-186.5 -57.5q-155 0 -219 114q-35 61 -35 179v522h-154z" />
<glyph unicode="v" horiz-adv-x="976" d="M-4 803v41h348v-41h-166l311 -760l310 760h-166v41h348v-41h-129l-352 -838h-23l-352 838h-129z" />
<glyph unicode="w" horiz-adv-x="1323" d="M-4 803v41h346v-41h-164l201 -740l272 676h23l272 -676l201 740h-166v41h346v-41h-133l-233 -838h-23l-276 692l-277 -692h-23l-233 838h-133z" />
<glyph unicode="x" horiz-adv-x="948" d="M33 0v41h121l292 391l-274 371h-123v41h316v-41h-138l248 -342l250 342h-139v41h313v-41h-123l-270 -367l291 -395h118v-41h-325v41h151l-264 367l-270 -367h151v-41h-325z" />
<glyph unicode="y" horiz-adv-x="954" d="M-4 803v41h346v-41h-162l295 -729l307 729h-166v41h345v-41h-132l-393 -918q-35 -85 -80 -157q-46 -74 -96 -106t-113 -32q-45 0 -70.5 20.5t-25.5 49.5q0 21 14 35t35 14q30 0 44.5 -25t5.5 -55q51 0 90 26t79 91q36 52 82 160l52 121l-326 776h-131z" />
<glyph unicode="z" horiz-adv-x="784" d="M59 0v23l590 780h-506v-178h-49v219h621v-23l-592 -780h553v176h47v-217h-664z" />
<glyph unicode="{" horiz-adv-x="614" d="M96 518v47h66q98 0 162.5 56t64.5 137q0 49 -32.5 101t-90.5 116q-65 75 -101 135.5t-36 126.5q0 113 107.5 199.5t273.5 89.5v-41q-153 -6 -241.5 -79.5t-88.5 -168.5q0 -92 131 -238q129 -144 129 -241q0 -80 -61.5 -142t-161.5 -75q100 -12 161.5 -74t61.5 -141 q0 -102 -129 -242q-131 -150 -131 -238q0 -95 88.5 -168.5t241.5 -80.5v-41q-166 3 -273.5 89.5t-107.5 200.5q0 65 36 125t101 135q59 68 91 119t32 101q0 80 -64.5 136t-162.5 56h-66z" />
<glyph unicode="|" horiz-adv-x="485" d="M217 -410v1909h49v-1909h-49z" />
<glyph unicode="}" horiz-adv-x="614" d="M104 -403q153 7 240.5 80t87.5 169q0 90 -129 238q-131 143 -131 242q0 79 62 141t161 74q-99 13 -161 75t-62 142q0 95 131 241q129 144 129 238q0 95 -87.5 168.5t-240.5 79.5v41q166 -3 273.5 -89.5t107.5 -199.5q0 -66 -36.5 -127.5t-102.5 -134.5 q-121 -134 -121 -217q0 -81 64 -137t164 -56h63v-47h-63q-99 0 -163.5 -56t-64.5 -136q0 -50 31.5 -102t89.5 -118q66 -73 102.5 -134t36.5 -126q0 -114 -107.5 -200.5t-273.5 -89.5v41z" />
<glyph unicode="~" horiz-adv-x="813" d="M109 444q16 76 55 122t100 46q40 0 73 -15t85 -54q76 -62 129 -62q43 0 70 28t47 93l34 -8q-14 -74 -52.5 -120t-98.5 -46q-40 0 -74.5 16t-83.5 54q-42 33 -71 47t-60 14q-43 0 -70 -28.5t-47 -94.5z" />
<glyph unicode="&#xa1;" horiz-adv-x="432" d="M156 1303q0 26 17.5 43.5t43.5 17.5q25 0 42 -17.5t17 -43.5t-17 -44t-42 -18q-26 0 -43.5 18t-17.5 44zM182 0l19 1020h30l19 -1020h-68z" />
<glyph unicode="&#xa2;" horiz-adv-x="909" d="M86 500q0 191 123.5 316.5t298.5 127.5l20 227l41 -4l-20 -225q125 -12 207 -80t82 -149q0 -30 -16 -49t-42 -19q-19 0 -32 13t-13 34q0 48 49 60q-18 57 -83 99.5t-156 49.5l-68 -782q18 -2 58 -2q148 0 282 84l-2 -47q-124 -78 -283 -78q-39 0 -59 2l-24 -289l-41 4 l24 291q-155 29 -250.5 139t-95.5 277zM135 500q0 -147 82.5 -245.5t218.5 -127.5l70 776q-158 -3 -264.5 -115t-106.5 -288z" />
<glyph unicode="&#xa3;" horiz-adv-x="901" d="M29 -193q0 30 35 53.5t104 22.5q56 60 88.5 139.5t32.5 163.5q0 39 -8 101h-191v41h184l-24 88q-19 58 -26 82.5t-16 80.5t-9 115q0 137 90.5 236.5t240.5 99.5q124 0 201.5 -61.5t77.5 -137.5q0 -63 -51 -63q-20 0 -33.5 12.5t-13.5 36.5q0 19 11.5 34.5t25.5 20.5 q-15 48 -73 81.5t-145 33.5q-129 0 -204.5 -88.5t-75.5 -204.5q0 -56 8 -107t17 -82.5t26 -78.5q2 -7 12.5 -42.5t14.5 -55.5h350v-41h-342q6 -47 6 -101q0 -175 -127 -299h4q108 0 219 -43q110 -37 185 -37q143 0 211 121l34 -18q-76 -146 -245 -146q-72 0 -193 41 q-133 45 -235 45h-17q-47 -77 -106 -77q-18 0 -30.5 9t-12.5 25z" />
<glyph unicode="&#xa5;" horiz-adv-x="946" d="M10 977v41h336v-41h-147l276 -469l279 469h-152v41h336v-41h-133l-281 -463h277v-41h-303v-178h303v-41h-303v-211h178v-43h-406v43h181v211h-304v41h304v178h-304v41h277l-281 463h-133z" />
<glyph unicode="&#xa7;" horiz-adv-x="864" d="M129 512q0 64 50.5 110t144.5 68q-74 28 -110 65.5t-36 96.5q0 81 76 130.5t192 49.5t189.5 -43.5t73.5 -101.5q0 -22 -12 -35.5t-33 -13.5q-19 0 -32.5 11.5t-13.5 31.5q0 28 21 43q-18 27 -71.5 46t-121.5 19q-97 0 -158 -36.5t-61 -98.5q0 -60 51 -91t191 -67 q52 -14 84.5 -24.5t71.5 -27.5t60.5 -35.5t36.5 -46t15 -60.5q0 -66 -52 -111.5t-144 -66.5q73 -28 110 -65.5t37 -96.5q0 -80 -76.5 -130t-189.5 -50q-117 0 -191.5 44.5t-74.5 102.5q0 21 12.5 35t32.5 14t32.5 -12.5t12.5 -32.5q0 -27 -19 -41q18 -28 71 -46.5t122 -18.5 q96 0 158.5 36.5t62.5 96.5t-51.5 91.5t-190.5 67.5q-50 13 -85 23.5t-72.5 27.5t-60.5 36t-37.5 46t-14.5 60zM178 516q0 -60 55.5 -91.5t188.5 -66.5l65 -18q203 46 203 158q0 60 -57.5 93.5t-188.5 65.5l-65 17q-99 -22 -150 -62.5t-51 -95.5z" />
<glyph unicode="&#xa8;" horiz-adv-x="1036" d="M348 1106q0 23 15 39t38 16t38.5 -16t15.5 -39q0 -22 -15.5 -37.5t-38.5 -15.5t-38 15.5t-15 37.5zM582 1106q0 23 15 39t38 16t38 -16t15 -39q0 -22 -15 -37.5t-38 -15.5t-38 15.5t-15 37.5z" />
<glyph unicode="&#xa9;" horiz-adv-x="1187" d="M76 512q0 146 66 268t185.5 193t266.5 71q146 0 265 -71t185 -192.5t66 -266.5q0 -146 -66 -268t-185 -193t-265 -71q-148 0 -267 70.5t-185 192t-66 267.5zM111 512q0 -134 62 -248t173.5 -182t247.5 -68t247 68.5t172.5 183t61.5 248.5t-61.5 248t-172.5 182t-247 68 t-247.5 -68.5t-173.5 -183t-62 -248.5zM348 518q0 121 78.5 199t185.5 78q77 0 136 -41t59 -90q0 -18 -11 -30.5t-26 -12.5q-14 0 -23.5 9.5t-9.5 22.5t8 22t19 11q-14 28 -56 51t-96 23q-97 0 -162 -71t-65 -171q0 -94 65 -163.5t164 -69.5q94 0 172 67l21 -26 q-82 -76 -193 -76q-118 0 -192 80t-74 188z" />
<glyph unicode="&#xaa;" horiz-adv-x="622" d="M70 985q0 68 53.5 111t138.5 43q91 0 162 -29v80q0 74 -37 108q-35 35 -108 35q-82 0 -119 -41q12 -9 12 -30q0 -16 -9 -25.5t-26 -9.5t-27 11.5t-10 29.5q0 36 50.5 69t128.5 33q83 0 131 -39q55 -46 55 -135v-313h90v-35h-129v80q-33 -38 -82.5 -64t-101.5 -26 q-80 0 -126 42t-46 105zM76 666v34h479v-34h-479zM111 987q0 -46 34.5 -79.5t96.5 -33.5q104 0 182 93v108q-76 29 -162 29q-73 0 -112 -34t-39 -83z" />
<glyph unicode="&#xab;" horiz-adv-x="802" d="M61 545l342 317l27 -31l-305 -286l305 -287l-27 -31zM352 545l342 317l29 -31l-305 -286l305 -287l-29 -31z" />
<glyph unicode="&#xad;" horiz-adv-x="512" d="M76 528v50h360v-50h-360z" />
<glyph unicode="&#xae;" horiz-adv-x="770" d="M33 1053q0 154 99.5 260t252.5 106t252.5 -106t99.5 -260q0 -153 -99.5 -259t-252.5 -106t-252.5 106t-99.5 259zM70 1055q0 -139 90 -235.5t225 -96.5t224 96t89 236q0 138 -89 233.5t-224 95.5t-225 -95.5t-90 -233.5zM240 874v33h55v307h-55v33h143q62 0 97.5 -28.5 t35.5 -81.5q0 -35 -22.5 -61.5t-57.5 -39.5l76 -129h49v-33h-74l-90 154h-67v-121h53v-33h-143zM330 1059h47q45 0 73.5 21.5t28.5 56.5q0 77 -100 77h-49v-155z" />
<glyph unicode="&#xaf;" horiz-adv-x="1036" d="M238 1081v49h561v-49h-561z" />
<glyph unicode="&#xb0;" horiz-adv-x="548" d="M37 1118q0 102 68 173t169 71q100 0 169 -71.5t69 -172.5t-69 -172.5t-169 -71.5q-101 0 -169 71t-68 173zM84 1118q0 -86 53.5 -144.5t136.5 -58.5t136 58.5t53 144.5t-53 144.5t-136 58.5t-136.5 -58.5t-53.5 -144.5z" />
<glyph unicode="&#xb1;" horiz-adv-x="790" d="M96 147v46h598v-46h-598zM96 606v45h275v283h47v-283h276v-45h-276v-284h-47v284h-275z" />
<glyph unicode="&#xb2;" horiz-adv-x="722" d="M111 903q53 181 260 311q98 63 144 113.5t46 116.5q0 67 -53 112.5t-135 45.5q-78 0 -132 -35.5t-63 -75.5q35 -9 35 -41q0 -18 -11.5 -29.5t-25.5 -11.5q-45 0 -45 55q0 64 67.5 119t174.5 55q101 0 167 -55.5t66 -138.5q0 -79 -50 -133t-161 -125q-186 -116 -233 -266 h413v139h41v-176h-491z" />
<glyph unicode="&#xb3;" horiz-adv-x="722" d="M109 1024q0 22 11 35.5t30 13.5q17 0 26.5 -10.5t9.5 -26.5q0 -29 -26 -39q14 -35 73 -62.5t127 -27.5q95 0 157.5 49t62.5 121q0 78 -68 124.5t-186 47.5h-39v37h41q98 0 164.5 47.5t66.5 118.5q0 66 -53.5 106.5t-138.5 40.5q-68 0 -119.5 -25.5t-65.5 -60.5 q27 -12 27 -36q0 -17 -11 -28t-26 -11q-16 0 -28.5 13t-12.5 36q0 56 67.5 102.5t168.5 46.5q103 0 169 -51.5t66 -130.5q0 -68 -56.5 -120t-137.5 -64q98 -12 156.5 -65t58.5 -128q0 -89 -73.5 -148t-189.5 -59q-96 0 -173.5 45.5t-77.5 108.5z" />
<glyph unicode="&#xb4;" horiz-adv-x="1036" d="M430 1040l252 172q33 23 51 23q15 0 26 -12t11 -29q0 -26 -47 -49l-279 -127z" />
<glyph unicode="&#xb6;" horiz-adv-x="1013" d="M68 707q0 136 105 223.5t263 87.5h510v-41h-151v-934h151v-43h-532v43h159v344q-37 -2 -143 -2q-159 0 -260.5 87.5t-101.5 234.5zM625 43h118v934h-118v-934z" />
<glyph unicode="&#xb7;" horiz-adv-x="473" d="M176 496q0 26 18 43.5t44 17.5q25 0 42 -17.5t17 -43.5t-17 -44t-42 -18q-26 0 -44 18t-18 44z" />
<glyph unicode="&#xb8;" horiz-adv-x="1036" d="M322 -369l14 35q82 -37 166 -37q70 0 105.5 28t35.5 71q0 91 -154 94q-18 0 -30 -2l-13 10l46 186l30 -6l-22 -149q91 -1 140.5 -36t49.5 -97q0 -63 -47 -100.5t-137 -37.5q-97 0 -184 41z" />
<glyph unicode="&#xb9;" horiz-adv-x="722" d="M141 1567l238 61h22v-706h207v-39h-461v39h211v659l-206 -53z" />
<glyph unicode="&#xba;" horiz-adv-x="663" d="M74 1106q0 113 73 189.5t185 76.5q111 0 184.5 -75.5t73.5 -190.5q0 -114 -74 -190t-184 -76q-112 0 -185 75t-73 191zM102 666v34h457v-34h-457zM115 1106q0 -99 62 -165.5t155 -66.5t155 66.5t62 165.5q0 97 -62 163t-155 66q-94 0 -155.5 -65.5t-61.5 -163.5z" />
<glyph unicode="&#xbb;" horiz-adv-x="802" d="M80 258l305 287l-305 286l29 31l342 -317l-342 -318zM373 258l305 287l-305 286l26 31l342 -317l-342 -318z" />
<glyph unicode="&#xbc;" horiz-adv-x="1628" d="M133 1260l238 61h22v-707h207v-39h-461v39h211v660l-207 -53zM428 -2q9 15 164 267.5t239 391.5l404 666l33 -18q-6 -12 -93 -155.5t-188.5 -309.5t-124.5 -205l-399 -655zM942 240l406 510l32 -25l-376 -467h323v213l41 16v-229h139v-35h-139v-188h117v-37h-301v37h143 v188h-377z" />
<glyph unicode="&#xbd;" horiz-adv-x="1628" d="M109 1260l237 61h23v-707h206v-39h-460v39h211v660l-207 -53zM395 -2q23 37 172.5 280t231.5 379l403 666l33 -18q-6 -12 -93 -155.5t-188.5 -309.5t-124.5 -205l-399 -655zM1001 18q53 182 261 312q99 64 144.5 113.5t45.5 115.5q0 67 -53 112.5t-135 45.5 q-78 0 -132 -35.5t-63 -75.5q35 -9 35 -41q0 -18 -11.5 -29.5t-25.5 -11.5q-45 0 -45 56q0 64 67.5 119t174.5 55q101 0 167 -55.5t66 -139.5q0 -79 -50 -133t-161 -125q-186 -116 -233 -266h413v139h41v-176h-491z" />
<glyph unicode="&#xbe;" horiz-adv-x="1628" d="M139 717q0 22 11 35.5t30 13.5q17 0 27 -10.5t10 -26.5q0 -29 -27 -39q14 -35 73 -62.5t128 -27.5q95 0 157 49t62 121q0 78 -68 124.5t-186 47.5h-39v37h41q98 0 165 48t67 118q0 66 -54 106.5t-139 40.5q-68 0 -119 -25.5t-65 -60.5q27 -12 27 -37q0 -17 -11 -28 t-26 -11q-16 0 -28.5 13.5t-12.5 36.5q0 56 67 102.5t168 46.5q104 0 170 -51.5t66 -130.5q0 -68 -57 -120t-138 -64q98 -12 156.5 -65t58.5 -128q0 -89 -73 -148t-189 -59q-96 0 -174 45.5t-78 108.5zM449 -2q9 15 164 267.5t239 391.5l403 666l33 -18q-6 -12 -92.5 -155 t-188 -310t-124.5 -205l-400 -655zM948 240l406 510l32 -25l-376 -467h323v213l41 16v-229h139v-35h-139v-188h117v-37h-301v37h143v188h-377z" />
<glyph unicode="&#xbf;" horiz-adv-x="827" d="M51 336q0 138 98 242.5t277 144.5l8 299h31l8 -328q-180 -37 -274.5 -132.5t-94.5 -225.5q0 -135 88.5 -221t227.5 -86q95 0 168 37.5t112 101.5q23 33 27 68q-31 3 -47 20t-16 43q0 22 16 37.5t39 15.5q24 0 42.5 -21t18.5 -55q0 -77 -45 -139q-47 -69 -129.5 -110 t-185.5 -41q-159 0 -264 100t-105 250zM393 1311q3 23 20.5 37.5t39.5 11.5q23 -2 37.5 -19.5t11.5 -42.5q-1 -23 -19 -37.5t-41 -11.5q-23 1 -37 19t-12 43z" />
<glyph unicode="&#xc0;" horiz-adv-x="1423" d="M29 0v45h159l469 1258h-184v45h477v-45h-182l467 -1258h162v-45h-412v45h193l-172 469h-588l-174 -469h196v-45h-411zM434 559h555l-276 750zM444 1649q0 17 11 29t26 12q18 0 51 -23l252 -172l-14 -22l-278 126q-48 23 -48 50z" />
<glyph unicode="&#xc1;" horiz-adv-x="1423" d="M29 0v45h159l469 1258h-184v45h477v-45h-182l467 -1258h162v-45h-412v45h193l-172 469h-588l-174 -469h196v-45h-411zM434 559h555l-276 750zM637 1495l252 172q33 23 51 23q15 0 26 -12t11 -29q0 -27 -47 -50l-279 -126z" />
<glyph unicode="&#xc2;" horiz-adv-x="1423" d="M29 0v45h159l469 1258h-184v45h477v-45h-182l467 -1258h162v-45h-412v45h193l-172 469h-588l-174 -469h196v-45h-411zM434 559h555l-276 750zM451 1481l260 243l260 -243l-19 -21l-241 180l-242 -180z" />
<glyph unicode="&#xc3;" horiz-adv-x="1423" d="M29 0v45h159l469 1258h-184v45h477v-45h-182l467 -1258h162v-45h-412v45h193l-172 469h-588l-174 -469h196v-45h-411zM416 1493q16 76 54 122t99 46q41 0 74.5 -15.5t83.5 -54.5q75 -61 129 -61q42 0 69.5 28t49.5 93l35 -9q-16 -75 -54.5 -120t-99.5 -45 q-40 0 -73.5 15.5t-82.5 53.5q-45 33 -73.5 47.5t-57.5 14.5q-42 0 -69 -28.5t-49 -94.5zM434 559h555l-276 750z" />
<glyph unicode="&#xc4;" horiz-adv-x="1423" d="M29 0v45h159l469 1258h-184v45h477v-45h-182l467 -1258h162v-45h-412v45h193l-172 469h-588l-174 -469h196v-45h-411zM434 559h555l-276 750zM541 1561q0 23 15 39t38 16t38 -16t15 -39q0 -22 -15 -38t-38 -16t-38 16t-15 38zM774 1561q0 23 15 39t38 16t38.5 -16 t15.5 -39q0 -22 -15.5 -38t-38.5 -16t-38 16t-15 38z" />
<glyph unicode="&#xc5;" horiz-adv-x="1423" d="M29 0v45h159l469 1258h-184v45h135q-67 45 -67 133q0 69 49 118.5t123 49.5q73 0 122.5 -49.5t49.5 -118.5q0 -88 -70 -133h135v-45h-182l467 -1258h162v-45h-412v45h193l-172 469h-588l-174 -469h196v-45h-411zM434 559h555l-276 750zM590 1477q0 -57 34.5 -95.5 t88.5 -38.5q53 0 88 39t35 95q0 55 -35 94t-88 39q-54 0 -88.5 -39t-34.5 -94z" />
<glyph unicode="&#xc6;" horiz-adv-x="1708" d="M-63 0v45h163l656 1258h-185v45h994v-295h-52v250h-630v-590h495v-47h-495v-621h630v250h52v-295h-932v45h196v471h-430l-243 -471h168v-45h-387zM424 561h405v742h-20z" />
<glyph unicode="&#xc7;" horiz-adv-x="1425" d="M117 664q0 193 85 354t237 255.5t339 94.5q137 0 253 -50.5t179.5 -129t63.5 -162.5q0 -36 -18 -57t-48 -21q-24 0 -40.5 17t-16.5 41q0 26 16.5 44t46.5 21q-15 89 -138.5 170.5t-297.5 81.5q-172 0 -311.5 -88t-217 -238t-77.5 -331q0 -178 76 -324t216.5 -231.5 t319.5 -85.5q265 0 457 192l29 -35q-208 -202 -486 -202h-10l-18 -121q91 -1 140.5 -36t49.5 -97q0 -63 -47 -100.5t-137 -37.5q-97 0 -184 41l14 35q82 -37 166 -37q70 0 105.5 28t35.5 71q0 91 -154 94q-18 0 -30 -2l-13 10l37 154q-185 11 -328 106.5t-218.5 246 t-75.5 329.5z" />
<glyph unicode="&#xc8;" horiz-adv-x="1165" d="M92 0v45h195v1258h-195v45h930v-295h-51v250h-631v-590h496v-47h-496v-621h631v250h51v-295h-930zM328 1649q0 17 11 29t26 12q18 0 51 -23l252 -172l-15 -22l-278 126q-47 23 -47 50z" />
<glyph unicode="&#xc9;" horiz-adv-x="1165" d="M92 0v45h195v1258h-195v45h930v-295h-51v250h-631v-590h496v-47h-496v-621h631v250h51v-295h-930zM520 1495l252 172q33 23 51 23q15 0 26 -12t11 -29q0 -27 -47 -50l-278 -126z" />
<glyph unicode="&#xca;" horiz-adv-x="1165" d="M92 0v45h195v1258h-195v45h930v-295h-51v250h-631v-590h496v-47h-496v-621h631v250h51v-295h-930zM334 1481l260 243l260 -243l-18 -21l-242 180l-242 -180z" />
<glyph unicode="&#xcb;" horiz-adv-x="1165" d="M92 0v45h195v1258h-195v45h930v-295h-51v250h-631v-590h496v-47h-496v-621h631v250h51v-295h-930zM424 1561q0 23 15 39t38 16t38 -16t15 -39q0 -22 -15 -38t-38 -16t-38 16t-15 38zM657 1561q0 23 15.5 39t38.5 16t38 -16t15 -39q0 -22 -15 -38t-38 -16t-38.5 16 t-15.5 38z" />
<glyph unicode="&#xcc;" horiz-adv-x="645" d="M57 1649q0 17 11 29t26 12q18 0 51 -23l252 -172l-14 -22l-279 126q-47 23 -47 50zM92 0v45h203v1258h-203v45h463v-45h-205v-1258h205v-45h-463z" />
<glyph unicode="&#xcd;" horiz-adv-x="645" d="M92 0v45h203v1258h-203v45h463v-45h-205v-1258h205v-45h-463zM250 1495l252 172q33 23 51 23q15 0 26 -12t11 -29q0 -27 -47 -50l-279 -126z" />
<glyph unicode="&#xce;" horiz-adv-x="645" d="M63 1481l261 243l260 -243l-19 -21l-241 180l-242 -180zM92 0v45h203v1258h-203v45h463v-45h-205v-1258h205v-45h-463z" />
<glyph unicode="&#xcf;" horiz-adv-x="645" d="M92 0v45h203v1258h-203v45h463v-45h-205v-1258h205v-45h-463zM154 1561q0 23 15 39t38 16t38 -16t15 -39q0 -22 -15 -38t-38 -16t-38 16t-15 38zM387 1561q0 23 15 39t38 16t38.5 -16t15.5 -39q0 -22 -15.5 -38t-38.5 -16t-38 16t-15 38z" />
<glyph unicode="&#xd0;" horiz-adv-x="1445" d="M90 0v45h195v623h-154v47h154v588h-195v45h498q176 0 316.5 -49.5t232 -138.5t140 -211.5t48.5 -270.5q0 -150 -48.5 -274.5t-140 -214t-230 -139.5t-312.5 -50h-504zM338 45h260q324 0 499 171.5t175 461.5q0 139 -44 253.5t-128.5 197.5t-215 128.5t-296.5 45.5h-250 v-588h336v-47h-336v-623z" />
<glyph unicode="&#xd1;" horiz-adv-x="1527" d="M92 0v45h195v1258h-195v45h238l893 -1250v1205h-199v45h444v-45h-194v-1309h-37l-901 1259v-1208h203v-45h-447zM477 1493q16 76 54.5 122t99.5 46q41 0 74 -15.5t83 -54.5q75 -61 130 -61q42 0 69 28t49 93l35 -9q-16 -75 -54 -120t-99 -45q-40 0 -73.5 15.5t-82.5 53.5 q-45 33 -73.5 47.5t-57.5 14.5q-43 0 -70 -28.5t-49 -94.5z" />
<glyph unicode="&#xd2;" d="M117 674q0 142 51.5 270.5t140 221.5t213 147.5t264.5 54.5q188 0 342 -92.5t241 -251.5t87 -350q0 -190 -87.5 -349.5t-241.5 -252t-341 -92.5q-188 0 -342 92.5t-240.5 251.5t-86.5 350zM172 674q0 -179 79 -327.5t220 -235t315 -86.5q130 0 245 50.5t196 137 t127.5 206.5t46.5 255q0 179 -79 327.5t-220.5 235t-315.5 86.5q-130 0 -244.5 -50.5t-195.5 -137t-127.5 -206.5t-46.5 -255zM518 1649q0 17 11 29t26 12q18 0 51 -23l252 -172l-14 -22l-279 126q-47 23 -47 50z" />
<glyph unicode="&#xd3;" d="M117 674q0 142 51.5 270.5t140 221.5t213 147.5t264.5 54.5q188 0 342 -92.5t241 -251.5t87 -350q0 -190 -87.5 -349.5t-241.5 -252t-341 -92.5q-188 0 -342 92.5t-240.5 251.5t-86.5 350zM172 674q0 -179 79 -327.5t220 -235t315 -86.5q130 0 245 50.5t196 137 t127.5 206.5t46.5 255q0 179 -79 327.5t-220.5 235t-315.5 86.5q-130 0 -244.5 -50.5t-195.5 -137t-127.5 -206.5t-46.5 -255zM713 1495l252 172q33 23 51 23q15 0 26 -12t11 -29q0 -27 -47 -50l-279 -126z" />
<glyph unicode="&#xd4;" d="M117 674q0 142 51.5 270.5t140 221.5t213 147.5t264.5 54.5q188 0 342 -92.5t241 -251.5t87 -350q0 -190 -87.5 -349.5t-241.5 -252t-341 -92.5q-188 0 -342 92.5t-240.5 251.5t-86.5 350zM172 674q0 -179 79 -327.5t220 -235t315 -86.5q130 0 245 50.5t196 137 t127.5 206.5t46.5 255q0 179 -79 327.5t-220.5 235t-315.5 86.5q-130 0 -244.5 -50.5t-195.5 -137t-127.5 -206.5t-46.5 -255zM526 1481l260 243l261 -243l-19 -21l-242 180l-241 -180z" />
<glyph unicode="&#xd5;" d="M117 674q0 142 51.5 270.5t140 221.5t213 147.5t264.5 54.5q188 0 342 -92.5t241 -251.5t87 -350q0 -190 -87.5 -349.5t-241.5 -252t-341 -92.5q-188 0 -342 92.5t-240.5 251.5t-86.5 350zM172 674q0 -179 79 -327.5t220 -235t315 -86.5q130 0 245 50.5t196 137 t127.5 206.5t46.5 255q0 179 -79 327.5t-220.5 235t-315.5 86.5q-130 0 -244.5 -50.5t-195.5 -137t-127.5 -206.5t-46.5 -255zM489 1493q16 76 54.5 122t99.5 46q41 0 74.5 -15.5t83.5 -54.5q75 -61 129 -61q42 0 69.5 28t49.5 93l34 -9q-16 -75 -54 -120t-99 -45 q-40 0 -73.5 15.5t-82.5 53.5q-45 33 -73.5 47.5t-57.5 14.5q-43 0 -70 -28.5t-49 -94.5z" />
<glyph unicode="&#xd6;" d="M117 674q0 142 51.5 270.5t140 221.5t213 147.5t264.5 54.5q188 0 342 -92.5t241 -251.5t87 -350q0 -190 -87.5 -349.5t-241.5 -252t-341 -92.5q-188 0 -342 92.5t-240.5 251.5t-86.5 350zM172 674q0 -179 79 -327.5t220 -235t315 -86.5q130 0 245 50.5t196 137 t127.5 206.5t46.5 255q0 179 -79 327.5t-220.5 235t-315.5 86.5q-130 0 -244.5 -50.5t-195.5 -137t-127.5 -206.5t-46.5 -255zM616 1561q0 23 15.5 39t38.5 16t38 -16t15 -39q0 -22 -15 -38t-38 -16t-38.5 16t-15.5 38zM850 1561q0 23 15 39t38 16t38 -16t15 -39 q0 -22 -15 -38t-38 -16t-38 16t-15 38z" />
<glyph unicode="&#xd7;" horiz-adv-x="790" d="M117 291l245 246l-245 245l33 35l245 -248l246 248l33 -35l-246 -243l246 -248l-33 -33l-246 246l-245 -246z" />
<glyph unicode="&#xd8;" d="M117 674q0 142 51.5 270.5t140 221.5t213 147.5t264.5 54.5q240 0 422 -151l166 192l33 -29l-166 -192q101 -95 158 -228.5t57 -285.5q0 -190 -87.5 -349.5t-241.5 -252t-341 -92.5q-256 0 -440 163l-176 -202l-33 28l176 207q-93 95 -144.5 223.5t-51.5 274.5zM172 674 q0 -136 45 -254.5t129 -206.5l832 969q-167 141 -392 141q-130 0 -244.5 -50.5t-195.5 -137t-127.5 -206.5t-46.5 -255zM377 182q170 -157 409 -157q130 0 245 50.5t196 137t127.5 206.5t46.5 255q0 139 -50.5 263t-140.5 214z" />
<glyph unicode="&#xd9;" horiz-adv-x="1402" d="M59 1303v45h447v-45h-199v-834q0 -217 100.5 -330.5t294.5 -113.5q195 0 295.5 112.5t100.5 331.5v834h-201v45h446v-45h-194v-838q0 -233 -116 -359t-333 -126q-216 0 -331 126t-115 359v838h-195zM434 1649q0 17 11 29t26 12q18 0 51 -23l252 -172l-14 -22l-279 126 q-47 23 -47 50z" />
<glyph unicode="&#xda;" horiz-adv-x="1402" d="M59 1303v45h447v-45h-199v-834q0 -217 100.5 -330.5t294.5 -113.5q195 0 295.5 112.5t100.5 331.5v834h-201v45h446v-45h-194v-838q0 -233 -116 -359t-333 -126q-216 0 -331 126t-115 359v838h-195zM627 1495l252 172q33 23 51 23q15 0 26 -12t11 -29q0 -27 -47 -50 l-279 -126z" />
<glyph unicode="&#xdb;" horiz-adv-x="1402" d="M59 1303v45h447v-45h-199v-834q0 -217 100.5 -330.5t294.5 -113.5q195 0 295.5 112.5t100.5 331.5v834h-201v45h446v-45h-194v-838q0 -233 -116 -359t-333 -126q-216 0 -331 126t-115 359v838h-195zM440 1481l260 243l261 -243l-19 -21l-242 180l-241 -180z" />
<glyph unicode="&#xdc;" horiz-adv-x="1402" d="M59 1303v45h447v-45h-199v-834q0 -217 100.5 -330.5t294.5 -113.5q195 0 295.5 112.5t100.5 331.5v834h-201v45h446v-45h-194v-838q0 -233 -116 -359t-333 -126q-216 0 -331 126t-115 359v838h-195zM530 1561q0 23 15.5 39t38.5 16t38 -16t15 -39q0 -22 -15 -38t-38 -16 t-38.5 16t-15.5 38zM764 1561q0 23 15 39t38 16t38 -16t15 -39q0 -22 -15 -38t-38 -16t-38 16t-15 38z" />
<glyph unicode="&#xdd;" horiz-adv-x="1286" d="M27 1303v45h409v-45h-188l397 -689l395 689h-188v45h408v-45h-162l-428 -730v-528h215v-45h-486v45h217v528l-430 730h-159zM567 1495l252 172q33 23 51 23q15 0 26 -12t11 -29q0 -27 -47 -50l-278 -126z" />
<glyph unicode="&#xde;" horiz-adv-x="1155" d="M90 0v45h197v1258h-197v45h451v-45h-201v-238q147 6 244 6q218 0 345.5 -107.5t127.5 -279.5q0 -182 -126 -285.5t-347 -103.5q-146 0 -244 4v-254h201v-45h-451zM340 344q106 -4 244 -4q203 0 311.5 92.5t108.5 249.5q0 153 -109.5 247.5t-310.5 94.5q-138 0 -244 -4 v-676z" />
<glyph unicode="&#xdf;" horiz-adv-x="1036" d="M74 803v41h162v311q0 133 47 219q37 65 98 101t137 36q126 0 206.5 -74t80.5 -196q0 -89 -40 -156t-110 -137q-43 -45 -60 -63.5t-36.5 -54.5t-19.5 -70q0 -36 15.5 -68t48 -61.5t59 -48.5t71.5 -47q50 -31 85 -57.5t72 -64t56 -83t19 -97.5q0 -110 -79 -179.5 t-218 -69.5q-100 0 -158.5 33.5t-58.5 80.5q0 25 12.5 39.5t32.5 14.5q23 0 37 -14.5t14 -35.5q0 -30 -19 -45q38 -34 142 -34q113 0 178 57t65 153q0 81 -55 141t-153 122q-48 31 -79.5 54t-67 57t-53.5 72.5t-18 80.5q0 29 9 56t31 56t36 45t45 48q68 66 107 129.5 t39 146.5q0 103 -64 166t-172 63q-66 0 -118 -33t-83 -94q-32 -65 -32 -188v-1155h-201v41h152v762h-162z" />
<glyph unicode="&#xe0;" horiz-adv-x="940" d="M88 227q0 112 86.5 182t224.5 70q151 0 281 -49v164q0 89 -45 143q-64 80 -205 80q-78 0 -133.5 -23.5t-83.5 -58.5q25 -19 25 -55q0 -18 -13.5 -32.5t-34.5 -14.5q-24 0 -36.5 15.5t-12.5 39.5q0 59 80 113.5t211 54.5q167 0 242 -90q55 -64 55 -168v-557h152v-41h-199 v139q-57 -64 -138.5 -107.5t-172.5 -43.5q-134 0 -208.5 68.5t-74.5 170.5zM137 229q0 -83 59 -141.5t173 -58.5q174 0 311 155v209q-133 45 -279 45q-127 0 -195.5 -61.5t-68.5 -147.5zM176 1194q0 17 11 29t26 12q18 0 51 -23l252 -172l-14 -22l-279 127q-47 23 -47 49z " />
<glyph unicode="&#xe1;" horiz-adv-x="940" d="M88 227q0 112 86.5 182t224.5 70q151 0 281 -49v164q0 89 -45 143q-64 80 -205 80q-78 0 -133.5 -23.5t-83.5 -58.5q25 -19 25 -55q0 -18 -13.5 -32.5t-34.5 -14.5q-24 0 -36.5 15.5t-12.5 39.5q0 59 80 113.5t211 54.5q167 0 242 -90q55 -64 55 -168v-557h152v-41h-199 v139q-57 -64 -138.5 -107.5t-172.5 -43.5q-134 0 -208.5 68.5t-74.5 170.5zM137 229q0 -83 59 -141.5t173 -58.5q174 0 311 155v209q-133 45 -279 45q-127 0 -195.5 -61.5t-68.5 -147.5zM369 1040l252 172q33 23 51 23q15 0 26 -12t11 -29q0 -26 -47 -49l-279 -127z" />
<glyph unicode="&#xe2;" horiz-adv-x="940" d="M88 227q0 112 86.5 182t224.5 70q151 0 281 -49v164q0 89 -45 143q-64 80 -205 80q-78 0 -133.5 -23.5t-83.5 -58.5q25 -19 25 -55q0 -18 -13.5 -32.5t-34.5 -14.5q-24 0 -36.5 15.5t-12.5 39.5q0 59 80 113.5t211 54.5q167 0 242 -90q55 -64 55 -168v-557h152v-41h-199 v139q-57 -64 -138.5 -107.5t-172.5 -43.5q-134 0 -208.5 68.5t-74.5 170.5zM137 229q0 -83 59 -141.5t173 -58.5q174 0 311 155v209q-133 45 -279 45q-127 0 -195.5 -61.5t-68.5 -147.5zM182 1026l260 244l260 -244l-18 -20l-242 180l-241 -180z" />
<glyph unicode="&#xe3;" horiz-adv-x="940" d="M88 227q0 112 86.5 182t224.5 70q151 0 281 -49v164q0 89 -45 143q-64 80 -205 80q-78 0 -133.5 -23.5t-83.5 -58.5q25 -19 25 -55q0 -18 -13.5 -32.5t-34.5 -14.5q-24 0 -36.5 15.5t-12.5 39.5q0 59 80 113.5t211 54.5q167 0 242 -90q55 -64 55 -168v-557h152v-41h-199 v139q-57 -64 -138.5 -107.5t-172.5 -43.5q-134 0 -208.5 68.5t-74.5 170.5zM137 229q0 -83 59 -141.5t173 -58.5q174 0 311 155v209q-133 45 -279 45q-127 0 -195.5 -61.5t-68.5 -147.5zM145 1038q16 76 54.5 122t99.5 46q41 0 75 -15.5t83 -53.5q76 -62 129 -62 q42 0 69.5 28t49.5 93l34 -8q-16 -75 -54 -120.5t-99 -45.5q-40 0 -73 15.5t-83 54.5q-44 33 -73 47t-58 14q-43 0 -70 -28.5t-49 -94.5z" />
<glyph unicode="&#xe4;" horiz-adv-x="940" d="M88 227q0 112 86.5 182t224.5 70q151 0 281 -49v164q0 89 -45 143q-64 80 -205 80q-78 0 -133.5 -23.5t-83.5 -58.5q25 -19 25 -55q0 -18 -13.5 -32.5t-34.5 -14.5q-24 0 -36.5 15.5t-12.5 39.5q0 59 80 113.5t211 54.5q167 0 242 -90q55 -64 55 -168v-557h152v-41h-199 v139q-57 -64 -138.5 -107.5t-172.5 -43.5q-134 0 -208.5 68.5t-74.5 170.5zM137 229q0 -83 59 -141.5t173 -58.5q174 0 311 155v209q-133 45 -279 45q-127 0 -195.5 -61.5t-68.5 -147.5zM272 1106q0 23 15.5 39t38.5 16t38 -16t15 -39q0 -22 -15 -37.5t-38 -15.5t-38.5 15.5 t-15.5 37.5zM506 1106q0 23 15 39t38 16t38 -16t15 -39q0 -22 -15 -37.5t-38 -15.5t-38 15.5t-15 37.5z" />
<glyph unicode="&#xe5;" horiz-adv-x="940" d="M88 227q0 112 86.5 182t224.5 70q151 0 281 -49v164q0 89 -45 143q-64 80 -205 80q-78 0 -133.5 -23.5t-83.5 -58.5q25 -19 25 -55q0 -18 -13.5 -32.5t-34.5 -14.5q-24 0 -36.5 15.5t-12.5 39.5q0 59 80 113.5t211 54.5q167 0 242 -90q55 -64 55 -168v-557h152v-41h-199 v139q-57 -64 -138.5 -107.5t-172.5 -43.5q-134 0 -208.5 68.5t-74.5 170.5zM137 229q0 -83 59 -141.5t173 -58.5q174 0 311 155v209q-133 45 -279 45q-127 0 -195.5 -61.5t-68.5 -147.5zM270 1176q0 71 49.5 122.5t122.5 51.5t122.5 -51.5t49.5 -122.5q0 -72 -49.5 -122 t-122.5 -50t-122.5 50t-49.5 122zM319 1176q0 -56 34 -94t89 -38t89 38t34 94q0 55 -34.5 94t-88.5 39t-88.5 -39t-34.5 -94z" />
<glyph unicode="&#xe6;" horiz-adv-x="1525" d="M88 227q0 112 86.5 182t224.5 70q151 0 281 -49v164q0 89 -45 143q-64 80 -205 80q-78 0 -133.5 -23.5t-83.5 -58.5q25 -19 25 -55q0 -18 -13.5 -32.5t-34.5 -14.5q-24 0 -36.5 15.5t-12.5 39.5q0 59 80 113.5t211 54.5q163 0 236 -88q45 -54 51 -141q47 106 138.5 167.5 t203.5 61.5q117 0 203.5 -56t128 -144t41.5 -195q0 -25 -2 -33h-711q0 -191 102 -295t273 -104q161 0 297 98l-4 -49q-132 -90 -297 -90q-119 0 -210 47.5t-143 136.5q-153 -184 -368 -184q-134 0 -208.5 68.5t-74.5 170.5zM137 229q0 -83 59 -141.5t173 -58.5 q99 0 191 45.5t163 132.5q-40 85 -43 186q-140 45 -279 45q-127 0 -195.5 -61.5t-68.5 -147.5zM721 469h663q-2 146 -87 246t-236 100q-134 0 -231 -98t-109 -248z" />
<glyph unicode="&#xe7;" horiz-adv-x="1011" d="M90 412q0 127 57.5 229.5t152 158.5t204.5 56q133 0 225 -71.5t92 -159.5q0 -30 -15.5 -49t-41.5 -19q-19 0 -32 13t-13 34q0 47 49 62q-18 62 -91.5 105.5t-170.5 43.5q-152 0 -259.5 -114t-107.5 -289q0 -173 111 -278t278 -105q150 0 275 86l-2 -47q-119 -80 -275 -80 h-22l-19 -127q91 -1 141 -36t50 -97q0 -63 -47 -100.5t-137 -37.5q-98 0 -185 41l15 35q82 -37 165 -37q70 0 106 28t36 71q0 91 -154 94q-19 0 -31 -2l-12 10l39 162q-168 15 -274.5 127.5t-106.5 292.5z" />
<glyph unicode="&#xe8;" horiz-adv-x="950" d="M92 428q0 183 116 305.5t277 122.5q87 0 159 -32t118.5 -87t72 -126t25.5 -150q0 -17 -4 -33h-715q0 -190 103.5 -294.5t275.5 -104.5q164 0 297 98l-4 -49q-129 -90 -297 -90q-189 0 -306.5 118t-117.5 322zM141 469h670q-2 95 -38.5 171.5t-111.5 125.5t-178 49 q-134 0 -232 -98t-110 -248zM223 1194q0 17 11 29t26 12q18 0 51 -23l252 -172l-14 -22l-279 127q-47 23 -47 49z" />
<glyph unicode="&#xe9;" horiz-adv-x="950" d="M92 428q0 183 116 305.5t277 122.5q87 0 159 -32t118.5 -87t72 -126t25.5 -150q0 -17 -4 -33h-715q0 -190 103.5 -294.5t275.5 -104.5q164 0 297 98l-4 -49q-129 -90 -297 -90q-189 0 -306.5 118t-117.5 322zM141 469h670q-2 95 -38.5 171.5t-111.5 125.5t-178 49 q-134 0 -232 -98t-110 -248zM416 1040l252 172q33 23 51 23q15 0 26 -12t11 -29q0 -26 -47 -49l-279 -127z" />
<glyph unicode="&#xea;" horiz-adv-x="950" d="M92 428q0 183 116 305.5t277 122.5q87 0 159 -32t118.5 -87t72 -126t25.5 -150q0 -17 -4 -33h-715q0 -190 103.5 -294.5t275.5 -104.5q164 0 297 98l-4 -49q-129 -90 -297 -90q-189 0 -306.5 118t-117.5 322zM141 469h670q-2 95 -38.5 171.5t-111.5 125.5t-178 49 q-134 0 -232 -98t-110 -248zM229 1026l260 244l261 -244l-19 -20l-242 180l-241 -180z" />
<glyph unicode="&#xeb;" horiz-adv-x="950" d="M92 428q0 183 116 305.5t277 122.5q87 0 159 -32t118.5 -87t72 -126t25.5 -150q0 -17 -4 -33h-715q0 -190 103.5 -294.5t275.5 -104.5q164 0 297 98l-4 -49q-129 -90 -297 -90q-189 0 -306.5 118t-117.5 322zM141 469h670q-2 95 -38.5 171.5t-111.5 125.5t-178 49 q-134 0 -232 -98t-110 -248zM319 1106q0 23 15.5 39t38.5 16t38 -16t15 -39q0 -22 -15 -37.5t-38 -15.5t-38.5 15.5t-15.5 37.5zM553 1106q0 23 15 39t38 16t38 -16t15 -39q0 -22 -15 -37.5t-38 -15.5t-38 15.5t-15 37.5z" />
<glyph unicode="&#xec;" horiz-adv-x="522" d="M-14 1194q0 17 11 29t26 12q18 0 51 -23l252 -172l-15 -22l-278 127q-47 23 -47 49zM76 0v41h166v762h-166v41h215v-803h166v-41h-381z" />
<glyph unicode="&#xed;" horiz-adv-x="522" d="M76 0v41h166v762h-166v41h215v-803h166v-41h-381zM178 1040l252 172q33 23 51 23q15 0 26 -12t11 -29q0 -26 -47 -49l-278 -127z" />
<glyph unicode="&#xee;" horiz-adv-x="522" d="M-8 1026l260 244l260 -244l-18 -20l-242 180l-242 -180zM76 0v41h166v762h-166v41h215v-803h166v-41h-381z" />
<glyph unicode="&#xef;" horiz-adv-x="522" d="M76 0v41h166v762h-166v41h215v-803h166v-41h-381zM82 1106q0 23 15 39t38 16t38 -16t15 -39q0 -22 -15 -37.5t-38 -15.5t-38 15.5t-15 37.5zM315 1106q0 23 15.5 39t38.5 16t38 -16t15 -39q0 -22 -15 -37.5t-38 -15.5t-38.5 15.5t-15.5 37.5z" />
<glyph unicode="&#xf0;" horiz-adv-x="1030" d="M92 410q0 115 53.5 211t150.5 153t216 57q138 0 239.5 -70.5t147.5 -187.5q-20 378 -270 660l-289 -262l-27 30l287 263q-87 90 -180.5 144t-167.5 62q0 -30 -14.5 -50.5t-40.5 -20.5q-20 0 -33.5 13.5t-13.5 33.5q0 30 21.5 48.5t57.5 18.5q47 0 103 -18 q160 -56 301 -207l205 189l26 -31l-205 -186q289 -322 289 -752q0 -258 -135 -393q-115 -127 -305 -127q-182 0 -299 120.5t-117 301.5zM141 410q0 -162 103.5 -271.5t263.5 -109.5q170 0 278 118q105 114 105 279q0 146 -109 255.5t-270 109.5q-163 0 -267 -110.5 t-104 -270.5z" />
<glyph unicode="&#xf1;" horiz-adv-x="1087" d="M78 0v41h153v762h-153v41h201v-174q68 80 155.5 133t186.5 53q154 0 217 -113q36 -58 36 -180v-522h154v-41h-354v41h151v518q0 95 -26 154q-49 100 -185 100q-171 0 -333 -195v-577h151v-41h-354zM262 1038q16 76 54.5 122t99.5 46q41 0 74 -15t83 -54q76 -62 129 -62 q42 0 69.5 28t49.5 93l35 -8q-16 -75 -54.5 -120.5t-99.5 -45.5q-39 0 -72 15.5t-83 54.5q-44 33 -73 47t-58 14q-43 0 -70 -28.5t-49 -94.5z" />
<glyph unicode="&#xf2;" horiz-adv-x="1032" d="M92 422q0 184 121.5 309t302.5 125q184 0 304 -123.5t120 -310.5q0 -184 -121.5 -309t-302.5 -125q-184 0 -304 123.5t-120 310.5zM141 422q0 -167 106.5 -280t268.5 -113q161 0 267 113t106 280t-106 280t-267 113q-162 0 -268.5 -113t-106.5 -280zM250 1194q0 17 11 29 t26 12q18 0 51 -23l252 -172l-15 -22l-278 127q-47 23 -47 49z" />
<glyph unicode="&#xf3;" horiz-adv-x="1032" d="M92 422q0 184 121.5 309t302.5 125q184 0 304 -123.5t120 -310.5q0 -184 -121.5 -309t-302.5 -125q-184 0 -304 123.5t-120 310.5zM141 422q0 -167 106.5 -280t268.5 -113q161 0 267 113t106 280t-106 280t-267 113q-162 0 -268.5 -113t-106.5 -280zM440 1040l252 172 q33 23 51 23q15 0 26 -12t11 -29q0 -26 -47 -49l-278 -127z" />
<glyph unicode="&#xf4;" horiz-adv-x="1032" d="M92 422q0 184 121.5 309t302.5 125q184 0 304 -123.5t120 -310.5q0 -184 -121.5 -309t-302.5 -125q-184 0 -304 123.5t-120 310.5zM141 422q0 -167 106.5 -280t268.5 -113q161 0 267 113t106 280t-106 280t-267 113q-162 0 -268.5 -113t-106.5 -280zM256 1026l260 244 l260 -244l-18 -20l-242 180l-242 -180z" />
<glyph unicode="&#xf5;" horiz-adv-x="1032" d="M92 422q0 184 121.5 309t302.5 125q184 0 304 -123.5t120 -310.5q0 -184 -121.5 -309t-302.5 -125q-184 0 -304 123.5t-120 310.5zM141 422q0 -167 106.5 -280t268.5 -113q161 0 267 113t106 280t-106 280t-267 113q-162 0 -268.5 -113t-106.5 -280zM221 1038 q16 76 54.5 122t99.5 46q41 0 74 -15t83 -54q76 -62 130 -62q42 0 69 28t49 93l35 -8q-16 -75 -54 -120.5t-99 -45.5q-40 0 -73 15.5t-83 54.5q-44 33 -73 47t-58 14q-43 0 -70 -28.5t-49 -94.5z" />
<glyph unicode="&#xf6;" horiz-adv-x="1032" d="M92 422q0 184 121.5 309t302.5 125q184 0 304 -123.5t120 -310.5q0 -184 -121.5 -309t-302.5 -125q-184 0 -304 123.5t-120 310.5zM141 422q0 -167 106.5 -280t268.5 -113q161 0 267 113t106 280t-106 280t-267 113q-162 0 -268.5 -113t-106.5 -280zM346 1106q0 23 15 39 t38 16t38.5 -16t15.5 -39q0 -22 -15.5 -37.5t-38.5 -15.5t-38 15.5t-15 37.5zM580 1106q0 23 15 39t38 16t38 -16t15 -39q0 -22 -15 -37.5t-38 -15.5t-38 15.5t-15 37.5z" />
<glyph unicode="&#xf7;" horiz-adv-x="790" d="M96 514v45h598v-45h-598zM342 293q0 23 15 39t38 16t38.5 -16t15.5 -39t-15.5 -39t-38.5 -16t-38 16t-15 39zM342 780q0 24 15 40t38 16t38.5 -16.5t15.5 -39.5t-15.5 -39t-38.5 -16t-38 16t-15 39z" />
<glyph unicode="&#xf8;" horiz-adv-x="1032" d="M92 422q0 184 121.5 309t302.5 125q152 0 268 -92l109 129l31 -29l-111 -127q127 -124 127 -315q0 -184 -121.5 -309t-302.5 -125q-154 0 -270 92l-105 -121l-30 29l104 118q-123 123 -123 316zM141 422q0 -168 105 -279l508 586q-102 86 -238 86q-162 0 -268.5 -113 t-106.5 -280zM276 115q99 -86 240 -86q161 0 267 113t106 280t-107 280z" />
<glyph unicode="&#xf9;" horiz-adv-x="1071" d="M57 803v41h203v-559q0 -99 29 -158q49 -96 182 -96q89 0 175.5 58t158.5 151v563h-152v41h201v-803h154v-41h-201v190q-68 -87 -155.5 -144.5t-186.5 -57.5q-155 0 -219 114q-35 61 -35 179v522h-154zM264 1194q0 17 11 29t26 12q18 0 51 -23l252 -172l-14 -22l-279 127 q-47 23 -47 49z" />
<glyph unicode="&#xfa;" horiz-adv-x="1071" d="M57 803v41h203v-559q0 -99 29 -158q49 -96 182 -96q89 0 175.5 58t158.5 151v563h-152v41h201v-803h154v-41h-201v190q-68 -87 -155.5 -144.5t-186.5 -57.5q-155 0 -219 114q-35 61 -35 179v522h-154zM455 1040l252 172q33 23 51 23q15 0 26 -12t11 -29q0 -26 -47 -49 l-279 -127z" />
<glyph unicode="&#xfb;" horiz-adv-x="1071" d="M57 803v41h203v-559q0 -99 29 -158q49 -96 182 -96q89 0 175.5 58t158.5 151v563h-152v41h201v-803h154v-41h-201v190q-68 -87 -155.5 -144.5t-186.5 -57.5q-155 0 -219 114q-35 61 -35 179v522h-154zM268 1026l260 244l260 -244l-18 -20l-242 180l-241 -180z" />
<glyph unicode="&#xfc;" horiz-adv-x="1071" d="M57 803v41h203v-559q0 -99 29 -158q49 -96 182 -96q89 0 175.5 58t158.5 151v563h-152v41h201v-803h154v-41h-201v190q-68 -87 -155.5 -144.5t-186.5 -57.5q-155 0 -219 114q-35 61 -35 179v522h-154zM358 1106q0 23 15.5 39t38.5 16t38 -16t15 -39q0 -22 -15 -37.5 t-38 -15.5t-38.5 15.5t-15.5 37.5zM592 1106q0 23 15 39t38 16t38 -16t15 -39q0 -22 -15 -37.5t-38 -15.5t-38 15.5t-15 37.5z" />
<glyph unicode="&#xfd;" horiz-adv-x="954" d="M-4 803v41h346v-41h-162l295 -729l307 729h-166v41h345v-41h-132l-393 -918q-35 -85 -80 -157q-46 -74 -96 -106t-113 -32q-45 0 -70.5 20.5t-25.5 49.5q0 21 14 35t35 14q30 0 44.5 -25t5.5 -55q51 0 90 26t79 91q36 52 82 160l52 121l-326 776h-131zM406 1040l251 172 q33 23 52 23q15 0 25.5 -12t10.5 -29q0 -26 -47 -49l-278 -127z" />
<glyph unicode="&#xfe;" horiz-adv-x="1046" d="M20 -360h154v1810h-154v41h203l-2 -797q144 162 334 162q173 0 286 -123t113 -311q0 -187 -117.5 -310.5t-291.5 -123.5q-90 0 -174.5 36t-147.5 95v-479h152v-41h-355v41zM223 168q63 -62 147 -100.5t175 -38.5q157 0 258.5 111.5t101.5 281.5q0 172 -97.5 282.5 t-254.5 110.5q-191 0 -330 -170v-477z" />
<glyph unicode="&#xff;" horiz-adv-x="954" d="M-4 803v41h346v-41h-162l295 -729l307 729h-166v41h345v-41h-132l-393 -918q-35 -85 -80 -157q-46 -74 -96 -106t-113 -32q-45 0 -70.5 20.5t-25.5 49.5q0 21 14 35t35 14q30 0 44.5 -25t5.5 -55q51 0 90 26t79 91q36 52 82 160l52 121l-326 776h-131zM309 1106 q0 23 15 39t38 16t38.5 -16t15.5 -39q0 -22 -15.5 -37.5t-38.5 -15.5t-38 15.5t-15 37.5zM543 1106q0 23 15 39t38 16t38 -16t15 -39q0 -22 -15 -37.5t-38 -15.5t-38 15.5t-15 37.5z" />
<glyph unicode="&#x152;" horiz-adv-x="1853" d="M117 670q0 150 48.5 274.5t140 214t230 139.5t312.5 50h862v-295h-51v250h-631v-590h496v-47h-496v-621h631v250h51v-295h-856q-176 0 -316.5 49.5t-232 138.5t-140 211.5t-48.5 270.5zM172 670q0 -285 176.5 -455t507.5 -170h117v1258h-127q-324 0 -499 -171.5 t-175 -461.5z" />
<glyph unicode="&#x153;" horiz-adv-x="1744" d="M92 422q0 184 121.5 309t302.5 125q145 0 251.5 -82.5t143.5 -216.5q35 131 133.5 215t233.5 84q174 0 274.5 -115t100.5 -280q0 -17 -4 -33h-713q0 -190 103 -294.5t274 -104.5q163 0 299 98l-6 -49q-129 -90 -295 -90q-154 0 -259.5 79.5t-140.5 219.5 q-39 -133 -145.5 -216t-249.5 -83q-184 0 -304 123.5t-120 310.5zM141 422q0 -167 106.5 -280t268.5 -113q161 0 267 113t106 280t-106 280t-267 113q-162 0 -268.5 -113t-106.5 -280zM936 469h668q-3 146 -89 246t-237 100q-134 0 -232 -98t-110 -248z" />
<glyph unicode="&#x178;" horiz-adv-x="1286" d="M27 1303v45h409v-45h-188l397 -689l395 689h-188v45h408v-45h-162l-428 -730v-528h215v-45h-486v45h217v528l-430 730h-159zM471 1561q0 23 15 39t38 16t38.5 -16t15.5 -39q0 -22 -15.5 -38t-38.5 -16t-38 16t-15 38zM705 1561q0 23 15 39t38 16t38 -16t15 -39 q0 -22 -15 -38t-38 -16t-38 16t-15 38z" />
<glyph unicode="&#x2c6;" horiz-adv-x="1036" d="M258 1026l260 244l260 -244l-18 -20l-242 180l-242 -180z" />
<glyph unicode="&#x2dc;" horiz-adv-x="1036" d="M221 1038q16 76 54.5 122t99.5 46q41 0 74 -15t83 -54q76 -62 130 -62q42 0 69 28t49 93l35 -8q-16 -75 -54 -120.5t-99 -45.5q-40 0 -73 15.5t-83 54.5q-44 33 -73 47t-58 14q-43 0 -70 -28.5t-49 -94.5z" />
<glyph unicode="&#x2000;" horiz-adv-x="862" />
<glyph unicode="&#x2001;" horiz-adv-x="1724" />
<glyph unicode="&#x2002;" horiz-adv-x="862" />
<glyph unicode="&#x2003;" horiz-adv-x="1724" />
<glyph unicode="&#x2004;" horiz-adv-x="574" />
<glyph unicode="&#x2005;" horiz-adv-x="431" />
<glyph unicode="&#x2006;" horiz-adv-x="287" />
<glyph unicode="&#x2007;" horiz-adv-x="287" />
<glyph unicode="&#x2008;" horiz-adv-x="215" />
<glyph unicode="&#x2009;" horiz-adv-x="344" />
<glyph unicode="&#x200a;" horiz-adv-x="95" />
<glyph unicode="&#x2010;" horiz-adv-x="512" d="M76 528v50h360v-50h-360z" />
<glyph unicode="&#x2011;" horiz-adv-x="512" d="M76 528v50h360v-50h-360z" />
<glyph unicode="&#x2012;" horiz-adv-x="512" d="M76 528v50h360v-50h-360z" />
<glyph unicode="&#x2013;" horiz-adv-x="806" d="M39 528v50h729v-50h-729z" />
<glyph unicode="&#x2014;" horiz-adv-x="1341" d="M39 528v50h1261v-50h-1261z" />
<glyph unicode="&#x2018;" horiz-adv-x="317" d="M92 1108q0 85 44.5 158.5t115.5 122.5l14 -23q-119 -110 -119 -227q32 -1 50 -18t18 -44q0 -22 -16.5 -38.5t-40.5 -16.5q-29 0 -47.5 24t-18.5 62z" />
<glyph unicode="&#x2019;" horiz-adv-x="317" d="M53 1034q116 108 119 228q-32 1 -50 17.5t-18 43.5q0 22 17 38.5t41 16.5q28 0 46.5 -24t18.5 -62q0 -84 -44.5 -157.5t-114.5 -122.5z" />
<glyph unicode="&#x201a;" horiz-adv-x="309" d="M49 -209q109 95 115 201q-31 1 -49.5 17.5t-18.5 41.5q0 23 16 39t38 16q29 0 47 -22t18 -59q0 -77 -43 -144.5t-111 -109.5z" />
<glyph unicode="&#x201c;" horiz-adv-x="571" d="M92 1108q0 85 44.5 158.5t115.5 122.5l14 -23q-119 -110 -119 -227q32 -1 50 -18t18 -44q0 -22 -16.5 -38.5t-40.5 -16.5q-29 0 -47.5 24t-18.5 62zM344 1108q0 84 45 157.5t115 123.5l14 -23q-117 -113 -117 -227q30 -1 48 -18t18 -44q0 -23 -16 -39t-41 -16 q-28 0 -47 24t-19 62z" />
<glyph unicode="&#x201d;" horiz-adv-x="571" d="M53 1034q116 108 119 228q-32 1 -50 17.5t-18 43.5q0 22 17 38.5t41 16.5q28 0 46.5 -24t18.5 -62q0 -84 -44.5 -157.5t-114.5 -122.5zM307 1034q116 113 119 228q-32 1 -50 17.5t-18 43.5q0 22 17 38.5t41 16.5q28 0 46.5 -24t18.5 -62q0 -84 -44.5 -157.5 t-114.5 -122.5z" />
<glyph unicode="&#x201e;" horiz-adv-x="557" d="M49 -209q109 95 115 201q-31 1 -49.5 17.5t-18.5 41.5q0 23 16 39t38 16q29 0 47 -22t18 -59q0 -77 -43 -144.5t-111 -109.5zM295 -209q111 94 117 201q-32 1 -50 17.5t-18 41.5q0 23 15 39t38 16q29 0 46.5 -22t17.5 -59q0 -77 -43 -145t-111 -109z" />
<glyph unicode="&#x2022;" horiz-adv-x="483" d="M88 551q0 66 45.5 111t108.5 45q62 0 106.5 -44.5t44.5 -111.5t-44.5 -111.5t-106.5 -44.5q-63 0 -108.5 45t-45.5 111z" />
<glyph unicode="&#x2026;" horiz-adv-x="950" d="M111 45q0 26 17 43.5t42 17.5q26 0 43.5 -17.5t17.5 -43.5t-17.5 -43.5t-43.5 -17.5q-25 0 -42 17.5t-17 43.5zM416 45q0 26 17 43.5t42 17.5t42.5 -17.5t17.5 -43.5t-17.5 -43.5t-42.5 -17.5t-42 17.5t-17 43.5zM721 45q0 26 16.5 43.5t42.5 17.5q25 0 42.5 -17.5 t17.5 -43.5t-17.5 -43.5t-42.5 -17.5q-26 0 -42.5 17.5t-16.5 43.5z" />
<glyph unicode="&#x202f;" horiz-adv-x="344" />
<glyph unicode="&#x2039;" horiz-adv-x="509" d="M61 545l342 317l27 -31l-305 -286l305 -287l-27 -31z" />
<glyph unicode="&#x203a;" horiz-adv-x="509" d="M80 258l305 287l-305 286l29 31l342 -317l-342 -318z" />
<glyph unicode="&#x205f;" horiz-adv-x="431" />
<glyph unicode="&#x20ac;" horiz-adv-x="1114" d="M61 358v43h125q-6 47 -6 95q0 52 10 114h-129v43h138q44 170 173 273.5t290 103.5q146 0 252 -79t106 -175q0 -31 -15 -49t-40 -18q-18 0 -31.5 12t-13.5 33q0 41 45 55q-12 65 -97 122.5t-206 57.5q-145 -2 -257 -93t-155 -243h446v-43h-456q-11 -51 -11 -114 q0 -48 9 -95h458v-43h-450q37 -148 150.5 -239.5t269.5 -91.5q181 0 325 125l27 -33q-153 -137 -352 -137q-175 0 -302 104t-167 272h-136z" />
<glyph unicode="&#x2122;" horiz-adv-x="1179" d="M31 1221v127h418v-127h-33v98h-158v-442h80v-31h-199v31h82v442h-158v-98h-32zM516 846v31h78l18 440h-77v31h120l172 -381l174 381h117v-31h-78l19 -440h80v-31h-187v31h74l-16 415l-174 -381h-17l-178 381l-12 -415h71v-31h-184z" />
<glyph unicode="&#x25fc;" horiz-adv-x="839" d="M0 0v840h840v-840h-840z" />
</font>
</defs>
</svg>
