<?xml version="1.0" standalone="no"?>
<!DOCTYPE svg PUBLIC "-//W3C//DTD SVG 1.1//EN" "http://www.w3.org/Graphics/SVG/1.1/DTD/svg11.dtd" >
<svg xmlns="http://www.w3.org/2000/svg">
<metadata></metadata>
<defs>
<font id="infinitycboldregular" horiz-adv-x="542" >
<font-face units-per-em="2048" ascent="1585" descent="-463" />
<missing-glyph horiz-adv-x="409" />
<glyph horiz-adv-x="0" />
<glyph unicode="&#xd;" horiz-adv-x="1024" />
<glyph horiz-adv-x="1243" d="M-88 398q-6 -40 20 -74q25 -33 66 -38t76 19l67 53v-358h625q78 0 147.5 37t123 108.5t85 176t31.5 239.5t-31.5 240.5t-85 176.5t-123 107.5t-147.5 36.5h-625v-512l-190 -145q-33 -27 -39 -67zM340 201v311l192 147q33 27 39.5 67t-20.5 75q-25 33 -66 38t-75 -20 l-70 -55v160h448q25 -18 53.5 -45t53.5 -68t41 -101.5t16 -148.5t-16 -148.5t-41 -101.5t-53.5 -66.5t-53.5 -43.5h-448z" />
<glyph unicode=" "  horiz-adv-x="409" />
<glyph unicode="&#x09;" horiz-adv-x="409" />
<glyph unicode="&#xa0;" horiz-adv-x="409" />
<glyph unicode="!" d="M137 117q0 -55 40 -94t95 -39q53 0 93.5 39t40.5 94t-40 94t-94 39q-55 0 -95 -39t-40 -94zM172 528q0 -41 28.5 -70.5t69.5 -29.5t71 29.5t30 70.5v1057h-199v-1057z" />
<glyph unicode="&#x22;" horiz-adv-x="780" d="M141 1022q0 -41 29 -69.5t70 -28.5t70.5 28.5t29.5 69.5v563h-199v-563zM440 1022q0 -41 29 -69.5t72 -28.5q41 0 70.5 28.5t29.5 69.5v563h-201v-563z" />
<glyph unicode="#" horiz-adv-x="1259" d="M18 231h185l-27 -131q-10 -47 14.5 -76.5t60.5 -36.5t70.5 10t43.5 64l36 170h318l-27 -131q-10 -47 14.5 -76.5t60.5 -36.5t70.5 10t45.5 64l35 170h129q41 0 70.5 29t29.5 70t-30 70.5t-70 29.5h-89l56 262h229v201h-186l26 131q10 47 -14.5 76.5t-60 37t-70.5 -10 t-45 -64.5l-35 -170h-317l26 131q10 47 -15.5 76.5t-60 37t-69.5 -10t-45 -64.5l-35 -170h-127q-41 0 -70.5 -29.5t-29.5 -70.5t29.5 -71t70.5 -30h84l-55 -262h-226v-199zM442 430l56 262h319l-55 -262h-320z" />
<glyph unicode="$" horiz-adv-x="1058" d="M94 715q0 -55 25.5 -93t65.5 -62.5t87 -39t90 -24.5l22.5 -4.5t29.5 -6.5l-62 -295q-59 8 -113.5 23.5t-111.5 36.5v-205q92 -33 184 -49l-39 -178q-10 -47 14.5 -77t60.5 -37t71 10.5t45 64.5l43 205q72 2 151.5 20.5t148 55t114 94t45.5 137.5v119q0 55 -26 93 t-65.5 62.5t-87 38.5t-90.5 25q-10 2 -23.5 4t-29.5 6l62 293q61 -8 115 -22.5t112 -37.5v205q-47 18 -93 29.5t-94 19.5l39 179q10 47 -14.5 76.5t-60 37.5t-70.5 -9t-45 -64l-43 -207q-70 -2 -151 -20.5t-148.5 -55.5t-112.5 -94.5t-45 -137.5v-116zM295 727v104 q37 39 89 66t124 37l-53 -254q-59 14 -104.5 25.5t-55.5 21.5zM549 188l53 256q59 -14 105.5 -25t56.5 -22v-106q-37 -39 -90 -65.5t-125 -37.5z" />
<glyph unicode="%" horiz-adv-x="1867" d="M59 1163q0 -90 34 -170t93.5 -139t139.5 -93t172 -34q90 0 170 34t139 93t93 139t34 170t-34 170t-93 139.5t-139 94.5t-170 35q-92 0 -172 -35t-139.5 -94.5t-93.5 -139.5t-34 -170zM258 1163q0 49 18.5 93t51 77t77 51.5t93.5 18.5t92 -18.5t75.5 -51.5t51 -77 t18.5 -93t-18.5 -92t-51 -75.5t-75.5 -51t-92 -18.5t-93.5 18.5t-77 51t-51 75.5t-18.5 92zM290.5 67.5q10.5 -38.5 40 -61t69.5 -21.5t71 40l1085 1417q31 39 22 78t-39 61.5t-69.5 21.5t-70.5 -40l-1088 -1418q-31 -39 -20.5 -77.5zM932 422q0 -90 34.5 -170t94 -139.5 t139.5 -94t170 -34.5t170 34.5t139.5 94t94 139.5t34.5 170t-34.5 170t-94 139.5t-139.5 94t-170 34.5t-170 -34.5t-139.5 -94t-94 -139.5t-34.5 -170zM1133 422q0 49 18 92t51 76t76 51t92 18t92 -18t76 -51t51.5 -76t18.5 -92t-18.5 -92t-51.5 -76t-76 -51.5t-92 -18.5 t-92 18.5t-76 51.5t-51 76t-18 92z" />
<glyph unicode="&#x26;" horiz-adv-x="1632" d="M100 371q0 -78 43 -147.5t122 -123t189.5 -85t245.5 -31.5q154 0 273 37.5t196 101.5q109 -49 221.5 -81t245.5 -46v201q-86 8 -170 31.5t-176 60.5q12 41 13 82v522h-199v-512q-78 43 -159 93t-146 104q-78 68 -142.5 139t-111.5 134.5t-77 115t-38 80.5v247 q47 47 117.5 78t169.5 31q53 0 113.5 -7t121 -20.5t116.5 -31t101 -35.5v217q-61 25 -125.5 40t-125 23t-112.5 10.5t-89 2.5q-70 0 -155 -16.5t-158.5 -53.5t-123 -95.5t-49.5 -142.5v-235q0 -35 15.5 -82t44.5 -100q-39 -18 -73 -42t-60.5 -55.5t-42 -69.5t-15.5 -83v-256 zM299 369v262q45 45 100 71q55 -74 118 -134t149 -134q63 -53 137.5 -103t146.5 -93q-47 -23 -108.5 -39.5t-141.5 -16.5q-88 0 -154.5 19.5t-114.5 47t-81 60.5t-51 60z" />
<glyph unicode="'" horiz-adv-x="481" d="M141 1022q0 -41 29 -69.5t70 -28.5t70.5 28.5t29.5 69.5v563h-199v-563z" />
<glyph unicode="(" horiz-adv-x="667" d="M90 561q0 -217 46 -393t114.5 -311.5t147.5 -227.5t143 -141q27 -20 61 -20q41 0 69.5 29.5t28.5 70.5q0 47 -34 78q-63 51 -130 134t-122.5 196.5t-90 260t-34.5 324.5t34.5 324.5t90 260.5t122 196.5t130.5 134.5q35 31 34 75q0 41 -28.5 71t-69.5 30q-37 0 -61 -19 q-63 -49 -142.5 -141t-148 -227.5t-114.5 -312.5t-46 -392z" />
<glyph unicode=")" horiz-adv-x="667" d="M-33 -432q0 -41 30 -69.5t71 -28.5q35 0 59 18q63 49 142 141t147.5 227.5t115 311.5t46.5 393q0 215 -46.5 392t-115 312.5t-147.5 227.5t-142 141q-25 18 -59 19q-41 0 -71 -29t-30 -70q0 -47 37 -77q61 -51 128 -134t122 -197t90 -260.5t35 -324.5t-35 -324.5 t-90 -260t-121.5 -196.5t-128.5 -134q-37 -31 -37 -78z" />
<glyph unicode="*" horiz-adv-x="954" d="M23 1182l262 -84q23 -10 47 -6q-20 -12 -37 -31l-162 -223l162 -119l162 223q14 14 18 47q4 -33 21 -47l161 -223l162 119l-162 223q-18 18 -36 31q23 -2 49 6l262 84l-62 190l-262 -86q-27 -6 -45 -29q14 25 15 52v276h-201v-276q0 -31 16 -54q-18 20 -47 31l-262 86z M356 1100q41 16 54 61q8 16 5 38t-14 38q27 -29 76 -29q45 0 74 33q-20 -39 -8 -80q6 -23 21.5 -38t33.5 -23q-45 10 -80 -17q-20 -14 -30.5 -33.5t-12.5 -39.5q-4 44 -39 73q-43 27 -80 17z" />
<glyph unicode="+" horiz-adv-x="1251" d="M141 461h379v-291q0 -41 29 -70.5t69 -29.5q41 0 71 29.5t30 70.5v291h293q41 0 70.5 29.5t29.5 70.5t-29.5 71t-70.5 30h-293v378h-199v-378h-379v-201z" />
<glyph unicode="," d="M6 -154l172 -100l178 303q23 37 11.5 77t-45.5 60q-37 23 -77 11.5t-61 -47.5z" />
<glyph unicode="-" horiz-adv-x="866" d="M141 461h486q41 0 70.5 29.5t29.5 70.5t-29.5 71t-70.5 30h-486v-201z" />
<glyph unicode="." d="M137 117q0 -55 40 -94t95 -39q53 0 93.5 39t40.5 94t-40 94t-94 39q-55 0 -95 -39t-40 -94z" />
<glyph unicode="/" horiz-adv-x="1048" d="M3 -472q17 -34 51 -48.5t72 -4t56 53.5l862 1991q18 43 1 76.5t-50.5 48t-70.5 4t-56 -53.5l-864 -1990q-18 -43 -1 -77z" />
<glyph unicode="0" horiz-adv-x="1243" d="M90 561q0 -135 32 -239.5t85 -176t122.5 -108.5t147.5 -37h289q78 0 147.5 37t123 108.5t85 176t31.5 239.5t-31.5 240.5t-85 176.5t-123 107.5t-147.5 36.5h-289q-78 0 -147.5 -36.5t-122.5 -107.5t-85 -176.5t-32 -240.5zM289 561q0 88 17.5 148.5t42 101.5t53 67.5 t53.5 45.5h333q25 -18 53.5 -45t53.5 -68t41 -101.5t16 -148.5t-16 -148.5t-41 -101.5t-53.5 -66.5t-53.5 -43.5h-333q-25 18 -53.5 43.5t-53 66.5t-42 101.5t-17.5 148.5z" />
<glyph unicode="1" horiz-adv-x="690" d="M59 842l258 67v-909h201v1036q0 47 -37 80t-90 19l-332 -86v-207z" />
<glyph unicode="2" horiz-adv-x="1087" d="M121 0h876v201h-678v198q12 8 47 17.5t75 18.5t78 16.5t56 11.5q51 12 123 26.5t138.5 41t113.5 70.5t47 114v116q0 84 -49 142.5t-122.5 95.5t-157.5 53.5t-156 16.5q-78 0 -169 -13.5t-181 -48.5v-205q84 31 164 49.5t186 18.5q98 0 169 -29.5t116 -79.5v-108 q-10 -8 -45 -17.5t-76 -18.5t-79 -16t-54 -12q-51 -12 -123 -26.5t-138.5 -41t-113.5 -69.5t-47 -114v-408z" />
<glyph unicode="3" horiz-adv-x="1052" d="M80 0h633q66 0 115 31.5t81.5 80t48 107t15.5 111.5q0 150 -99 254q29 53 45.5 107t16.5 112q0 55 -16.5 111.5t-49 102.5t-82 75.5t-114.5 29.5h-594v-198h598l27.5 -27.5t17.5 -24t9 -29t3 -40.5q0 -53 -13 -84t-36 -57h-506q-41 0 -70.5 -30t-29.5 -71t29.5 -70.5 t70.5 -29.5h535q29 -27 44 -51.5t15 -79.5q0 -51 -13 -75t-46 -54h-635v-201z" />
<glyph unicode="4" horiz-adv-x="1112" d="M29 377q0 -41 29.5 -69.5t70.5 -28.5h535v-195q0 -41 28.5 -70.5t69.5 -29.5t70.5 29.5t29.5 70.5v195h201v198h-201v645h-198v-645h-383l223 522q20 45 0.5 80t-53 50.5t-72.5 5t-60 -57.5l-280 -653q-10 -25 -10 -47z" />
<glyph unicode="5" horiz-adv-x="1024" d="M141 0q61 2 148.5 5t180.5 16.5t185.5 39t166 70.5t118.5 114t45 167q0 86 -33.5 146t-89 100t-126 65t-142.5 37t-138.5 18t-115.5 8v138h547q41 0 69.5 28.5t28.5 69.5t-28.5 70.5t-69.5 29.5h-746v-530q102 -2 216 -8t209.5 -24.5t157.5 -52.5t62 -95q0 -43 -32.5 -76 t-86 -55.5t-122 -38t-140 -24.5t-141 -13t-123.5 -6v-199z" />
<glyph unicode="6" horiz-adv-x="1075" d="M90 330q0 -53 16.5 -111.5t48 -107t81 -80t114.5 -31.5h375q66 0 115 31.5t81.5 80t49 107t16.5 111.5t-16.5 111.5t-49 107.5t-81.5 81t-115 32h-307q150 188 489 280q37 10 61.5 42t16.5 75q-8 41 -42 64.5t-75 15.5q-4 -2 -8 -2q-2 0 -6 -2q-141 -39 -271 -102.5 t-233.5 -155t-171 -214t-86.5 -282.5q-2 -12 -2 -25v-24v-2zM289 330q0 74 39 131h403q55 -57 55 -131t-55 -129h-387q-55 59 -55 129z" />
<glyph unicode="7" horiz-adv-x="1114" d="M102 924h689l-480 -789q-27 -43 -12.5 -80t46.5 -56t72 -14t64 48l568 930q20 30 20 59q0 41 -29.5 70.5t-70.5 29.5h-867v-198z" />
<glyph unicode="8" horiz-adv-x="1105" d="M80 330q0 -53 16.5 -111.5t48 -107t80.5 -80t115 -31.5h426q66 0 115 31.5t81.5 80t48 107t15.5 111.5q0 72 -24.5 137t-73.5 117q29 53 45 107t16 112q0 55 -16.5 111.5t-49 102.5t-81.5 75.5t-115 29.5h-348q-66 0 -115 -29.5t-81.5 -75.5t-49 -102.5t-16.5 -111.5 q0 -57 16.5 -111.5t44.5 -107.5q-98 -104 -98 -254zM279 330q0 55 15 79.5t42 51.5h434q27 -27 42 -51.5t15 -79.5q0 -51 -12 -75t-45 -54h-434q-31 31 -44 54.5t-13 74.5zM317 803q0 25 3.5 41t9.5 28.5t17 23.5l28 28h356l27.5 -27.5t17.5 -24t9 -28.5t3 -41 q0 -53 -12 -84t-35 -57h-376q-23 27 -35.5 57.5t-12.5 83.5z" />
<glyph unicode="9" horiz-adv-x="1075" d="M90 793q0 -53 16.5 -111.5t48 -108t81 -81t114.5 -31.5h309q-152 -188 -489 -281q-37 -10 -61.5 -42t-16.5 -75q8 -41 42 -64.5t75 -14.5q4 2 6 2t6 2q143 39 273.5 102.5t233.5 154.5t171 214t84 282q2 12 3 25t1 25v2q0 53 -16.5 111.5t-49 106.5t-81.5 79.5t-115 31.5 h-375q-66 0 -115 -31.5t-80.5 -79.5t-48 -106.5t-16.5 -111.5zM289 793q0 70 55 131h387q55 -57 55 -131q0 -78 -38 -131h-404q-27 29 -41 60.5t-14 70.5z" />
<glyph unicode=":" d="M137 117q0 -55 40 -94t95 -39q53 0 93.5 39t40.5 94t-40 94t-94 39q-55 0 -95 -39t-40 -94zM137 793q0 -55 40 -94.5t95 -39.5q53 0 93.5 39.5t40.5 94.5t-40 94t-94 39q-55 0 -95 -39t-40 -94z" />
<glyph unicode=";" d="M6 -154l172 -100l178 303q23 37 11.5 77t-45.5 60q-37 23 -77 11.5t-61 -47.5zM137 793q0 -55 40 -94.5t95 -39.5q53 0 93.5 39.5t40.5 94.5t-40 94t-94 39q-55 0 -95 -39t-40 -94z" />
<glyph unicode="&#x3c;" horiz-adv-x="845" d="M59 561q0 -47 37 -78l531 -405q39 -31 77.5 -21.5t61 39t22 69.5t-39.5 71l-424 325l424 326q39 31 39.5 70.5t-22 69.5t-61 39t-77.5 -22l-531 -405q-37 -31 -37 -78z" />
<glyph unicode="=" horiz-adv-x="1118" d="M141 328h738q41 0 70.5 28.5t29.5 71.5q0 41 -29.5 70.5t-70.5 29.5h-738v-200zM141 594h738q41 0 70.5 29.5t29.5 70.5t-29.5 71t-70.5 30h-738v-201z" />
<glyph unicode="&#x3e;" horiz-adv-x="845" d="M58 165q-1 -40 21.5 -69.5t61.5 -39t78 21.5l531 405q38 29 38 78t-38 78l-531 405q-39 31 -78 22t-61.5 -39t-21.5 -69.5t40 -70.5l426 -326l-426 -325q-39 -31 -40 -71z" />
<glyph unicode="?" horiz-adv-x="1191" d="M53 1507l45 -192q53 12 110.5 26.5t123.5 28.5q66 12 131 22.5t112 10.5q135 0 214 -15.5t122 -58.5v-260q-14 -8 -47 -17.5t-70.5 -18.5t-73.5 -17l-54 -12l-449 -103l98 -428q10 -41 44 -63.5t75 -12t63.5 45t12.5 75.5l-53 232l252 57q66 16 132 29.5t130 42.5 q57 25 99 67.5t42 114.5v276q0 84 -55.5 135.5t-137 80t-175 39t-169.5 10.5q-78 0 -155.5 -10.5t-148 -26t-127 -30.5t-91.5 -28zM369 117q0 -55 38.5 -94t94.5 -39q55 0 94 39t39 94t-39 94t-94 39t-94 -39t-39 -94z" />
<glyph unicode="@" horiz-adv-x="2398" d="M174 -397q0 -29 19.5 -47.5t48.5 -18.5h1982v201h-1849v1646h1646v-1183h-391v630q0 86 -49 144.5t-122 94.5t-157.5 52.5t-156.5 16.5q-37 0 -87 -3t-102.5 -11.5t-103.5 -19.5t-90 -30v-205q33 10 77 22.5t95 23t105.5 17.5t105.5 7q98 0 168.5 -29.5t118.5 -79.5v-83 l-369 -89q-51 -12 -120 -26.5t-131 -41t-106 -69.5t-44 -114v-144q0 -74 51 -125t129 -81.5t172 -44t182 -13.5h1028v1518q0 29 -19.5 48t-47.5 19h-1915q-29 0 -48.5 -19.5t-19.5 -47.5v-1915zM862 272v127q10 8 47 18.5t78 21t77 17.5t44 9l324 74v-338h-236 q-135 0 -213 14t-121 57z" />
<glyph unicode="A" horiz-adv-x="1523" d="M54 40q18 -34 52 -48q19 -8 40 -9q15 1 31 5q38 10 56 53l160 371h737l160 -371q18 -43 56 -53q16 -4 31 -5q21 1 41 9q34 14 51 48q8 17 8 36q0 20 -9 43l-616 1421q-10 27 -33.5 44.5t-56.5 17.5q-35 0 -57.5 -17.5t-32.5 -44.5l-617 -1421q-9 -23 -9 -43q-1 -19 8 -36 zM479 610l283 652l280 -652h-563z" />
<glyph unicode="B" horiz-adv-x="1390" d="M141 0h860q80 0 141.5 42t103.5 108.5t63.5 146.5t21.5 154q0 104 -39 201.5t-112 166.5q47 74 72.5 159t25.5 169q0 76 -21.5 153.5t-64.5 141t-104.5 103.5t-141.5 40h-706q-41 0 -70 -29.5t-29 -70.5v-1485zM340 201v491h684q25 -23 44 -45t33.5 -50t23 -62.5 t8.5 -83.5q0 -98 -31 -151.5t-78 -98.5h-684zM340 893v491h631q25 -23 44 -44t32.5 -47.5t21.5 -61.5t8 -84q0 -92 -25.5 -149.5t-66.5 -104.5h-645z" />
<glyph unicode="C" horiz-adv-x="1349" d="M141 371q0 -78 43 -147.5t122 -123t189.5 -85t245.5 -31.5q174 0 302.5 29.5t216.5 76.5v211q-37 -16 -89.5 -36.5t-119 -39t-144.5 -31t-166 -12.5t-154.5 19.5t-114.5 47t-81 60.5t-51 60v848q18 27 51 59.5t81 60t114.5 47t154.5 19.5t166 -12.5t144.5 -31t119 -39 t89.5 -36.5v211q-88 47 -216.5 77t-302.5 30q-135 0 -245.5 -32t-189.5 -85t-122 -123t-43 -148v-843z" />
<glyph unicode="D" horiz-adv-x="1495" d="M141 0h805q104 0 193.5 67.5t155 179t103.5 254t38 292.5t-38 292t-103.5 253.5t-154.5 179t-194 67.5h-805v-1585zM340 201v1183h623q43 -33 90 -84t86 -122.5t63.5 -166.5t24.5 -218t-24.5 -218.5t-63.5 -167t-86 -121.5t-90 -85h-623z" />
<glyph unicode="E" horiz-adv-x="1230" d="M141 0h1000v201h-801v491h700q41 0 71 30t30 71t-30 70.5t-71 29.5h-700v491h801v201h-899q-41 0 -71 -29.5t-30 -70.5v-1485z" />
<glyph unicode="F" horiz-adv-x="1200" d="M141 84q0 -41 30 -70.5t71 -29.5t69.5 29.5t28.5 70.5v608h700q41 0 71 30t30 71t-30 70.5t-71 29.5h-700v491h801v201h-1000v-1501z" />
<glyph unicode="G" horiz-adv-x="1437" d="M141 371q0 -78 43 -147.5t122 -123t189.5 -85t245.5 -31.5q86 0 170 9t160 26.5t138.5 43t107.5 56.5v774h-486q-41 0 -70.5 -29.5t-29.5 -70.5t30 -71t70 -30h285v-444q-61 -23 -156.5 -44.5t-218.5 -21.5q-88 0 -154.5 19.5t-114.5 47t-81 60.5t-51 60v848 q18 27 51 59.5t81 60t114.5 47t154.5 19.5t166 -12.5t144.5 -31t119 -39t89.5 -36.5v211q-88 47 -216.5 77t-302.5 30q-135 0 -245.5 -32t-189.5 -85t-122 -123t-43 -148v-843z" />
<glyph unicode="H" horiz-adv-x="1533" d="M141 0h199v692h854v-608q0 -41 28.5 -70.5t69.5 -29.5t71 29.5t30 70.5v1501h-199v-692h-854v608q0 41 -28.5 71t-69.5 30t-71 -30t-30 -71v-1501z" />
<glyph unicode="I" d="M172 84q0 -41 28.5 -70.5t69.5 -29.5t71 29.5t30 70.5v1501h-199v-1501z" />
<glyph unicode="J" d="M-244 -264v-199q100 0 210 31t199 84t147.5 123.5t58.5 148.5v1577q0 41 -30 71t-71 30t-69.5 -30t-28.5 -71v-1579q-20 -25 -60 -55.5t-94.5 -58t-121 -48t-140.5 -24.5z" />
<glyph unicode="K" horiz-adv-x="1435" d="M141 0h199v643l164 141l680 -784h264l-793 915l596 517q33 29 33 65q0 41 -26 71q-24 28 -60 34q-6 1 -13 1l-61 -26l-784 -680v604q0 41 -28.5 71t-69.5 30t-71 -30t-30 -71v-1501z" />
<glyph unicode="L" horiz-adv-x="1232" d="M141 0h1073v201h-874v1300q0 41 -28.5 71t-69.5 30t-71 -30t-30 -71v-1501z" />
<glyph unicode="M" horiz-adv-x="1908" d="M141 0h199v1133l528 -912q12 -23 34 -38t52 -15q29 0 50.5 15.5t35.5 37.5l527 912v-1133h200v1501q0 41 -29.5 71t-70.5 30q-33 0 -55.5 -17.5t-34.5 -40.5l-623 -1077l-622 1077q-14 23 -37 40.5t-55 17.5q-41 0 -70 -30t-29 -71v-1501z" />
<glyph unicode="N" horiz-adv-x="1570" d="M141 84q0 -41 29 -70.5t70 -29.5t70.5 29.5t29.5 70.5v1122l909 -1183q31 -39 80 -39q41 0 71 29.5t30 70.5v1501h-201v-1208l-910 1186q-23 29 -53 36q-13 3 -25 3q-17 0 -33 -6q-28 -10 -47.5 -35t-19.5 -60v-1417z" />
<glyph unicode="O" horiz-adv-x="1484" d="M141 371q0 -78 43 -147.5t122 -123t189.5 -85t245.5 -31.5t247 31.5t190.5 85t121.5 123t43 147.5v843q0 78 -43 148t-121.5 123t-190 85t-247.5 32q-135 0 -245.5 -32t-189.5 -85t-122 -123t-43 -148v-843zM340 369v848q18 27 51 59.5t81 60t114.5 47t154.5 19.5 q90 0 157 -19.5t115 -47t80.5 -60.5t51.5 -59v-848q-18 -27 -51 -60t-81 -60.5t-115 -47t-157 -19.5q-88 0 -154.5 19.5t-114.5 47t-81 60.5t-51 60z" />
<glyph unicode="P" horiz-adv-x="1316" d="M141 84q0 -41 29 -70.5t70 -29.5t70.5 29.5t29.5 70.5v543h653q84 0 144.5 46t98.5 116.5t55.5 154.5t17.5 158t-17.5 159t-55.5 157.5t-98.5 119.5t-144.5 47h-852v-1501zM340 825v559h664q47 -45 75.5 -111.5t28.5 -170.5t-28.5 -167t-75.5 -110h-664z" />
<glyph unicode="Q" horiz-adv-x="1484" d="M141 371q0 -72 37 -137.5t104.5 -116.5t163 -86t211.5 -43q102 -104 215 -181t226.5 -132.5t223.5 -90.5t206 -53v199q-123 33 -279.5 95t-310.5 177q92 18 168 55t128 85t80.5 106.5t28.5 122.5v843q0 78 -43 148t-121.5 123t-190 85t-247.5 32q-135 0 -245.5 -32 t-189.5 -85t-122 -123t-43 -148v-843zM340 369v848q18 27 51 59.5t81 60t114.5 47t154.5 19.5q90 0 157 -19.5t115 -47t80.5 -60.5t51.5 -59v-848q-18 -27 -51 -60t-81 -60.5t-115 -47t-157 -19.5q-88 0 -154.5 19.5t-114.5 47t-81 60.5t-51 60z" />
<glyph unicode="R" horiz-adv-x="1474" d="M141 84q0 -41 29 -70.5t70 -29.5t70.5 29.5t29.5 70.5v543h379l479 -627h252l-477 627h71q84 0 144.5 46t98.5 116.5t55.5 154.5t17.5 158t-17.5 159t-55.5 157.5t-98.5 119.5t-144.5 47h-903v-1501zM340 825v559h715q47 -45 75.5 -111.5t28.5 -170.5t-28.5 -167 t-75.5 -110h-715z" />
<glyph unicode="S" horiz-adv-x="1308" d="M84 977q0 -55 25.5 -93t65.5 -62.5t87 -39t90 -24.5l426 -94q6 -2 42 -11.5t78 -20.5t79 -23.5t47 -20.5v-219q-18 -27 -50 -60t-81 -60.5t-115.5 -47t-154.5 -19.5t-166 12.5t-143.5 31t-119 39t-90.5 36.5v-211q90 -47 217.5 -76.5t301.5 -29.5q135 0 245.5 31.5 t190.5 85t123 123t43 147.5v245q0 55 -25.5 92t-65.5 62t-87.5 40t-90.5 24l-426 94q-6 2 -41.5 11t-77.5 21.5t-79 24.5t-47 19v213q18 27 50 59.5t81 60t115.5 47t154.5 19.5t166 -12.5t144.5 -31t118.5 -39t89 -36.5v211q-90 47 -217 77t-301 30q-135 0 -245.5 -32 t-190.5 -85t-123 -123t-43 -148v-237z" />
<glyph unicode="T" horiz-adv-x="1306" d="M29 1384h524v-1300q0 -41 29.5 -70.5t70.5 -29.5t71 29.5t30 70.5v1300h524v201h-1249v-201z" />
<glyph unicode="U" horiz-adv-x="1484" d="M141 371q0 -78 43 -147.5t122 -123t189.5 -85t245.5 -31.5t247 31.5t190.5 85t121.5 123t43 147.5v1130q0 41 -28.5 71t-69.5 30t-70.5 -30t-29.5 -71v-1132q-18 -27 -51 -60t-81 -60.5t-115 -47t-157 -19.5q-88 0 -154.5 19.5t-114.5 47t-81 60.5t-51 60v1132 q0 41 -29.5 71t-70.5 30t-70 -30t-29 -71v-1130z" />
<glyph unicode="V" horiz-adv-x="1523" d="M54 1545q-9 -17 -8 -36q0 -20 9 -43l617 -1421q10 -27 32.5 -44t57.5 -17q33 0 56.5 17t33.5 44l616 1421q9 23 9 43q0 19 -8 36q-17 35 -51 49q-20 8 -41 8q-15 0 -31 -4q-38 -10 -56 -54l-528 -1220l-529 1220q-18 44 -56 54q-16 4 -31 4q-20 0 -40 -8q-34 -14 -52 -49 z" />
<glyph unicode="W" horiz-adv-x="1853" d="M35 1585l407 -1528q10 -37 35 -55t53 -19h4q26 0 50 16q26 17 39 54l305 951l303 -951q11 -37 37 -54q24 -16 52 -16h3q29 1 54.5 19t33.5 55l408 1528h-201l-307 -1149l-291 910q-10 31 -33.5 51t-58.5 20t-59.5 -20.5t-34.5 -50.5l-291 -910l-305 1149h-203z" />
<glyph unicode="X" horiz-adv-x="1394" d="M54 66q9 -36 39 -60q29 -22 66 -21h3q39 1 67 38l467 610l471 -610q29 -37 67 -38h3q37 -1 65 21q30 22 38 60q2 9 3 18q0 28 -22 57l-500 652l500 653q22 28 22 56q-1 9 -3 19q-10 37 -38 59q-28 20 -63 21q-2 -1 -5 -1q-38 -2 -67 -37l-471 -611l-467 611 q-29 37 -67 38h-4q-37 0 -65 -22q-30 -23 -39 -59q-2 -8 -2 -17q0 -29 24 -59l497 -651l-499 -652q-22 -30 -22 -58q0 -8 2 -17z" />
<glyph unicode="Y" horiz-adv-x="1460" d="M58 1520q-2 -10 -2 -19q0 -28 22 -57l553 -721v-723h198v725l553 721q22 28 22 57q0 9 -2 18q-9 38 -38 59q-27 21 -63 21q-2 0 -5 -1q-39 -1 -67 -37l-498 -652l-500 652q-29 37 -67 38h-4q-36 0 -64 -22q-28 -23 -38 -59z" />
<glyph unicode="Z" horiz-adv-x="1386" d="M60 102v-6q0 -24 12 -44q14 -22 38.5 -37t57.5 -15h1145v195h-957l949 1235q21 28 21 58q0 26 -12 46q-14 22 -38.5 36.5t-56.5 14.5h-1047q-41 0 -68.5 -27.5t-27.5 -68.5t27.5 -69.5t68.5 -28.5h860l-950 -1235q-20 -26 -22 -54z" />
<glyph unicode="[" horiz-adv-x="667" d="M141 -430q0 -41 29 -70.5t70 -29.5h444v198h-344v1786h260q41 0 70.5 28.5t29.5 71.5q0 41 -28.5 71t-71.5 30h-459v-2085z" />
<glyph unicode="\" horiz-adv-x="1048" d="M3 1596.5q-17 -33.5 1 -76.5l864 -1991q16 -37 53 -52.5t74 1t51 53.5t-2 74l-862 1990q-18 43 -56 53.5t-72 -4t-51 -48z" />
<glyph unicode="]" horiz-adv-x="667" d="M-33 -430q0 -41 30 -70.5t71 -29.5h458v2084q0 41 -28.5 71t-69.5 30h-444v-201h344v-1786h-260q-41 0 -71 -28.5t-30 -69.5z" />
<glyph unicode="^" horiz-adv-x="1128" d="M59 993q4 -41 39 -65q33 -27 74 -22t66 40l325 424l326 -424q27 -35 67.5 -40t73.5 22q35 25 39.5 65.5t-20.5 73.5l-406 530q-31 37 -78 37q-49 0 -80 -37l-405 -530q-25 -33 -21 -74z" />
<glyph unicode="_" horiz-adv-x="1251" d="M141 -262v-201h887q41 0 70.5 29t29.5 72q0 41 -29.5 70.5t-70.5 29.5h-887z" />
<glyph unicode="`" horiz-adv-x="1232" d="M309 1585l226 -309q25 -33 65.5 -39t75.5 18.5t40 64.5t-20 75l-139 190h-248z" />
<glyph unicode="a" horiz-adv-x="1124" d="M54 40q18 -34 52 -48q19 -8 40 -9q15 1 31 5q38 10 56 53l103 238h452l103 -238q18 -43 56 -53q16 -4 31 -5q21 1 41 9q34 14 51 48q8 17 8 36q0 20 -9 43l-416 958q-12 27 -34.5 44.5t-55.5 17.5q-35 0 -57.5 -17.5t-34.5 -44.5l-416 -958q-9 -23 -9 -43q-1 -19 8 -36z M422 477l141 322l139 -322h-280z" />
<glyph unicode="b" horiz-adv-x="1103" d="M141 0h633q66 0 115 31.5t82 80t48 107t15 111.5q0 150 -98 254q29 53 45 107t16 112q0 55 -16 111.5t-49 102.5t-82 75.5t-115 29.5h-495q-41 0 -70 -29.5t-29 -70.5v-1022zM340 201v260h436q29 -27 44.5 -51.5t15.5 -79.5q0 -51 -13.5 -75t-46.5 -54h-436zM340 662v262 h399l27.5 -27.5t18 -24t9.5 -28.5t3 -41q0 -53 -13.5 -84t-35.5 -57h-408z" />
<glyph unicode="c" horiz-adv-x="1101" d="M131 291q0 -84 49 -142.5t123 -95.5t159 -53t154 -16q39 0 88.5 3t101.5 10t104.5 18.5t97.5 29.5v205q-84 -31 -185.5 -49.5t-206.5 -18.5q-98 0 -168.5 31t-117.5 78v540q47 49 117.5 79t168.5 30q104 0 206 -18.5t186 -49.5v205q-45 18 -97.5 29.5t-104.5 19 t-101.5 10.5t-88.5 3q-70 0 -154.5 -16.5t-158.5 -53.5t-123 -95.5t-49 -142.5v-540z" />
<glyph unicode="d" horiz-adv-x="1222" d="M141 0h625q78 0 147.5 37t123 108.5t85 176t31.5 239.5t-31.5 240.5t-85 176.5t-123 107.5t-147.5 36.5h-625v-1122zM340 201v723h448q25 -18 53.5 -45t53.5 -68t41 -101.5t16 -148.5t-16 -148.5t-41 -101.5t-53.5 -66.5t-53.5 -43.5h-448z" />
<glyph unicode="e" horiz-adv-x="1060" d="M141 0h799v201h-600v260h500q41 0 70.5 29.5t29.5 70.5t-29.5 71t-70.5 30h-500v262h600v198h-698q-41 0 -71 -29.5t-30 -70.5v-1022z" />
<glyph unicode="f" horiz-adv-x="1009" d="M141 84q0 -41 30 -70.5t71 -29.5t69.5 29.5t28.5 70.5v377h500q41 0 70.5 29.5t29.5 70.5t-29.5 71t-70.5 30h-500v262h600v198h-799v-1038z" />
<glyph unicode="g" horiz-adv-x="1187" d="M131 291q0 -84 49 -142.5t123 -95.5t159 -53t154 -16q49 0 109.5 4t122 16t119 32.5t100.5 51.5v574h-350q-43 0 -72 -30t-29 -71t30 -70.5t71 -29.5h151v-244q-57 -23 -124.5 -28t-127.5 -7q-98 0 -168.5 31t-117.5 78v540q47 49 117.5 79t168.5 30q104 0 206 -18.5 t186 -49.5v205q-45 18 -97.5 29.5t-104.5 19t-101.5 10.5t-88.5 3q-70 0 -154.5 -16.5t-158.5 -53.5t-123 -95.5t-49 -142.5v-540z" />
<glyph unicode="h" horiz-adv-x="1333" d="M141 0h199v461h653v-377q0 -41 29 -70.5t70 -29.5q43 0 71.5 29.5t28.5 70.5v1038h-199v-460h-653v376q0 41 -28.5 71t-69.5 30t-71 -30t-30 -71v-1038z" />
<glyph unicode="i" d="M172 0h199v1038q0 41 -30 71t-71 30t-69.5 -30t-28.5 -71v-1038z" />
<glyph unicode="j" d="M-244 -264v-199q100 0 210 31t199 84t147.5 123.5t58.5 148.5v1114q0 41 -30 71t-71 30t-70.5 -30t-29.5 -71v-1116q-18 -25 -58 -55.5t-94.5 -58t-121 -48t-140.5 -24.5z" />
<glyph unicode="k" horiz-adv-x="1191" d="M141 0h199v360l162 140l434 -500h264l-547 631l389 338q35 29 35 65q1 38 -25 68q-24 28 -61 36q-7 1 -14 1q-30 0 -59 -25l-578 -500v424q0 41 -28.5 71t-69.5 30t-71 -30t-30 -71v-1038z" />
<glyph unicode="l" horiz-adv-x="1032" d="M141 0h873v201h-674v837q0 41 -28.5 71t-69.5 30t-71 -30t-30 -71v-1038z" />
<glyph unicode="m" horiz-adv-x="1513" d="M141 0h199v670l332 -570q12 -23 33.5 -37t52.5 -14q29 0 50 14.5t36 36.5l330 570v-670h200v1038q0 41 -29.5 71t-70.5 30q-33 0 -55.5 -17.5t-34.5 -40.5l-426 -735l-426 735q-14 23 -37 40.5t-55 17.5q-41 0 -70 -30t-29 -71v-1038z" />
<glyph unicode="n" horiz-adv-x="1216" d="M141 84q0 -41 29 -70.5t70 -29.5t70.5 29.5t29.5 70.5v659l555 -720q14 -20 35.5 -29.5t44.5 -9.5q41 0 70.5 29.5t29.5 70.5v1038h-201v-745l-555 723q-23 29 -53 36q-13 3 -25 3q-17 1 -33 -5q-28 -10 -47.5 -35.5t-19.5 -60.5v-954z" />
<glyph unicode="o" horiz-adv-x="1232" d="M131 291q0 -84 49 -142.5t123 -95.5t159 -53t154 -16q72 0 156 16t158 53t123 95.5t49 142.5v540q0 84 -49 142.5t-123 95.5t-158 53.5t-156 16.5q-70 0 -154.5 -16.5t-158.5 -53.5t-123 -95.5t-49 -142.5v-540zM330 291v540q47 49 117.5 79t168.5 30t169 -29.5 t116 -79.5v-540q-45 -47 -115.5 -78t-169.5 -31q-98 0 -168.5 31t-117.5 78z" />
<glyph unicode="p" horiz-adv-x="1067" d="M141 84q0 -41 29 -70.5t70 -29.5t70.5 29.5t29.5 70.5v330h428q72 0 119 36.5t76.5 90t42 116t12.5 113.5t-12.5 112.5t-42 115t-76.5 89t-119 35.5h-627v-1038zM340 614v310h422q25 -29 40 -60t15 -94q0 -61 -15.5 -95t-39.5 -61h-422z" />
<glyph unicode="q" horiz-adv-x="1232" d="M131 291q0 -72 37 -125t94 -90t128 -58.5t138 -29.5q178 -182 401.5 -295t471.5 -162v199q-164 43 -311.5 108.5t-284.5 169.5q57 14 110.5 38t95.5 58.5t66.5 80.5t24.5 106v540q0 84 -49 142.5t-123 95.5t-158 53.5t-156 16.5q-70 0 -154.5 -16.5t-158.5 -53.5 t-123 -95.5t-49 -142.5v-540zM330 291v540q47 49 117.5 79t168.5 30t169 -29.5t116 -79.5v-540q-45 -47 -115.5 -78t-169.5 -31q-98 0 -168.5 31t-117.5 78z" />
<glyph unicode="r" horiz-adv-x="1138" d="M141 84q0 -41 29 -70.5t70 -29.5t70.5 29.5t29.5 70.5v330h199l317 -414h252l-317 416q63 6 107 44t70.5 90t38 111.5t11.5 108.5q0 51 -12.5 112.5t-42 115t-76.5 89t-119 35.5h-627v-1038zM340 614v310h422q25 -29 40 -60t15 -94q0 -61 -15.5 -95t-39.5 -61h-422z" />
<glyph unicode="s" horiz-adv-x="1058" d="M94 715q0 -55 25.5 -93t65.5 -62.5t87 -39t90 -24.5q29 -6 90.5 -19.5t127 -27t119 -27.5t65.5 -25v-106q-47 -47 -116.5 -78t-168.5 -31q-106 0 -186 18.5t-166 49.5v-205q90 -35 182 -48t170 -13q72 0 156 16t157.5 53t123 95.5t49.5 142.5v119q0 55 -26 93t-65.5 62.5 t-87 38.5t-90.5 25q-29 6 -90 18t-126.5 26.5t-119 29t-65.5 24.5v104q45 49 115.5 79t169.5 30q106 0 186 -18.5t166 -49.5v205q-92 35 -183.5 48.5t-168.5 13.5q-70 0 -155 -16.5t-158.5 -53.5t-123 -95.5t-49.5 -142.5v-116z" />
<glyph unicode="t" horiz-adv-x="1038" d="M29 924h391v-840q0 -41 28.5 -70.5t71.5 -29.5q41 0 71 29.5t30 70.5v840h389v198h-981v-198z" />
<glyph unicode="u" horiz-adv-x="1253" d="M141 291q0 -84 49.5 -142.5t123 -95.5t158.5 -53t155 -16q72 0 155.5 16t157.5 53t123 95.5t49 142.5v831h-201v-831q-45 -47 -115.5 -78t-168.5 -31t-169 31t-118 78v831h-199v-831z" />
<glyph unicode="v" horiz-adv-x="1226" d="M55 1122l465 -1075q12 -29 36 -46t58 -17q35 0 57.5 17t35.5 46l464 1075h-219l-338 -786l-340 786h-219z" />
<glyph unicode="w" horiz-adv-x="1617" d="M63 1016l304 -963q10 -35 35.5 -52t53.5 -18h3q26 0 50 15q26 16 38 47l262 723l262 -723q12 -31 38 -47q24 -15 50 -15h3q28 1 53.5 18t35.5 52l303 963q6 18 6 34q0 24 -13 42q-21 32 -55 42q-15 5 -30 5q-18 1 -38 -7q-34 -14 -50 -59l-221 -700l-252 698 q-10 27 -33.5 47.5t-58.5 20.5t-58.5 -20.5t-33.5 -47.5l-252 -698l-221 700q-14 45 -49 59q-20 8 -39 7q-15 -1 -30 -5q-34 -10 -56 -42q-13 -19 -13 -43q0 -15 6 -33z" />
<glyph unicode="x" horiz-adv-x="1095" d="M84 68q10 -38 40 -62q29 -22 66 -21h4q40 1 70 40l285 372l282 -372q31 -39 71 -40h3q39 -1 67 21q30 22 40 62q3 10 2 19q0 29 -23 58l-317 416l317 416q23 31 23 60q0 10 -2 19q-10 38 -40 60q-28 22 -67 22h-3q-40 -1 -71 -40l-282 -373l-285 373q-30 39 -70 40h-4 q-37 0 -66 -22q-30 -22 -39 -60q-2 -9 -2 -18q0 -30 23 -61l316 -416l-318 -416q-23 -29 -23 -58q0 -9 3 -19z" />
<glyph unicode="y" horiz-adv-x="1187" d="M46 1057q-2 -9 -2 -18q0 -28 22 -58l428 -553v-428h200v428l428 553q22 30 22 58q0 9 -2 18q-9 37 -38 59q-28 22 -65 22h-3q-39 -1 -67 -38l-375 -484l-375 484q-29 37 -67 38h-4q-36 0 -64 -22q-29 -22 -38 -59z" />
<glyph unicode="z" horiz-adv-x="1216" d="M88 1026q0 -41 27.5 -68.5t68.5 -27.5h625l-690 -768q-23 -25 -26 -53.5t8.5 -52t35 -40t53.5 -16.5h938v195h-720l690 766q23 25 24.5 53t-9.5 52t-33.5 40t-53.5 16h-842q-41 0 -68.5 -27.5t-27.5 -68.5z" />
<glyph unicode="{" horiz-adv-x="696" d="M80 561q0 -41 29.5 -70.5t70.5 -29.5q47 -45 77 -116t30 -169v-221q0 -72 16 -156t53 -157.5t95.5 -122.5t144.5 -49h100v198h-100q-49 47 -79 118t-30 169v221q0 90 -26.5 198.5t-87.5 186.5q31 39 52 87t35.5 99.5t20.5 102.5t6 96v223q0 98 30 168t79 117h100v201 h-100q-86 0 -144.5 -49.5t-95.5 -123t-53 -157.5t-16 -156v-223q0 -98 -30 -168.5t-77 -115.5q-41 0 -70.5 -30t-29.5 -71z" />
<glyph unicode="|" d="M172 -430q0 -41 28.5 -70.5t69.5 -29.5t71 29.5t30 70.5v2085h-199v-2085z" />
<glyph unicode="}" horiz-adv-x="696" d="M0 -332v-198h100q84 0 142.5 49t95.5 122.5t53.5 157.5t16.5 156v221q0 98 30.5 169t77.5 116q41 0 70.5 29.5t29.5 70.5t-29.5 71t-70.5 30q-47 45 -77.5 115.5t-30.5 168.5v223q0 72 -16.5 156t-53.5 157.5t-95.5 123t-142.5 49.5h-100v-201h100q47 -47 78 -116.5 t31 -168.5v-223q0 -45 6 -96t20.5 -102.5t35 -99.5t51.5 -87q-59 -78 -86 -186.5t-27 -198.5v-221q0 -98 -31 -169t-78 -118h-100z" />
<glyph unicode="~" horiz-adv-x="1034" d="M141 676q0 -41 29 -70q43 -43 97.5 -64.5t109.5 -21.5q57 0 111.5 20.5t97.5 63.5q29 29 67 29q41 0 70 -29t70 -29q42 0 71 29q29 31 29 72t-29 72q-43 43 -97 64.5t-112 21.5q-55 0 -109 -21.5t-97 -64.5q-29 -29 -70 -29q-39 0 -68 29q-29 31 -71 30q-41 0 -70 -30 q-29 -29 -29 -72z" />
<glyph unicode="&#xa1;" d="M137 1008q0 -55 40 -94.5t95 -39.5q53 0 93.5 39.5t40.5 94.5t-40 94t-94 39q-55 0 -95 -39t-40 -94zM172 -461h199v1057q0 41 -29 70.5t-70 29.5t-70.5 -29.5t-29.5 -70.5v-1057z" />
<glyph unicode="&#xa2;" horiz-adv-x="1056" d="M131 291q0 -98 65.5 -161.5t157.5 -98.5l-45 -213q-10 -47 14.5 -77t60.5 -37t70.5 10.5t43.5 64.5l45 209q18 -4 37 -4h36q78 0 169.5 13t181.5 48v205q-84 -31 -165 -49.5t-186 -18.5q-10 0 -17 1t-15 1l157 748q59 -8 113.5 -22.5t112.5 -37.5v205q-47 18 -92.5 29.5 t-92.5 19.5l37 179q10 47 -14.5 76.5t-60 37.5t-69.5 -9t-44 -64l-45 -207q-70 -2 -150 -20.5t-147.5 -55.5t-112.5 -94.5t-45 -137.5v-540zM330 291v540q37 39 90 66t123 37l-146 -696q-20 10 -35.5 23t-31.5 30z" />
<glyph unicode="&#xa3;" horiz-adv-x="1138" d="M80 100q0 -43 29.5 -71.5t70.5 -28.5h869v201h-637v127h338q41 0 70.5 29.5t29.5 70.5t-29.5 70.5t-70.5 29.5h-338v66h338q41 0 70.5 29.5t29.5 70.5t-29.5 71t-70.5 30h-338v36q47 49 117.5 79t168.5 30q104 0 185.5 -18.5t165.5 -49.5v205q-90 35 -181.5 48.5 t-169.5 13.5q-70 0 -154.5 -16.5t-158.5 -53.5t-123 -95.5t-49 -142.5v-36h-133v-201h133v-66h-133v-200h133v-127h-33q-41 0 -70.5 -30t-29.5 -71z" />
<glyph unicode="&#xa5;" horiz-adv-x="1232" d="M91 1057q-9 -37 20 -76l333 -438h-290v-199h364v-344h199v344h262q41 0 70.5 28.5t29.5 69.5t-28.5 71t-71.5 30h-191l334 438q31 39 22 76t-39 59.5t-69 21.5t-67 -40l-353 -461l-352 461q-29 39 -67.5 40t-67.5 -21.5t-38 -59.5z" />
<glyph unicode="&#xa7;" horiz-adv-x="1224" d="M94 711q0 -55 25.5 -93t65.5 -63t87 -39t90 -24q29 -6 90.5 -19.5t127 -28t119 -28t65.5 -23.5v-102q-47 -47 -116.5 -78t-168.5 -31q-106 0 -186 18.5t-166 49.5v-205q90 -35 182 -48t170 -13q72 0 156 16t157.5 53t123 95.5t49.5 142.5v112q0 63 -37 107 q86 35 144 97.5t58 156.5v113q0 55 -25.5 93t-65.5 62.5t-86 38.5t-89 25q-29 6 -91 19t-126.5 27.5t-119 29t-66.5 22.5v100q47 47 117.5 78t169.5 31q104 0 185 -18.5t165 -49.5v205q-90 35 -181.5 48.5t-168.5 13.5q-70 0 -155 -16.5t-159 -53.5t-123 -95.5t-49 -142.5 v-110q0 -63 35 -109q-86 -35 -144.5 -96t-58.5 -156v-112zM295 723v100q45 49 115.5 79t169.5 30q96 0 165 -14q47 -10 93.5 -23.5t93.5 -30.5v-100q-47 -49 -118 -79t-169 -30q-94 0 -164 15q-49 10 -94 23.5t-92 29.5z" />
<glyph unicode="&#xa8;" horiz-adv-x="1232" d="M285 1458q0 -55 38.5 -94t96.5 -39q55 0 94 39t39 94t-39 94t-94 39q-57 0 -96 -39t-39 -94zM678 1458q0 -55 40 -94t95 -39t94 39t39 94t-39 94t-94 39t-95 -39t-40 -94z" />
<glyph unicode="&#xa9;" horiz-adv-x="1376" d="M111 561q0 -119 45 -224.5t123.5 -184t184 -123.5t224.5 -45q121 0 225.5 45t183.5 123.5t124 184t45 224.5q0 121 -45 225.5t-124 183.5t-183.5 124t-225.5 45q-119 0 -224.5 -45t-184 -124t-123.5 -183.5t-45 -225.5zM303 436v250q0 74 41 122t100.5 77.5t126 42 t117.5 12.5q59 0 131 -11t154 -44v-205q-86 33 -147.5 47t-137.5 14q-66 0 -112 -18t-74 -47v-230q29 -29 75 -47t111 -18q76 0 137.5 14.5t147.5 46.5v-204q-82 -33 -153.5 -43.5t-131.5 -10.5q-51 0 -117.5 12.5t-126 41t-100.5 76.5t-41 122z" />
<glyph unicode="&#xaa;" horiz-adv-x="923" d="M54.5 734q17.5 -34 51 -48t71.5 -4t56 53l60 139h338l61 -139q18 -43 55 -53t71 4t51 48t-1 77l-315 729q-10 27 -33.5 44.5t-56.5 17.5q-35 0 -57.5 -17.5t-34.5 -44.5l-316 -729q-18 -43 -0.5 -77zM381 1075l82 187l80 -187h-162z" />
<glyph unicode="&#xab;" horiz-adv-x="1056" d="M59 561q0 -47 37 -78l303 -231q39 -31 78 -20.5t61.5 40t21.5 69.5t-40 71l-196 149l196 152q39 31 40 69.5t-22.5 68.5t-61.5 40t-79 -21l-301 -231q-37 -31 -37 -78zM498 561q0 -47 37 -78l303 -231q39 -31 77.5 -20.5t61 40t21.5 69.5t-40 71l-196 149l196 152 q39 31 40 69.5t-22.5 68.5t-61 40t-78.5 -21l-301 -231q-37 -31 -37 -78z" />
<glyph unicode="&#xac;" horiz-adv-x="1933" d="M174 0h1518q29 0 48 19.5t19 48.5v1450q0 29 -19.5 48t-47.5 19h-1452q-29 0 -47.5 -19.5t-18.5 -47.5v-1518zM375 201v1183h1184v-1183h-1184z" />
<glyph unicode="&#xad;" horiz-adv-x="866" d="M141 461h486q41 0 70.5 29.5t29.5 70.5t-29.5 71t-70.5 30h-486v-201z" />
<glyph unicode="&#xae;" horiz-adv-x="993" d="M59 1163q0 -90 34 -170t93.5 -139t139.5 -93t172 -34q90 0 170 34t139 93t93 139t34 170t-34 170t-93 139.5t-139 94.5t-170 35q-92 0 -172 -35t-139.5 -94.5t-93.5 -139.5t-34 -170zM258 1163q0 49 18.5 93t51 77t77 51.5t93.5 18.5q20 0 38.5 -4t36.5 -10 q-45 -10 -90 -28t-79.5 -45.5t-56 -65.5t-21.5 -87v-164q-31 33 -49.5 75t-18.5 89zM526 928v227q66 49 172 49q8 0 16.5 -1t16.5 -1q2 -10 3 -19.5t1 -19.5q0 -45 -16.5 -86t-44 -71.5t-66.5 -51t-82 -26.5z" />
<glyph unicode="&#xaf;" horiz-adv-x="1232" d="M301 1384h627v201h-627v-201z" />
<glyph unicode="&#xb0;" horiz-adv-x="821" d="M80 1253q0 -68 25.5 -128t70.5 -105t105.5 -71.5t130.5 -26.5q68 0 128 26.5t105 71.5t71.5 105t26.5 128q0 70 -26.5 130.5t-71.5 105.5t-105.5 70.5t-127.5 25.5q-70 0 -130.5 -25.5t-105.5 -70.5t-70.5 -105.5t-25.5 -130.5zM281 1253q0 55 37.5 93t93.5 38 q53 0 92 -38t39 -93q0 -53 -39 -92t-92 -39q-55 0 -93 39t-38 92z" />
<glyph unicode="&#xb1;" horiz-adv-x="1251" d="M141 0h871q41 0 70.5 28.5t29.5 71.5q0 41 -29.5 71t-70.5 30h-293v260h293q41 0 70.5 29.5t29.5 70.5t-29.5 71t-70.5 30h-293v378h-199v-378h-379v-201h379v-260h-379v-201z" />
<glyph unicode="&#xb4;" horiz-adv-x="1232" d="M517 1317q11 -39 42 -61.5t71 -20.5t68 41l224 309h-248l-139 -190q-29 -39 -18 -78z" />
<glyph unicode="&#xb6;" horiz-adv-x="1316" d="M8 1102q0 -74 17.5 -158t55.5 -154.5t97.5 -116.5t145.5 -46h251v-543q0 -41 29 -70.5t72 -29.5q41 0 70.5 29.5t29.5 70.5v543h199v-543q0 -41 29.5 -70.5t70.5 -29.5t71 29.5t30 70.5v1501h-852q-86 0 -145.5 -47t-97.5 -119.5t-55.5 -157.5t-17.5 -159zM207 1102 q0 104 29.5 170.5t76.5 111.5h262v-559h-262q-47 47 -76.5 109.5t-29.5 167.5zM776 825v559h199v-559h-199z" />
<glyph unicode="&#xb7;" d="M137 561q0 -55 40 -94t95 -39q53 0 93.5 39t40.5 94t-40 94t-94 39q-55 0 -95 -39t-40 -94z" />
<glyph unicode="&#xb8;" horiz-adv-x="1232" d="M299 -186v-213q72 -35 146.5 -49.5t144.5 -14.5q53 0 109.5 11.5t102.5 35t75.5 57t29.5 78.5v72q0 49 -24.5 81t-60.5 50.5t-78 28.5t-78 18v31h-170l-66 -182l279 -64v-4q-14 -6 -41 -9t-78 -3q-39 0 -107.5 14.5t-183.5 61.5z" />
<glyph unicode="&#xba;" horiz-adv-x="968" d="M100 930q0 -74 41 -122t100.5 -78t126 -42t117.5 -12t117 12t125 42t100 78t41 122v420q0 72 -41 121t-100 77.5t-124.5 41t-117.5 12.5q-51 0 -117.5 -12.5t-126 -41t-100.5 -78t-41 -120.5v-420zM299 940v399q29 29 75 46.5t111 17.5q63 0 109.5 -17.5t75.5 -46.5v-399 q-29 -29 -75 -47.5t-110 -18.5q-66 0 -111.5 18.5t-74.5 47.5z" />
<glyph unicode="&#xbb;" horiz-adv-x="1056" d="M58 341q-1 -40 21.5 -69.5t61.5 -40t78 20.5l301 231q39 29 39 78t-39 78l-301 231q-39 31 -78 21t-61.5 -40t-21.5 -69t40 -69l197 -152l-197 -149q-39 -31 -40 -71zM497 341q-1 -40 21.5 -69.5t61 -40t77.5 20.5l301 231q39 29 39 78t-39 78l-301 231q-39 31 -77.5 21 t-61 -40t-21.5 -69t40 -69l196 -152l-196 -149q-39 -31 -40 -71z" />
<glyph unicode="&#xbf;" horiz-adv-x="1191" d="M53 61v-276q0 -84 55.5 -135t137.5 -80t175 -39t169 -10q78 0 155.5 10t148.5 25.5t127 31t91 27.5l-45 192q-53 -12 -110.5 -26t-122.5 -27q-66 -14 -131.5 -23.5t-112.5 -9.5q-135 0 -214 14.5t-122 57.5v260q14 8 47 17.5t71 18.5t73.5 17.5t54.5 12.5l448 102 l-98 428q-10 41 -44 63.5t-75 12.5t-63.5 -45t-12.5 -76l54 -231l-252 -58q-66 -16 -132.5 -29.5t-129.5 -41.5q-57 -25 -99.5 -68t-42.5 -115zM530 1006q0 -55 39 -94.5t95 -39.5q55 0 94 39.5t39 94.5t-39 94t-94 39t-94.5 -39t-39.5 -94z" />
<glyph unicode="&#xc0;" horiz-adv-x="1523" d="M54.5 40q17.5 -34 51 -48.5t71.5 -4t56 53.5l160 371h737l160 -371q18 -43 56 -53.5t72 4t51 48.5t-1 79l-616 1421q-10 27 -33.5 44.5t-56.5 17.5q-35 0 -57.5 -17.5t-32.5 -44.5l-617 -1421q-18 -45 -0.5 -79zM453 2048l225 -309q25 -33 65.5 -39t75.5 18.5t40.5 64.5 t-19.5 75l-140 190h-247zM479 610l283 652l280 -652h-563z" />
<glyph unicode="&#xc1;" horiz-adv-x="1523" d="M54.5 40q17.5 -34 51 -48.5t71.5 -4t56 53.5l160 371h737l160 -371q18 -43 56 -53.5t72 4t51 48.5t-1 79l-616 1421q-10 27 -33.5 44.5t-56.5 17.5q-35 0 -57.5 -17.5t-32.5 -44.5l-617 -1421q-18 -45 -0.5 -79zM479 610l283 652l280 -652h-563zM662.5 1780 q11.5 -39 42 -61.5t70.5 -20.5t69 41l223 309h-248l-139 -190q-29 -39 -17.5 -78z" />
<glyph unicode="&#xc2;" horiz-adv-x="1523" d="M54.5 40q17.5 -34 51 -48.5t71.5 -4t56 53.5l160 371h737l160 -371q18 -43 56 -53.5t72 4t51 48.5t-1 79l-616 1421q-10 27 -33.5 44.5t-56.5 17.5q-35 0 -57.5 -17.5t-32.5 -44.5l-617 -1421q-18 -45 -0.5 -79zM479 610l283 652l280 -652h-563zM508.5 1787 q5.5 -40 40.5 -67q33 -25 74 -19.5t65 38.5l76 94l74 -94q25 -33 65.5 -38t73.5 19q35 27 40 67t-22 73l-153 200q-29 39 -80 39q-49 0 -78 -39l-154 -200q-27 -33 -21.5 -73z" />
<glyph unicode="&#xc3;" horiz-adv-x="1523" d="M54.5 40q17.5 -34 51 -48.5t71.5 -4t56 53.5l160 371h737l160 -371q18 -43 56 -53.5t72 4t51 48.5t-1 79l-616 1421q-10 27 -33.5 44.5t-56.5 17.5q-35 0 -57.5 -17.5t-32.5 -44.5l-617 -1421q-18 -45 -0.5 -79zM386 1942.5q1 -41.5 30 -70.5q43 -43 97 -65.5t110 -22.5 q57 0 110 21.5t96 64.5q29 29 68 28q41 0 69.5 -28.5t69.5 -28.5q43 0 74 29q29 29 28 70.5t-30 70.5q-43 43 -97.5 65.5t-111.5 22.5q-55 0 -109.5 -21.5t-97.5 -64.5q-29 -29 -67 -28q-39 0 -68 28.5t-72 28.5q-41 0 -71 -29q-29 -29 -28 -70.5zM479 610l283 652l280 -652 h-563z" />
<glyph unicode="&#xc4;" horiz-adv-x="1523" d="M54.5 40q17.5 -34 51 -48.5t71.5 -4t56 53.5l160 371h737l160 -371q18 -43 56 -53.5t72 4t51 48.5t-1 79l-616 1421q-10 27 -33.5 44.5t-56.5 17.5q-35 0 -57.5 -17.5t-32.5 -44.5l-617 -1421q-18 -45 -0.5 -79zM430 1921q0 -55 39 -94t96 -39q55 0 94 39t39 94t-38.5 94 t-94.5 39q-57 0 -96 -39t-39 -94zM479 610l283 652l280 -652h-563zM823 1921q0 -55 40 -94t95 -39t94.5 39t39.5 94t-39 94t-95 39q-55 0 -95 -39t-40 -94z" />
<glyph unicode="&#xc5;" horiz-adv-x="1523" d="M54.5 40q17.5 -34 51 -48.5t71.5 -4t56 53.5l160 371h737l160 -371q18 -43 56 -53.5t72 4t51 48.5t-1 79l-616 1421q-10 27 -33.5 44.5t-56.5 17.5q-35 0 -57.5 -17.5t-32.5 -44.5l-617 -1421q-18 -45 -0.5 -79zM467 1997q0 -61 23.5 -115.5t63.5 -94.5t94 -63.5 t116 -23.5q61 0 115.5 23.5t94.5 63.5t63.5 94.5t23.5 115.5t-23.5 115.5t-63.5 94.5t-94.5 63.5t-115.5 23.5t-115.5 -23.5t-94.5 -63.5t-63.5 -94.5t-23.5 -115.5zM479 610l283 652l280 -652h-563zM668 1997q0 41 27.5 68.5t68.5 27.5t68.5 -27.5t27.5 -68.5t-27.5 -68.5 t-68.5 -27.5t-68.5 27.5t-27.5 68.5z" />
<glyph unicode="&#xc6;" horiz-adv-x="2183" d="M18.5 70.5q4.5 -39.5 38.5 -66.5q33 -25 74 -19.5t66 38.5l516 669h381v-692h999v201h-801v491h701q41 0 70.5 30t29.5 71t-29.5 70.5t-70.5 29.5h-701v491h801v201h-899q-29 0 -51.5 -13t-36.5 -36l-1067 -1393q-25 -33 -20.5 -72.5zM866 893l228 297v-297h-228z" />
<glyph unicode="&#xc7;" horiz-adv-x="1349" d="M141 371q0 -70 35 -133.5t98.5 -114.5t153.5 -86t203 -47l-62 -172l279 -64v-4q-14 -6 -41 -9t-78 -3q-39 0 -107.5 14.5t-183.5 61.5v-213q72 -35 146.5 -49.5t144.5 -14.5q53 0 109.5 11.5t102.5 35t76 57t30 78.5v72q0 49 -25 81t-60.5 50.5t-77.5 28.5t-79 18v17 q150 4 262.5 32.5t192.5 71.5v211q-37 -16 -89.5 -36.5t-119 -39t-144.5 -31t-166 -12.5t-154.5 19.5t-114.5 47t-81 60.5t-51 60v848q18 27 51 59.5t81 60t114.5 47t154.5 19.5t166 -12.5t144.5 -31t119 -39t89.5 -36.5v211q-88 47 -216.5 77t-302.5 30q-135 0 -245.5 -32 t-189.5 -85t-122 -123t-43 -148v-843z" />
<glyph unicode="&#xc8;" horiz-adv-x="1230" d="M141 0h1000v201h-801v491h700q41 0 71 30t30 71t-30 70.5t-71 29.5h-700v491h801v201h-899q-41 0 -71 -29.5t-30 -70.5v-1485zM334 2048l225 -309q25 -33 66 -39t75.5 18.5t40 64.5t-19.5 75l-139 190h-248z" />
<glyph unicode="&#xc9;" horiz-adv-x="1230" d="M141 0h1000v201h-801v491h700q41 0 71 30t30 71t-30 70.5t-71 29.5h-700v491h801v201h-899q-41 0 -71 -29.5t-30 -70.5v-1485zM543.5 1780q11.5 -39 42 -61.5t70.5 -20.5t69 41l223 309h-248l-139 -190q-29 -39 -17.5 -78z" />
<glyph unicode="&#xca;" horiz-adv-x="1230" d="M141 0h1000v201h-801v491h700q41 0 71 30t30 71t-30 70.5t-71 29.5h-700v491h801v201h-899q-41 0 -71 -29.5t-30 -70.5v-1485zM388 1787q5 -40 40 -67q33 -25 74 -19.5t65 38.5l76 94l74 -94q25 -33 65.5 -38t73.5 19q35 27 40 67t-22 73l-153 200q-29 39 -80 39 q-49 0 -78 -39l-153 -200q-27 -33 -22 -73z" />
<glyph unicode="&#xcb;" horiz-adv-x="1230" d="M141 0h1000v201h-801v491h700q41 0 71 30t30 71t-30 70.5t-71 29.5h-700v491h801v201h-899q-41 0 -71 -29.5t-30 -70.5v-1485zM311 1921q0 -55 39 -94t96 -39q55 0 94.5 39t39.5 94t-39 94t-95 39q-57 0 -96 -39t-39 -94zM705 1921q0 -55 39.5 -94t95.5 -39q55 0 94 39 t39 94t-39 94t-94 39t-95 -39t-40 -94z" />
<glyph unicode="&#xcc;" d="M-37 2048l225 -309q25 -33 66 -39t76 18.5t40 64.5t-20 75l-139 190h-248zM172 84q0 -41 28.5 -70.5t69.5 -29.5t71 29.5t30 70.5v1501h-199v-1501z" />
<glyph unicode="&#xcd;" d="M172 84q0 -41 28.5 -70.5t69.5 -29.5t71 29.5t30 70.5v1501h-199v-1501zM175 1780q11 -39 42 -61.5t71 -20.5t68 41l224 309h-248l-139 -190q-29 -39 -18 -78z" />
<glyph unicode="&#xce;" d="M17.5 1787q5.5 -40 39.5 -67q33 -25 74 -19.5t66 38.5l75 94l74 -94q25 -33 66 -38t73 19q35 27 40.5 67t-21.5 73l-154 200q-29 39 -80 39q-49 0 -77 -39l-154 -200q-27 -33 -21.5 -73zM172 84q0 -41 28.5 -70.5t69.5 -29.5t71 29.5t30 70.5v1501h-199v-1501z" />
<glyph unicode="&#xcf;" d="M-59 1921q0 -55 38.5 -94t96.5 -39q55 0 94 39t39 94t-39 94t-94 39q-57 0 -96 -39t-39 -94zM172 84q0 -41 28.5 -70.5t69.5 -29.5t71 29.5t30 70.5v1501h-199v-1501zM334 1921q0 -55 40 -94t95 -39t94 39t39 94t-39 94t-94 39t-95 -39t-40 -94z" />
<glyph unicode="&#xd0;" horiz-adv-x="0" />
<glyph unicode="&#xd1;" horiz-adv-x="1570" d="M141 84q0 -41 29 -70.5t70 -29.5t70.5 29.5t29.5 70.5v1122l909 -1183q31 -39 80 -39q41 0 71 29.5t30 70.5v1501h-201v-1208l-910 1186q-23 29 -53 36t-58 -2.5t-47.5 -35t-19.5 -60.5v-1417zM435 1942.5q1 -41.5 30 -70.5q43 -43 97 -65.5t110 -22.5q57 0 110.5 21.5 t96.5 64.5q29 29 67 28q41 0 69.5 -28.5t69.5 -28.5q43 0 74 29q29 29 28 70.5t-30 70.5q-43 43 -97 65.5t-112 22.5q-55 0 -109.5 -21.5t-97.5 -64.5q-29 -29 -67 -28q-39 0 -67.5 28.5t-71.5 28.5q-41 0 -72 -29q-29 -29 -28 -70.5z" />
<glyph unicode="&#xd2;" horiz-adv-x="1484" d="M141 371q0 -78 43 -147.5t122 -123t189.5 -85t245.5 -31.5t247 31.5t190.5 85t121.5 123t43 147.5v843q0 78 -43 148t-121.5 123t-190 85t-247.5 32q-135 0 -245.5 -32t-189.5 -85t-122 -123t-43 -148v-843zM340 369v848q18 27 51 59.5t81 60t114.5 47t154.5 19.5 q90 0 157 -19.5t115 -47t80.5 -60.5t51.5 -59v-848q-18 -27 -51 -60t-81 -60.5t-115 -47t-157 -19.5q-88 0 -154.5 19.5t-114.5 47t-81 60.5t-51 60zM436 2048l226 -309q25 -33 65.5 -39t75.5 18.5t40 64.5t-20 75l-139 190h-248z" />
<glyph unicode="&#xd3;" horiz-adv-x="1484" d="M141 371q0 -78 43 -147.5t122 -123t189.5 -85t245.5 -31.5t247 31.5t190.5 85t121.5 123t43 147.5v843q0 78 -43 148t-121.5 123t-190 85t-247.5 32q-135 0 -245.5 -32t-189.5 -85t-122 -123t-43 -148v-843zM340 369v848q18 27 51 59.5t81 60t114.5 47t154.5 19.5 q90 0 157 -19.5t115 -47t80.5 -60.5t51.5 -59v-848q-18 -27 -51 -60t-81 -60.5t-115 -47t-157 -19.5q-88 0 -154.5 19.5t-114.5 47t-81 60.5t-51 60zM644 1780q11 -39 42 -61.5t71 -20.5t68 41l224 309h-248l-139 -190q-29 -39 -18 -78z" />
<glyph unicode="&#xd4;" horiz-adv-x="1484" d="M141 371q0 -78 43 -147.5t122 -123t189.5 -85t245.5 -31.5t247 31.5t190.5 85t121.5 123t43 147.5v843q0 78 -43 148t-121.5 123t-190 85t-247.5 32q-135 0 -245.5 -32t-189.5 -85t-122 -123t-43 -148v-843zM340 369v848q18 27 51 59.5t81 60t114.5 47t154.5 19.5 q90 0 157 -19.5t115 -47t80.5 -60.5t51.5 -59v-848q-18 -27 -51 -60t-81 -60.5t-115 -47t-157 -19.5q-88 0 -154.5 19.5t-114.5 47t-81 60.5t-51 60zM490.5 1787q5.5 -40 39.5 -67q33 -25 74 -19.5t66 38.5l75 94l74 -94q25 -33 66 -38t73 19q35 27 40.5 67t-21.5 73 l-154 200q-29 39 -80 39q-49 0 -77 -39l-154 -200q-27 -33 -21.5 -73z" />
<glyph unicode="&#xd5;" horiz-adv-x="1484" d="M141 371q0 -78 43 -147.5t122 -123t189.5 -85t245.5 -31.5t247 31.5t190.5 85t121.5 123t43 147.5v843q0 78 -43 148t-121.5 123t-190 85t-247.5 32q-135 0 -245.5 -32t-189.5 -85t-122 -123t-43 -148v-843zM340 369v848q18 27 51 59.5t81 60t114.5 47t154.5 19.5 q90 0 157 -19.5t115 -47t80.5 -60.5t51.5 -59v-848q-18 -27 -51 -60t-81 -60.5t-115 -47t-157 -19.5q-88 0 -154.5 19.5t-114.5 47t-81 60.5t-51 60zM367.5 1942.5q1.5 -41.5 29.5 -70.5q43 -43 97.5 -65.5t109.5 -22.5q57 0 110.5 21.5t96.5 64.5q29 29 68 28 q41 0 69.5 -28.5t69.5 -28.5q43 0 74 29q29 29 27.5 70.5t-29.5 70.5q-43 43 -97.5 65.5t-111.5 22.5q-55 0 -109.5 -21.5t-97.5 -64.5q-29 -29 -68 -28q-39 0 -67.5 28.5t-71.5 28.5q-41 0 -72 -29q-29 -29 -27.5 -70.5z" />
<glyph unicode="&#xd6;" horiz-adv-x="1484" d="M141 371q0 -78 43 -147.5t122 -123t189.5 -85t245.5 -31.5t247 31.5t190.5 85t121.5 123t43 147.5v843q0 78 -43 148t-121.5 123t-190 85t-247.5 32q-135 0 -245.5 -32t-189.5 -85t-122 -123t-43 -148v-843zM340 369v848q18 27 51 59.5t81 60t114.5 47t154.5 19.5 q90 0 157 -19.5t115 -47t80.5 -60.5t51.5 -59v-848q-18 -27 -51 -60t-81 -60.5t-115 -47t-157 -19.5q-88 0 -154.5 19.5t-114.5 47t-81 60.5t-51 60zM414 1921q0 -55 39 -94t96 -39q55 0 94 39t39 94t-39 94t-94 39q-57 0 -96 -39t-39 -94zM807 1921q0 -55 40 -94t95 -39 t94 39t39 94t-39 94t-94 39t-95 -39t-40 -94z" />
<glyph unicode="&#xd8;" horiz-adv-x="1484" d="M141 371q0 -78 43 -147.5t122 -123t189.5 -85t245.5 -31.5t247 31.5t190.5 85t121.5 123t43 147.5v843q0 78 -43 148t-121.5 123t-190 85t-247.5 32q-135 0 -245.5 -32t-189.5 -85t-122 -123t-43 -148v-843zM340 369v848q18 27 51 59.5t81 60t114.5 47t154.5 19.5 q80 0 141.5 -16t108.5 -39zM494 238l651 979v-848q-18 -27 -51 -60t-81 -60.5t-115 -47t-157 -19.5q-78 0 -139 16.5t-108 39.5z" />
<glyph unicode="&#xd9;" horiz-adv-x="1484" d="M141 371q0 -78 43 -147.5t122 -123t189.5 -85t245.5 -31.5t247 31.5t190.5 85t121.5 123t43 147.5v1130q0 41 -28.5 71t-69.5 30t-70.5 -30t-29.5 -71v-1132q-18 -27 -51 -60t-81 -60.5t-115 -47t-157 -19.5q-88 0 -154.5 19.5t-114.5 47t-81 60.5t-51 60v1132 q0 41 -29.5 71t-70.5 30t-70 -30t-29 -71v-1130zM436 2048l226 -309q25 -33 65.5 -39t75.5 18.5t40 64.5t-20 75l-139 190h-248z" />
<glyph unicode="&#xda;" horiz-adv-x="1484" d="M141 371q0 -78 43 -147.5t122 -123t189.5 -85t245.5 -31.5t247 31.5t190.5 85t121.5 123t43 147.5v1130q0 41 -28.5 71t-69.5 30t-70.5 -30t-29.5 -71v-1132q-18 -27 -51 -60t-81 -60.5t-115 -47t-157 -19.5q-88 0 -154.5 19.5t-114.5 47t-81 60.5t-51 60v1132 q0 41 -29.5 71t-70.5 30t-70 -30t-29 -71v-1130zM644 1780q11 -39 42 -61.5t71 -20.5t68 41l224 309h-248l-139 -190q-29 -39 -18 -78z" />
<glyph unicode="&#xdb;" horiz-adv-x="1484" d="M141 371q0 -78 43 -147.5t122 -123t189.5 -85t245.5 -31.5t247 31.5t190.5 85t121.5 123t43 147.5v1130q0 41 -28.5 71t-69.5 30t-70.5 -30t-29.5 -71v-1132q-18 -27 -51 -60t-81 -60.5t-115 -47t-157 -19.5q-88 0 -154.5 19.5t-114.5 47t-81 60.5t-51 60v1132 q0 41 -29.5 71t-70.5 30t-70 -30t-29 -71v-1130zM490.5 1787q5.5 -40 39.5 -67q33 -25 74 -19.5t66 38.5l75 94l74 -94q25 -33 66 -38t73 19q35 27 40.5 67t-21.5 73l-154 200q-29 39 -80 39q-49 0 -77 -39l-154 -200q-27 -33 -21.5 -73z" />
<glyph unicode="&#xdc;" horiz-adv-x="1484" d="M141 371q0 -78 43 -147.5t122 -123t189.5 -85t245.5 -31.5t247 31.5t190.5 85t121.5 123t43 147.5v1130q0 41 -28.5 71t-69.5 30t-70.5 -30t-29.5 -71v-1132q-18 -27 -51 -60t-81 -60.5t-115 -47t-157 -19.5q-88 0 -154.5 19.5t-114.5 47t-81 60.5t-51 60v1132 q0 41 -29.5 71t-70.5 30t-70 -30t-29 -71v-1130zM414 1921q0 -55 39 -94t96 -39q55 0 94 39t39 94t-39 94t-94 39q-57 0 -96 -39t-39 -94zM807 1921q0 -55 40 -94t95 -39t94 39t39 94t-39 94t-94 39t-95 -39t-40 -94z" />
<glyph unicode="&#xdf;" horiz-adv-x="2117" d="M94 715q0 -55 25.5 -93t65.5 -62.5t87 -39t90 -24.5q29 -6 90.5 -19.5t127 -27t119 -27.5t65.5 -25v-106q-47 -47 -116.5 -78t-168.5 -31q-106 0 -186 18.5t-166 49.5v-205q90 -35 182 -48t170 -13q72 0 156 16t157.5 53t123 95.5t49.5 142.5v119q0 55 -26 93t-65.5 62.5 t-87 38.5t-90.5 25q-29 6 -90 18t-126.5 26.5t-119 29t-65.5 24.5v104q45 49 115.5 79t169.5 30q106 0 186 -18.5t166 -49.5v205q-92 35 -183.5 48.5t-168.5 13.5q-70 0 -155 -16.5t-158.5 -53.5t-123 -95.5t-49.5 -142.5v-116zM1153 715q0 -55 25.5 -93t65.5 -62.5t86 -39 t89 -24.5q29 -6 91.5 -19.5t127 -27t118.5 -27.5t67 -25v-106q-47 -47 -117 -78t-168 -31q-106 0 -187 18.5t-165 49.5v-205q90 -35 182 -48t170 -13q72 0 156 16t157.5 53t122.5 95.5t49 142.5v119q0 55 -25.5 93t-65.5 62.5t-87 38.5t-90 25q-29 6 -90 18t-126.5 26.5 t-119 29t-65.5 24.5v104q45 49 115.5 79t168.5 30q106 0 186.5 -18.5t164.5 -49.5v205q-90 35 -181.5 48.5t-169.5 13.5q-70 0 -154.5 -16.5t-158.5 -53.5t-123 -95.5t-49 -142.5v-116z" />
<glyph unicode="&#xe0;" horiz-adv-x="1124" d="M54.5 40q17.5 -34 51 -48.5t71.5 -4t56 53.5l103 238h452l103 -238q18 -43 56 -53.5t72 4t51 48.5t-1 79l-416 958q-12 27 -34.5 44.5t-55.5 17.5q-35 0 -57.5 -17.5t-34.5 -44.5l-416 -958q-18 -45 -0.5 -79zM248 1585l225 -309q25 -33 66 -39t75.5 18.5t40 64.5 t-19.5 75l-139 190h-248zM422 477l141 322l139 -322h-280z" />
<glyph unicode="&#xe1;" horiz-adv-x="1124" d="M54.5 40q17.5 -34 51 -48.5t71.5 -4t56 53.5l103 238h452l103 -238q18 -43 56 -53.5t72 4t51 48.5t-1 79l-416 958q-12 27 -34.5 44.5t-55.5 17.5q-35 0 -57.5 -17.5t-34.5 -44.5l-416 -958q-18 -45 -0.5 -79zM422 477l141 322l139 -322h-280zM457.5 1317 q11.5 -39 42 -61.5t70.5 -20.5t69 41l223 309h-248l-139 -190q-29 -39 -17.5 -78z" />
<glyph unicode="&#xe2;" horiz-adv-x="1124" d="M54.5 40q17.5 -34 51 -48.5t71.5 -4t56 53.5l103 238h452l103 -238q18 -43 56 -53.5t72 4t51 48.5t-1 79l-416 958q-12 27 -34.5 44.5t-55.5 17.5q-35 0 -57.5 -17.5t-34.5 -44.5l-416 -958q-18 -45 -0.5 -79zM302 1324q5 -40 40 -67q33 -25 74 -19.5t65 38.5l76 94 l74 -94q25 -33 65.5 -38t73.5 19q35 27 40 67t-22 73l-153 200q-29 39 -80 39q-49 0 -78 -39l-153 -200q-27 -33 -22 -73zM422 477l141 322l139 -322h-280z" />
<glyph unicode="&#xe3;" horiz-adv-x="1124" d="M54.5 40q17.5 -34 51 -48.5t71.5 -4t56 53.5l103 238h452l103 -238q18 -43 56 -53.5t72 4t51 48.5t-1 79l-416 958q-12 27 -34.5 44.5t-55.5 17.5q-35 0 -57.5 -17.5t-34.5 -44.5l-416 -958q-18 -45 -0.5 -79zM181 1479.5q1 -41.5 30 -70.5q43 -43 97 -65.5t110 -22.5 q57 0 110.5 21.5t96.5 64.5q29 29 67 29q41 0 70 -29t69 -29q43 0 74 29q29 29 28 71t-30 70q-43 43 -97 65.5t-112 22.5q-55 0 -109.5 -21.5t-97.5 -64.5q-29 -29 -67 -28q-39 0 -67.5 28.5t-71.5 28.5q-41 0 -72 -29q-29 -29 -28 -70.5zM422 477l141 322l139 -322h-280z " />
<glyph unicode="&#xe4;" horiz-adv-x="1124" d="M54.5 40q17.5 -34 51 -48.5t71.5 -4t56 53.5l103 238h452l103 -238q18 -43 56 -53.5t72 4t51 48.5t-1 79l-416 958q-12 27 -34.5 44.5t-55.5 17.5q-35 0 -57.5 -17.5t-34.5 -44.5l-416 -958q-18 -45 -0.5 -79zM225 1458q0 -55 39 -94t96 -39q55 0 94.5 39t39.5 94t-39 94 t-95 39q-57 0 -96 -39t-39 -94zM422 477l141 322l139 -322h-280zM618 1458q0 -55 40 -94t96 -39q55 0 94 39t39 94t-39 94t-94 39t-95.5 -39t-40.5 -94z" />
<glyph unicode="&#xe5;" horiz-adv-x="1124" d="M54.5 40q17.5 -34 51 -48.5t71.5 -4t56 53.5l103 238h452l103 -238q18 -43 56 -53.5t72 4t51 48.5t-1 79l-416 958q-12 27 -34.5 44.5t-55.5 17.5q-35 0 -57.5 -17.5t-34.5 -44.5l-416 -958q-18 -45 -0.5 -79zM262 1534q0 -61 23.5 -115.5t63.5 -94.5t94.5 -63.5 t115.5 -23.5t115.5 23.5t94.5 63.5t63.5 94.5t23.5 115.5t-23.5 115.5t-63.5 94.5t-94 63.5t-116 23.5q-61 0 -115.5 -23.5t-94.5 -63.5t-63.5 -94.5t-23.5 -115.5zM422 477l141 322l139 -322h-280zM463 1534q0 41 27.5 68.5t68.5 27.5t68.5 -27.5t27.5 -68.5t-27.5 -68.5 t-68.5 -27.5t-68.5 27.5t-27.5 68.5z" />
<glyph unicode="&#xe6;" horiz-adv-x="1642" d="M-0.5 69.5q4.5 -40.5 39.5 -65.5q33 -27 74 -21.5t67 40.5l182 239h361v-262h799v201h-600v260h499q41 0 71 29.5t30 70.5t-30 71t-71 30h-499v262h600v198h-699q-27 0 -47 -12t-37 -33l-719 -934q-25 -33 -20.5 -73.5zM516 461l207 268v-268h-207z" />
<glyph unicode="&#xe7;" horiz-adv-x="1101" d="M131 291q0 -68 33 -119t84 -87t116.5 -58.5t129.5 -32.5l-64 -176l279 -64v-4q-14 -6 -41 -9t-78 -3q-39 0 -107.5 14.5t-183.5 61.5v-213q72 -35 146.5 -49.5t144.5 -14.5q53 0 109.5 11.5t102.5 35t75.5 57t29.5 78.5v72q0 49 -24.5 81t-60.5 50.5t-78 28.5t-78 18v17 q78 4 171 16t171 43v205q-84 -31 -185.5 -49.5t-206.5 -18.5q-98 0 -168.5 31t-117.5 78v540q47 49 117.5 79t168.5 30q104 0 206 -18.5t186 -49.5v205q-45 18 -97.5 29.5t-104.5 19t-101.5 10.5t-88.5 3q-70 0 -154.5 -16.5t-158.5 -53.5t-123 -95.5t-49 -142.5v-540z" />
<glyph unicode="&#xe8;" horiz-adv-x="1060" d="M141 0h799v201h-600v260h500q41 0 70.5 29.5t29.5 70.5t-29.5 71t-70.5 30h-500v262h600v198h-698q-41 0 -71 -29.5t-30 -70.5v-1022zM256 1585l225 -309q25 -33 66 -39t75.5 18.5t40 64.5t-19.5 75l-139 190h-248z" />
<glyph unicode="&#xe9;" horiz-adv-x="1060" d="M141 0h799v201h-600v260h500q41 0 70.5 29.5t29.5 70.5t-29.5 71t-70.5 30h-500v262h600v198h-698q-41 0 -71 -29.5t-30 -70.5v-1022zM463.5 1317q11.5 -39 42.5 -61.5t70.5 -20.5t68.5 41l223 309h-247l-140 -190q-29 -39 -17.5 -78z" />
<glyph unicode="&#xea;" horiz-adv-x="1060" d="M141 0h799v201h-600v260h500q41 0 70.5 29.5t29.5 70.5t-29.5 71t-70.5 30h-500v262h600v198h-698q-41 0 -71 -29.5t-30 -70.5v-1022zM310 1324q5 -40 40 -67q33 -25 74 -19.5t65 38.5l76 94l74 -94q25 -33 65.5 -38t73.5 19q35 27 40.5 67t-21.5 73l-154 200 q-29 39 -80 39q-49 0 -78 -39l-153 -200q-27 -33 -22 -73z" />
<glyph unicode="&#xeb;" horiz-adv-x="1060" d="M141 0h799v201h-600v260h500q41 0 70.5 29.5t29.5 70.5t-29.5 71t-70.5 30h-500v262h600v198h-698q-41 0 -71 -29.5t-30 -70.5v-1022zM233 1458q0 -55 39 -94t97 -39q55 0 94 39t39 94t-39 94t-94 39q-57 0 -96.5 -39t-39.5 -94zM627 1458q0 -55 40 -94t95 -39t94 39 t39 94t-39 94t-94 39t-95 -39t-40 -94z" />
<glyph unicode="&#xec;" d="M-37 1585l225 -309q25 -33 66 -39t76 18.5t40 64.5t-20 75l-139 190h-248zM172 0h199v1038q0 41 -30 71t-71 30t-69.5 -30t-28.5 -71v-1038z" />
<glyph unicode="&#xed;" d="M172 0h199v1038q0 41 -30 71t-71 30t-69.5 -30t-28.5 -71v-1038zM175 1317q11 -39 42 -61.5t71 -20.5t68 41l224 309h-248l-139 -190q-29 -39 -18 -78z" />
<glyph unicode="&#xee;" d="M15 1324q5 -40 40 -67q33 -25 74 -19.5t66 38.5l75 94l74 -94q25 -33 66 -38t73 19q35 27 40.5 67t-21.5 73l-154 200q-29 39 -80 39q-49 0 -78 -39l-153 -200q-27 -33 -22 -73zM172 0h199v1038q0 41 -30 71t-71 30t-69.5 -30t-28.5 -71v-1038z" />
<glyph unicode="&#xef;" d="M-59 1458q0 -55 38.5 -94t96.5 -39q55 0 94 39t39 94t-39 94t-94 39q-57 0 -96 -39t-39 -94zM172 0h199v1038q0 41 -30 71t-71 30t-69.5 -30t-28.5 -71v-1038zM334 1458q0 -55 40 -94t95 -39t94 39t39 94t-39 94t-94 39t-95 -39t-40 -94z" />
<glyph unicode="&#xf1;" horiz-adv-x="1214" d="M141 84q0 -41 29 -70.5t70 -29.5t70.5 29.5t29.5 70.5v659l555 -720q14 -20 35.5 -29.5t44.5 -9.5q41 0 70.5 29.5t29.5 70.5v1038h-201v-745l-555 723q-23 29 -53 36t-58 -2.5t-47.5 -35t-19.5 -60.5v-954zM253 1479.5q1 -41.5 30 -70.5q43 -43 97 -65.5t109 -22.5 q57 0 110.5 21.5t96.5 64.5q29 29 68 29q41 0 69.5 -29t69.5 -29q43 0 74 29q29 29 28 71t-30 70q-43 43 -97.5 65.5t-111.5 22.5q-55 0 -109.5 -21.5t-97.5 -64.5q-29 -29 -67 -28q-39 0 -68 28.5t-72 28.5q-41 0 -71 -29q-29 -29 -28 -70.5z" />
<glyph unicode="&#xf2;" horiz-adv-x="1232" d="M131 291q0 -84 49 -142.5t123 -95.5t159 -53t154 -16q72 0 156 16t158 53t123 95.5t49 142.5v540q0 84 -49 142.5t-123 95.5t-158 53.5t-156 16.5q-70 0 -154.5 -16.5t-158.5 -53.5t-123 -95.5t-49 -142.5v-540zM309 1585l226 -309q25 -33 65.5 -39t75.5 18.5t40 64.5 t-20 75l-139 190h-248zM330 291v540q47 49 117.5 79t168.5 30t169 -29.5t116 -79.5v-540q-45 -47 -115.5 -78t-169.5 -31q-98 0 -168.5 31t-117.5 78z" />
<glyph unicode="&#xf3;" horiz-adv-x="1232" d="M131 291q0 -84 49 -142.5t123 -95.5t159 -53t154 -16q72 0 156 16t158 53t123 95.5t49 142.5v540q0 84 -49 142.5t-123 95.5t-158 53.5t-156 16.5q-70 0 -154.5 -16.5t-158.5 -53.5t-123 -95.5t-49 -142.5v-540zM330 291v540q47 49 117.5 79t168.5 30t169 -29.5 t116 -79.5v-540q-45 -47 -115.5 -78t-169.5 -31q-98 0 -168.5 31t-117.5 78zM517 1317q11 -39 42 -61.5t71 -20.5t68 41l224 309h-248l-139 -190q-29 -39 -18 -78z" />
<glyph unicode="&#xf4;" horiz-adv-x="1232" d="M131 291q0 -84 49 -142.5t123 -95.5t159 -53t154 -16q72 0 156 16t158 53t123 95.5t49 142.5v540q0 84 -49 142.5t-123 95.5t-158 53.5t-156 16.5q-70 0 -154.5 -16.5t-158.5 -53.5t-123 -95.5t-49 -142.5v-540zM330 291v540q47 49 117.5 79t168.5 30t169 -29.5 t116 -79.5v-540q-45 -47 -115.5 -78t-169.5 -31q-98 0 -168.5 31t-117.5 78zM363.5 1324q5.5 -40 39.5 -67q33 -25 74 -19.5t66 38.5l75 94l74 -94q25 -33 66 -38t73 19q35 27 40.5 67t-21.5 73l-154 200q-29 39 -80 39q-49 0 -77 -39l-154 -200q-27 -33 -21.5 -73z" />
<glyph unicode="&#xf5;" horiz-adv-x="1232" d="M131 291q0 -84 49 -142.5t123 -95.5t159 -53t154 -16q72 0 156 16t158 53t123 95.5t49 142.5v540q0 84 -49 142.5t-123 95.5t-158 53.5t-156 16.5q-70 0 -154.5 -16.5t-158.5 -53.5t-123 -95.5t-49 -142.5v-540zM240.5 1479.5q1.5 -41.5 29.5 -70.5q43 -43 97.5 -65.5 t109.5 -22.5q57 0 110.5 21.5t96.5 64.5q29 29 68 29q41 0 69.5 -29t69.5 -29q43 0 74 29q29 29 27.5 71t-29.5 70q-43 43 -97.5 65.5t-111.5 22.5q-55 0 -109.5 -21.5t-97.5 -64.5q-29 -29 -68 -28q-39 0 -67.5 28.5t-71.5 28.5q-41 0 -72 -29q-29 -29 -27.5 -70.5z M330 291v540q47 49 117.5 79t168.5 30t169 -29.5t116 -79.5v-540q-45 -47 -115.5 -78t-169.5 -31q-98 0 -168.5 31t-117.5 78z" />
<glyph unicode="&#xf6;" horiz-adv-x="1232" d="M131 291q0 -84 49 -142.5t123 -95.5t159 -53t154 -16q72 0 156 16t158 53t123 95.5t49 142.5v540q0 84 -49 142.5t-123 95.5t-158 53.5t-156 16.5q-70 0 -154.5 -16.5t-158.5 -53.5t-123 -95.5t-49 -142.5v-540zM287 1458q0 -55 39 -94t96 -39q55 0 94 39t39 94t-39 94 t-94 39q-57 0 -96 -39t-39 -94zM330 291v540q47 49 117.5 79t168.5 30t169 -29.5t116 -79.5v-540q-45 -47 -115.5 -78t-169.5 -31q-98 0 -168.5 31t-117.5 78zM680 1458q0 -55 40 -94t95 -39t94 39t39 94t-39 94t-94 39t-95 -39t-40 -94z" />
<glyph unicode="&#xf7;" horiz-adv-x="1251" d="M141 461h871q41 0 70.5 29.5t29.5 70.5t-29.5 71t-70.5 30h-871v-201zM485 203q0 -55 39 -94t94 -39t94.5 39t39.5 94t-39 94t-95 39q-55 0 -94 -39t-39 -94zM485 920q0 -55 39 -94.5t94 -39.5t94.5 39.5t39.5 94.5t-39 94t-95 39q-55 0 -94 -39t-39 -94z" />
<glyph unicode="&#xf8;" horiz-adv-x="1253" d="M141 258q0 -86 49.5 -144.5t123 -95t158.5 -53t155 -16.5q72 0 155.5 16.5t157.5 53t123 95t49 144.5v606q0 86 -49 144.5t-123 94.5t-158 52t-155 16q-70 0 -155 -16t-158.5 -52t-123 -94.5t-49.5 -144.5v-606zM340 346v518q47 49 117.5 79t169.5 30q47 0 86.5 -7.5 t74.5 -19.5zM465 176l446 600v-520q-45 -47 -115.5 -76.5t-168.5 -29.5q-47 0 -87 7t-75 19z" />
<glyph unicode="&#xf9;" horiz-adv-x="1253" d="M141 291q0 -84 49.5 -142.5t123 -95.5t158.5 -53t155 -16q72 0 155.5 16t157.5 53t123 95.5t49 142.5v831h-201v-831q-45 -47 -115.5 -78t-168.5 -31t-169 31t-118 78v831h-199v-831zM319 1585l226 -309q25 -33 65.5 -39t75.5 18.5t40.5 64.5t-19.5 75l-140 190h-248z " />
<glyph unicode="&#xfa;" horiz-adv-x="1253" d="M141 291q0 -84 49.5 -142.5t123 -95.5t158.5 -53t155 -16q72 0 155.5 16t157.5 53t123 95.5t49 142.5v831h-201v-831q-45 -47 -115.5 -78t-168.5 -31t-169 31t-118 78v831h-199v-831zM527.5 1317q11.5 -39 42 -61.5t70.5 -20.5t69 41l223 309h-248l-139 -190 q-29 -39 -17.5 -78z" />
<glyph unicode="&#xfb;" horiz-adv-x="1253" d="M141 291q0 -84 49.5 -142.5t123 -95.5t158.5 -53t155 -16q72 0 155.5 16t157.5 53t123 95.5t49 142.5v831h-201v-831q-45 -47 -115.5 -78t-168.5 -31t-169 31t-118 78v831h-199v-831zM373.5 1324q5.5 -40 40.5 -67q33 -25 73.5 -19.5t65.5 38.5l76 94l73 -94 q25 -33 66 -38t74 19q35 27 40 67t-22 73l-153 200q-29 39 -80 39q-49 0 -78 -39l-154 -200q-27 -33 -21.5 -73z" />
<glyph unicode="&#xfc;" horiz-adv-x="1253" d="M141 291q0 -84 49.5 -142.5t123 -95.5t158.5 -53t155 -16q72 0 155.5 16t157.5 53t123 95.5t49 142.5v831h-201v-831q-45 -47 -115.5 -78t-168.5 -31t-169 31t-118 78v831h-199v-831zM297 1458q0 -55 39 -94t96 -39q55 0 94 39t39 94t-39 94t-94 39q-57 0 -96 -39 t-39 -94zM690 1458q0 -55 40 -94t95 -39t94 39t39 94t-38.5 94t-94.5 39q-55 0 -95 -39t-40 -94z" />
<glyph unicode="&#xff;" horiz-adv-x="1187" d="M46 1057q-9 -37 20 -76l428 -553v-428h200v428l428 553q29 39 20 76t-38 59.5t-68 21.5t-67 -38l-375 -484l-375 484q-29 37 -67.5 38t-67.5 -21.5t-38 -59.5zM285 1458q0 -55 38.5 -94t96.5 -39q55 0 94 39t39 94t-39 94t-94 39q-57 0 -96 -39t-39 -94zM678 1458 q0 -55 40 -94t95 -39t94 39t39 94t-39 94t-94 39t-95 -39t-40 -94z" />
<glyph unicode="&#x152;" horiz-adv-x="2234" d="M141 371q0 -78 43 -147.5t122 -123t189.5 -85t245.5 -31.5q123 0 224.5 25.5t179.5 68.5v-78h999v201h-801v491h701q41 0 70.5 30t29.5 71t-29.5 70.5t-70.5 29.5h-701v491h801v201h-899q-37 0 -64.5 -22.5t-33.5 -57.5q-78 45 -180.5 71t-225.5 26q-135 0 -245.5 -32 t-189.5 -85t-122 -123t-43 -148v-843zM340 369v848q18 27 51 59.5t81 60t114.5 47t154.5 19.5q90 0 157 -19.5t115 -47t80.5 -60.5t51.5 -59v-848q-18 -27 -51 -60t-81 -60.5t-115 -47t-157 -19.5q-88 0 -154.5 19.5t-114.5 47t-81 60.5t-51 60z" />
<glyph unicode="&#x153;" horiz-adv-x="1820" d="M131 291q0 -84 49 -142.5t123 -95.5t159 -53t154 -16q68 0 143 13t142 42v-39h799v201h-598v260h497q41 0 71 29.5t30 70.5t-30 71t-71 30h-497v262h598v198h-699q-53 0 -83 -47q-72 35 -151 49.5t-151 14.5q-70 0 -154.5 -16.5t-158.5 -53.5t-123 -95.5t-49 -142.5v-540 zM330 291v540q47 49 117.5 79t168.5 30t169 -29.5t116 -79.5v-540q-45 -47 -115.5 -78t-169.5 -31q-98 0 -168.5 31t-117.5 78z" />
<glyph unicode="&#x178;" horiz-adv-x="1460" d="M58.5 1519.5q-9.5 -36.5 19.5 -75.5l553 -721v-723h198v725l553 721q29 37 20 75t-38 59.5t-68 20t-67 -37.5l-498 -652l-500 652q-29 37 -67.5 38t-67 -22t-38 -59.5zM399 1921q0 -55 39 -94t97 -39q55 0 94 39t39 94t-39 94t-94 39q-57 0 -96.5 -39t-39.5 -94z M793 1921q0 -55 39.5 -94t95.5 -39q55 0 94 39t39 94t-39 94t-94 39t-95 -39t-40 -94z" />
<glyph unicode="&#x2c6;" horiz-adv-x="1232" d="M363.5 1324q5.5 -40 39.5 -67q33 -25 74 -19.5t66 38.5l75 94l74 -94q25 -33 66 -38t73 19q35 27 40.5 67t-21.5 73l-154 200q-29 39 -80 39q-49 0 -77 -39l-154 -200q-27 -33 -21.5 -73z" />
<glyph unicode="&#x2dc;" horiz-adv-x="1232" d="M240.5 1479.5q1.5 -41.5 29.5 -70.5q43 -43 97.5 -65.5t109.5 -22.5q57 0 110.5 21.5t96.5 64.5q29 29 68 29q41 0 69.5 -29t69.5 -29q43 0 74 29q29 29 27.5 71t-29.5 70q-43 43 -97.5 65.5t-111.5 22.5q-55 0 -109.5 -21.5t-97.5 -64.5q-29 -29 -68 -28 q-39 0 -67.5 28.5t-71.5 28.5q-41 0 -72 -29q-29 -29 -27.5 -70.5z" />
<glyph unicode="&#x2000;" horiz-adv-x="1147" />
<glyph unicode="&#x2001;" horiz-adv-x="2294" />
<glyph unicode="&#x2002;" horiz-adv-x="1147" />
<glyph unicode="&#x2003;" horiz-adv-x="2294" />
<glyph unicode="&#x2004;" horiz-adv-x="764" />
<glyph unicode="&#x2005;" horiz-adv-x="573" />
<glyph unicode="&#x2006;" horiz-adv-x="382" />
<glyph unicode="&#x2007;" horiz-adv-x="382" />
<glyph unicode="&#x2008;" horiz-adv-x="286" />
<glyph unicode="&#x2009;" horiz-adv-x="458" />
<glyph unicode="&#x200a;" horiz-adv-x="127" />
<glyph unicode="&#x2010;" horiz-adv-x="866" d="M141 461h486q41 0 70.5 29.5t29.5 70.5t-29.5 71t-70.5 30h-486v-201z" />
<glyph unicode="&#x2011;" horiz-adv-x="866" d="M141 461h486q41 0 70.5 29.5t29.5 70.5t-29.5 71t-70.5 30h-486v-201z" />
<glyph unicode="&#x2012;" horiz-adv-x="866" d="M141 461h486q41 0 70.5 29.5t29.5 70.5t-29.5 71t-70.5 30h-486v-201z" />
<glyph unicode="&#x2013;" horiz-adv-x="1251" d="M141 461h871q41 0 70.5 29.5t29.5 70.5t-29.5 71t-70.5 30h-871v-201z" />
<glyph unicode="&#x2014;" horiz-adv-x="1886" d="M141 461h1504q41 0 70.5 29.5t29.5 70.5t-29.5 71t-70.5 30h-1504v-201z" />
<glyph unicode="&#x2018;" horiz-adv-x="403" d="M63 1477l95 -355h207l-109 408q-12 47 -49 63.5t-73 6t-59.5 -42t-11.5 -80.5z" />
<glyph unicode="&#x2019;" horiz-adv-x="403" d="M43 1231q-12 -49 11.5 -81t59.5 -41t72.5 6t49.5 65l108 405h-207z" />
<glyph unicode="&#x201a;" horiz-adv-x="393" d="M41 -281h207l94 355q12 49 -11.5 80.5t-59 41t-72.5 -6t-49 -64.5z" />
<glyph unicode="&#x201c;" horiz-adv-x="669" d="M63 1477l95 -355h207l-109 408q-12 47 -49 63.5t-73 6t-59.5 -42t-11.5 -80.5zM330 1477l94 -355h207l-109 408q-12 47 -49 63.5t-72.5 6t-59.5 -42t-11 -80.5z" />
<glyph unicode="&#x201d;" horiz-adv-x="669" d="M43 1231q-12 -49 11.5 -81t59.5 -41t72.5 6t49.5 65l108 405h-207zM309 1231q-12 -49 11.5 -81t59.5 -41t72.5 6t49.5 65l108 405h-207z" />
<glyph unicode="&#x201e;" horiz-adv-x="659" d="M41 -281h207l94 355q12 49 -11.5 80.5t-59 41t-72.5 -6t-49 -64.5zM307 -281h207l96 355q12 49 -11.5 80.5t-60 41t-73.5 -6t-49 -64.5z" />
<glyph unicode="&#x2022;" horiz-adv-x="942" d="M172 561q0 -61 23.5 -116.5t63.5 -95.5t95.5 -63.5t116.5 -23.5t116.5 23.5t96.5 63.5t64.5 95.5t23.5 116.5t-23.5 116.5t-64.5 95.5t-96.5 63.5t-116.5 23.5t-116.5 -23.5t-95.5 -63.5t-63.5 -95t-23.5 -117z" />
<glyph unicode="&#x2026;" horiz-adv-x="2549" d="M342 117q0 -55 40 -94t95 -39q53 0 93 39t40 94t-40 94t-93 39q-55 0 -95 -39t-40 -94zM1141 117q0 -55 40 -94t95 -39q53 0 93 39t40 94t-40 94t-93 39q-55 0 -95 -39t-40 -94zM1939 117q0 -55 40 -94t96 -39q53 0 93 39t40 94t-40 94t-93 39q-55 0 -95.5 -39t-40.5 -94 z" />
<glyph unicode="&#x202f;" horiz-adv-x="458" />
<glyph unicode="&#x2039;" horiz-adv-x="618" d="M59 561q0 -47 37 -78l303 -231q39 -31 78 -20.5t61.5 40t21.5 69.5t-40 71l-196 149l196 152q39 31 40 69.5t-22.5 68.5t-61.5 40t-79 -21l-301 -231q-37 -31 -37 -78z" />
<glyph unicode="&#x203a;" horiz-adv-x="618" d="M58 341q-1 -40 21.5 -69.5t61.5 -40t78 20.5l301 231q39 29 39 78t-39 78l-301 231q-39 31 -78 21t-61.5 -40t-21.5 -69t40 -69l197 -152l-197 -149q-39 -31 -40 -71z" />
<glyph unicode="&#x205f;" horiz-adv-x="573" />
<glyph unicode="&#x20ac;" horiz-adv-x="1138" d="M80 428q0 -41 29.5 -70.5t70.5 -29.5h33v-37q0 -84 49 -142.5t123 -95.5t159 -53t154 -16q78 0 169.5 13t181.5 48v205q-84 -31 -165 -49.5t-186 -18.5q-98 0 -168.5 31t-117.5 78v37h385l43 200h-428v66h440l43 201h-483v36q47 49 117.5 79t168.5 30q104 0 185.5 -18.5 t165.5 -49.5v205q-90 35 -181.5 48.5t-169.5 13.5q-70 0 -154.5 -16.5t-158.5 -53.5t-123 -95.5t-49 -142.5v-36h-33q-41 0 -70.5 -30t-29.5 -71t29.5 -70.5t70.5 -29.5h33v-66h-33q-41 0 -70.5 -29.5t-29.5 -70.5z" />
<glyph unicode="&#x2122;" horiz-adv-x="1333" d="M92 1419h131v-229q0 -41 30 -70.5t71 -29.5t69.5 29.5t28.5 70.5l2 229h129v-329h199v110q12 -18 24 -37.5t27.5 -36t34 -26.5t45.5 -10q25 0 44 10t33.5 26.5t26.5 36t25 37.5v-110h198v428q0 41 -28.5 70.5t-69.5 29.5q-53 0 -84 -43l-145 -211l-148 211 q-14 23 -36.5 33t-47.5 10q-41 0 -67.5 -25.5t-30.5 -62.5v88h-461v-199z" />
<glyph unicode="&#x25fc;" horiz-adv-x="1136" d="M0 0v1137h1137v-1137h-1137z" />
<glyph unicode="&#xfb01;" horiz-adv-x="1542" d="M141 100q0 -41 30 -70.5t71 -29.5t69.5 29.5t28.5 70.5v361h500q41 0 70.5 29.5t29.5 70.5t-29.5 71t-70.5 30h-500v262h600v198h-799v-1022zM1169 0h201v1038q0 41 -29.5 71t-70.5 30t-71 -30t-30 -71v-1038z" />
<glyph unicode="&#xfb02;" horiz-adv-x="2029" d="M141 100q0 -41 30 -70.5t71 -29.5t69.5 29.5t28.5 70.5v361h500q41 0 70.5 29.5t29.5 70.5t-29.5 71t-70.5 30h-500v262h600v198h-799v-1022zM1139 0h874v201h-674v837q0 41 -28.5 71t-71.5 30q-41 0 -70.5 -30t-29.5 -71v-1038z" />
</font>
</defs>
</svg>
