<?xml version="1.0" standalone="no"?>
<!DOCTYPE svg PUBLIC "-//W3C//DTD SVG 1.1//EN" "http://www.w3.org/Graphics/SVG/1.1/DTD/svg11.dtd" >
<svg>
<metadata>
Created by FontForge 20110222 at Sat Jun 14 13:47:20 2014
 By Orthosie Webhosting
(c)2009 Christian Schwartz, under exclusive license to Schwartzco Inc./Commercial Type. All rights reserved.
</metadata>
<defs>
<font id="StagSansRoundLight" horiz-adv-x="412" >
  <font-face 
    font-family="StagSansRoundLight"
    font-weight="300"
    font-stretch="normal"
    units-per-em="1000"
    panose-1="2 11 3 3 4 0 0 2 0 4"
    ascent="838"
    descent="-162"
    x-height="521"
    cap-height="703"
    bbox="-162.12 -174 1027 906"
    underline-thickness="50"
    underline-position="-50"
    unicode-range="U+0020-FB02"
  />
<missing-glyph horiz-adv-x="500" 
 />
    <glyph glyph-name="f_f" unicode="ff" horiz-adv-x="524" 
d="M336 483h-206v-462q0 -24 -24 -24h-2q-24 0 -24 24v462h-52q-20 0 -20 18v2q0 18 20 18h52v46q0 65 33.5 97.5t88.5 32.5q28 0 45 -4q21 -5 21 -20v-1q0 -20 -23 -18q-4 0 -15 1t-16 1q-43 0 -63.5 -20t-20.5 -72v-43h206v52q0 65 33.5 97.5t88.5 32.5q28 0 45 -4
q21 -5 21 -20v-1q0 -20 -23 -18q-4 0 -15 1t-16 1q-43 0 -63.5 -20t-20.5 -72v-49h109q20 0 20 -18v-2q0 -18 -20 -18h-109v-462q0 -24 -24 -24h-2q-24 0 -24 24v462z" />
    <glyph glyph-name=".notdef" horiz-adv-x="500" 
 />
    <glyph glyph-name=".null" horiz-adv-x="0" 
 />
    <glyph glyph-name="nonmarkingreturn" horiz-adv-x="333" 
 />
    <glyph glyph-name="space" unicode=" " horiz-adv-x="196" 
 />
    <glyph glyph-name="exclam" unicode="!" horiz-adv-x="225" 
d="M134 162q-1 -21 -20 -21h-2q-19 0 -20 21q-6 348 -6 514q0 27 26 27h2q26 0 26 -27zM151 34q0 -16 -11 -27t-28 -11q-16 0 -27 11t-11 27t11 27.5t27 11.5t27.5 -11.5t11.5 -27.5z" />
    <glyph glyph-name="quotedbl" unicode="&#x22;" horiz-adv-x="211" 
d="M54 522h-2q-16 0 -17 18q-8 104 -8 136q0 27 25 27h2q25 0 25 -27l-8 -136q-1 -18 -17 -18zM159 522h-2q-15 0 -17 18q-8 104 -8 136q0 27 25 27h2q25 0 25 -27l-8 -136q-2 -18 -17 -18z" />
    <glyph glyph-name="numbersign" unicode="#" horiz-adv-x="455" 
d="M303 428h-132l-18 -128h131zM319 254l-34 -235q-3 -22 -20 -22h-3q-22 0 -18 28l33 229h-131l-34 -235q-3 -22 -20 -22h-3q-22 0 -18 28l34 229h-64q-22 0 -22 22v2q0 22 22 22h70l19 128h-63q-22 0 -22 21v2q0 20 22 20h69l30 210q3 22 20 22h3q22 0 18 -28l-30 -204
h131l31 210q3 22 20 22h3q22 0 18 -28l-30 -204h64q21 0 21 -20v-2q0 -21 -21 -21h-70l-19 -128h64q22 0 22 -22v-2q0 -22 -22 -22h-70z" />
    <glyph glyph-name="dollar" unicode="$" horiz-adv-x="496" 
d="M266 748v-44q92 -4 150 -42q22 -15 22 -34v-1q0 -22 -22 -22q-10 0 -25 13t-46 27t-79 16v-278q109 -30 155.5 -69t46.5 -121q0 -92 -54.5 -141.5t-148.5 -54.5v-81q0 -20 -20 -20h-2q-20 0 -20 20v80q-120 4 -180 53q-21 17 -21 34v1q0 10 6 16.5t16 6.5q8 0 21 -10
t28 -22.5t49.5 -24t80.5 -12.5v305q-98 28 -142.5 67t-44.5 116q0 74 48.5 122t139.5 55v45q0 20 20 20h2q20 0 20 -20zM417 189q0 65 -35 93t-117 50v-293q152 13 152 150zM86 530q0 -60 33 -88.5t105 -47.5v267q-69 -6 -103.5 -41.5t-34.5 -89.5z" />
    <glyph glyph-name="percent" unicode="%" horiz-adv-x="717" 
d="M80 529q0 -64 28 -100t76 -36q47 0 75.5 36t28.5 100q0 66 -28.5 102.5t-75.5 36.5q-48 0 -76 -36.5t-28 -102.5zM335 531q0 -83 -43.5 -128.5t-107.5 -45.5q-65 0 -108.5 45.5t-43.5 128.5t43.5 128t108.5 45q64 0 107.5 -45.5t43.5 -127.5zM609 698l-466 -721
q-9 -14 -20 -14h-1q-12 0 -17 10.5t3 23.5l466 721q9 14 20 14h1q12 0 17 -10t-3 -24zM429 169q0 -65 28 -101t76 -36q47 0 75.5 36.5t28.5 100.5q0 65 -28.5 101.5t-75.5 36.5q-48 0 -76 -36.5t-28 -101.5zM684 170q0 -83 -43.5 -128.5t-107.5 -45.5q-65 0 -108.5 45.5
t-43.5 128.5t43.5 128.5t108.5 45.5q64 0 107.5 -45.5t43.5 -128.5z" />
    <glyph glyph-name="ampersand" unicode="&#x26;" horiz-adv-x="640" 
d="M576 -4h-1q-12 0 -27 17l-69 77q-79 -94 -210 -94q-112 0 -173 57t-61 146q0 146 163 208q-54 66 -54 137t49.5 115.5t129.5 44.5q73 0 125 -30q23 -14 23 -30v-1q0 -10 -6.5 -16t-15.5 -6q-12 0 -26.5 10.5t-39 20.5t-59.5 10q-58 0 -93 -32.5t-35 -86.5q0 -36 19 -70.5
t62 -82.5l199 -223q52 98 67 200q4 25 24 25h2q24 0 21 -29q-23 -130 -84 -231l85 -95q12 -13 6 -27t-21 -14zM90 200q0 -67 46.5 -114t138.5 -47q108 0 175 83l-225 254q-65 -27 -100 -67t-35 -109z" />
    <glyph glyph-name="quotesingle" unicode="'" horiz-adv-x="106" 
d="M54 522h-2q-16 0 -17 18q-8 104 -8 136q0 27 25 27h2q25 0 25 -27l-8 -136q-1 -18 -17 -18z" />
    <glyph glyph-name="parenleft" unicode="(" horiz-adv-x="272" 
d="M27 346q0 82 17.5 150t47 113.5t59 75t63.5 49.5q13 8 24 8q21 0 21 -21q0 -9 -6.5 -16t-23 -19t-25.5 -20q-124 -108 -124 -320t124 -320q8 -7 20 -16t18.5 -13.5t11.5 -11.5t5 -14q0 -21 -21 -21q-11 0 -24 8q-34 20 -63.5 49.5t-59 75t-47 113.5t-17.5 150z" />
    <glyph glyph-name="parenright" unicode=")" horiz-adv-x="272" 
d="M245 346q0 -82 -17.5 -150t-47 -113.5t-59 -75t-63.5 -49.5q-13 -8 -24 -8q-21 0 -21 21q0 9 6.5 16t23 19t25.5 20q124 108 124 320t-124 320q-8 7 -20 16t-18.5 13.5t-11.5 11.5t-5 14q0 21 21 21q11 0 24 -8q34 -20 63.5 -49.5t59 -75t47 -113.5t17.5 -150z" />
    <glyph glyph-name="asterisk" unicode="*" horiz-adv-x="356" 
d="M237 423q-13 17 -59 96q-43 -74 -59 -96q-18 -24 -36 -10l-3 2q-16 14 0 36q14 19 75 83q-84 18 -106 25q-28 9 -20 32l1 3q8 19 34 10t99 -44q-9 87 -9 114q0 29 23 29h2q23 0 23 -29q0 -27 -9 -114q84 39 99 44q26 9 34 -11l1 -3q8 -22 -20 -31q-17 -5 -106 -25
q75 -82 75 -83q16 -22 0 -36l-3 -2q-18 -14 -36 10z" />
    <glyph glyph-name="plus" unicode="+" horiz-adv-x="471" 
d="M437 347v-2q0 -22 -21 -22h-154v-167q0 -24 -23 -24h-2q-24 0 -24 24v167h-157q-22 0 -22 22v2q0 21 22 21h157v168q0 23 24 23h2q23 0 23 -23v-168h154q21 0 21 -21z" />
    <glyph glyph-name="comma" unicode="," horiz-adv-x="142" 
d="M19 -65v1q0 11 18 18q27 11 27 33q0 10 -16 21q-16 12 -16 30q0 15 11 25t27 10q17 0 28.5 -13t11.5 -40q0 -83 -68 -97q-23 -5 -23 12z" />
    <glyph glyph-name="hyphen" unicode="-" horiz-adv-x="226" 
d="M184 276h-142q-21 0 -21 21v2q0 21 21 21h142q21 0 21 -21v-2q0 -21 -21 -21z" />
    <glyph glyph-name="period" unicode="." horiz-adv-x="142" 
d="M110 34q0 -16 -11.5 -27t-27.5 -11q-17 0 -27.5 11t-10.5 27t11 27.5t27 11.5t27.5 -11.5t11.5 -27.5z" />
    <glyph glyph-name="slash" unicode="/" horiz-adv-x="304" 
d="M286 708l-227 -737q-7 -23 -24 -23h-1q-14 0 -19.5 10t-0.5 26l227 737q7 23 24 23h1q14 0 19.5 -10t0.5 -26z" />
    <glyph glyph-name="zero" unicode="0" horiz-adv-x="638" 
d="M601 350q0 -172 -80 -263t-202 -91t-202 91t-80 263q0 170 80.5 262t201.5 92t201.5 -92t80.5 -262zM91 349q0 -152 62 -231t166 -79q103 0 165 79t62 231q0 153 -62 232.5t-165 79.5q-104 0 -166 -79.5t-62 -232.5z" />
    <glyph glyph-name="one" unicode="1" horiz-adv-x="292" 
d="M197 682v-659q0 -26 -26 -26h-2q-26 0 -26 26v619l-97 -57q-13 -8 -21 -8t-14 6t-6 15v1q0 11 17 21l124 72q17 10 29 10h2q20 0 20 -20z" />
    <glyph glyph-name="two" unicode="2" horiz-adv-x="499" 
d="M254 704q98 0 150 -49t52 -136q0 -69 -46 -135t-138 -157l-186 -182h355q21 0 21 -22v-1q0 -22 -21 -22h-396q-22 0 -22 23v5q0 17 20 37l191 189q87 85 128 145t41 120q0 67 -39 104t-113 37q-53 0 -89.5 -18t-56 -35.5t-31.5 -17.5q-22 0 -22 21v1q0 14 16 28
q76 65 186 65z" />
    <glyph glyph-name="three" unicode="3" horiz-adv-x="488" 
d="M216 39q90 0 137 43t47 119q0 73 -48 106.5t-125 33.5h-44q-22 0 -22 22v1q0 22 22 22h36q77 0 121.5 35t44.5 103q0 137 -154 137q-41 0 -72 -8.5t-45 -19.5t-27 -19.5t-23 -8.5q-21 0 -21 21v1q0 14 20 29q65 48 170 48q99 0 151 -45t52 -132q0 -123 -121 -160v-2
q139 -33 139 -165q0 -97 -61 -150.5t-174 -53.5q-117 0 -185 57q-16 13 -16 27v1q0 10 6.5 16.5t15.5 6.5q10 0 30 -16t57 -32.5t89 -16.5z" />
    <glyph glyph-name="four" unicode="4" horiz-adv-x="538" 
d="M429 181v-158q0 -26 -26 -26h-2q-26 0 -26 26v158h-336q-23 0 -23 23v4q0 20 19 45l329 426q16 21 37 21h2q26 0 26 -26v-451h73q20 0 20 -20v-2q0 -20 -20 -20h-73zM373 622l-306 -397v-2h308v399h-2z" />
    <glyph glyph-name="five" unicode="5" horiz-adv-x="503" 
d="M212 -4q-106 0 -173 51q-17 13 -17 29v1q0 9 6 15.5t16 6.5q9 0 21.5 -9.5t27 -21t46 -21t73.5 -9.5q94 0 148 52.5t54 143.5q0 88 -45.5 131t-121.5 43q-47 0 -81 -18t-54.5 -35.5t-34.5 -17.5q-12 0 -20 7.5t-8 19.5v310q0 26 26 26h339q22 0 22 -22v-2q0 -22 -22 -22
h-322v-263h3q60 60 163 60q91 0 150.5 -54t59.5 -160q0 -110 -71 -175.5t-185 -65.5z" />
    <glyph glyph-name="six" unicode="6" horiz-adv-x="566" 
d="M355 704q73 0 118 -21q24 -11 24 -29v-1q0 -10 -6 -16t-15 -6q-5 0 -40 15.5t-83 15.5q-119 0 -190.5 -85t-72.5 -242v-4q38 43 98.5 69t125.5 26q94 0 156.5 -51t62.5 -152q0 -104 -66 -165.5t-170 -61.5q-115 0 -187.5 85t-72.5 254q0 177 88 273t230 96zM303 384
q-62 0 -119 -28t-92 -73q9 -126 63.5 -185.5t141.5 -59.5q84 0 133.5 48.5t49.5 135.5q0 83 -48 122.5t-129 39.5z" />
    <glyph glyph-name="seven" unicode="7" horiz-adv-x="494" 
d="M150 -3h-1q-16 0 -22.5 13.5t2.5 32.5l302 609v2h-384q-22 0 -22 22v2q0 22 22 22h400q26 0 26 -26v-4q0 -22 -11 -44l-285 -609q-9 -20 -27 -20z" />
    <glyph glyph-name="eight" unicode="8" horiz-adv-x="552" 
d="M276 -4q-116 0 -180 53.5t-64 142.5q0 67 42.5 116.5t107.5 64.5v2q-51 15 -84.5 57t-33.5 98q0 78 58 126t154 48q95 0 153 -48t58 -126q0 -56 -33.5 -98t-83.5 -57v-2q67 -16 108.5 -64.5t41.5 -116.5q0 -89 -64 -142.5t-180 -53.5zM276 37q93 0 142.5 43t49.5 114
t-50 115t-142 44t-142 -44t-50 -115t49 -114t143 -43zM276 395q75 0 117 36t42 97q0 62 -42 98.5t-117 36.5t-117 -36.5t-42 -98.5q0 -61 42 -97t117 -36z" />
    <glyph glyph-name="nine" unicode="9" horiz-adv-x="563" 
d="M249 274q-94 0 -156.5 51t-62.5 151q0 105 65.5 166.5t170.5 61.5q115 0 187.5 -85t72.5 -254q0 -179 -85 -274t-234 -95q-78 0 -124 22q-22 11 -22 28v1q0 9 6 16t15 7q4 0 41 -16t86 -16q127 0 195 83.5t68 243.5v4q-37 -43 -97.5 -69t-125.5 -26zM260 316
q60 0 117 27.5t93 71.5q-9 126 -63.5 186.5t-140.5 60.5q-84 0 -133 -48.5t-49 -135.5q0 -83 47.5 -122.5t128.5 -39.5z" />
    <glyph glyph-name="colon" unicode=":" horiz-adv-x="148" 
d="M112 345q0 -16 -11 -27t-27 -11t-27 11t-11 27q0 17 11 28t27 11t27 -11.5t11 -27.5zM112 34q0 -16 -11 -27t-27 -11t-27 11t-11 27t11 27.5t27 11.5t27 -11.5t11 -27.5z" />
    <glyph glyph-name="semicolon" unicode=";" horiz-adv-x="148" 
d="M112 345q0 -16 -11 -27t-27 -11t-27 11t-11 27q0 17 11 28t27 11t27 -11.5t11 -27.5zM22 -65v1q0 11 18 18q27 11 27 33q0 10 -16 21q-16 12 -16 30q0 15 11 25t27 10q17 0 28.5 -13t11.5 -40q0 -83 -68 -97q-23 -5 -23 12z" />
    <glyph glyph-name="less" unicode="&#x3c;" horiz-adv-x="459" 
d="M409 502l-326 -171v-2l326 -172q18 -10 18 -23v-1q0 -13 -10.5 -19t-23.5 1l-346 186q-19 9 -19 27v3q0 17 19 27l346 186q13 7 23.5 1t10.5 -19v-1q0 -13 -18 -23z" />
    <glyph glyph-name="equal" unicode="=" horiz-adv-x="483" 
d="M453 399v-2q0 -21 -21 -21h-381q-21 0 -21 21v2q0 21 21 21h381q21 0 21 -21zM453 232v-2q0 -21 -21 -21h-381q-21 0 -21 21v2q0 21 21 21h381q21 0 21 -21z" />
    <glyph glyph-name="greater" unicode="&#x3e;" horiz-adv-x="459" 
d="M376 331l-326 171q-18 10 -18 23v1q0 13 10.5 19t23.5 -1l346 -186q19 -10 19 -27v-3q0 -18 -19 -27l-346 -186q-13 -7 -23.5 -1t-10.5 19v1q0 13 18 23l326 172v2z" />
    <glyph glyph-name="question" unicode="?" horiz-adv-x="428" 
d="M208 34q0 -16 -11.5 -27t-27.5 -11q-17 0 -27.5 11t-10.5 27t11 27.5t27 11.5t27.5 -11.5t11.5 -27.5zM213 662q-40 0 -69 -9t-41.5 -20t-25 -20t-22.5 -9q-20 0 -20 23v1q0 18 27 36q64 40 152 40q86 0 134 -40.5t48 -118.5q0 -23 -6 -44t-12 -35t-23.5 -35t-25 -29.5
t-32.5 -32t-32 -30.5q-57 -55 -70 -90q-10 -26 -10 -87q0 -21 -20 -21h-2q-20 0 -21 21q-5 68 14 108t75 98q4 4 24 23.5t27 27t22 26t21 31.5t11.5 32t5.5 39q0 55 -33 85t-96 30z" />
    <glyph glyph-name="at" unicode="@" horiz-adv-x="857" 
d="M680 -53q-43 -31 -112 -48.5t-144 -17.5q-79 0 -147.5 21t-124 63t-87.5 114t-32 166q0 96 38 176.5t99 130.5t135 77.5t149 27.5q160 0 265 -85.5t105 -236.5q0 -129 -65.5 -196t-153.5 -67q-52 0 -75.5 24.5t-21.5 62.5q-79 -89 -164 -89q-51 0 -82.5 33t-31.5 95
q0 99 69.5 184t169.5 85q62 0 103 -35q6 20 11.5 28t16.5 8h1q21 0 15 -24l-58 -245q-21 -90 55 -90q68 0 117.5 56t49.5 170q0 134 -89.5 209t-236.5 75q-69 0 -135 -24.5t-120.5 -69.5t-87.5 -118t-33 -162q0 -166 96 -246.5t250 -80.5q64 0 113.5 11.5t73 25.5t42 25.5
t26.5 11.5q18 0 18 -17v-1q0 -15 -17 -27zM276 198q0 -45 21 -67.5t54 -22.5q32 0 64 17t49.5 33.5t48.5 49.5l45 192q-37 28 -88 28q-78 0 -136 -71t-58 -159z" />
    <glyph glyph-name="A" unicode="A" horiz-adv-x="610" 
d="M348 672l228 -636q7 -19 -0.5 -29t-21.5 -10h-1q-18 0 -27 25l-71 197h-303l-69 -194q-9 -28 -28 -28h-1q-14 0 -20 9.5t0 29.5l231 636q11 28 39 28h5q28 0 39 -28zM303 641l-135 -378h272l-135 378h-2z" />
    <glyph glyph-name="B" unicode="B" horiz-adv-x="578" 
d="M138 345v-301h160q85 0 135.5 37t50.5 114q0 150 -198 150h-148zM138 656v-267h142q77 0 124 32t47 103q0 132 -169 132h-144zM299 0h-188q-26 0 -26 26v648q0 26 26 26h172q222 0 222 -174q0 -66 -32.5 -101t-91.5 -55v-1q74 -16 116 -56t42 -120q0 -97 -64.5 -145
t-175.5 -48z" />
    <glyph glyph-name="C" unicode="C" horiz-adv-x="614" 
d="M351 -4q-137 0 -219.5 93.5t-82.5 262.5q0 166 88 259t220 93q115 0 186 -50q27 -19 27 -37v-1q0 -10 -6.5 -16.5t-16.5 -6.5q-11 0 -26 10.5t-30.5 23.5t-50.5 23.5t-80 10.5q-113 0 -184.5 -80t-71.5 -227q0 -152 66.5 -233.5t181.5 -81.5q52 0 92.5 13t58.5 28t33 28
t23 13q10 0 16.5 -6t6.5 -16v-1q0 -17 -27 -38q-82 -64 -204 -64z" />
    <glyph glyph-name="D" unicode="D" horiz-adv-x="665" 
d="M138 656v-612h133q154 0 226 71.5t72 234.5t-72 234.5t-226 71.5h-133zM111 700h161q177 0 264.5 -83t87.5 -266t-88 -267t-265 -84h-160q-26 0 -26 26v648q0 26 26 26z" />
    <glyph glyph-name="E" unicode="E" horiz-adv-x="549" 
d="M498 0h-387q-26 0 -26 26v648q0 26 26 26h373q21 0 21 -21v-2q0 -22 -21 -22h-346v-272h257q21 0 21 -21v-2q0 -21 -21 -21h-257v-295h360q21 0 21 -21v-2q0 -21 -21 -21z" />
    <glyph glyph-name="F" unicode="F" horiz-adv-x="535" 
d="M138 321v-298q0 -26 -25 -26h-2q-26 0 -26 26v651q0 26 26 26h373q21 0 21 -21v-2q0 -22 -21 -22h-346v-290h252q21 0 21 -21v-2q0 -21 -21 -21h-252z" />
    <glyph glyph-name="G" unicode="G" horiz-adv-x="668" 
d="M594 317v-237q0 -27 -28 -41q-84 -43 -203 -43q-151 0 -236.5 91t-85.5 265q0 170 91.5 261t235.5 91q118 0 185 -44q20 -13 20 -32v-1q0 -23 -21 -23q-9 0 -27 14t-57 28.5t-100 14.5q-122 0 -196 -77.5t-74 -229.5q0 -156 69 -235.5t196 -79.5q104 0 178 39v221h-137
q-21 0 -21 21v2q0 21 21 21h164q26 0 26 -26z" />
    <glyph glyph-name="H" unicode="H" horiz-adv-x="681" 
d="M138 339v-316q0 -26 -26 -26h-1q-26 0 -26 26v654q0 26 26 26h1q26 0 26 -26v-294h405v294q0 26 26 26h2q25 0 25 -26v-654q0 -26 -25 -26h-2q-26 0 -26 26v316h-405z" />
    <glyph glyph-name="I" unicode="I" horiz-adv-x="228" 
d="M87 23v654q0 26 26 26h2q26 0 26 -26v-654q0 -26 -26 -26h-2q-26 0 -26 26z" />
    <glyph glyph-name="J" unicode="J" horiz-adv-x="409" 
d="M328 677v-517q0 -79 -44 -122t-131 -43q-66 0 -110 22q-28 14 -28 36v1q0 10 6.5 16.5t16.5 6.5q8 0 20.5 -10t35 -19.5t56.5 -9.5q124 0 124 123v516q0 26 26 26h2q26 0 26 -26z" />
    <glyph glyph-name="K" unicode="K" horiz-adv-x="616" 
d="M112 -3h-1q-26 0 -26 26v655q0 25 26 25h1q26 0 26 -25v-380l366 389q15 16 26 16h1q15 0 20 -13t-10 -30l-235 -246l264 -374q11 -17 4.5 -30t-21.5 -13h-1q-14 0 -27 19l-254 361l-133 -141v-213q0 -26 -26 -26z" />
    <glyph glyph-name="L" unicode="L" horiz-adv-x="537" 
d="M85 26v651q0 26 26 26h1q26 0 26 -26v-633h347q21 0 21 -21v-2q0 -21 -21 -21h-374q-11 0 -18.5 8t-7.5 18z" />
    <glyph glyph-name="M" unicode="M" horiz-adv-x="810" 
d="M408 81l225 593q10 26 40 26h27q26 0 26 -27v-650q0 -26 -26 -26h-2q-26 0 -26 26v613h-5l-237 -620q-6 -18 -23 -18h-6q-18 0 -24 18l-238 620h-4v-615q0 -24 -24 -24h-2q-24 0 -24 24v652q0 27 26 27h27q30 0 40 -26l228 -593h2z" />
    <glyph glyph-name="N" unicode="N" horiz-adv-x="676" 
d="M526 23l-389 606h-2v-607q0 -25 -25 -25h-1q-24 0 -24 25v651q0 27 26 27h16q24 0 40 -25l373 -579h1v582q0 25 25 25h1q25 0 25 -25v-653q0 -27 -26 -27h-3q-21 0 -37 25z" />
    <glyph glyph-name="O" unicode="O" horiz-adv-x="710" 
d="M669 350q0 -166 -89.5 -260t-223.5 -94q-135 0 -225 94t-90 260t90 260t225 94q134 0 223.5 -94.5t89.5 -259.5zM96 349q0 -149 72.5 -230t187.5 -81q113 0 185.5 81.5t72.5 229.5q0 149 -72.5 231t-185.5 82q-115 0 -187.5 -82t-72.5 -231z" />
    <glyph glyph-name="P" unicode="P" horiz-adv-x="550" 
d="M266 656h-128v-320h128q98 0 146.5 37.5t48.5 124.5q0 86 -49.5 122t-145.5 36zM85 23v651q0 26 26 26h156q248 0 248 -200q0 -109 -64 -158t-185 -49h-128v-270q0 -26 -26 -26h-2q-25 0 -25 26z" />
    <glyph glyph-name="Q" unicode="Q" horiz-adv-x="714" 
d="M660 -91q-9 0 -25 4l-326 82q-268 68 -268 355q0 166 90 260t225 94q134 0 223.5 -94t89.5 -260q0 -144 -70 -234.5t-181 -108.5v-2l243 -47q23 -4 23 -24v-1q0 -24 -24 -24zM96 349q0 -149 73 -230.5t188 -81.5q114 0 185.5 81.5t71.5 230.5q0 150 -72 231.5t-186 81.5
q-115 0 -187.5 -81.5t-72.5 -231.5z" />
    <glyph glyph-name="R" unicode="R" horiz-adv-x="598" 
d="M526 -3h-1q-15 0 -26 20l-164 303q-29 -3 -61 -3h-133v-294q0 -26 -26 -26h-2q-26 0 -26 26v651q0 26 26 26h161q240 0 240 -190q0 -142 -127 -179l159 -295q8 -17 1 -28t-21 -11zM272 656h-131v-296h131q94 0 141 32.5t47 115.5q0 80 -49 114t-139 34z" />
    <glyph glyph-name="S" unicode="S" horiz-adv-x="508" 
d="M238 -4q-128 0 -195 53q-21 17 -21 34v1q0 10 6 16.5t16 6.5q8 0 22 -10.5t29.5 -23.5t53 -23.5t88.5 -10.5q84 0 132.5 37t48.5 113q0 25 -5.5 44.5t-20 34.5t-26.5 24.5t-39 19t-41.5 14t-49.5 13.5q-103 27 -150 67t-47 120q0 78 55.5 128t155.5 50q104 0 166 -42
q22 -15 22 -34v-1q0 -22 -22 -22q-9 0 -21 8.5t-25.5 19.5t-45 19.5t-73.5 8.5q-81 0 -121 -36t-40 -95q0 -35 10.5 -59t35.5 -39.5t48.5 -24.5t66.5 -20q118 -31 168.5 -70t50.5 -124q0 -98 -62.5 -147.5t-169.5 -49.5z" />
    <glyph glyph-name="T" unicode="T" horiz-adv-x="553" 
d="M250 656h-211q-21 0 -21 21v2q0 21 21 21h475q21 0 21 -21v-2q0 -21 -21 -21h-210v-633q0 -26 -26 -26h-2q-26 0 -26 26v633z" />
    <glyph glyph-name="U" unicode="U" horiz-adv-x="672" 
d="M593 678v-441q0 -125 -68.5 -183t-185.5 -58t-188 58t-71 183v440q0 26 26 26h1q26 0 26 -26v-442q0 -195 209 -195q199 0 199 195v443q0 25 25 25h2q25 0 25 -25z" />
    <glyph glyph-name="V" unicode="V" horiz-adv-x="606" 
d="M264 27l-231 636q-7 19 1 29.5t21 10.5h1q19 0 27 -24l221 -613h2l218 611q10 26 27 26h1q14 0 21 -11t0 -29l-231 -636q-6 -17 -13.5 -23t-23.5 -6h-4q-16 0 -23.5 6t-13.5 23z" />
    <glyph glyph-name="W" unicode="W" horiz-adv-x="867" 
d="M597 25l-160 583h-2l-164 -586q-7 -25 -34 -25h-4q-29 0 -34 26l-164 645q-4 15 3 25t22 10h1q19 0 25 -23l150 -595h3l167 594q7 24 29 24h3q22 0 29 -24l168 -594h3l150 595q6 23 25 23h1q14 0 21.5 -9.5t3.5 -23.5l-167 -645q-8 -28 -35 -28h-4q-29 0 -36 28z" />
    <glyph glyph-name="X" unicode="X" horiz-adv-x="597" 
d="M296 327l-210 -311q-13 -19 -24 -19h-1q-14 0 -20.5 11.5t2.5 27.5l223 328l-205 297q-11 16 -4.5 29t22.5 13h1q13 0 25 -19l196 -282l191 283q12 18 24 18h1q14 0 20.5 -11.5t-2.5 -27.5l-204 -301l220 -324q10 -16 4 -29t-22 -13h-1q-13 0 -25 19z" />
    <glyph glyph-name="Y" unicode="Y" horiz-adv-x="548" 
d="M518 667l-216 -372v-272q0 -26 -26 -26h-2q-26 0 -26 26v270l-215 370q-8 16 -1.5 28t21.5 12h1q15 0 25 -19l196 -341h2l197 343q10 17 23 17h1q14 0 21 -10.5t-1 -25.5z" />
    <glyph glyph-name="Z" unicode="Z" horiz-adv-x="530" 
d="M497 635l-422 -591v-2h407q20 0 20 -20v-2q0 -20 -20 -20h-443q-22 0 -22 23v5q0 18 13 36l423 592v1h-392q-20 0 -20 21v2q0 20 21 20h426q22 0 22 -23v-5q0 -19 -13 -37z" />
    <glyph glyph-name="bracketleft" unicode="[" horiz-adv-x="271" 
d="M233 -49h-132q-26 0 -26 26v738q0 26 26 26h132q19 0 19 -19v-2q0 -19 -19 -19h-108v-710h108q19 0 19 -19v-2q0 -19 -19 -19z" />
    <glyph glyph-name="backslash" unicode="\" horiz-adv-x="304" 
d="M245 -29l-227 737q-5 16 0.5 26t19.5 10h1q17 0 24 -23l227 -737q5 -16 -0.5 -26t-19.5 -10h-1q-17 0 -24 23z" />
    <glyph glyph-name="bracketright" unicode="]" horiz-adv-x="271" 
d="M170 -49h-132q-19 0 -19 19v2q0 19 19 19h108v710h-108q-19 0 -19 19v2q0 19 19 19h132q26 0 26 -26v-738q0 -26 -26 -26z" />
    <glyph glyph-name="asciicircum" unicode="^" horiz-adv-x="398" 
d="M200 652h-1l-80 -100q-11 -14 -22 -14h-1q-12 0 -17.5 11t3.5 22l85 113q13 16 31 16h4q18 0 30 -16l85 -113q9 -11 3.5 -22t-17.5 -11h-1q-11 0 -22 14z" />
    <glyph glyph-name="underscore" unicode="_" horiz-adv-x="326" 
d="M332 -142v-2q0 -18 -18 -18h-301q-19 0 -19 18v2q0 19 19 19h301q18 0 18 -19z" />
    <glyph glyph-name="grave" unicode="`" 
d="M192 579l-74 85q-13 16 -7.5 30t21.5 14h1q15 0 30 -22l60 -88q7 -10 2.5 -19.5t-15.5 -9.5h-1q-8 0 -17 10z" />
    <glyph glyph-name="a" unicode="a" horiz-adv-x="491" 
d="M374 46v25q-36 -38 -76.5 -57t-101.5 -19q-75 0 -121.5 39.5t-46.5 111.5q0 76 56.5 114.5t152.5 38.5q74 0 137 -16v94q0 110 -128 110q-42 0 -72.5 -7.5t-43.5 -16t-25.5 -16t-21.5 -7.5q-21 0 -21 21v1q0 19 34 35q63 30 152 30q176 0 176 -147v-359q0 -24 -22 -24h-1
q-27 0 -27 49zM203 34q58 0 97 21.5t74 63.5v128q-71 16 -134 16q-73 0 -117 -28t-44 -85q0 -59 34 -87.5t90 -28.5z" />
    <glyph glyph-name="b" unicode="b" horiz-adv-x="552" 
d="M121 57v-9q0 -51 -27 -51h-1q-22 0 -22 24v658q0 24 22 24h1q14 0 20.5 -9.5t6.5 -36.5v-229q85 99 198 99q85 0 142.5 -61t57.5 -199q0 -74 -19.5 -128.5t-52.5 -84.5t-70.5 -44t-80.5 -14q-107 0 -175 61zM286 35q76 0 129 52.5t53 175.5q0 121 -45.5 172t-111.5 51
q-101 0 -190 -107v-275q63 -69 165 -69z" />
    <glyph glyph-name="c" unicode="c" horiz-adv-x="478" 
d="M434 45q-59 -49 -158 -49q-114 0 -179 71t-65 195q0 122 68.5 193.5t178.5 71.5q88 0 140 -35q23 -16 23 -33v-1q0 -9 -6 -15t-15 -6q-8 0 -19.5 8t-23 17t-38.5 17t-62 8q-88 0 -141.5 -60t-53.5 -165q0 -107 51.5 -166.5t143.5 -59.5q39 0 67.5 9t41.5 20.5t24.5 20.5
t19.5 9q20 0 20 -20v-1q0 -15 -17 -29z" />
    <glyph glyph-name="d" unicode="d" horiz-adv-x="554" 
d="M430 46v44q-74 -94 -191 -94q-88 0 -147 62.5t-59 197.5q0 73 19.5 127.5t52.5 84.5t71 44.5t80 14.5q111 0 174 -65v216q0 25 23 25h1q14 0 20.5 -9.5t6.5 -36.5v-636q0 -24 -22 -24h-1q-15 0 -21.5 10.5t-6.5 38.5zM244 35q108 0 186 106v276q-66 71 -166 71
q-77 0 -128.5 -52.5t-51.5 -177.5q0 -119 46 -171t114 -52z" />
    <glyph glyph-name="e" unicode="e" horiz-adv-x="507" 
d="M281 37q53 0 88.5 13.5t52 26.5t23.5 13q21 0 21 -19v-1q0 -14 -19 -27q-68 -47 -171 -47q-117 0 -180.5 70t-63.5 193q0 121 65 194.5t166 73.5q100 0 157 -60.5t57 -183.5q0 -24 -24 -24h-370q0 -109 50 -165.5t148 -56.5zM84 297h343q-4 192 -164 192q-74 0 -122 -49
t-57 -143z" />
    <glyph glyph-name="f" unicode="f" horiz-adv-x="268" 
d="M80 483h-52q-20 0 -20 18v2q0 18 20 18h52v52q0 65 33.5 97.5t88.5 32.5q28 0 45 -4q21 -5 21 -20v-1q0 -20 -23 -18q-4 0 -15 1t-16 1q-43 0 -63.5 -20t-20.5 -72v-49h109q20 0 20 -18v-2q0 -18 -20 -18h-109v-462q0 -24 -24 -24h-2q-24 0 -24 24v462z" />
    <glyph glyph-name="g" unicode="g" horiz-adv-x="552" 
d="M430 9v87q-78 -92 -193 -92q-86 0 -145 62t-59 194q0 71 19.5 124.5t52.5 83.5t71 44.5t81 14.5q109 0 173 -64q0 61 28 61h1q22 0 22 -24v-494q0 -83 -62.5 -127.5t-158.5 -44.5q-112 0 -180 37q-20 11 -20 26v1q0 21 20 21q9 0 27 -11.5t55.5 -23t91.5 -11.5
q79 0 127.5 33t48.5 103zM244 43q108 0 186 105v268q-67 72 -164 72q-35 0 -65 -10.5t-57.5 -34t-43.5 -70t-16 -111.5q0 -118 46 -168.5t114 -50.5z" />
    <glyph glyph-name="h" unicode="h" horiz-adv-x="551" 
d="M485 388v-367q0 -24 -24 -24h-2q-24 0 -24 24v361q0 58 -27.5 80.5t-76.5 22.5q-95 0 -210 -88v-376q0 -24 -24 -24h-2q-24 0 -24 24v658q0 24 22 24h1q14 0 20.5 -9.5t6.5 -36.5v-219q112 89 229 89q135 0 135 -139z" />
    <glyph glyph-name="i" unicode="i" horiz-adv-x="197" 
d="M133 635q0 -14 -10 -24t-24 -10t-24 10t-10 24t10 24t24 10t24 -10t10 -24zM123 478v-457q0 -24 -24 -24h-2q-24 0 -24 24v479q0 24 22 24h1q14 0 20.5 -9.5t6.5 -36.5z" />
    <glyph glyph-name="j" unicode="j" horiz-adv-x="197" 
d="M73 -52v552q0 24 22 24h1q14 0 20.5 -9.5t6.5 -36.5v-532q0 -110 -105 -110q-15 0 -23 1q-22 3 -22 19v2q0 16 21 18q46 2 62.5 17.5t16.5 54.5zM133 635q0 -14 -10 -24t-24 -10t-24 10t-10 24t10 24t24 10t24 -10t10 -24z" />
    <glyph glyph-name="k" unicode="k" horiz-adv-x="474" 
d="M94 703q14 0 20.5 -9.5t6.5 -36.5v-431l264 284q12 14 23 14h1q13 0 18.5 -12t-6.5 -26l-173 -182l191 -269q9 -14 2.5 -26t-20.5 -12h-1q-12 0 -24 17l-181 256l-94 -101v-148q0 -24 -24 -24h-2q-24 0 -24 24v658q0 24 22 24h1z" />
    <glyph glyph-name="l" unicode="l" horiz-adv-x="194" 
d="M122 657v-636q0 -24 -24 -24h-2q-24 0 -24 24v658q0 24 22 24h1q14 0 20.5 -9.5t6.5 -36.5z" />
    <glyph glyph-name="m" unicode="m" horiz-adv-x="858" 
d="M407 21v365q0 54 -25 76.5t-71 22.5q-88 0 -190 -85v-379q0 -24 -24 -24h-2q-24 0 -24 24v479q0 24 22 24h1q14 0 20.5 -9.5t6.5 -36.5v-36q106 85 208 85q46 0 79.5 -21t44.5 -65q101 86 210 86q58 0 93.5 -31t35.5 -97v-378q0 -24 -24 -24h-2q-24 0 -24 24v365
q0 55 -24.5 77t-72.5 22q-83 0 -188 -84v-380q0 -24 -24 -24h-2q-24 0 -24 24z" />
    <glyph glyph-name="n" unicode="n" horiz-adv-x="551" 
d="M485 388v-367q0 -24 -24 -24h-2q-24 0 -24 24v361q0 58 -27.5 80.5t-76.5 22.5q-95 0 -210 -88v-376q0 -24 -24 -24h-2q-24 0 -24 24v479q0 24 22 24h1q14 0 20.5 -9.5t6.5 -36.5v-40q112 89 229 89q135 0 135 -139z" />
    <glyph glyph-name="o" unicode="o" horiz-adv-x="549" 
d="M517 261q0 -123 -66.5 -194t-176.5 -71q-109 0 -175.5 71.5t-66.5 193.5t66.5 194t175.5 72q110 0 176.5 -72t66.5 -194zM83 261q0 -107 51 -166.5t140 -59.5q90 0 141 59.5t51 166.5q0 106 -51.5 166.5t-140.5 60.5t-140 -60.5t-51 -166.5z" />
    <glyph glyph-name="p" unicode="p" horiz-adv-x="552" 
d="M71 -141v641q0 24 22 24h1q14 0 20.5 -9.5t6.5 -36.5v-50q85 99 198 99q85 0 142.5 -60.5t57.5 -197.5q0 -74 -19.5 -128.5t-52.5 -84t-71 -43.5t-81 -14q-106 0 -174 61v-201q0 -24 -24 -24h-2q-24 0 -24 24zM311 486q-101 0 -190 -107v-271q63 -69 165 -69
q35 0 65 10.5t57.5 34t43.5 70t16 110.5q0 121 -45.5 171.5t-111.5 50.5z" />
    <glyph glyph-name="q" unicode="q" horiz-adv-x="552" 
d="M430 -141v234q-74 -94 -191 -94q-88 0 -147 61.5t-59 196.5q0 73 19.5 127t52.5 84t70.5 44.5t80.5 14.5q112 0 174 -65v16q0 26 7 36t21 10h1q22 0 22 -24v-641q0 -24 -24 -24h-3q-24 0 -24 24zM244 39q107 0 186 105v272q-67 72 -166 72q-77 0 -128.5 -52t-51.5 -176
q0 -120 46 -170.5t114 -50.5z" />
    <glyph glyph-name="r" unicode="r" horiz-adv-x="341" 
d="M121 478v-47q77 94 171 94q27 0 27 -21v-1q0 -19 -27 -22q-54 -6 -91.5 -27t-79.5 -70v-363q0 -24 -24 -24h-2q-24 0 -24 24v479q0 24 22 24h1q14 0 20.5 -9.5t6.5 -36.5z" />
    <glyph glyph-name="s" unicode="s" horiz-adv-x="425" 
d="M391 151q0 -74 -47 -114.5t-142 -40.5q-86 0 -144 34q-25 15 -25 32v1q0 21 21 21q7 0 22.5 -12t47 -24.5t76.5 -12.5q142 0 142 112q0 46 -30 68t-110 35q-81 13 -122 44.5t-41 94.5q0 66 47.5 102t127.5 36q77 0 125 -25q26 -13 26 -30v-2q0 -21 -19 -21
q-7 0 -19.5 9.5t-40.5 19.5t-71 10q-129 0 -129 -95q0 -44 29.5 -65.5t106.5 -34.5q87 -14 128 -45t41 -97z" />
    <glyph glyph-name="t" unicode="t" horiz-adv-x="295" 
d="M203 -4q-123 0 -123 117v370h-52q-20 0 -20 18v2q0 18 20 18h52v124q0 24 24 24h2q24 0 24 -24v-124h122q20 0 20 -18v-2q0 -18 -20 -18h-122v-364q0 -46 21.5 -64t68.5 -18q5 0 19.5 1.5t18.5 1.5q22 0 22 -19v-1q0 -16 -21 -20q-20 -4 -56 -4z" />
    <glyph glyph-name="u" unicode="u" horiz-adv-x="547" 
d="M207 -6q-141 0 -141 136v370q0 24 24 24h3q24 0 24 -24v-365q0 -56 25.5 -78t71.5 -22q96 0 210 83v382q0 24 24 24h2q24 0 24 -24v-479q0 -24 -22 -24h-1q-27 0 -27 49v30q-108 -82 -217 -82z" />
    <glyph glyph-name="v" unicode="v" horiz-adv-x="495" 
d="M464 488l-184 -468q-9 -22 -31 -22h-1q-22 0 -31 22l-185 465q-7 18 -0.5 28.5t21.5 10.5h1q15 0 24 -23l171 -433h2l170 433q9 23 24 23h1q13 0 18.5 -10t-0.5 -26z" />
    <glyph glyph-name="w" unicode="w" horiz-adv-x="726" 
d="M497 19l-132 424h-2l-133 -424q-9 -22 -29 -22h-1q-21 0 -30 23l-140 469q-4 15 2.5 25t19.5 10h1q17 0 24 -24l124 -420h2l136 424q6 20 26 20h4q19 0 25 -20l130 -424h2l127 422q7 22 23 22h1q13 0 18.5 -9t1.5 -24l-142 -471q-6 -23 -28 -23h-1q-23 0 -29 22z" />
    <glyph glyph-name="x" unicode="x" horiz-adv-x="479" 
d="M38 36l164 235l-160 215q-9 15 -2 26.5t19 11.5h1q12 0 24 -16l152 -205l139 206q11 15 22 15h1q13 0 19 -12t-4 -27l-145 -213l174 -237q9 -15 2.5 -26.5t-19.5 -11.5h-1q-12 0 -24 16l-166 228l-158 -229q-10 -15 -22 -15h-1q-13 0 -19 12t4 27z" />
    <glyph glyph-name="y" unicode="y" horiz-adv-x="500" 
d="M470 487l-265 -630q-8 -19 -23 -19h-1q-14 0 -20 9.5t0 24.5l71 164l-199 450q-6 14 1 24.5t21 10.5h1q15 0 24 -21l176 -404h1l169 406q8 19 23 19h1q14 0 20 -10t0 -24z" />
    <glyph glyph-name="z" unicode="z" horiz-adv-x="456" 
d="M70 521h346q19 0 19 -19v-4q0 -17 -12 -32l-333 -427h324q18 0 18 -18v-2q0 -19 -18 -19h-362q-19 0 -19 19v5q0 14 15 34l330 424h-308q-19 0 -19 19v2q0 18 19 18z" />
    <glyph glyph-name="braceleft" unicode="{" horiz-adv-x="304" 
d="M50 334h-11q-19 0 -19 19v2q0 19 19 19h11q63 0 63 59v194q0 114 116 114h37q19 0 19 -19v-2q0 -19 -19 -19h-32q-70 0 -70 -74v-192q0 -65 -61 -80q61 -17 61 -82v-207q0 -75 70 -75h32q19 0 19 -19v-2q0 -19 -19 -19h-37q-116 0 -116 116v208q0 59 -63 59z" />
    <glyph glyph-name="bar" unicode="|" horiz-adv-x="203" 
d="M80 -32v753q0 20 21 20h2q20 0 20 -20v-753q0 -20 -20 -20h-2q-21 0 -21 20z" />
    <glyph glyph-name="braceright" unicode="}" horiz-adv-x="304" 
d="M265 334h-11q-63 0 -63 -59v-208q0 -116 -116 -116h-37q-19 0 -19 19v2q0 19 19 19h32q70 0 70 75v207q0 65 61 82q-61 15 -61 80v192q0 74 -70 74h-32q-19 0 -19 19v2q0 19 19 19h37q116 0 116 -114v-194q0 -59 63 -59h11q19 0 19 -19v-2q0 -19 -19 -19z" />
    <glyph glyph-name="asciitilde" unicode="~" horiz-adv-x="326" 
d="M101 329q25 0 68 -20t57 -20t22.5 7.5t11.5 16.5t8.5 16.5t13.5 7.5h1q25 0 18 -31q-7 -30 -26.5 -46.5t-47.5 -16.5q-23 0 -65.5 20t-57.5 20q-14 0 -22.5 -7.5t-11.5 -16.5t-8.5 -16.5t-14.5 -7.5h-1q-23 0 -18 31q5 27 25 45t48 18z" />
    <glyph glyph-name="exclamdown" unicode="&#xa1;" horiz-adv-x="225" 
d="M91 462q1 21 20 21h2q19 0 20 -21q6 -348 6 -514q0 -27 -26 -27h-2q-26 0 -26 27zM74 590q0 16 11 27t28 11t27.5 -11t10.5 -27t-11 -27.5t-27 -11.5t-27.5 11.5t-11.5 27.5z" />
    <glyph glyph-name="cent" unicode="&#xa2;" horiz-adv-x="480" 
d="M438 46q-53 -45 -141 -49v-83q0 -20 -20 -20h-2q-20 0 -20 20v83q-105 7 -164 77.5t-59 187.5q0 115 61 185.5t162 78.5v43q0 20 20 20h2q20 0 20 -20v-43q77 -3 129 -38q17 -13 17 -27v-1q0 -9 -6 -15.5t-15 -6.5q-10 0 -23 10.5t-38.5 22.5t-63.5 15v-450q33 2 58 11.5
t36 20t21.5 19t18.5 8.5q21 0 21 -21v-1q0 -15 -14 -27zM83 262q0 -100 45 -158.5t127 -66.5v449q-79 -8 -125.5 -67t-46.5 -157z" />
    <glyph glyph-name="sterling" unicode="&#xa3;" horiz-adv-x="504" 
d="M452 0h-405q-21 0 -21 23v1q0 13 13.5 27t30 27t30 42t13.5 69q0 54 -15 135h-53q-19 0 -19 19v2q0 19 19 19h45q-22 108 -22 152q0 86 55.5 137t155.5 51q102 0 164 -51q16 -13 16 -28v-1q0 -10 -6.5 -16t-15.5 -6q-10 0 -22.5 9t-24.5 20t-41 20t-69 9
q-159 0 -159 -144q0 -49 21 -152h185q19 0 19 -19v-2q0 -19 -19 -19h-178q14 -75 14 -135q0 -85 -71 -144h360q21 0 21 -21v-2q0 -22 -21 -22z" />
    <glyph glyph-name="yen" unicode="&#xa5;" horiz-adv-x="513" 
d="M259 -4h-2q-11 0 -18.5 7t-7.5 19v174h-156q-18 0 -18 19v1q0 19 18 19h156v68h-156q-18 0 -18 19v1q0 19 18 19h143l-187 319q-10 18 -3 30.5t23 12.5h1q14 0 24 -19l184 -315h1l180 317q10 17 22 17h1q16 0 21.5 -12t-2.5 -26l-187 -324h145q18 0 18 -19v-1
q0 -19 -18 -19h-156v-68h156q18 0 18 -19v-1q0 -19 -18 -19h-156v-174q0 -12 -7.5 -19t-18.5 -7z" />
    <glyph glyph-name="brokenbar" unicode="&#xa6;" horiz-adv-x="135" 
d="M90 723v-321q0 -21 -21 -21h-3q-21 0 -21 21v321q0 21 21 21h3q21 0 21 -21zM90 293v-321q0 -21 -21 -21h-3q-21 0 -21 21v321q0 21 21 21h3q21 0 21 -21z" />
    <glyph glyph-name="section" unicode="&#xa7;" horiz-adv-x="505" 
d="M209 135q-92 26 -136 61.5t-44 97.5q0 109 136 137q-78 40 -78 129q0 65 47.5 104.5t129.5 39.5q92 0 138 -31q18 -12 18 -28v-1q0 -8 -6 -14t-14 -6q-11 0 -24 10t-40 20.5t-71 10.5q-62 0 -96.5 -28.5t-34.5 -74.5q0 -47 33 -74t110 -46q95 -23 147 -60t52 -103
q0 -112 -129 -145q73 -36 73 -115q0 -72 -47 -111t-139 -39q-95 0 -153 38q-19 13 -19 29v1q0 21 20 21q8 0 19.5 -8t24 -17t41 -17t66.5 -8q138 0 138 107q0 48 -33.5 70.5t-128.5 49.5zM427 273q0 49 -40 78t-122 47l-36 9q-151 -11 -151 -105q0 -47 33 -74.5t112 -50.5
l67 -20q65 7 101 36.5t36 79.5z" />
    <glyph glyph-name="dieresis" unicode="&#xa8;" 
d="M168 634q0 -14 -10 -23.5t-24 -9.5t-24 9.5t-10 23.5t10 24t24 10t24 -10t10 -24zM311 634q0 -14 -10 -23.5t-24 -9.5q-13 0 -23 9.5t-10 23.5t9.5 24t23.5 10t24 -10t10 -24z" />
    <glyph glyph-name="copyright" unicode="&#xa9;" horiz-adv-x="792" 
d="M751 350q0 -166 -102.5 -261t-252.5 -95t-252.5 95t-102.5 261t102.5 261t252.5 95t252.5 -95t102.5 -261zM84 350q0 -149 89 -234t223 -85t223.5 85t89.5 234t-89.5 234.5t-223.5 85.5t-223 -85.5t-89 -234.5zM519 190q-45 -34 -115 -34q-89 0 -138.5 52t-49.5 143
q0 89 53 141.5t137 52.5q72 0 109 -26q17 -12 17 -26v-1q0 -10 -6 -16t-14 -6q-9 0 -19.5 9t-31.5 17.5t-55 8.5q-62 0 -100 -40.5t-38 -113.5q0 -76 36 -115t102 -39q35 0 56.5 10.5t32 21t20.5 10.5q8 0 14 -5.5t6 -14.5v-1q0 -16 -16 -28z" />
    <glyph glyph-name="ordfeminine" unicode="&#xaa;" horiz-adv-x="420" 
d="M342 254q-24 0 -24 34v30q-58 -64 -149 -64q-65 0 -104 32t-39 95q0 65 48 98.5t129 33.5q59 0 115 -14v73q0 52 -26 72.5t-82 20.5q-45 0 -73 -9.5t-41.5 -19t-22.5 -9.5q-19 0 -19 20v1q0 13 17 23q56 33 146 33q148 0 148 -128v-298q0 -24 -22 -24h-1zM175 290
q84 0 143 71v105q-68 12 -108 12q-137 0 -137 -94t102 -94z" />
    <glyph glyph-name="guillemotleft" unicode="&#xab;" horiz-adv-x="426" 
d="M180 59l-143 176q-11 14 -11 24v2q0 10 11 24l143 176q11 16 23 16h1q14 0 20 -12.5t-4 -25.5l-140 -178v-2l140 -178q10 -13 4 -25.5t-20 -12.5h-1q-12 0 -23 16zM347 59l-143 176q-11 14 -11 24v2q0 10 11 24l143 176q11 16 23 16h1q14 0 20 -12.5t-4 -25.5l-140 -178
v-2l140 -178q10 -13 4 -25.5t-20 -12.5h-1q-12 0 -23 16z" />
    <glyph glyph-name="registered" unicode="&#xae;" horiz-adv-x="426" 
d="M31 529q0 79 51.5 129t130.5 50t130.5 -50t51.5 -129t-51.5 -129t-130.5 -50q-80 0 -131 50t-51 129zM63 529q0 -67 41.5 -108.5t108.5 -41.5t108.5 41.5t41.5 108.5t-41.5 108.5t-108.5 41.5t-108.5 -41.5t-41.5 -108.5zM166 433h-2q-19 0 -19 19v151q0 26 26 26h49
q71 0 71 -58q0 -39 -36 -53l35 -56q6 -11 0.5 -20t-15.5 -9h-1q-10 0 -19 14l-38 65h-33v-60q0 -19 -18 -19zM184 539h33q36 0 36 32q0 30 -36 30h-33v-62z" />
    <glyph glyph-name="macron" unicode="&#xaf;" 
d="M110 648h193q17 0 17 -17v-2q0 -18 -17 -18h-193q-18 0 -18 18v2q0 17 18 17z" />
    <glyph glyph-name="degree" unicode="&#xb0;" horiz-adv-x="316" 
d="M284 579q0 -56 -36.5 -91t-89.5 -35q-52 0 -89 35t-37 91q0 57 36.5 92t89.5 35t89.5 -35t36.5 -92zM73 579q0 -39 24.5 -64t60.5 -25t60.5 25t24.5 64q0 41 -24 65.5t-61 24.5q-36 0 -60.5 -25t-24.5 -65z" />
    <glyph glyph-name="two.superior" unicode="&#xb2;" horiz-adv-x="285" 
d="M75 365h176q18 0 18 -18v-2q0 -18 -18 -18h-216q-18 0 -18 19v1q0 11 4.5 18t21.5 22l90 82q47 44 65.5 71t18.5 57q0 33 -19.5 51.5t-56.5 18.5q-36 0 -61 -19t-33 -19q-7 0 -12.5 5.5t-5.5 12.5v1q0 12 13 22q42 33 104 33q54 0 86.5 -28t32.5 -74q0 -38 -24 -72
t-78 -83z" />
    <glyph glyph-name="three.superior" unicode="&#xb3;" horiz-adv-x="276" 
d="M257 433q0 -52 -36 -80.5t-98 -28.5q-64 0 -102 29q-13 9 -13 21v1q0 17 17 17q7 0 17 -8t29.5 -16t49.5 -8q43 0 67 20t24 56q0 35 -25.5 51.5t-62.5 16.5h-25q-16 0 -16 16v2q0 15 16 15h22q38 0 60.5 17.5t22.5 49.5q0 63 -78 63q-34 0 -59.5 -15t-29.5 -15
q-7 0 -12 5t-5 12v1q0 11 12 20q42 28 99 28q54 0 85.5 -24.5t31.5 -70.5q0 -62 -65 -84v-2q74 -18 74 -89z" />
    <glyph glyph-name="acute" unicode="&#xb4;" 
d="M294 664l-74 -85q-9 -10 -17 -10h-1q-11 0 -15.5 9.5t2.5 19.5l60 88q15 22 30 22h1q16 0 21.5 -14t-7.5 -30z" />
    <glyph glyph-name="paragraph" unicode="&#xb6;" horiz-adv-x="546" 
d="M307 -95h-2q-22 0 -22 22v411h-16q-52 0 -92.5 8.5t-73.5 28.5t-50.5 56t-17.5 88q0 53 17.5 90t52 56t75 27t95.5 8h163q11 0 18.5 -7t7.5 -19v-747q0 -22 -22 -22h-2q-22 0 -22 22v729h-87v-729q0 -22 -22 -22z" />
    <glyph glyph-name="periodcentered" unicode="&#xb7;" horiz-adv-x="142" 
d="M110 312q0 -16 -11.5 -27t-27.5 -11q-17 0 -27.5 11t-10.5 27t11 27.5t27 11.5t27.5 -11.5t11.5 -27.5z" />
    <glyph glyph-name="cedilla" unicode="&#xb8;" 
d="M167 -59v59h37v-40q38 -2 58.5 -19.5t20.5 -48.5t-23.5 -48.5t-59.5 -17.5t-59 14q-12 8 -12 19v1q0 17 15 17q5 0 19.5 -7.5t33.5 -7.5q43 0 43 31q0 34 -50 34h-8q-15 0 -15 14z" />
    <glyph glyph-name="one.superior" unicode="&#xb9;" horiz-adv-x="214" 
d="M153 678v-332q0 -23 -23 -23h-1q-23 0 -23 23v304l-68 -38q-9 -5 -15 -5q-16 0 -16 18v1q0 10 15 19l84 47q14 8 24 8h1q22 0 22 -22z" />
    <glyph glyph-name="ordmasculine" unicode="&#xba;" horiz-adv-x="484" 
d="M452 479q0 -105 -58.5 -165t-151.5 -60q-92 0 -151 60t-59 165q0 104 59 164.5t151 60.5t151 -60.5t59 -164.5zM81 479q0 -90 43 -138t118 -48t118 48t43 138q0 89 -43.5 138t-117.5 49t-117.5 -49t-43.5 -138z" />
    <glyph glyph-name="guillemotright" unicode="&#xbb;" horiz-adv-x="426" 
d="M389 235l-143 -176q-11 -16 -23 -16h-1q-14 0 -20 12.5t4 25.5l140 178v2l-140 178q-10 13 -4 25.5t20 12.5h1q12 0 23 -16l143 -176q11 -14 11 -24v-2q0 -10 -11 -24zM222 235l-143 -176q-11 -16 -23 -16h-1q-14 0 -20 12.5t4 25.5l140 178v2l-140 178q-10 13 -4 25.5
t20 12.5h1q12 0 23 -16l143 -176q11 -14 11 -24v-2q0 -10 -11 -24z" />
    <glyph glyph-name="onequarter" unicode="&#xbc;" horiz-adv-x="653" 
d="M536 313l-150 -185v-2h151v187h-1zM557 373h3q9 0 15 -6t6 -15v-226h41q16 0 16 -16v-2q0 -16 -16 -16h-41v-75q0 -9 -6 -15t-15 -6h-2q-9 0 -15 6t-6 15v75h-174q-19 0 -19 20v1q0 15 17 36l164 208q13 16 32 16zM55 -3l470 719q11 17 22 17h1q13 0 17.5 -10.5
t-3.5 -24.5l-470 -719q-11 -17 -22 -17h-1q-13 0 -17.5 10.5t3.5 24.5zM152 678v-332q0 -23 -23 -23h-1q-23 0 -23 23v304l-68 -38q-9 -5 -15 -5q-16 0 -16 18v1q0 10 15 19l84 47q14 8 24 8h1q22 0 22 -22z" />
    <glyph glyph-name="onehalf" unicode="&#xbd;" horiz-adv-x="686" 
d="M55 -3l470 719q11 17 22 17h1q13 0 17.5 -10.5t-3.5 -24.5l-470 -719q-11 -17 -22 -17h-1q-13 0 -17.5 10.5t3.5 24.5zM476 38h176q18 0 18 -18v-2q0 -18 -18 -18h-216q-18 0 -18 19v1q0 11 4.5 18t21.5 22l90 82q47 44 65.5 71t18.5 57q0 33 -19.5 51.5t-56.5 18.5
q-36 0 -61 -19t-33 -19t-13 5t-5 13v1q0 12 13 22q42 33 104 33q54 0 86.5 -28t32.5 -74q0 -38 -24 -72t-78 -83zM152 678v-332q0 -23 -23 -23h-1q-23 0 -23 23v304l-68 -38q-9 -5 -15 -5q-16 0 -16 18v1q0 10 15 19l84 47q14 8 24 8h1q22 0 22 -22z" />
    <glyph glyph-name="threequarters" unicode="&#xbe;" horiz-adv-x="688" 
d="M257 433q0 -52 -36 -80.5t-98 -28.5q-64 0 -102 29q-13 9 -13 21v1q0 17 17 17q7 0 17 -8t29.5 -16t49.5 -8q43 0 67 20t24 56q0 35 -25.5 51.5t-62.5 16.5h-25q-16 0 -16 16v2q0 15 16 15h22q38 0 60.5 17.5t22.5 49.5q0 63 -78 63q-34 0 -59.5 -15t-29.5 -15
q-7 0 -12 5t-5 12v1q0 11 12 20q42 28 99 28q54 0 85.5 -24.5t31.5 -70.5q0 -62 -65 -84v-2q74 -18 74 -89zM107 -3l470 719q11 17 22 17h1q13 0 17.5 -10.5t-3.5 -24.5l-470 -719q-11 -17 -22 -17h-1q-13 0 -17.5 10.5t3.5 24.5zM570 313l-150 -185v-2h151v187h-1zM591 373
h3q9 0 15 -6t6 -15v-226h41q16 0 16 -16v-2q0 -16 -16 -16h-41v-75q0 -9 -6 -15t-15 -6h-2q-9 0 -15 6t-6 15v75h-174q-19 0 -19 20v1q0 15 17 36l164 208q13 16 32 16z" />
    <glyph glyph-name="questiondown" unicode="&#xbf;" horiz-adv-x="428" 
d="M221 590q0 16 11.5 27t27.5 11t27 -11t11 -27t-11 -27.5t-27 -11.5t-27.5 11.5t-11.5 27.5zM216 -38q40 0 69 9t41.5 20t25 20t22.5 9q20 0 20 -23v-1q0 -18 -27 -36q-64 -40 -152 -40q-86 0 -134 40.5t-48 118.5q0 23 6 44t12 35t23.5 35t25 29.5t32.5 32t32 30.5
q57 55 70 90q10 26 10 87q0 21 20 21h2q20 0 21 -21q5 -68 -14 -108t-75 -98q-4 -4 -24 -23.5t-27 -27t-22 -26t-21 -31.5t-11.5 -32t-5.5 -39q0 -55 33 -85t96 -30z" />
    <glyph glyph-name="Agrave" unicode="&#xc0;" horiz-adv-x="610" 
d="M348 672l228 -636q7 -19 -0.5 -29t-21.5 -10h-1q-18 0 -27 25l-71 197h-303l-69 -194q-9 -28 -28 -28h-1q-14 0 -20 9.5t0 29.5l231 636q11 28 39 28h5q28 0 39 -28zM303 641l-135 -378h272l-135 378h-2zM308 728h-1q-9 0 -20 13l-54 65q-12 15 -6 28.5t22 13.5h1
q13 0 23 -16l44 -70q9 -15 5.5 -24.5t-14.5 -9.5z" />
    <glyph glyph-name="Aacute" unicode="&#xc1;" horiz-adv-x="610" 
d="M348 672l228 -636q7 -19 -0.5 -29t-21.5 -10h-1q-18 0 -27 25l-71 197h-303l-69 -194q-9 -28 -28 -28h-1q-14 0 -20 9.5t0 29.5l231 636q11 28 39 28h5q28 0 39 -28zM303 641l-135 -378h272l-135 378h-2zM306 728h-1q-11 0 -14.5 9.5t5.5 24.5l44 70q10 16 23 16h1
q16 0 22 -13.5t-6 -28.5l-54 -65q-11 -13 -20 -13z" />
    <glyph glyph-name="Acircumflex" unicode="&#xc2;" horiz-adv-x="610" 
d="M348 672l228 -636q7 -19 -0.5 -29t-21.5 -10h-1q-18 0 -27 25l-71 197h-303l-69 -194q-9 -28 -28 -28h-1q-14 0 -20 9.5t0 29.5l231 636q11 28 39 28h5q28 0 39 -28zM303 641l-135 -378h272l-135 378h-2zM337 827l63 -67q10 -11 6.5 -21t-14.5 -10h-1q-7 0 -18 9l-69 63
l-68 -63q-11 -9 -18 -9h-1q-11 0 -14.5 10t6.5 21l62 67q14 16 31 16h4q17 0 31 -16z" />
    <glyph glyph-name="Atilde" unicode="&#xc3;" horiz-adv-x="610" 
d="M348 672l228 -636q7 -19 -0.5 -29t-21.5 -10h-1q-18 0 -27 25l-71 197h-303l-69 -194q-9 -28 -28 -28h-1q-14 0 -20 9.5t0 29.5l231 636q11 28 39 28h5q28 0 39 -28zM303 641l-135 -378h272l-135 378h-2zM359 741q-25 0 -59.5 20t-46.5 20q-27 0 -38 -27q-8 -19 -20 -19
h-1q-11 0 -14.5 9t-0.5 22q6 25 25.5 40.5t45.5 15.5q24 0 58.5 -19.5t47.5 -19.5q26 0 37 27q8 19 20 19h1q11 0 14.5 -9t0.5 -22q-6 -25 -25 -41t-45 -16z" />
    <glyph glyph-name="Adieresis" unicode="&#xc4;" horiz-adv-x="610" 
d="M348 672l228 -636q7 -19 -0.5 -29t-21.5 -10h-1q-18 0 -27 25l-71 197h-303l-69 -194q-9 -28 -28 -28h-1q-14 0 -20 9.5t0 29.5l231 636q11 28 39 28h5q28 0 39 -28zM303 641l-135 -378h272l-135 378h-2zM268 773q0 -14 -10 -24t-24 -10t-24 10t-10 24t10 24t24 10
t24 -10t10 -24zM411 773q0 -14 -10 -24t-24 -10t-23.5 10t-9.5 24t10 24t23 10q14 0 24 -10t10 -24z" />
    <glyph glyph-name="Aring" unicode="&#xc5;" horiz-adv-x="610" 
d="M348 672l228 -636q7 -19 -0.5 -29t-21.5 -10h-1q-18 0 -27 25l-71 197h-303l-69 -194q-9 -28 -28 -28h-1q-14 0 -20 9.5t0 29.5l231 636q11 28 39 28h5q28 0 39 -28zM303 641l-135 -378h272l-135 378h-2zM393 820q0 -38 -26 -61.5t-61 -23.5q-36 0 -62 23.5t-26 61.5
t26 62t62 24q35 0 61 -24t26 -62zM255 820q0 -24 14.5 -38t36.5 -14t36.5 14.5t14.5 37.5t-15 38t-36 15q-22 0 -36.5 -15t-14.5 -38z" />
    <glyph glyph-name="AE" unicode="&#xc6;" horiz-adv-x="920" 
d="M481 0q-26 0 -26 26v194h-279l-108 -206q-10 -18 -24 -18h-1q-15 0 -21 12.5t3 29.5l339 639q12 23 38 23h453q21 0 21 -21v-2q0 -22 -21 -22h-346v-272h257q21 0 21 -21v-2q0 -21 -21 -21h-257v-295h360q21 0 21 -21v-2q0 -21 -21 -21h-388zM455 655h-51l-205 -391h256
v391z" />
    <glyph glyph-name="Ccedilla" unicode="&#xc7;" horiz-adv-x="614" 
d="M351 -4h-9v-36q38 -2 58.5 -19.5t20.5 -48.5t-23.5 -48.5t-59.5 -17.5t-59 14q-12 8 -12 19v1q0 17 15 17q5 0 19.5 -7.5t33.5 -7.5q43 0 43 31q0 34 -50 34h-8q-15 0 -15 14v58q-118 15 -187 107t-69 246q0 166 88 259t220 93q115 0 186 -50q27 -19 27 -37v-1
q0 -10 -6.5 -16.5t-16.5 -6.5q-11 0 -26 10.5t-30.5 23.5t-50.5 23.5t-80 10.5q-113 0 -184.5 -80t-71.5 -227q0 -152 66.5 -233.5t181.5 -81.5q52 0 92.5 13t58.5 28t33 28t23 13q10 0 16.5 -6t6.5 -16v-1q0 -17 -27 -38q-82 -64 -204 -64z" />
    <glyph glyph-name="Egrave" unicode="&#xc8;" horiz-adv-x="549" 
d="M498 0h-387q-26 0 -26 26v648q0 26 26 26h373q21 0 21 -21v-2q0 -22 -21 -22h-346v-272h257q21 0 21 -21v-2q0 -21 -21 -21h-257v-295h360q21 0 21 -21v-2q0 -21 -21 -21zM304 728h-1q-9 0 -20 13l-54 65q-12 15 -6 28.5t22 13.5h1q13 0 23 -16l44 -70q9 -15 5.5 -24.5
t-14.5 -9.5z" />
    <glyph glyph-name="Eacute" unicode="&#xc9;" horiz-adv-x="549" 
d="M498 0h-387q-26 0 -26 26v648q0 26 26 26h373q21 0 21 -21v-2q0 -22 -21 -22h-346v-272h257q21 0 21 -21v-2q0 -21 -21 -21h-257v-295h360q21 0 21 -21v-2q0 -21 -21 -21zM301 728h-1q-11 0 -14.5 9.5t5.5 24.5l44 70q10 16 23 16h1q16 0 22 -13.5t-6 -28.5l-54 -65
q-11 -13 -20 -13z" />
    <glyph glyph-name="Ecircumflex" unicode="&#xca;" horiz-adv-x="549" 
d="M498 0h-387q-26 0 -26 26v648q0 26 26 26h373q21 0 21 -21v-2q0 -22 -21 -22h-346v-272h257q21 0 21 -21v-2q0 -21 -21 -21h-257v-295h360q21 0 21 -21v-2q0 -21 -21 -21zM332 827l63 -67q10 -11 6.5 -21t-14.5 -10h-1q-7 0 -18 9l-69 63l-68 -63q-11 -9 -18 -9h-1
q-11 0 -14.5 10t6.5 21l62 67q14 16 31 16h4q17 0 31 -16z" />
    <glyph glyph-name="Edieresis" unicode="&#xcb;" horiz-adv-x="549" 
d="M498 0h-387q-26 0 -26 26v648q0 26 26 26h373q21 0 21 -21v-2q0 -22 -21 -22h-346v-272h257q21 0 21 -21v-2q0 -21 -21 -21h-257v-295h360q21 0 21 -21v-2q0 -21 -21 -21zM263 773q0 -14 -10 -24t-24 -10t-24 10t-10 24t10 24t24 10t24 -10t10 -24zM406 773
q0 -14 -10 -24t-24 -10t-23.5 10t-9.5 24t10 24t23 10q14 0 24 -10t10 -24z" />
    <glyph glyph-name="Igrave" unicode="&#xcc;" horiz-adv-x="228" 
d="M87 23v654q0 26 26 26h2q26 0 26 -26v-654q0 -26 -26 -26h-2q-26 0 -26 26zM117 728h-1q-9 0 -20 13l-54 65q-12 15 -6 28.5t22 13.5h1q13 0 23 -16l44 -70q9 -15 5.5 -24.5t-14.5 -9.5z" />
    <glyph glyph-name="Iacute" unicode="&#xcd;" horiz-adv-x="228" 
d="M87 23v654q0 26 26 26h2q26 0 26 -26v-654q0 -26 -26 -26h-2q-26 0 -26 26zM115 728h-1q-11 0 -14.5 9.5t5.5 24.5l44 70q10 16 23 16h1q16 0 22 -13.5t-6 -28.5l-54 -65q-11 -13 -20 -13z" />
    <glyph glyph-name="Icircumflex" unicode="&#xce;" horiz-adv-x="228" 
d="M87 23v654q0 26 26 26h2q26 0 26 -26v-654q0 -26 -26 -26h-2q-26 0 -26 26zM146 827l63 -67q10 -11 6.5 -21t-14.5 -10h-1q-7 0 -18 9l-69 63l-68 -63q-11 -9 -18 -9h-1q-11 0 -14.5 10t6.5 21l62 67q14 16 31 16h4q17 0 31 -16z" />
    <glyph glyph-name="Idieresis" unicode="&#xcf;" horiz-adv-x="228" 
d="M77 773q0 -14 -10 -24t-24 -10t-24 10t-10 24t10 24t24 10t24 -10t10 -24zM220 773q0 -14 -10 -24t-24 -10t-23.5 10t-9.5 24t10 24t23 10q14 0 24 -10t10 -24zM87 23v654q0 26 26 26h2q26 0 26 -26v-654q0 -26 -26 -26h-2q-26 0 -26 26z" />
    <glyph glyph-name="Eth" unicode="&#xd0;" horiz-adv-x="665" 
d="M111 700h161q177 0 264.5 -83t87.5 -266t-88 -267t-265 -84h-160q-26 0 -26 26v303h-55q-21 0 -21 21v2q0 21 21 21h55v301q0 26 26 26zM138 656v-283h194q21 0 21 -21v-2q0 -21 -21 -21h-194v-285h133q154 0 226 71.5t72 234.5t-72 234.5t-226 71.5h-133z" />
    <glyph glyph-name="Ntilde" unicode="&#xd1;" horiz-adv-x="676" 
d="M526 23l-389 606h-2v-607q0 -25 -25 -25h-1q-24 0 -24 25v651q0 27 26 27h16q24 0 40 -25l373 -579h1v582q0 25 25 25h1q25 0 25 -25v-653q0 -27 -26 -27h-3q-21 0 -37 25zM402 741q-25 0 -59.5 20t-46.5 20q-27 0 -38 -27q-8 -19 -20 -19h-1q-11 0 -14.5 9t-0.5 22
q6 25 25.5 40.5t45.5 15.5q24 0 58.5 -19.5t47.5 -19.5q26 0 37 27q8 19 20 19h1q11 0 14.5 -9t0.5 -22q-6 -25 -25 -41t-45 -16z" />
    <glyph glyph-name="Ograve" unicode="&#xd2;" horiz-adv-x="710" 
d="M669 350q0 -166 -89.5 -260t-223.5 -94q-135 0 -225 94t-90 260t90 260t225 94q134 0 223.5 -94.5t89.5 -259.5zM96 349q0 -149 72.5 -230t187.5 -81q113 0 185.5 81.5t72.5 229.5q0 149 -72.5 231t-185.5 82q-115 0 -187.5 -82t-72.5 -231zM357 728h-1q-9 0 -20 13
l-54 65q-12 15 -6 28.5t22 13.5h1q13 0 23 -16l44 -70q9 -15 5.5 -24.5t-14.5 -9.5z" />
    <glyph glyph-name="Oacute" unicode="&#xd3;" horiz-adv-x="710" 
d="M669 350q0 -166 -89.5 -260t-223.5 -94q-135 0 -225 94t-90 260t90 260t225 94q134 0 223.5 -94.5t89.5 -259.5zM96 349q0 -149 72.5 -230t187.5 -81q113 0 185.5 81.5t72.5 229.5q0 149 -72.5 231t-185.5 82q-115 0 -187.5 -82t-72.5 -231zM355 728h-1q-11 0 -14.5 9.5
t5.5 24.5l44 70q10 16 23 16h1q16 0 22 -13.5t-6 -28.5l-54 -65q-11 -13 -20 -13z" />
    <glyph glyph-name="Ocircumflex" unicode="&#xd4;" horiz-adv-x="710" 
d="M669 350q0 -166 -89.5 -260t-223.5 -94q-135 0 -225 94t-90 260t90 260t225 94q134 0 223.5 -94.5t89.5 -259.5zM96 349q0 -149 72.5 -230t187.5 -81q113 0 185.5 81.5t72.5 229.5q0 149 -72.5 231t-185.5 82q-115 0 -187.5 -82t-72.5 -231zM386 827l63 -67
q10 -11 6.5 -21t-14.5 -10h-1q-7 0 -18 9l-69 63l-68 -63q-11 -9 -18 -9h-1q-11 0 -14.5 10t6.5 21l62 67q14 16 31 16h4q17 0 31 -16z" />
    <glyph glyph-name="Otilde" unicode="&#xd5;" horiz-adv-x="710" 
d="M669 350q0 -166 -89.5 -260t-223.5 -94q-135 0 -225 94t-90 260t90 260t225 94q134 0 223.5 -94.5t89.5 -259.5zM96 349q0 -149 72.5 -230t187.5 -81q113 0 185.5 81.5t72.5 229.5q0 149 -72.5 231t-185.5 82q-115 0 -187.5 -82t-72.5 -231zM408 741q-25 0 -59.5 20
t-46.5 20q-27 0 -38 -27q-8 -19 -20 -19h-1q-11 0 -14.5 9t-0.5 22q6 25 25.5 40.5t45.5 15.5q24 0 58.5 -19.5t47.5 -19.5q26 0 37 27q8 19 20 19h1q11 0 14.5 -9t0.5 -22q-6 -25 -25 -41t-45 -16z" />
    <glyph glyph-name="Odieresis" unicode="&#xd6;" horiz-adv-x="710" 
d="M669 350q0 -166 -89.5 -260t-223.5 -94q-135 0 -225 94t-90 260t90 260t225 94q134 0 223.5 -94.5t89.5 -259.5zM96 349q0 -149 72.5 -230t187.5 -81q113 0 185.5 81.5t72.5 229.5q0 149 -72.5 231t-185.5 82q-115 0 -187.5 -82t-72.5 -231zM317 773q0 -14 -10 -24
t-24 -10t-24 10t-10 24t10 24t24 10t24 -10t10 -24zM460 773q0 -14 -10 -24t-24 -10t-23.5 10t-9.5 24t10 24t23 10q14 0 24 -10t10 -24z" />
    <glyph glyph-name="multiply" unicode="&#xd7;" horiz-adv-x="467" 
d="M65 199l138 139l-138 140q-12 12 -7 26t20 14h1q9 0 18 -9l136 -137l136 137q9 9 18 9h1q16 0 21 -14t-7 -26l-139 -140l139 -139q12 -12 7 -26t-21 -14h-1q-9 0 -18 9l-136 137l-136 -137q-9 -9 -18 -9h-1q-15 0 -20 14t7 26z" />
    <glyph glyph-name="Oslash" unicode="&#xd8;" horiz-adv-x="710" 
d="M669 350q0 -166 -89.5 -260t-223.5 -94q-112 0 -194 65l-58 -76q-12 -16 -22 -16h-1q-13 0 -18 10.5t5 25.5l64 84q-91 96 -91 261q0 166 90 260t225 94q113 0 195 -68l55 71q12 16 22 16h1q13 0 18 -10.5t-5 -25.5l-61 -80q88 -98 88 -257zM96 349q0 -138 66 -222
l361 472q-66 63 -167 63q-115 0 -187.5 -82t-72.5 -231zM614 349q0 135 -63 219l-361 -471q68 -59 166 -59q113 0 185.5 81.5t72.5 229.5z" />
    <glyph glyph-name="Ugrave" unicode="&#xd9;" horiz-adv-x="672" 
d="M593 678v-441q0 -125 -68.5 -183t-185.5 -58t-188 58t-71 183v440q0 26 26 26h1q26 0 26 -26v-442q0 -195 209 -195q199 0 199 195v443q0 25 25 25h2q25 0 25 -25zM339 728h-1q-9 0 -20 13l-54 65q-12 15 -6 28.5t22 13.5h1q13 0 23 -16l44 -70q9 -15 5.5 -24.5
t-14.5 -9.5z" />
    <glyph glyph-name="Uacute" unicode="&#xda;" horiz-adv-x="672" 
d="M593 678v-441q0 -125 -68.5 -183t-185.5 -58t-188 58t-71 183v440q0 26 26 26h1q26 0 26 -26v-442q0 -195 209 -195q199 0 199 195v443q0 25 25 25h2q25 0 25 -25zM338 728h-1q-11 0 -14.5 9.5t5.5 24.5l44 70q10 16 23 16h1q16 0 22 -13.5t-6 -28.5l-54 -65
q-11 -13 -20 -13z" />
    <glyph glyph-name="Ucircumflex" unicode="&#xdb;" horiz-adv-x="672" 
d="M593 678v-441q0 -125 -68.5 -183t-185.5 -58t-188 58t-71 183v440q0 26 26 26h1q26 0 26 -26v-442q0 -195 209 -195q199 0 199 195v443q0 25 25 25h2q25 0 25 -25zM368 827l63 -67q10 -11 6.5 -21t-14.5 -10h-1q-7 0 -18 9l-69 63l-68 -63q-11 -9 -18 -9h-1
q-11 0 -14.5 10t6.5 21l62 67q14 16 31 16h4q17 0 31 -16z" />
    <glyph glyph-name="Udieresis" unicode="&#xdc;" horiz-adv-x="672" 
d="M593 678v-441q0 -125 -68.5 -183t-185.5 -58t-188 58t-71 183v440q0 26 26 26h1q26 0 26 -26v-442q0 -195 209 -195q199 0 199 195v443q0 25 25 25h2q25 0 25 -25zM299 773q0 -14 -10 -24t-24 -10t-24 10t-10 24t10 24t24 10t24 -10t10 -24zM442 773q0 -14 -10 -24
t-24 -10t-23.5 10t-9.5 24t10 24t23 10q14 0 24 -10t10 -24z" />
    <glyph glyph-name="Yacute" unicode="&#xdd;" horiz-adv-x="548" 
d="M518 667l-216 -372v-272q0 -26 -26 -26h-2q-26 0 -26 26v270l-215 370q-8 16 -1.5 28t21.5 12h1q15 0 25 -19l196 -341h2l197 343q10 17 23 17h1q14 0 21 -10.5t-1 -25.5zM277 728h-1q-11 0 -14.5 9.5t5.5 24.5l44 70q10 16 23 16h1q16 0 22 -13.5t-6 -28.5l-54 -65
q-11 -13 -20 -13z" />
    <glyph glyph-name="Thorn" unicode="&#xde;" horiz-adv-x="550" 
d="M112 -3h-1q-26 0 -26 26v655q0 25 26 25h1q26 0 26 -25v-121h129q119 0 183.5 -45.5t64.5 -149.5q0 -106 -63.5 -153.5t-185.5 -47.5h-128v-138q0 -26 -26 -26zM266 512h-128v-308h128q99 0 147 35.5t48 121.5q0 84 -49 117.5t-146 33.5z" />
    <glyph glyph-name="germandbls" unicode="&#xdf;" horiz-adv-x="564" 
d="M97 -4h-2q-24 0 -24 24v475q0 102 61 156t163 54q79 0 127.5 -29.5t48.5 -92.5q0 -40 -29 -73.5t-82 -72.5q-36 -25 -50.5 -42.5t-14.5 -36.5q0 -21 20.5 -36t75.5 -35q72 -27 106.5 -57t34.5 -90q0 -69 -47 -106.5t-127 -37.5q-78 0 -120 30q-15 10 -15 24v1q0 8 5.5 14
t14.5 6t21 -9t35 -18t59 -9q61 0 93.5 25.5t32.5 75.5q0 43 -27 65t-90 45t-90.5 45.5t-27.5 60.5q0 32 18 55.5t58 55.5q63 48 78 69q18 24 18 50q0 42 -34.5 63t-91.5 21q-82 0 -128 -45.5t-46 -127.5v-473q0 -24 -24 -24z" />
    <glyph glyph-name="agrave" unicode="&#xe0;" horiz-adv-x="491" 
d="M374 46v25q-36 -38 -76.5 -57t-101.5 -19q-75 0 -121.5 39.5t-46.5 111.5q0 76 56.5 114.5t152.5 38.5q74 0 137 -16v94q0 110 -128 110q-42 0 -72.5 -7.5t-43.5 -16t-25.5 -16t-21.5 -7.5q-21 0 -21 21v1q0 19 34 35q63 30 152 30q176 0 176 -147v-359q0 -24 -22 -24h-1
q-27 0 -27 49zM203 34q58 0 97 21.5t74 63.5v128q-71 16 -134 16q-73 0 -117 -28t-44 -85q0 -59 34 -87.5t90 -28.5zM231 579l-74 85q-13 16 -7.5 30t21.5 14h1q15 0 30 -22l60 -88q7 -10 2.5 -19.5t-15.5 -9.5h-1q-8 0 -17 10z" />
    <glyph glyph-name="aacute" unicode="&#xe1;" horiz-adv-x="491" 
d="M374 46v25q-36 -38 -76.5 -57t-101.5 -19q-75 0 -121.5 39.5t-46.5 111.5q0 76 56.5 114.5t152.5 38.5q74 0 137 -16v94q0 110 -128 110q-42 0 -72.5 -7.5t-43.5 -16t-25.5 -16t-21.5 -7.5q-21 0 -21 21v1q0 19 34 35q63 30 152 30q176 0 176 -147v-359q0 -24 -22 -24h-1
q-27 0 -27 49zM203 34q58 0 97 21.5t74 63.5v128q-71 16 -134 16q-73 0 -117 -28t-44 -85q0 -59 34 -87.5t90 -28.5zM343 665l-74 -85q-9 -10 -17 -10h-1q-11 0 -15.5 9t2.5 20l60 88q15 22 30 22h1q16 0 21.5 -14t-7.5 -30z" />
    <glyph glyph-name="acircumflex" unicode="&#xe2;" horiz-adv-x="491" 
d="M374 46v25q-36 -38 -76.5 -57t-101.5 -19q-75 0 -121.5 39.5t-46.5 111.5q0 76 56.5 114.5t152.5 38.5q74 0 137 -16v94q0 110 -128 110q-42 0 -72.5 -7.5t-43.5 -16t-25.5 -16t-21.5 -7.5q-21 0 -21 21v1q0 19 34 35q63 30 152 30q176 0 176 -147v-359q0 -24 -22 -24h-1
q-27 0 -27 49zM203 34q58 0 97 21.5t74 63.5v128q-71 16 -134 16q-73 0 -117 -28t-44 -85q0 -59 34 -87.5t90 -28.5zM279 688l71 -88q9 -12 5 -21.5t-15 -9.5h-1q-9 0 -18 11l-76 80l-75 -80q-9 -11 -18 -11h-1q-11 0 -15 9.5t5 21.5l74 88q16 18 31 18h2q16 0 31 -18z" />
    <glyph glyph-name="atilde" unicode="&#xe3;" horiz-adv-x="491" 
d="M374 46v25q-36 -38 -76.5 -57t-101.5 -19q-75 0 -121.5 39.5t-46.5 111.5q0 76 56.5 114.5t152.5 38.5q74 0 137 -16v94q0 110 -128 110q-42 0 -72.5 -7.5t-43.5 -16t-25.5 -16t-21.5 -7.5q-21 0 -21 21v1q0 19 34 35q63 30 152 30q176 0 176 -147v-359q0 -24 -22 -24h-1
q-27 0 -27 49zM203 34q58 0 97 21.5t74 63.5v128q-71 16 -134 16q-73 0 -117 -28t-44 -85q0 -59 34 -87.5t90 -28.5zM303 589q-25 0 -59.5 20t-46.5 20q-27 0 -38 -27q-8 -19 -20 -19h-1q-11 0 -14.5 9t-0.5 22q6 25 25.5 40.5t45.5 15.5q24 0 58.5 -19.5t47.5 -19.5
q26 0 37 27q8 19 20 19h1q11 0 14.5 -9t0.5 -22q-6 -25 -25 -41t-45 -16z" />
    <glyph glyph-name="adieresis" unicode="&#xe4;" horiz-adv-x="491" 
d="M374 46v25q-36 -38 -76.5 -57t-101.5 -19q-75 0 -121.5 39.5t-46.5 111.5q0 76 56.5 114.5t152.5 38.5q74 0 137 -16v94q0 110 -128 110q-42 0 -72.5 -7.5t-43.5 -16t-25.5 -16t-21.5 -7.5q-21 0 -21 21v1q0 19 34 35q63 30 152 30q176 0 176 -147v-359q0 -24 -22 -24h-1
q-27 0 -27 49zM203 34q58 0 97 21.5t74 63.5v128q-71 16 -134 16q-73 0 -117 -28t-44 -85q0 -59 34 -87.5t90 -28.5zM211 634q0 -14 -10 -23.5t-24 -9.5t-24 9.5t-10 23.5t10 24t24 10t24 -10t10 -24zM354 634q0 -14 -10 -23.5t-24 -9.5t-23.5 9.5t-9.5 23.5t9.5 24t23.5 10
t24 -10t10 -24z" />
    <glyph glyph-name="aring" unicode="&#xe5;" horiz-adv-x="491" 
d="M374 46v25q-36 -38 -76.5 -57t-101.5 -19q-75 0 -121.5 39.5t-46.5 111.5q0 76 56.5 114.5t152.5 38.5q74 0 137 -16v94q0 110 -128 110q-42 0 -72.5 -7.5t-43.5 -16t-25.5 -16t-21.5 -7.5q-21 0 -21 21v1q0 19 34 35q63 30 152 30q176 0 176 -147v-359q0 -24 -22 -24h-1
q-27 0 -27 49zM203 34q58 0 97 21.5t74 63.5v128q-71 16 -134 16q-73 0 -117 -28t-44 -85q0 -59 34 -87.5t90 -28.5zM336 659q0 -38 -26 -61.5t-61 -23.5q-36 0 -62 23.5t-26 61.5t26 62t62 24q35 0 61 -24t26 -62zM198 659q0 -23 14.5 -37.5t36.5 -14.5q21 0 36 14.5
t15 37.5q0 24 -15 39t-36 15q-22 0 -36.5 -15t-14.5 -39z" />
    <glyph glyph-name="ae" unicode="&#xe6;" horiz-adv-x="849" 
d="M197 -5q-76 0 -122.5 40t-46.5 112q0 74 56.5 112.5t152.5 38.5h137v79q0 110 -128 110q-42 0 -72.5 -7.5t-43.5 -16t-25.5 -16t-21.5 -7.5q-21 0 -21 21v1q0 19 34 35q63 30 152 30q146 0 168 -105q65 105 189 105q100 0 157 -60t57 -183q0 -24 -24 -24h-370v-1
q0 -109 50 -165.5t148 -56.5q53 0 88.5 13.5t52 26.5t23.5 13q21 0 21 -19v-1q0 -14 -19 -27q-68 -47 -171 -47q-150 0 -211 113q-77 -114 -210 -114zM79 150q0 -59 34 -87.5t90 -28.5q117 0 188 111q-17 51 -17 114v1h-134q-74 0 -117.5 -27t-43.5 -83zM426 298h343
q-4 191 -164 191q-74 0 -122 -49t-57 -142z" />
    <glyph glyph-name="ccedilla" unicode="&#xe7;" horiz-adv-x="478" 
d="M434 45q-59 -49 -158 -49h-16v-36q38 -2 58.5 -19.5t20.5 -48.5t-23.5 -48.5t-59.5 -17.5t-59 14q-12 8 -12 19v1q0 17 15 17q5 0 19.5 -7.5t33.5 -7.5q43 0 43 31q0 34 -50 34h-8q-15 0 -15 14v59q-91 17 -141 85.5t-50 176.5q0 122 68.5 193.5t178.5 71.5q88 0 140 -35
q23 -16 23 -33v-1q0 -9 -6 -15t-15 -6q-8 0 -19.5 8t-23 17t-38.5 17t-62 8q-88 0 -141.5 -60t-53.5 -165q0 -107 51.5 -166.5t143.5 -59.5q39 0 67.5 9t41.5 20.5t24.5 20.5t19.5 9q20 0 20 -20v-1q0 -15 -17 -29z" />
    <glyph glyph-name="egrave" unicode="&#xe8;" horiz-adv-x="507" 
d="M281 37q53 0 88.5 13.5t52 26.5t23.5 13q21 0 21 -19v-1q0 -14 -19 -27q-68 -47 -171 -47q-117 0 -180.5 70t-63.5 193q0 121 65 194.5t166 73.5q100 0 157 -60.5t57 -183.5q0 -24 -24 -24h-370q0 -109 50 -165.5t148 -56.5zM84 297h343q-4 192 -164 192q-74 0 -122 -49
t-57 -143zM244 579l-74 85q-13 16 -7.5 30t21.5 14h1q15 0 30 -22l60 -88q7 -10 2.5 -19.5t-15.5 -9.5h-1q-8 0 -17 10z" />
    <glyph glyph-name="eacute" unicode="&#xe9;" horiz-adv-x="507" 
d="M281 37q53 0 88.5 13.5t52 26.5t23.5 13q21 0 21 -19v-1q0 -14 -19 -27q-68 -47 -171 -47q-117 0 -180.5 70t-63.5 193q0 121 65 194.5t166 73.5q100 0 157 -60.5t57 -183.5q0 -24 -24 -24h-370q0 -109 50 -165.5t148 -56.5zM84 297h343q-4 192 -164 192q-74 0 -122 -49
t-57 -143zM356 664l-74 -85q-9 -10 -17 -10h-1q-11 0 -15.5 9.5t2.5 19.5l60 88q15 22 30 22h1q16 0 21.5 -14t-7.5 -30z" />
    <glyph glyph-name="ecircumflex" unicode="&#xea;" horiz-adv-x="507" 
d="M281 37q53 0 88.5 13.5t52 26.5t23.5 13q21 0 21 -19v-1q0 -14 -19 -27q-68 -47 -171 -47q-117 0 -180.5 70t-63.5 193q0 121 65 194.5t166 73.5q100 0 157 -60.5t57 -183.5q0 -24 -24 -24h-370q0 -109 50 -165.5t148 -56.5zM84 297h343q-4 192 -164 192q-74 0 -122 -49
t-57 -143zM295 688l71 -88q9 -12 5 -21.5t-15 -9.5h-1q-9 0 -18 11l-76 80l-75 -80q-9 -11 -18 -11h-1q-11 0 -15 9.5t5 21.5l74 88q16 18 31 18h2q16 0 31 -18z" />
    <glyph glyph-name="edieresis" unicode="&#xeb;" horiz-adv-x="507" 
d="M281 37q53 0 88.5 13.5t52 26.5t23.5 13q21 0 21 -19v-1q0 -14 -19 -27q-68 -47 -171 -47q-117 0 -180.5 70t-63.5 193q0 121 65 194.5t166 73.5q100 0 157 -60.5t57 -183.5q0 -24 -24 -24h-370q0 -109 50 -165.5t148 -56.5zM84 297h343q-4 192 -164 192q-74 0 -122 -49
t-57 -143zM225 634q0 -14 -10 -23.5t-24 -9.5t-24 9.5t-10 23.5t10 24t24 10t24 -10t10 -24zM368 634q0 -14 -10 -23.5t-24 -9.5t-23.5 9.5t-9.5 23.5t9.5 24t23.5 10t24 -10t10 -24z" />
    <glyph glyph-name="igrave" unicode="&#xec;" horiz-adv-x="197" 
d="M123 478v-457q0 -24 -24 -24h-2q-24 0 -24 24v479q0 24 22 24h1q14 0 20.5 -9.5t6.5 -36.5zM81 579l-74 85q-13 16 -7.5 30t21.5 14h1q15 0 30 -22l60 -88q7 -10 2.5 -19.5t-15.5 -9.5h-1q-8 0 -17 10z" />
    <glyph glyph-name="iacute" unicode="&#xed;" horiz-adv-x="197" 
d="M123 478v-457q0 -24 -24 -24h-2q-24 0 -24 24v479q0 24 22 24h1q14 0 20.5 -9.5t6.5 -36.5zM191 664l-74 -85q-9 -10 -17 -10h-1q-11 0 -15.5 9.5t2.5 19.5l60 88q15 22 30 22h1q16 0 21.5 -14t-7.5 -30z" />
    <glyph glyph-name="icircumflex" unicode="&#xee;" horiz-adv-x="197" 
d="M123 478v-457q0 -24 -24 -24h-2q-24 0 -24 24v479q0 24 22 24h1q14 0 20.5 -9.5t6.5 -36.5zM131 688l71 -88q9 -12 5 -21.5t-15 -9.5h-1q-9 0 -18 11l-76 80l-75 -80q-9 -11 -18 -11h-1q-11 0 -15 9.5t5 21.5l74 88q16 18 31 18h2q16 0 31 -18z" />
    <glyph glyph-name="idieresis" unicode="&#xef;" horiz-adv-x="197" 
d="M61 634q0 -14 -10 -23.5t-24 -9.5t-24 9.5t-10 23.5t10 24t24 10t24 -10t10 -24zM204 634q0 -14 -10 -23.5t-24 -9.5t-23.5 9.5t-9.5 23.5t9.5 24t23.5 10t24 -10t10 -24zM123 478v-457q0 -24 -24 -24h-2q-24 0 -24 24v479q0 24 22 24h1q14 0 20.5 -9.5t6.5 -36.5z" />
    <glyph glyph-name="eth" unicode="&#xf0;" horiz-adv-x="548" 
d="M397 671l-53 -36q173 -116 173 -363q0 -134 -66.5 -205t-176.5 -71q-109 0 -175.5 71.5t-66.5 192.5t65 193.5t170 72.5q62 0 103 -21.5t75 -64.5q-53 113 -138 169l-84 -57q-6 -4 -11 -4h-1q-12 0 -15.5 11t7.5 19l73 50q-36 19 -89 32q-23 5 -23 21v1q0 18 20 18
q6 0 16 -2q61 -15 114 -44l68 46q6 4 11 4h1q12 0 15 -12.5t-12 -20.5zM83 260q0 -104 51 -164.5t142 -60.5q89 0 139.5 59.5t50.5 165.5q0 104 -50.5 165.5t-139.5 61.5q-90 0 -141.5 -61t-51.5 -166z" />
    <glyph glyph-name="ntilde" unicode="&#xf1;" horiz-adv-x="551" 
d="M485 388v-367q0 -24 -24 -24h-2q-24 0 -24 24v361q0 58 -27.5 80.5t-76.5 22.5q-95 0 -210 -88v-376q0 -24 -24 -24h-2q-24 0 -24 24v479q0 24 22 24h1q14 0 20.5 -9.5t6.5 -36.5v-40q112 89 229 89q135 0 135 -139zM336 589q-25 0 -59.5 20t-46.5 20q-27 0 -38 -27
q-8 -19 -20 -19h-1q-11 0 -14.5 9t-0.5 22q6 25 25.5 40.5t45.5 15.5q24 0 58.5 -19.5t47.5 -19.5q26 0 37 27q8 19 20 19h1q11 0 14.5 -9t0.5 -22q-6 -25 -25 -41t-45 -16z" />
    <glyph glyph-name="ograve" unicode="&#xf2;" horiz-adv-x="549" 
d="M517 261q0 -123 -66.5 -194t-176.5 -71q-109 0 -175.5 71.5t-66.5 193.5t66.5 194t175.5 72q110 0 176.5 -72t66.5 -194zM83 261q0 -107 51 -166.5t140 -59.5q90 0 141 59.5t51 166.5q0 106 -51.5 166.5t-140.5 60.5t-140 -60.5t-51 -166.5zM255 579l-74 85
q-13 16 -7.5 30t21.5 14h1q15 0 30 -22l60 -88q7 -10 2.5 -19.5t-15.5 -9.5h-1q-8 0 -17 10z" />
    <glyph glyph-name="oacute" unicode="&#xf3;" horiz-adv-x="549" 
d="M517 261q0 -123 -66.5 -194t-176.5 -71q-109 0 -175.5 71.5t-66.5 193.5t66.5 194t175.5 72q110 0 176.5 -72t66.5 -194zM83 261q0 -107 51 -166.5t140 -59.5q90 0 141 59.5t51 166.5q0 106 -51.5 166.5t-140.5 60.5t-140 -60.5t-51 -166.5zM367 664l-74 -85
q-9 -10 -17 -10h-1q-11 0 -15.5 9.5t2.5 19.5l60 88q15 22 30 22h1q16 0 21.5 -14t-7.5 -30z" />
    <glyph glyph-name="ocircumflex" unicode="&#xf4;" horiz-adv-x="549" 
d="M517 261q0 -123 -66.5 -194t-176.5 -71q-109 0 -175.5 71.5t-66.5 193.5t66.5 194t175.5 72q110 0 176.5 -72t66.5 -194zM83 261q0 -107 51 -166.5t140 -59.5q90 0 141 59.5t51 166.5q0 106 -51.5 166.5t-140.5 60.5t-140 -60.5t-51 -166.5zM306 688l71 -88
q9 -12 5 -21.5t-15 -9.5h-1q-9 0 -18 11l-76 80l-75 -80q-9 -11 -18 -11h-1q-11 0 -15 9.5t5 21.5l74 88q16 18 31 18h2q16 0 31 -18z" />
    <glyph glyph-name="otilde" unicode="&#xf5;" horiz-adv-x="549" 
d="M517 261q0 -123 -66.5 -194t-176.5 -71q-109 0 -175.5 71.5t-66.5 193.5t66.5 194t175.5 72q110 0 176.5 -72t66.5 -194zM83 261q0 -107 51 -166.5t140 -59.5q90 0 141 59.5t51 166.5q0 106 -51.5 166.5t-140.5 60.5t-140 -60.5t-51 -166.5zM329 589q-25 0 -59.5 20
t-46.5 20q-27 0 -38 -27q-8 -19 -20 -19h-1q-11 0 -14.5 9t-0.5 22q6 25 25.5 40.5t45.5 15.5q24 0 58.5 -19.5t47.5 -19.5q26 0 37 27q8 19 20 19h1q11 0 14.5 -9t0.5 -22q-6 -25 -25 -41t-45 -16z" />
    <glyph glyph-name="odieresis" unicode="&#xf6;" horiz-adv-x="549" 
d="M517 261q0 -123 -66.5 -194t-176.5 -71q-109 0 -175.5 71.5t-66.5 193.5t66.5 194t175.5 72q110 0 176.5 -72t66.5 -194zM83 261q0 -107 51 -166.5t140 -59.5q90 0 141 59.5t51 166.5q0 106 -51.5 166.5t-140.5 60.5t-140 -60.5t-51 -166.5zM236 634q0 -14 -10 -23.5
t-24 -9.5t-24 9.5t-10 23.5t10 24t24 10t24 -10t10 -24zM379 634q0 -14 -10 -23.5t-24 -9.5q-13 0 -23 9.5t-10 23.5t9.5 24t23.5 10t24 -10t10 -24z" />
    <glyph glyph-name="divide" unicode="&#xf7;" horiz-adv-x="472" 
d="M440 347v-2q0 -22 -21 -22h-365q-22 0 -22 22v2q0 21 22 21h365q21 0 21 -21zM198 197q0 16 11 27.5t27 11.5t27.5 -11t11.5 -28q0 -16 -11 -27t-28 -11q-16 0 -27 11t-11 27zM198 493q0 16 11 27.5t27 11.5t27.5 -11t11.5 -28q0 -16 -11.5 -27t-27.5 -11t-27 11t-11 27z
" />
    <glyph glyph-name="oslash" unicode="&#xf8;" horiz-adv-x="549" 
d="M498 512l-47 -58q66 -72 66 -193q0 -123 -66.5 -194t-176.5 -71q-88 0 -150 48l-46 -58q-11 -14 -20 -14h-1q-13 0 -17.5 10t4.5 23l52 65q-64 70 -64 191q0 122 66.5 194t175.5 72q86 0 149 -47l41 51q11 14 20 14h1q13 0 17.5 -10t-4.5 -23zM466 261q0 96 -44 156
l-272 -340q48 -42 124 -42q90 0 141 59.5t51 166.5zM83 261q0 -96 42 -155l271 340q-50 42 -122 42q-89 0 -140 -60.5t-51 -166.5z" />
    <glyph glyph-name="ugrave" unicode="&#xf9;" horiz-adv-x="547" 
d="M207 -6q-141 0 -141 136v370q0 24 24 24h3q24 0 24 -24v-365q0 -56 25.5 -78t71.5 -22q96 0 210 83v382q0 24 24 24h2q24 0 24 -24v-479q0 -24 -22 -24h-1q-27 0 -27 49v30q-108 -82 -217 -82zM253 579l-74 85q-13 16 -7.5 30t21.5 14h1q15 0 30 -22l60 -88
q7 -10 2.5 -19.5t-15.5 -9.5h-1q-8 0 -17 10z" />
    <glyph glyph-name="uacute" unicode="&#xfa;" horiz-adv-x="547" 
d="M207 -6q-141 0 -141 136v370q0 24 24 24h3q24 0 24 -24v-365q0 -56 25.5 -78t71.5 -22q96 0 210 83v382q0 24 24 24h2q24 0 24 -24v-479q0 -24 -22 -24h-1q-27 0 -27 49v30q-108 -82 -217 -82zM365 664l-74 -85q-9 -10 -17 -10h-1q-11 0 -15.5 9.5t2.5 19.5l60 88
q15 22 30 22h1q16 0 21.5 -14t-7.5 -30z" />
    <glyph glyph-name="ucircumflex" unicode="&#xfb;" horiz-adv-x="547" 
d="M207 -6q-141 0 -141 136v370q0 24 24 24h3q24 0 24 -24v-365q0 -56 25.5 -78t71.5 -22q96 0 210 83v382q0 24 24 24h2q24 0 24 -24v-479q0 -24 -22 -24h-1q-27 0 -27 49v30q-108 -82 -217 -82zM304 688l71 -88q9 -12 5 -21.5t-15 -9.5h-1q-9 0 -18 11l-76 80l-75 -80
q-9 -11 -18 -11h-1q-11 0 -15 9.5t5 21.5l74 88q16 18 31 18h2q16 0 31 -18z" />
    <glyph glyph-name="udieresis" unicode="&#xfc;" horiz-adv-x="547" 
d="M207 -6q-141 0 -141 136v370q0 24 24 24h3q24 0 24 -24v-365q0 -56 25.5 -78t71.5 -22q96 0 210 83v382q0 24 24 24h2q24 0 24 -24v-479q0 -24 -22 -24h-1q-27 0 -27 49v30q-108 -82 -217 -82zM234 634q0 -14 -10 -23.5t-24 -9.5t-24 9.5t-10 23.5t10 24t24 10t24 -10
t10 -24zM377 634q0 -14 -10 -23.5t-24 -9.5q-13 0 -23 9.5t-10 23.5t9.5 24t23.5 10t24 -10t10 -24z" />
    <glyph glyph-name="yacute" unicode="&#xfd;" horiz-adv-x="500" 
d="M470 487l-265 -630q-8 -19 -23 -19h-1q-14 0 -20 9.5t0 24.5l71 164l-199 450q-6 14 1 24.5t21 10.5h1q15 0 24 -21l176 -404h1l169 406q8 19 23 19h1q14 0 20 -10t0 -24zM349 664l-74 -85q-9 -10 -17 -10h-1q-11 0 -15.5 9.5t2.5 19.5l60 88q15 22 30 22h1
q16 0 21.5 -14t-7.5 -30z" />
    <glyph glyph-name="thorn" unicode="&#xfe;" horiz-adv-x="551" 
d="M71 -141v820q0 24 22 24h1q14 0 20.5 -9.5t6.5 -36.5v-229q85 99 198 99q85 0 142.5 -60.5t57.5 -197.5q0 -74 -19.5 -128.5t-52.5 -84t-71 -43.5t-81 -14q-106 0 -174 61v-201q0 -24 -24 -24h-2q-24 0 -24 24zM311 486q-101 0 -190 -107v-271q63 -69 165 -69
q35 0 65 10.5t57.5 34t43.5 70t16 110.5q0 121 -45.5 171.5t-111.5 50.5z" />
    <glyph glyph-name="ydieresis" unicode="&#xff;" horiz-adv-x="500" 
d="M470 487l-265 -630q-8 -19 -23 -19h-1q-14 0 -20 9.5t0 24.5l71 164l-199 450q-6 14 1 24.5t21 10.5h1q15 0 24 -21l176 -404h1l169 406q8 19 23 19h1q14 0 20 -10t0 -24zM218 634q0 -14 -10 -23.5t-24 -9.5t-24 9.5t-10 23.5t10 24t24 10t24 -10t10 -24zM361 634
q0 -14 -10 -23.5t-24 -9.5q-13 0 -23 9.5t-10 23.5t9.5 24t23.5 10t24 -10t10 -24z" />
    <glyph glyph-name="Amacron" unicode="&#x100;" horiz-adv-x="610" 
d="M348 672l228 -636q7 -19 -0.5 -29t-21.5 -10h-1q-18 0 -27 25l-71 197h-303l-69 -194q-9 -28 -28 -28h-1q-14 0 -20 9.5t0 29.5l231 636q11 28 39 28h5q28 0 39 -28zM303 641l-135 -378h272l-135 378h-2zM206 795h201q18 0 18 -18v-2q0 -19 -18 -19h-201q-19 0 -19 19v2
q0 18 19 18z" />
    <glyph glyph-name="amacron" unicode="&#x101;" horiz-adv-x="491" 
d="M374 46v25q-36 -38 -76.5 -57t-101.5 -19q-75 0 -121.5 39.5t-46.5 111.5q0 76 56.5 114.5t152.5 38.5q74 0 137 -16v94q0 110 -128 110q-42 0 -72.5 -7.5t-43.5 -16t-25.5 -16t-21.5 -7.5q-21 0 -21 21v1q0 19 34 35q63 30 152 30q176 0 176 -147v-359q0 -24 -22 -24h-1
q-27 0 -27 49zM203 34q58 0 97 21.5t74 63.5v128q-71 16 -134 16q-73 0 -117 -28t-44 -85q0 -59 34 -87.5t90 -28.5zM149 648h193q17 0 17 -17v-2q0 -18 -17 -18h-193q-18 0 -18 18v2q0 17 18 17z" />
    <glyph glyph-name="Abreve" unicode="&#x102;" horiz-adv-x="610" 
d="M348 672l228 -636q7 -19 -0.5 -29t-21.5 -10h-1q-18 0 -27 25l-71 197h-303l-69 -194q-9 -28 -28 -28h-1q-14 0 -20 9.5t0 29.5l231 636q11 28 39 28h5q28 0 39 -28zM303 641l-135 -378h272l-135 378h-2zM306 731q-85 0 -113 77q-4 14 -0.5 22.5t14.5 8.5h1q10 0 21 -19
q1 -3 2 -4q25 -46 75 -46t75 46q16 21 23 23h1q11 0 14.5 -8.5t-0.5 -22.5q-28 -77 -113 -77z" />
    <glyph glyph-name="abreve" unicode="&#x103;" horiz-adv-x="491" 
d="M374 46v25q-36 -38 -76.5 -57t-101.5 -19q-75 0 -121.5 39.5t-46.5 111.5q0 76 56.5 114.5t152.5 38.5q74 0 137 -16v94q0 110 -128 110q-42 0 -72.5 -7.5t-43.5 -16t-25.5 -16t-21.5 -7.5q-21 0 -21 21v1q0 19 34 35q63 30 152 30q176 0 176 -147v-359q0 -24 -22 -24h-1
q-27 0 -27 49zM203 34q58 0 97 21.5t74 63.5v128q-71 16 -134 16q-73 0 -117 -28t-44 -85q0 -59 34 -87.5t90 -28.5zM249 575q-42 0 -71 23.5t-42 61.5q-5 14 -0.5 23t14.5 9h1q11 0 23 -24q26 -54 75 -54t75 54q12 24 23 24h1q10 0 14.5 -9t-0.5 -23q-13 -38 -42 -61.5
t-71 -23.5z" />
    <glyph glyph-name="Aogonek" unicode="&#x104;" horiz-adv-x="610" 
d="M55 -3h-1q-14 0 -20 9.5t0 29.5l231 636q11 28 39 28h5q28 0 39 -28l228 -636q8 -23 -3 -32q-55 -48 -55 -89q0 -43 49 -43h21q15 0 15 -15v-1q0 -14 -15 -17q-13 -3 -35 -3q-38 0 -60 19t-22 52q0 51 61 98l-77 214h-303l-69 -194q-9 -28 -28 -28zM305 641h-2l-135 -378
h272z" />
    <glyph glyph-name="aogonek" unicode="&#x105;" horiz-adv-x="491" 
d="M374 46v25q-36 -38 -76.5 -57t-101.5 -19q-75 0 -121.5 39.5t-46.5 111.5q0 76 56.5 114.5t152.5 38.5q74 0 137 -16v94q0 110 -128 110q-42 0 -72.5 -7.5t-43.5 -16t-25.5 -16t-21.5 -7.5q-21 0 -21 21v1q0 19 34 35q63 30 152 30q176 0 176 -147v-360q0 -13 -8 -21
q-30 -30 -41.5 -46.5t-11.5 -37.5q0 -43 49 -43h21q15 0 15 -15v-1q0 -14 -15 -17q-13 -3 -35 -3q-38 0 -60 19t-22 52q0 49 66 97q-8 11 -8 42zM203 34q58 0 97 21.5t74 63.5v128q-71 16 -134 16q-73 0 -117 -28t-44 -85q0 -59 34 -87.5t90 -28.5z" />
    <glyph glyph-name="Cacute" unicode="&#x106;" horiz-adv-x="614" 
d="M351 -4q-137 0 -219.5 93.5t-82.5 262.5q0 166 88 259t220 93q115 0 186 -50q27 -19 27 -37v-1q0 -10 -6.5 -16.5t-16.5 -6.5q-11 0 -26 10.5t-30.5 23.5t-50.5 23.5t-80 10.5q-113 0 -184.5 -80t-71.5 -227q0 -152 66.5 -233.5t181.5 -81.5q52 0 92.5 13t58.5 28t33 28
t23 13q10 0 16.5 -6t6.5 -16v-1q0 -17 -27 -38q-82 -64 -204 -64zM347 728h-1q-11 0 -14.5 9.5t5.5 24.5l44 70q10 16 23 16h1q16 0 22 -13.5t-6 -28.5l-54 -65q-11 -13 -20 -13z" />
    <glyph glyph-name="cacute" unicode="&#x107;" horiz-adv-x="478" 
d="M434 45q-59 -49 -158 -49q-114 0 -179 71t-65 195q0 122 68.5 193.5t178.5 71.5q88 0 140 -35q23 -16 23 -33v-1q0 -9 -6 -15t-15 -6q-8 0 -19.5 8t-23 17t-38.5 17t-62 8q-88 0 -141.5 -60t-53.5 -165q0 -107 51.5 -166.5t143.5 -59.5q39 0 67.5 9t41.5 20.5t24.5 20.5
t19.5 9q20 0 20 -20v-1q0 -15 -17 -29zM359 664l-74 -85q-9 -10 -17 -10h-1q-11 0 -15.5 9.5t2.5 19.5l60 88q15 22 30 22h1q16 0 21.5 -14t-7.5 -30z" />
    <glyph glyph-name="Ccircumflex" unicode="&#x108;" horiz-adv-x="614" 
d="M351 -4q-137 0 -219.5 93.5t-82.5 262.5q0 166 88 259t220 93q115 0 186 -50q27 -19 27 -37v-1q0 -10 -6.5 -16.5t-16.5 -6.5q-11 0 -26 10.5t-30.5 23.5t-50.5 23.5t-80 10.5q-113 0 -184.5 -80t-71.5 -227q0 -152 66.5 -233.5t181.5 -81.5q52 0 92.5 13t58.5 28t33 28
t23 13q10 0 16.5 -6t6.5 -16v-1q0 -17 -27 -38q-82 -64 -204 -64zM378 827l63 -67q10 -11 6.5 -21t-14.5 -10h-1q-7 0 -18 9l-69 63l-68 -63q-11 -9 -18 -9h-1q-11 0 -14.5 10t6.5 21l62 67q14 16 31 16h4q17 0 31 -16z" />
    <glyph glyph-name="ccircumflex" unicode="&#x109;" horiz-adv-x="478" 
d="M434 45q-59 -49 -158 -49q-114 0 -179 71t-65 195q0 122 68.5 193.5t178.5 71.5q88 0 140 -35q23 -16 23 -33v-1q0 -9 -6 -15t-15 -6q-8 0 -19.5 8t-23 17t-38.5 17t-62 8q-88 0 -141.5 -60t-53.5 -165q0 -107 51.5 -166.5t143.5 -59.5q39 0 67.5 9t41.5 20.5t24.5 20.5
t19.5 9q20 0 20 -20v-1q0 -15 -17 -29zM298 688l71 -88q9 -12 5 -21.5t-15 -9.5h-1q-9 0 -18 11l-76 80l-75 -80q-9 -11 -18 -11h-1q-11 0 -15 9.5t5 21.5l74 88q16 18 31 18h2q16 0 31 -18z" />
    <glyph glyph-name="Cdotaccent" unicode="&#x10a;" horiz-adv-x="614" 
d="M351 -4q-137 0 -219.5 93.5t-82.5 262.5q0 166 88 259t220 93q115 0 186 -50q27 -19 27 -37v-1q0 -10 -6.5 -16.5t-16.5 -6.5q-11 0 -26 10.5t-30.5 23.5t-50.5 23.5t-80 10.5q-113 0 -184.5 -80t-71.5 -227q0 -152 66.5 -233.5t181.5 -81.5q52 0 92.5 13t58.5 28t33 28
t23 13q10 0 16.5 -6t6.5 -16v-1q0 -17 -27 -38q-82 -64 -204 -64zM381 774q0 -14 -10.5 -24t-23.5 -10q-14 0 -24 10t-10 24t10 24t24 10t24 -10t10 -24z" />
    <glyph glyph-name="cdotaccent" unicode="&#x10b;" horiz-adv-x="478" 
d="M434 45q-59 -49 -158 -49q-114 0 -179 71t-65 195q0 122 68.5 193.5t178.5 71.5q88 0 140 -35q23 -16 23 -33v-1q0 -9 -6 -15t-15 -6q-8 0 -19.5 8t-23 17t-38.5 17t-62 8q-88 0 -141.5 -60t-53.5 -165q0 -107 51.5 -166.5t143.5 -59.5q39 0 67.5 9t41.5 20.5t24.5 20.5
t19.5 9q20 0 20 -20v-1q0 -15 -17 -29zM300 635q0 -14 -10 -24t-24 -10t-24 10t-10 24t10 24t24 10t24 -10.5t10 -23.5z" />
    <glyph glyph-name="Ccaron" unicode="&#x10c;" horiz-adv-x="614" 
d="M351 -4q-137 0 -219.5 93.5t-82.5 262.5q0 166 88 259t220 93q115 0 186 -50q27 -19 27 -37v-1q0 -10 -6.5 -16.5t-16.5 -6.5q-11 0 -26 10.5t-30.5 23.5t-50.5 23.5t-80 10.5q-113 0 -184.5 -80t-71.5 -227q0 -152 66.5 -233.5t181.5 -81.5q52 0 92.5 13t58.5 28t33 28
t23 13q10 0 16.5 -6t6.5 -16v-1q0 -17 -27 -38q-82 -64 -204 -64zM442 812l-63 -67q-14 -16 -31 -16h-4q-17 0 -31 16l-62 67q-10 11 -6.5 21t14.5 10h1q7 0 18 -9l68 -63l69 63q11 9 18 9h1q11 0 14.5 -10t-6.5 -21z" />
    <glyph glyph-name="ccaron" unicode="&#x10d;" horiz-adv-x="478" 
d="M434 45q-59 -49 -158 -49q-114 0 -179 71t-65 195q0 122 68.5 193.5t178.5 71.5q88 0 140 -35q23 -16 23 -33v-1q0 -9 -6 -15t-15 -6q-8 0 -19.5 8t-23 17t-38.5 17t-62 8q-88 0 -141.5 -60t-53.5 -165q0 -107 51.5 -166.5t143.5 -59.5q39 0 67.5 9t41.5 20.5t24.5 20.5
t19.5 9q20 0 20 -20v-1q0 -15 -17 -29zM369 675l-71 -88q-15 -18 -31 -18h-2q-15 0 -31 18l-74 88q-9 12 -5 21.5t15 9.5h1q9 0 18 -11l75 -80l76 80q9 11 18 11h1q11 0 15 -9.5t-5 -21.5z" />
    <glyph glyph-name="Dcaron" unicode="&#x10e;" horiz-adv-x="665" 
d="M138 656v-612h133q154 0 226 71.5t72 234.5t-72 234.5t-226 71.5h-133zM111 700h161q177 0 264.5 -83t87.5 -266t-88 -267t-265 -84h-160q-26 0 -26 26v648q0 26 26 26zM402 812l-63 -67q-14 -16 -31 -16h-4q-17 0 -31 16l-62 67q-10 11 -6.5 21t14.5 10h1q7 0 18 -9
l68 -63l69 63q11 9 18 9h1q11 0 14.5 -10t-6.5 -21z" />
    <glyph glyph-name="dcaron" unicode="&#x10f;" horiz-adv-x="554" 
d="M430 44v44q-74 -94 -191 -94q-88 0 -147 62.5t-59 197.5q0 73 19.5 127.5t52.5 84.5t71 44.5t80 14.5q111 0 174 -65v216q0 25 23 25h1q14 0 20.5 -9.5t6.5 -36.5v-636q0 -24 -22 -24h-1q-15 0 -21.5 10.5t-6.5 38.5zM244 33q108 0 186 106v276q-66 71 -166 71
q-77 0 -128.5 -52.5t-51.5 -177.5q0 -119 46 -171t114 -52zM555 563h-2q-19 0 -17 20l7 95q2 26 22 26h2q29 0 22 -33l-18 -94q-3 -14 -16 -14z" />
    <glyph glyph-name="Dcroat" unicode="&#x110;" horiz-adv-x="665" 
d="M111 700h161q177 0 264.5 -83t87.5 -266t-88 -267t-265 -84h-160q-26 0 -26 26v303h-55q-8 0 -14.5 6.5t-6.5 14.5v2q0 9 6 15t15 6h55v301q0 26 26 26zM138 656v-283h194q9 0 15 -6t6 -15v-2q0 -9 -6 -15t-15 -6h-194v-285h133q154 0 226 71.5t72 234.5t-72 234.5
t-226 71.5h-133z" />
    <glyph glyph-name="dcroat" unicode="&#x111;" horiz-adv-x="554" 
d="M430 46v44q-74 -94 -191 -94q-88 0 -147 62.5t-59 197.5q0 73 19.5 127.5t52.5 84.5t71 44.5t80 14.5q111 0 174 -65v121h-141q-18 0 -18 18v2q0 17 18 17h141v58q0 25 23 25h1q14 0 20.5 -9.5t6.5 -36.5v-37h53q17 0 17 -17v-2q0 -18 -17 -18h-53v-562q0 -24 -22 -24h-1
q-15 0 -21.5 10.5t-6.5 38.5zM244 35q108 0 186 106v276q-66 71 -166 71q-77 0 -128.5 -52.5t-51.5 -177.5q0 -119 46 -171t114 -52z" />
    <glyph glyph-name="Emacron" unicode="&#x112;" horiz-adv-x="549" 
d="M201 795h201q18 0 18 -18v-2q0 -19 -18 -19h-201q-19 0 -19 19v2q0 18 19 18zM498 0h-387q-26 0 -26 26v648q0 26 26 26h373q21 0 21 -21v-2q0 -22 -21 -22h-346v-272h257q21 0 21 -21v-2q0 -21 -21 -21h-257v-295h360q21 0 21 -21v-2q0 -21 -21 -21z" />
    <glyph glyph-name="emacron" unicode="&#x113;" horiz-adv-x="507" 
d="M281 37q53 0 88.5 13.5t52 26.5t23.5 13q21 0 21 -19v-1q0 -14 -19 -27q-68 -47 -171 -47q-117 0 -180.5 70t-63.5 193q0 121 65 194.5t166 73.5q100 0 157 -60.5t57 -183.5q0 -24 -24 -24h-370q0 -109 50 -165.5t148 -56.5zM84 297h343q-4 192 -164 192q-74 0 -122 -49
t-57 -143zM167 648h193q17 0 17 -17v-2q0 -18 -17 -18h-193q-18 0 -18 18v2q0 17 18 17z" />
    <glyph glyph-name="Ebreve" unicode="&#x114;" horiz-adv-x="549" 
d="M498 0h-387q-26 0 -26 26v648q0 26 26 26h373q21 0 21 -21v-2q0 -22 -21 -22h-346v-272h257q21 0 21 -21v-2q0 -21 -21 -21h-257v-295h360q21 0 21 -21v-2q0 -21 -21 -21zM300 731q-85 0 -113 77q-4 14 -0.5 22.5t14.5 8.5h1q10 0 21 -19q1 -3 2 -4q25 -46 75 -46t75 46
q16 21 23 23h1q11 0 14.5 -8.5t-0.5 -22.5q-28 -77 -113 -77z" />
    <glyph glyph-name="ebreve" unicode="&#x115;" horiz-adv-x="507" 
d="M281 37q53 0 88.5 13.5t52 26.5t23.5 13q21 0 21 -19v-1q0 -14 -19 -27q-68 -47 -171 -47q-117 0 -180.5 70t-63.5 193q0 121 65 194.5t166 73.5q100 0 157 -60.5t57 -183.5q0 -24 -24 -24h-370q0 -109 50 -165.5t148 -56.5zM84 297h343q-4 192 -164 192q-74 0 -122 -49
t-57 -143zM262 575q-42 0 -71 23.5t-42 61.5q-5 14 -0.5 23t14.5 9h1q11 0 23 -24q26 -54 75 -54t75 54q12 24 23 24h1q10 0 14.5 -9t-0.5 -23q-13 -38 -42 -61.5t-71 -23.5z" />
    <glyph glyph-name="Edotaccent" unicode="&#x116;" horiz-adv-x="549" 
d="M498 0h-387q-26 0 -26 26v648q0 26 26 26h373q21 0 21 -21v-2q0 -22 -21 -22h-346v-272h257q21 0 21 -21v-2q0 -21 -21 -21h-257v-295h360q21 0 21 -21v-2q0 -21 -21 -21zM335 774q0 -14 -10.5 -24t-23.5 -10q-14 0 -24 10t-10 24t10 24t24 10t24 -10t10 -24z" />
    <glyph glyph-name="edotaccent" unicode="&#x117;" horiz-adv-x="507" 
d="M281 37q53 0 88.5 13.5t52 26.5t23.5 13q21 0 21 -19v-1q0 -14 -19 -27q-68 -47 -171 -47q-117 0 -180.5 70t-63.5 193q0 121 65 194.5t166 73.5q100 0 157 -60.5t57 -183.5q0 -24 -24 -24h-370q0 -109 50 -165.5t148 -56.5zM84 297h343q-4 192 -164 192q-74 0 -122 -49
t-57 -143zM297 635q0 -14 -10 -24t-24 -10t-24 10t-10 24t10 24t24 10q13 0 23.5 -10.5t10.5 -23.5z" />
    <glyph glyph-name="Eogonek" unicode="&#x118;" horiz-adv-x="549" 
d="M498 0h-20q-61 -47 -61 -85q0 -43 49 -43h21q15 0 15 -15v-1q0 -14 -15 -17q-13 -3 -35 -3q-38 0 -60 19t-22 52q0 49 63 93h-322q-26 0 -26 26v648q0 26 26 26h373q21 0 21 -21v-2q0 -22 -21 -22h-346v-272h257q21 0 21 -21v-2q0 -21 -21 -21h-257v-295h360q21 0 21 -21
v-2q0 -21 -21 -21z" />
    <glyph glyph-name="eogonek" unicode="&#x119;" horiz-adv-x="507" 
d="M276 -4q-117 0 -180.5 70t-63.5 193q0 121 65 194.5t166 73.5q100 0 157 -60.5t57 -183.5q0 -24 -24 -24h-370q0 -109 50 -165.5t148 -56.5q53 0 88.5 13.5t52 26.5t23.5 13q21 0 21 -19v-1q0 -15 -20 -28q-76 -48 -100 -74.5t-24 -52.5q0 -43 49 -43h21q15 0 15 -15v-1
q0 -14 -15 -17q-14 -3 -35 -3q-38 0 -60 19t-22 52q0 56 63 93q-36 -4 -62 -4zM84 297h343q-4 192 -164 192q-74 0 -122 -49t-57 -143z" />
    <glyph glyph-name="Ecaron" unicode="&#x11a;" horiz-adv-x="549" 
d="M498 0h-387q-26 0 -26 26v648q0 26 26 26h373q21 0 21 -21v-2q0 -22 -21 -22h-346v-272h257q21 0 21 -21v-2q0 -21 -21 -21h-257v-295h360q21 0 21 -21v-2q0 -21 -21 -21zM396 812l-63 -67q-14 -16 -31 -16h-4q-17 0 -31 16l-62 67q-10 11 -6.5 21t14.5 10h1q7 0 18 -9
l68 -63l69 63q11 9 18 9h1q11 0 14.5 -10t-6.5 -21z" />
    <glyph glyph-name="ecaron" unicode="&#x11b;" horiz-adv-x="507" 
d="M281 37q53 0 88.5 13.5t52 26.5t23.5 13q21 0 21 -19v-1q0 -14 -19 -27q-68 -47 -171 -47q-117 0 -180.5 70t-63.5 193q0 121 65 194.5t166 73.5q100 0 157 -60.5t57 -183.5q0 -24 -24 -24h-370q0 -109 50 -165.5t148 -56.5zM84 297h343q-4 192 -164 192q-74 0 -122 -49
t-57 -143zM366 675l-71 -88q-15 -18 -31 -18h-2q-15 0 -31 18l-74 88q-9 12 -5 21.5t15 9.5h1q9 0 18 -11l75 -80l76 80q9 11 18 11h1q11 0 15 -9.5t-5 -21.5z" />
    <glyph glyph-name="Gcircumflex" unicode="&#x11c;" horiz-adv-x="668" 
d="M594 317v-237q0 -27 -28 -41q-84 -43 -203 -43q-151 0 -236.5 91t-85.5 265q0 170 91.5 261t235.5 91q118 0 185 -44q20 -13 20 -32v-1q0 -23 -21 -23q-9 0 -27 14t-57 28.5t-100 14.5q-122 0 -196 -77.5t-74 -229.5q0 -156 69 -235.5t196 -79.5q104 0 178 39v221h-137
q-21 0 -21 21v2q0 21 21 21h164q26 0 26 -26zM395 827l63 -67q10 -11 6.5 -21t-14.5 -10h-1q-7 0 -18 9l-69 63l-68 -63q-11 -9 -18 -9h-1q-11 0 -14.5 10t6.5 21l62 67q14 16 31 16h4q17 0 31 -16z" />
    <glyph glyph-name="gcircumflex" unicode="&#x11d;" horiz-adv-x="552" 
d="M430 9v87q-78 -92 -193 -92q-86 0 -145 62t-59 194q0 71 19.5 124.5t52.5 83.5t71 44.5t81 14.5q109 0 173 -64q0 61 28 61h1q22 0 22 -24v-494q0 -83 -62.5 -127.5t-158.5 -44.5q-112 0 -180 37q-20 11 -20 26v1q0 21 20 21q9 0 27 -11.5t55.5 -23t91.5 -11.5
q79 0 127.5 33t48.5 103zM244 43q108 0 186 105v268q-67 72 -164 72q-35 0 -65 -10.5t-57.5 -34t-43.5 -70t-16 -111.5q0 -118 46 -168.5t114 -50.5zM301 688l71 -88q9 -12 5 -21.5t-15 -9.5h-1q-9 0 -18 11l-76 80l-75 -80q-9 -11 -18 -11h-1q-11 0 -15 9.5t5 21.5l74 88
q16 18 31 18h2q16 0 31 -18z" />
    <glyph glyph-name="Gbreve" unicode="&#x11e;" horiz-adv-x="668" 
d="M594 317v-237q0 -27 -28 -41q-84 -43 -203 -43q-151 0 -236.5 91t-85.5 265q0 170 91.5 261t235.5 91q118 0 185 -44q20 -13 20 -32v-1q0 -23 -21 -23q-9 0 -27 14t-57 28.5t-100 14.5q-122 0 -196 -77.5t-74 -229.5q0 -156 69 -235.5t196 -79.5q104 0 178 39v221h-137
q-21 0 -21 21v2q0 21 21 21h164q26 0 26 -26zM364 731q-85 0 -113 77q-4 14 -0.5 22.5t14.5 8.5h1q10 0 21 -19q1 -3 2 -4q25 -46 75 -46t75 46q16 21 23 23h1q11 0 14.5 -8.5t-0.5 -22.5q-28 -77 -113 -77z" />
    <glyph glyph-name="gbreve" unicode="&#x11f;" horiz-adv-x="552" 
d="M430 9v87q-78 -92 -193 -92q-86 0 -145 62t-59 194q0 71 19.5 124.5t52.5 83.5t71 44.5t81 14.5q109 0 173 -64q0 61 28 61h1q22 0 22 -24v-494q0 -83 -62.5 -127.5t-158.5 -44.5q-112 0 -180 37q-20 11 -20 26v1q0 21 20 21q9 0 27 -11.5t55.5 -23t91.5 -11.5
q79 0 127.5 33t48.5 103zM244 43q108 0 186 105v268q-67 72 -164 72q-35 0 -65 -10.5t-57.5 -34t-43.5 -70t-16 -111.5q0 -118 46 -168.5t114 -50.5zM269 575q-42 0 -71 23.5t-42 61.5q-5 14 -0.5 23t14.5 9h1q11 0 23 -24q26 -54 75 -54t75 54q12 24 23 24h1q10 0 14.5 -9
t-0.5 -23q-13 -38 -42 -61.5t-71 -23.5z" />
    <glyph glyph-name="Gdotaccent" unicode="&#x120;" horiz-adv-x="668" 
d="M594 317v-237q0 -27 -28 -41q-84 -43 -203 -43q-151 0 -236.5 91t-85.5 265q0 170 91.5 261t235.5 91q118 0 185 -44q20 -13 20 -32v-1q0 -23 -21 -23q-9 0 -27 14t-57 28.5t-100 14.5q-122 0 -196 -77.5t-74 -229.5q0 -156 69 -235.5t196 -79.5q104 0 178 39v221h-137
q-21 0 -21 21v2q0 21 21 21h164q26 0 26 -26zM398 774q0 -14 -10 -24t-24 -10t-24 10t-10 24t10 24t24 10t24 -10t10 -24z" />
    <glyph glyph-name="gdotaccent" unicode="&#x121;" horiz-adv-x="552" 
d="M430 9v87q-78 -92 -193 -92q-86 0 -145 62t-59 194q0 71 19.5 124.5t52.5 83.5t71 44.5t81 14.5q109 0 173 -64q0 61 28 61h1q22 0 22 -24v-494q0 -83 -62.5 -127.5t-158.5 -44.5q-112 0 -180 37q-20 11 -20 26v1q0 21 20 21q9 0 27 -11.5t55.5 -23t91.5 -11.5
q79 0 127.5 33t48.5 103zM244 43q108 0 186 105v268q-67 72 -164 72q-35 0 -65 -10.5t-57.5 -34t-43.5 -70t-16 -111.5q0 -118 46 -168.5t114 -50.5zM303 635q0 -14 -10 -24t-24 -10t-24 10t-10 24t10 24t24 10q13 0 23.5 -10.5t10.5 -23.5z" />
    <glyph glyph-name="Gcommaaccent" unicode="&#x122;" horiz-adv-x="668" 
d="M594 317v-237q0 -27 -28 -41q-84 -43 -203 -43q-151 0 -236.5 91t-85.5 265q0 170 91.5 261t235.5 91q118 0 185 -44q20 -13 20 -32v-1q0 -23 -21 -23q-9 0 -27 14t-57 28.5t-100 14.5q-122 0 -196 -77.5t-74 -229.5q0 -156 69 -235.5t196 -79.5q104 0 178 39v221h-137
q-21 0 -21 21v2q0 21 21 21h164q26 0 26 -26zM402 -84q0 -69 -63 -86q-19 -5 -19 11v1q0 11 16 18q24 11 24 25q0 4 -2 7.5t-3.5 5t-6 4.5t-5.5 4q-14 9 -14 29q0 13 10 22t25 9q38 0 38 -50z" />
    <glyph glyph-name="gcommaaccent" unicode="&#x123;" horiz-adv-x="552" 
d="M430 9v87q-78 -92 -193 -92q-86 0 -145 62t-59 194q0 71 19.5 124.5t52.5 83.5t71 44.5t81 14.5q109 0 173 -64q0 61 28 61h1q22 0 22 -24v-494q0 -83 -62.5 -127.5t-158.5 -44.5q-112 0 -180 37q-20 11 -20 26v1q0 21 20 21q9 0 27 -11.5t55.5 -23t91.5 -11.5
q79 0 127.5 33t48.5 103zM244 43q108 0 186 105v268q-67 72 -164 72q-35 0 -65 -10.5t-57.5 -34t-43.5 -70t-16 -111.5q0 -118 46 -168.5t114 -50.5zM235 638q0 69 63 86q19 5 19 -11v-1q0 -11 -16 -18q-24 -11 -24 -25q0 -4 2 -7.5t3.5 -5t6 -4.5t5.5 -4q14 -9 14 -29
q0 -13 -10 -22t-25 -9q-38 0 -38 50z" />
    <glyph glyph-name="Hcircumflex" unicode="&#x124;" horiz-adv-x="681" 
d="M138 339v-316q0 -26 -26 -26h-1q-26 0 -26 26v654q0 26 26 26h1q26 0 26 -26v-294h405v294q0 26 26 26h2q25 0 25 -26v-654q0 -26 -25 -26h-2q-26 0 -26 26v316h-405zM371 827l63 -67q10 -11 6.5 -21t-14.5 -10h-1q-7 0 -18 9l-69 63l-68 -63q-11 -9 -18 -9h-1
q-11 0 -14.5 10t6.5 21l62 67q14 16 31 16h4q17 0 31 -16z" />
    <glyph glyph-name="hcircumflex" unicode="&#x125;" horiz-adv-x="551" 
d="M485 388v-367q0 -24 -24 -24h-2q-24 0 -24 24v361q0 58 -27.5 80.5t-76.5 22.5q-95 0 -210 -88v-376q0 -24 -24 -24h-2q-24 0 -24 24v658q0 24 22 24h1q14 0 20.5 -9.5t6.5 -36.5v-219q112 89 229 89q135 0 135 -139zM312 844l63 -67q10 -11 6.5 -21t-14.5 -10h-1
q-7 0 -18 9l-69 63l-68 -63q-11 -9 -18 -9h-1q-11 0 -14.5 10t6.5 21l62 67q14 16 31 16h4q17 0 31 -16z" />
    <glyph glyph-name="Hbar" unicode="&#x126;" horiz-adv-x="681" 
d="M138 339v-316q0 -26 -26 -26h-1q-26 0 -26 26v495h-63q-20 0 -20 20v2q0 19 20 19h63v118q0 26 26 26h1q26 0 26 -26v-118h405v118q0 26 26 26h2q25 0 25 -26v-118h64q19 0 19 -19v-2q0 -20 -19 -20h-64v-495q0 -26 -25 -26h-2q-26 0 -26 26v316h-405zM138 383h405v135
h-405v-135z" />
    <glyph glyph-name="hbar" unicode="&#x127;" horiz-adv-x="551" 
d="M94 703q14 0 20.5 -9.5t6.5 -36.5v-37h143q17 0 17 -17v-2q0 -18 -17 -18h-143v-145q112 89 229 89q135 0 135 -139v-367q0 -24 -24 -24h-2q-24 0 -24 24v361q0 58 -27.5 80.5t-76.5 22.5q-95 0 -210 -88v-376q0 -24 -24 -24h-2q-24 0 -24 24v562h-52q-7 0 -12.5 5.5
t-5.5 12.5v2q0 17 18 17h52v59q0 24 22 24h1z" />
    <glyph glyph-name="Imacron" unicode="&#x12a;" horiz-adv-x="228" 
d="M21 789h189q18 0 18 -18v-2q0 -19 -18 -19h-189q-19 0 -19 19v2q0 18 19 18zM87 23v654q0 26 26 26h2q26 0 26 -26v-654q0 -26 -26 -26h-2q-26 0 -26 26z" />
    <glyph glyph-name="imacron" unicode="&#x12b;" horiz-adv-x="197" 
d="M24 648h150q17 0 17 -17v-2q0 -18 -17 -18h-150q-18 0 -18 18v2q0 17 18 17zM123 478v-457q0 -24 -24 -24h-2q-24 0 -24 24v479q0 24 22 24h1q14 0 20.5 -9.5t6.5 -36.5z" />
    <glyph glyph-name="Iogonek" unicode="&#x12e;" horiz-adv-x="228" 
d="M87 -2v679q0 26 26 26h2q26 0 26 -26v-654q0 -14 -9 -23q-30 -30 -41.5 -47t-11.5 -38q0 -43 49 -43h21q15 0 15 -15v-1q0 -14 -15 -17q-13 -3 -35 -3q-38 0 -60 19t-22 52q0 47 55 91z" />
    <glyph glyph-name="iogonek" unicode="&#x12f;" horiz-adv-x="197" 
d="M133 635q0 -14 -10 -24t-24 -10t-24 10t-10 24t10 24t24 10t24 -10t10 -24zM73 22v478q0 24 22 24h1q14 0 20.5 -9.5t6.5 -36.5v-456q0 -14 -8 -22q-30 -30 -41.5 -47t-11.5 -38q0 -43 49 -43h21q15 0 15 -15v-1q0 -14 -15 -17q-14 -3 -35 -3q-38 0 -60 19t-22 52
q0 49 64 96q-6 8 -6 19z" />
    <glyph glyph-name="Idotaccent" unicode="&#x130;" horiz-adv-x="228" 
d="M87 23v654q0 26 26 26h2q26 0 26 -26v-654q0 -26 -26 -26h-2q-26 0 -26 26zM149 774q0 -14 -10.5 -24t-23.5 -10q-14 0 -24 10t-10 24t10 24t24 10t24 -10t10 -24z" />
    <glyph glyph-name="dotlessi" unicode="&#x131;" horiz-adv-x="197" 
d="M123 478v-457q0 -24 -24 -24h-2q-24 0 -24 24v479q0 24 22 24h1q14 0 20.5 -9.5t6.5 -36.5z" />
    <glyph glyph-name="Jcircumflex" unicode="&#x134;" horiz-adv-x="409" 
d="M328 677v-517q0 -79 -44 -122t-131 -43q-66 0 -110 22q-28 14 -28 36v1q0 10 6.5 16.5t16.5 6.5q8 0 20.5 -10t35 -19.5t56.5 -9.5q124 0 124 123v516q0 26 26 26h2q26 0 26 -26zM333 827l63 -67q10 -11 6.5 -21t-14.5 -10h-1q-7 0 -18 9l-69 63l-68 -63q-11 -9 -18 -9
h-1q-11 0 -14.5 10t6.5 21l62 67q14 16 31 16h4q17 0 31 -16z" />
    <glyph glyph-name="jcircumflex" unicode="&#x135;" horiz-adv-x="197" 
d="M73 -52v552q0 24 22 24h1q14 0 20.5 -9.5t6.5 -36.5v-532q0 -110 -105 -110q-15 0 -23 1q-22 3 -22 19v2q0 16 21 18q46 2 62.5 17.5t16.5 54.5zM131 687l71 -88q9 -12 5 -21.5t-15 -9.5h-1q-9 0 -18 11l-76 80l-75 -80q-9 -11 -18 -11h-1q-11 0 -15 9.5t5 21.5l74 88
q16 18 31 18h2q16 0 31 -18z" />
    <glyph glyph-name="Kcommaaccent" unicode="&#x136;" horiz-adv-x="616" 
d="M112 -3h-1q-26 0 -26 26v655q0 25 26 25h1q26 0 26 -25v-380l366 389q15 16 26 16h1q15 0 20 -13t-10 -30l-235 -246l264 -374q11 -17 4.5 -30t-21.5 -13h-1q-14 0 -27 19l-254 361l-133 -141v-213q0 -26 -26 -26zM344 -84q0 -69 -63 -86q-19 -5 -19 11v1q0 11 16 18
q24 11 24 25q0 4 -2 7.5t-3.5 5t-6 4.5t-5.5 4q-14 9 -14 29q0 13 10 22t25 9q38 0 38 -50z" />
    <glyph glyph-name="kcommaaccent" unicode="&#x137;" horiz-adv-x="474" 
d="M94 703q14 0 20.5 -9.5t6.5 -36.5v-431l264 284q12 14 23 14h1q13 0 18.5 -12t-6.5 -26l-173 -182l191 -269q9 -14 2.5 -26t-20.5 -12h-1q-12 0 -24 17l-181 256l-94 -101v-148q0 -24 -24 -24h-2q-24 0 -24 24v658q0 24 22 24h1zM290 -84q0 -69 -63 -86q-19 -5 -19 11v1
q0 11 16 18q24 11 24 25q0 4 -2 7.5t-3.5 5t-6 4.5t-5.5 4q-14 9 -14 29q0 13 10 22t25 9q38 0 38 -50z" />
    <glyph glyph-name="Lacute" unicode="&#x139;" horiz-adv-x="537" 
d="M85 26v651q0 26 26 26h1q26 0 26 -26v-633h347q21 0 21 -21v-2q0 -21 -21 -21h-374q-11 0 -18.5 8t-7.5 18zM114 728h-1q-11 0 -14.5 9.5t5.5 24.5l44 70q10 16 23 16h1q16 0 22 -13.5t-6 -28.5l-54 -65q-11 -13 -20 -13z" />
    <glyph glyph-name="lacute" unicode="&#x13a;" horiz-adv-x="194" 
d="M122 657v-636q0 -24 -24 -24h-2q-24 0 -24 24v658q0 24 22 24h1q14 0 20.5 -9.5t6.5 -36.5zM103 736h-1q-11 0 -14.5 9.5t5.5 24.5l44 70q10 16 23 16h1q16 0 22 -13.5t-6 -28.5l-54 -65q-11 -13 -20 -13z" />
    <glyph glyph-name="Lcommaaccent" unicode="&#x13b;" horiz-adv-x="537" 
d="M85 26v651q0 26 26 26h1q26 0 26 -26v-633h347q21 0 21 -21v-2q0 -21 -21 -21h-374q-11 0 -18.5 8t-7.5 18zM332 -84q0 -69 -63 -86q-19 -5 -19 11v1q0 11 16 18q24 11 24 25q0 4 -2 7.5t-3.5 5t-6 4.5t-5.5 4q-14 9 -14 29q0 13 10 22t25 9q38 0 38 -50z" />
    <glyph glyph-name="lcommaaccent" unicode="&#x13c;" horiz-adv-x="194" 
d="M122 657v-636q0 -24 -24 -24h-2q-24 0 -24 24v658q0 24 22 24h1q14 0 20.5 -9.5t6.5 -36.5zM136 -84q0 -69 -63 -86q-19 -5 -19 11v1q0 11 16 18q24 11 24 25q0 4 -2 7.5t-3.5 5t-6 4.5t-5.5 4q-14 9 -14 29q0 13 10 22t25 9q38 0 38 -50z" />
    <glyph glyph-name="Lcaron" unicode="&#x13d;" horiz-adv-x="537" 
d="M326 563h-2q-19 0 -17 20l7 95q2 26 22 26h4q29 0 22 -33l-20 -94q-4 -14 -16 -14zM85 26v651q0 26 26 26h1q26 0 26 -26v-633h347q21 0 21 -21v-2q0 -21 -21 -21h-374q-11 0 -18.5 8t-7.5 18z" />
    <glyph glyph-name="lcaron" unicode="&#x13e;" horiz-adv-x="194" 
d="M196 563h-2q-19 0 -17 20l7 95q2 26 22 26h2q29 0 22 -33l-18 -94q-4 -14 -16 -14zM122 657v-636q0 -24 -24 -24h-2q-24 0 -24 24v658q0 24 22 24h1q14 0 20.5 -9.5t6.5 -36.5z" />
    <glyph glyph-name="Lslash" unicode="&#x141;" horiz-adv-x="538" 
d="M364 384l-225 -97v-243h347q21 0 21 -21v-2q0 -21 -21 -21h-374q-10 0 -18 8t-8 18v239l-56 -24q-24 -9 -31 9q-8 20 13 29l74 31v367q0 26 26 26h1q26 0 26 -26v-344l207 89q23 9 31 -9t-13 -29z" />
    <glyph glyph-name="lslash" unicode="&#x142;" horiz-adv-x="195" 
d="M123 657v-210l55 37q15 11 26 -5q10 -15 -6 -25l-75 -51v-382q0 -24 -24 -24h-2q-24 0 -24 24v348l-51 -34q-16 -11 -25 4q-10 16 5 26l71 48v266q0 24 22 24h1q14 0 20.5 -9.5t6.5 -36.5z" />
    <glyph glyph-name="Nacute" unicode="&#x143;" horiz-adv-x="676" 
d="M526 23l-389 606h-2v-607q0 -25 -25 -25h-1q-24 0 -24 25v651q0 27 26 27h16q24 0 40 -25l373 -579h1v582q0 25 25 25h1q25 0 25 -25v-653q0 -27 -26 -27h-3q-21 0 -37 25zM348 728h-1q-11 0 -14.5 9.5t5.5 24.5l44 70q10 16 23 16h1q16 0 22 -13.5t-6 -28.5l-54 -65
q-11 -13 -20 -13z" />
    <glyph glyph-name="nacute" unicode="&#x144;" horiz-adv-x="551" 
d="M485 388v-367q0 -24 -24 -24h-2q-24 0 -24 24v361q0 58 -27.5 80.5t-76.5 22.5q-95 0 -210 -88v-376q0 -24 -24 -24h-2q-24 0 -24 24v479q0 24 22 24h1q14 0 20.5 -9.5t6.5 -36.5v-40q112 89 229 89q135 0 135 -139zM375 664l-74 -85q-9 -10 -17 -10h-1q-11 0 -15.5 9.5
t2.5 19.5l60 88q15 22 30 22h1q16 0 21.5 -14t-7.5 -30z" />
    <glyph glyph-name="Ncommaaccent" unicode="&#x145;" horiz-adv-x="676" 
d="M526 23l-389 606h-2v-607q0 -25 -25 -25h-1q-24 0 -24 25v651q0 27 26 27h16q24 0 40 -25l373 -579h1v582q0 25 25 25h1q25 0 25 -25v-653q0 -27 -26 -27h-3q-21 0 -37 25zM376 -84q0 -69 -63 -86q-19 -5 -19 11v1q0 11 16 18q24 11 24 25q0 4 -2 7.5t-3.5 5t-6 4.5
t-5.5 4q-14 9 -14 29q0 13 10 22t25 9q38 0 38 -50z" />
    <glyph glyph-name="ncommaaccent" unicode="&#x146;" horiz-adv-x="551" 
d="M485 388v-367q0 -24 -24 -24h-2q-24 0 -24 24v361q0 58 -27.5 80.5t-76.5 22.5q-95 0 -210 -88v-376q0 -24 -24 -24h-2q-24 0 -24 24v479q0 24 22 24h1q14 0 20.5 -9.5t6.5 -36.5v-40q112 89 229 89q135 0 135 -139zM320 -84q0 -69 -63 -86q-19 -5 -19 11v1q0 11 16 18
q24 11 24 25q0 4 -2 7.5t-3.5 5t-6 4.5t-5.5 4q-14 9 -14 29q0 13 10 22t25 9q38 0 38 -50z" />
    <glyph glyph-name="Ncaron" unicode="&#x147;" horiz-adv-x="676" 
d="M526 23l-389 606h-2v-607q0 -25 -25 -25h-1q-24 0 -24 25v651q0 27 26 27h16q24 0 40 -25l373 -579h1v582q0 25 25 25h1q25 0 25 -25v-653q0 -27 -26 -27h-3q-21 0 -37 25zM444 812l-63 -67q-14 -16 -31 -16h-4q-17 0 -31 16l-62 67q-10 11 -6.5 21t14.5 10h1q7 0 18 -9
l68 -63l69 63q11 9 18 9h1q11 0 14.5 -10t-6.5 -21z" />
    <glyph glyph-name="ncaron" unicode="&#x148;" horiz-adv-x="551" 
d="M485 388v-367q0 -24 -24 -24h-2q-24 0 -24 24v361q0 58 -27.5 80.5t-76.5 22.5q-95 0 -210 -88v-376q0 -24 -24 -24h-2q-24 0 -24 24v479q0 24 22 24h1q14 0 20.5 -9.5t6.5 -36.5v-40q112 89 229 89q135 0 135 -139zM385 675l-71 -88q-15 -18 -31 -18h-2q-15 0 -31 18
l-74 88q-9 12 -5 21.5t15 9.5h1q9 0 18 -11l75 -80l76 80q9 11 18 11h1q11 0 15 -9.5t-5 -21.5z" />
    <glyph glyph-name="Omacron" unicode="&#x14c;" horiz-adv-x="710" 
d="M255 795h201q18 0 18 -18v-2q0 -19 -18 -19h-201q-19 0 -19 19v2q0 18 19 18zM669 350q0 -166 -89.5 -260t-223.5 -94q-135 0 -225 94t-90 260t90 260t225 94q134 0 223.5 -94.5t89.5 -259.5zM96 349q0 -149 72.5 -230t187.5 -81q113 0 185.5 81.5t72.5 229.5
q0 149 -72.5 231t-185.5 82q-115 0 -187.5 -82t-72.5 -231z" />
    <glyph glyph-name="omacron" unicode="&#x14d;" horiz-adv-x="549" 
d="M517 261q0 -123 -66.5 -194t-176.5 -71q-109 0 -175.5 71.5t-66.5 193.5t66.5 194t175.5 72q110 0 176.5 -72t66.5 -194zM83 261q0 -107 51 -166.5t140 -59.5q90 0 141 59.5t51 166.5q0 106 -51.5 166.5t-140.5 60.5t-140 -60.5t-51 -166.5zM178 648h193q17 0 17 -17v-2
q0 -18 -17 -18h-193q-18 0 -18 18v2q0 17 18 17z" />
    <glyph glyph-name="Ohungarumlaut" unicode="&#x150;" horiz-adv-x="710" 
d="M669 350q0 -166 -89.5 -260t-223.5 -94q-135 0 -225 94t-90 260t90 260t225 94q134 0 223.5 -94.5t89.5 -259.5zM96 349q0 -149 72.5 -230t187.5 -81q113 0 185.5 81.5t72.5 229.5q0 149 -72.5 231t-185.5 82q-115 0 -187.5 -82t-72.5 -231zM297 728h-1q-10 0 -14 8t0 18
l31 71q9 23 25 23h1q14 0 20 -11.5t-3 -27.5l-42 -69q-7 -12 -17 -12zM415 729h-1q-10 0 -14 7.5t0 18.5l31 71q9 23 25 23h1q14 0 20 -11.5t-3 -27.5l-42 -69q-7 -12 -17 -12z" />
    <glyph glyph-name="ohungarumlaut" unicode="&#x151;" horiz-adv-x="549" 
d="M517 261q0 -123 -66.5 -194t-176.5 -71q-109 0 -175.5 71.5t-66.5 193.5t66.5 194t175.5 72q110 0 176.5 -72t66.5 -194zM83 261q0 -107 51 -166.5t140 -59.5q90 0 141 59.5t51 166.5q0 106 -51.5 166.5t-140.5 60.5t-140 -60.5t-51 -166.5zM218 569h-1q-10 0 -14 6.5
t1 19.5l40 91q10 22 26 22h1q15 0 20 -11t-3 -25l-50 -87q-8 -16 -20 -16zM336 569h-1q-10 0 -14 6.5t1 19.5l40 91q10 22 26 22h1q15 0 20 -11t-3 -25l-50 -87q-8 -16 -20 -16z" />
    <glyph glyph-name="OE" unicode="&#x152;" horiz-adv-x="955" 
d="M500 44v611h-106q-154 0 -226 -71t-72 -234t72 -234.5t226 -71.5h106zM904 0h-511q-177 0 -264.5 83t-87.5 266t88 267t265 84h496q21 0 21 -21v-2q0 -22 -21 -22h-336v-272h247q21 0 21 -21v-2q0 -21 -21 -21h-247v-295h350q21 0 21 -21v-2q0 -21 -21 -21z" />
    <glyph glyph-name="oe" unicode="&#x153;" horiz-adv-x="941" 
d="M274 -4q-109 0 -175.5 71.5t-66.5 193.5t66.5 194t175.5 72q79 0 135 -38.5t82 -108.5q26 69 80 108t126 39q100 0 157 -60.5t57 -183.5q0 -24 -24 -24h-370q0 -109 50 -165.5t148 -56.5q53 0 88.5 13.5t52 26.5t23.5 13q21 0 21 -19v-1q0 -14 -19 -27q-68 -47 -171 -47
q-84 0 -140 37t-80 105q-26 -68 -82 -105t-134 -37zM83 261q0 -107 51 -166.5t140 -59.5q90 0 141 59.5t51 166.5q0 106 -51.5 166.5t-140.5 60.5t-140 -60.5t-51 -166.5zM518 297h343q-4 192 -164 192q-74 0 -122 -49t-57 -143z" />
    <glyph glyph-name="Racute" unicode="&#x154;" horiz-adv-x="598" 
d="M526 -3h-1q-15 0 -26 20l-164 303q-29 -3 -61 -3h-133v-294q0 -26 -26 -26h-2q-26 0 -26 26v651q0 26 26 26h161q240 0 240 -190q0 -142 -127 -179l159 -295q8 -17 1 -28t-21 -11zM272 656h-131v-296h131q94 0 141 32.5t47 115.5q0 80 -49 114t-139 34zM287 728h-1
q-11 0 -14.5 9.5t5.5 24.5l44 70q10 16 23 16h1q16 0 22 -13.5t-6 -28.5l-54 -65q-11 -13 -20 -13z" />
    <glyph glyph-name="racute" unicode="&#x155;" horiz-adv-x="341" 
d="M121 478v-47q77 94 171 94q27 0 27 -21v-1q0 -19 -27 -22q-54 -6 -91.5 -27t-79.5 -70v-363q0 -24 -24 -24h-2q-24 0 -24 24v479q0 24 22 24h1q14 0 20.5 -9.5t6.5 -36.5zM290 664l-74 -85q-9 -10 -17 -10h-1q-11 0 -15.5 9.5t2.5 19.5l60 88q15 22 30 22h1
q16 0 21.5 -14t-7.5 -30z" />
    <glyph glyph-name="Rcommaaccent" unicode="&#x156;" horiz-adv-x="598" 
d="M526 -3h-1q-15 0 -26 20l-164 303q-29 -3 -61 -3h-133v-294q0 -26 -26 -26h-2q-26 0 -26 26v651q0 26 26 26h161q240 0 240 -190q0 -142 -127 -179l159 -295q8 -17 1 -28t-21 -11zM272 656h-131v-296h131q94 0 141 32.5t47 115.5q0 80 -49 114t-139 34zM339 -84
q0 -69 -63 -86q-19 -5 -19 11v1q0 11 16 18q24 11 24 25q0 4 -2 7.5t-3.5 5t-6 4.5t-5.5 4q-14 9 -14 29q0 13 10 22t25 9q38 0 38 -50z" />
    <glyph glyph-name="rcommaaccent" unicode="&#x157;" horiz-adv-x="341" 
d="M121 478v-47q77 94 171 94q27 0 27 -21v-1q0 -19 -27 -22q-54 -6 -91.5 -27t-79.5 -70v-363q0 -24 -24 -24h-2q-24 0 -24 24v479q0 24 22 24h1q14 0 20.5 -9.5t6.5 -36.5zM134 -84q0 -69 -63 -86q-19 -5 -19 11v1q0 11 16 18q24 11 24 25q0 4 -2 7.5t-3.5 5t-6 4.5
t-5.5 4q-14 9 -14 29q0 13 10 22t25 9q38 0 38 -50z" />
    <glyph glyph-name="Rcaron" unicode="&#x158;" horiz-adv-x="598" 
d="M526 -3h-1q-15 0 -26 20l-164 303q-29 -3 -61 -3h-133v-294q0 -26 -26 -26h-2q-26 0 -26 26v651q0 26 26 26h161q240 0 240 -190q0 -142 -127 -179l159 -295q8 -17 1 -28t-21 -11zM272 656h-131v-296h131q94 0 141 32.5t47 115.5q0 80 -49 114t-139 34zM381 812l-63 -67
q-14 -16 -31 -16h-4q-17 0 -31 16l-62 67q-10 11 -6.5 21t14.5 10h1q7 0 18 -9l68 -63l69 63q11 9 18 9h1q11 0 14.5 -10t-6.5 -21z" />
    <glyph glyph-name="rcaron" unicode="&#x159;" horiz-adv-x="341" 
d="M121 478v-47q77 94 171 94q27 0 27 -21v-1q0 -19 -27 -22q-54 -6 -91.5 -27t-79.5 -70v-363q0 -24 -24 -24h-2q-24 0 -24 24v479q0 24 22 24h1q14 0 20.5 -9.5t6.5 -36.5zM300 675l-71 -88q-15 -18 -31 -18h-2q-15 0 -31 18l-74 88q-9 12 -5 21.5t15 9.5h1q9 0 18 -11
l75 -80l76 80q9 11 18 11h1q11 0 15 -9.5t-5 -21.5z" />
    <glyph glyph-name="Sacute" unicode="&#x15a;" horiz-adv-x="508" 
d="M238 -4q-128 0 -195 53q-21 17 -21 34v1q0 10 6 16.5t16 6.5q8 0 22 -10.5t29.5 -23.5t53 -23.5t88.5 -10.5q84 0 132.5 37t48.5 113q0 25 -5.5 44.5t-20 34.5t-26.5 24.5t-39 19t-41.5 14t-49.5 13.5q-103 27 -150 67t-47 120q0 78 55.5 128t155.5 50q104 0 166 -42
q22 -15 22 -34v-1q0 -22 -22 -22q-9 0 -21 8.5t-25.5 19.5t-45 19.5t-73.5 8.5q-81 0 -121 -36t-40 -95q0 -35 10.5 -59t35.5 -39.5t48.5 -24.5t66.5 -20q118 -31 168.5 -70t50.5 -124q0 -98 -62.5 -147.5t-169.5 -49.5zM252 728h-1q-11 0 -14.5 9.5t5.5 24.5l44 70
q10 16 23 16h1q16 0 22 -13.5t-6 -28.5l-54 -65q-11 -13 -20 -13z" />
    <glyph glyph-name="sacute" unicode="&#x15b;" horiz-adv-x="425" 
d="M391 151q0 -74 -47 -114.5t-142 -40.5q-86 0 -144 34q-25 15 -25 32v1q0 21 21 21q7 0 22.5 -12t47 -24.5t76.5 -12.5q142 0 142 112q0 46 -30 68t-110 35q-81 13 -122 44.5t-41 94.5q0 66 47.5 102t127.5 36q77 0 125 -25q26 -13 26 -30v-2q0 -21 -19 -21
q-7 0 -19.5 9.5t-40.5 19.5t-71 10q-129 0 -129 -95q0 -44 29.5 -65.5t106.5 -34.5q87 -14 128 -45t41 -97zM304 664l-74 -85q-9 -10 -17 -10h-1q-11 0 -15.5 9.5t2.5 19.5l60 88q15 22 30 22h1q16 0 21.5 -14t-7.5 -30z" />
    <glyph glyph-name="Scircumflex" unicode="&#x15c;" horiz-adv-x="508" 
d="M238 -4q-128 0 -195 53q-21 17 -21 34v1q0 10 6 16.5t16 6.5q8 0 22 -10.5t29.5 -23.5t53 -23.5t88.5 -10.5q84 0 132.5 37t48.5 113q0 25 -5.5 44.5t-20 34.5t-26.5 24.5t-39 19t-41.5 14t-49.5 13.5q-103 27 -150 67t-47 120q0 78 55.5 128t155.5 50q104 0 166 -42
q22 -15 22 -34v-1q0 -22 -22 -22q-9 0 -21 8.5t-25.5 19.5t-45 19.5t-73.5 8.5q-81 0 -121 -36t-40 -95q0 -35 10.5 -59t35.5 -39.5t48.5 -24.5t66.5 -20q118 -31 168.5 -70t50.5 -124q0 -98 -62.5 -147.5t-169.5 -49.5zM282 827l63 -67q10 -11 6.5 -21t-14.5 -10h-1
q-7 0 -18 9l-69 63l-68 -63q-11 -9 -18 -9h-1q-11 0 -14.5 10t6.5 21l62 67q14 16 31 16h4q17 0 31 -16z" />
    <glyph glyph-name="scircumflex" unicode="&#x15d;" horiz-adv-x="425" 
d="M391 151q0 -74 -47 -114.5t-142 -40.5q-86 0 -144 34q-25 15 -25 32v1q0 21 21 21q7 0 22.5 -12t47 -24.5t76.5 -12.5q142 0 142 112q0 46 -30 68t-110 35q-81 13 -122 44.5t-41 94.5q0 66 47.5 102t127.5 36q77 0 125 -25q26 -13 26 -30v-2q0 -21 -19 -21
q-7 0 -19.5 9.5t-40.5 19.5t-71 10q-129 0 -129 -95q0 -44 29.5 -65.5t106.5 -34.5q87 -14 128 -45t41 -97zM243 688l71 -88q9 -12 5 -21.5t-15 -9.5h-1q-9 0 -18 11l-76 80l-75 -80q-9 -11 -18 -11h-1q-11 0 -15 9.5t5 21.5l74 88q16 18 31 18h2q16 0 31 -18z" />
    <glyph glyph-name="Scedilla" unicode="&#x15e;" horiz-adv-x="508" 
d="M43 49q-21 17 -21 34v1q0 10 6 16.5t16 6.5q8 0 22 -10.5t29.5 -23.5t53 -23.5t88.5 -10.5q84 0 132.5 37t48.5 113q0 25 -5.5 44.5t-20 34.5t-26.5 24.5t-39 19t-41.5 14t-49.5 13.5q-103 27 -150 67t-47 120q0 78 55.5 128t155.5 50q104 0 166 -42q22 -15 22 -34v-1
q0 -22 -22 -22q-9 0 -21 8.5t-25.5 19.5t-45 19.5t-73.5 8.5q-81 0 -121 -36t-40 -95q0 -35 10.5 -59t35.5 -39.5t48.5 -24.5t66.5 -20q118 -31 168.5 -70t50.5 -124q0 -96 -59.5 -145t-161.5 -52v-36q38 -2 58.5 -19.5t20.5 -48.5t-23.5 -48.5t-59.5 -17.5t-59 14
q-12 8 -12 19v1q0 17 15 17q5 0 19.5 -7.5t33.5 -7.5q43 0 43 31q0 34 -50 34h-8q-15 0 -15 14v56q-109 4 -169 52z" />
    <glyph glyph-name="scedilla" unicode="&#x15f;" horiz-adv-x="425" 
d="M391 151q0 -71 -44 -111.5t-133 -43.5v-36q38 -2 58.5 -19.5t20.5 -48.5t-23.5 -48.5t-59.5 -17.5t-59 14q-12 8 -12 19v1q0 17 15 17q5 0 19.5 -7.5t33.5 -7.5q43 0 43 31q0 34 -50 34h-8q-15 0 -15 14v56q-69 4 -119 33q-25 15 -25 32v1q0 21 21 21q7 0 22.5 -12
t47 -24.5t76.5 -12.5q142 0 142 112q0 46 -30 68t-110 35q-81 13 -122 44.5t-41 94.5q0 66 47.5 102t127.5 36q77 0 125 -25q26 -13 26 -30v-2q0 -21 -19 -21q-7 0 -19.5 9.5t-40.5 19.5t-71 10q-129 0 -129 -95q0 -44 29.5 -65.5t106.5 -34.5q87 -14 128 -45t41 -97z" />
    <glyph glyph-name="Scaron" unicode="&#x160;" horiz-adv-x="508" 
d="M238 -4q-128 0 -195 53q-21 17 -21 34v1q0 10 6 16.5t16 6.5q8 0 22 -10.5t29.5 -23.5t53 -23.5t88.5 -10.5q84 0 132.5 37t48.5 113q0 25 -5.5 44.5t-20 34.5t-26.5 24.5t-39 19t-41.5 14t-49.5 13.5q-103 27 -150 67t-47 120q0 78 55.5 128t155.5 50q104 0 166 -42
q22 -15 22 -34v-1q0 -22 -22 -22q-9 0 -21 8.5t-25.5 19.5t-45 19.5t-73.5 8.5q-81 0 -121 -36t-40 -95q0 -35 10.5 -59t35.5 -39.5t48.5 -24.5t66.5 -20q118 -31 168.5 -70t50.5 -124q0 -98 -62.5 -147.5t-169.5 -49.5zM346 812l-63 -67q-14 -16 -31 -16h-4q-17 0 -31 16
l-62 67q-10 11 -6.5 21t14.5 10h1q7 0 18 -9l68 -63l69 63q11 9 18 9h1q11 0 14.5 -10t-6.5 -21z" />
    <glyph glyph-name="scaron" unicode="&#x161;" horiz-adv-x="425" 
d="M391 151q0 -74 -47 -114.5t-142 -40.5q-86 0 -144 34q-25 15 -25 32v1q0 21 21 21q7 0 22.5 -12t47 -24.5t76.5 -12.5q142 0 142 112q0 46 -30 68t-110 35q-81 13 -122 44.5t-41 94.5q0 66 47.5 102t127.5 36q77 0 125 -25q26 -13 26 -30v-2q0 -21 -19 -21
q-7 0 -19.5 9.5t-40.5 19.5t-71 10q-129 0 -129 -95q0 -44 29.5 -65.5t106.5 -34.5q87 -14 128 -45t41 -97zM315 675l-71 -88q-15 -18 -31 -18h-2q-15 0 -31 18l-74 88q-9 12 -5 21.5t15 9.5h1q9 0 18 -11l75 -80l76 80q9 11 18 11h1q11 0 15 -9.5t-5 -21.5z" />
    <glyph glyph-name="Tcommaaccent" unicode="&#x162;" horiz-adv-x="553" 
d="M250 656h-211q-21 0 -21 21v2q0 21 21 21h475q21 0 21 -21v-2q0 -21 -21 -21h-210v-633q0 -26 -26 -26h-2q-26 0 -26 26v633zM314 -84q0 -69 -63 -86q-19 -5 -19 11v1q0 11 16 18q24 11 24 25q0 4 -2 7.5t-3.5 5t-6 4.5t-5.5 4q-14 9 -14 29q0 13 10 22t25 9q38 0 38 -50
z" />
    <glyph glyph-name="tcommaaccent" unicode="&#x163;" horiz-adv-x="295" 
d="M203 -4q-123 0 -123 117v370h-52q-20 0 -20 18v2q0 18 20 18h52v124q0 24 24 24h2q24 0 24 -24v-124h122q20 0 20 -18v-2q0 -18 -20 -18h-122v-364q0 -46 21.5 -64t68.5 -18q5 0 19.5 1.5t18.5 1.5q22 0 22 -19v-1q0 -16 -21 -20q-20 -4 -56 -4zM218 -84q0 -69 -63 -86
q-19 -5 -19 11v1q0 11 16 18q24 11 24 25q0 4 -2 7.5t-3.5 5t-6 4.5t-5.5 4q-14 9 -14 29q0 13 10 22t25 9q38 0 38 -50z" />
    <glyph glyph-name="Tcaron" unicode="&#x164;" horiz-adv-x="553" 
d="M250 656h-211q-21 0 -21 21v2q0 21 21 21h475q21 0 21 -21v-2q0 -21 -21 -21h-210v-633q0 -26 -26 -26h-2q-26 0 -26 26v633zM371 811l-63 -67q-14 -16 -31 -16h-4q-17 0 -31 16l-62 67q-10 11 -6.5 21t14.5 10h1q7 0 18 -9l68 -63l69 63q11 9 18 9h1q11 0 14.5 -10
t-6.5 -21z" />
    <glyph glyph-name="tcaron" unicode="&#x165;" horiz-adv-x="295" 
d="M212 563h-2q-19 0 -17 20l7 95q2 26 22 26h2q29 0 22 -33l-18 -94q-4 -14 -16 -14zM203 -4q-123 0 -123 117v370h-52q-20 0 -20 18v2q0 18 20 18h52v124q0 24 24 24h2q24 0 24 -24v-124h122q20 0 20 -18v-2q0 -18 -20 -18h-122v-364q0 -46 21.5 -64t68.5 -18
q5 0 19.5 1.5t18.5 1.5q22 0 22 -19v-1q0 -16 -21 -20q-20 -4 -56 -4z" />
    <glyph glyph-name="Umacron" unicode="&#x16a;" horiz-adv-x="672" 
d="M237 795h201q18 0 18 -18v-2q0 -19 -18 -19h-201q-19 0 -19 19v2q0 18 19 18zM593 678v-441q0 -125 -68.5 -183t-185.5 -58t-188 58t-71 183v440q0 26 26 26h1q26 0 26 -26v-442q0 -195 209 -195q199 0 199 195v443q0 25 25 25h2q25 0 25 -25z" />
    <glyph glyph-name="umacron" unicode="&#x16b;" horiz-adv-x="547" 
d="M207 -6q-141 0 -141 136v370q0 24 24 24h3q24 0 24 -24v-365q0 -56 25.5 -78t71.5 -22q96 0 210 83v382q0 24 24 24h2q24 0 24 -24v-479q0 -24 -22 -24h-1q-27 0 -27 49v30q-108 -82 -217 -82zM176 648h193q17 0 17 -17v-2q0 -18 -17 -18h-193q-18 0 -18 18v2q0 17 18 17
z" />
    <glyph glyph-name="Ubreve" unicode="&#x16c;" horiz-adv-x="672" 
d="M593 678v-441q0 -125 -68.5 -183t-185.5 -58t-188 58t-71 183v440q0 26 26 26h1q26 0 26 -26v-442q0 -195 209 -195q199 0 199 195v443q0 25 25 25h2q25 0 25 -25zM337 731q-85 0 -113 77q-4 14 -0.5 22.5t14.5 8.5h1q10 0 21 -19q1 -3 2 -4q25 -46 75 -46t75 46
q16 21 23 23h1q11 0 14.5 -8.5t-0.5 -22.5q-28 -77 -113 -77z" />
    <glyph glyph-name="ubreve" unicode="&#x16d;" horiz-adv-x="547" 
d="M207 -6q-141 0 -141 136v370q0 24 24 24h3q24 0 24 -24v-365q0 -56 25.5 -78t71.5 -22q96 0 210 83v382q0 24 24 24h2q24 0 24 -24v-479q0 -24 -22 -24h-1q-27 0 -27 49v30q-108 -82 -217 -82zM272 575q-42 0 -71 23.5t-42 61.5q-5 14 -0.5 23t14.5 9h1q11 0 23 -24
q26 -54 75 -54t75 54q12 24 23 24h1q10 0 14.5 -9t-0.5 -23q-13 -38 -42 -61.5t-71 -23.5z" />
    <glyph glyph-name="Uring" unicode="&#x16e;" horiz-adv-x="672" 
d="M593 678v-441q0 -125 -68.5 -183t-185.5 -58t-188 58t-71 183v440q0 26 26 26h1q26 0 26 -26v-442q0 -195 209 -195q199 0 199 195v443q0 25 25 25h2q25 0 25 -25zM424 790q0 -38 -26 -61.5t-61 -23.5q-36 0 -62 23.5t-26 61.5t26 62t62 24q35 0 61 -24t26 -62zM286 790
q0 -24 14.5 -38t36.5 -14t36.5 14.5t14.5 37.5t-15 38t-36 15q-22 0 -36.5 -15t-14.5 -38z" />
    <glyph glyph-name="uring" unicode="&#x16f;" horiz-adv-x="547" 
d="M207 -6q-141 0 -141 136v370q0 24 24 24h3q24 0 24 -24v-365q0 -56 25.5 -78t71.5 -22q96 0 210 83v382q0 24 24 24h2q24 0 24 -24v-479q0 -24 -22 -24h-1q-27 0 -27 49v30q-108 -82 -217 -82zM359 659q0 -38 -26 -61.5t-61 -23.5q-36 0 -62 23.5t-26 61.5t26 62t62 24
q35 0 61 -24t26 -62zM221 659q0 -23 14.5 -37.5t36.5 -14.5q21 0 36 14.5t15 37.5q0 24 -15 39t-36 15q-22 0 -36.5 -15t-14.5 -39z" />
    <glyph glyph-name="Uhungarumlaut" unicode="&#x170;" horiz-adv-x="672" 
d="M593 678v-441q0 -125 -68.5 -183t-185.5 -58t-188 58t-71 183v440q0 26 26 26h1q26 0 26 -26v-442q0 -195 209 -195q199 0 199 195v443q0 25 25 25h2q25 0 25 -25zM279 728h-1q-10 0 -14 8t0 18l31 71q9 23 25 23h1q14 0 20 -11.5t-3 -27.5l-42 -69q-7 -12 -17 -12z
M397 729h-1q-10 0 -14 7.5t0 18.5l31 71q9 23 25 23h1q14 0 20 -11.5t-3 -27.5l-42 -69q-7 -12 -17 -12z" />
    <glyph glyph-name="uhungarumlaut" unicode="&#x171;" horiz-adv-x="547" 
d="M207 -6q-141 0 -141 136v370q0 24 24 24h3q24 0 24 -24v-365q0 -56 25.5 -78t71.5 -22q96 0 210 83v382q0 24 24 24h2q24 0 24 -24v-479q0 -24 -22 -24h-1q-27 0 -27 49v30q-108 -82 -217 -82zM333 569h-1q-10 0 -14 6.5t1 19.5l40 91q10 22 26 22h1q15 0 20 -11t-3 -25
l-50 -87q-8 -16 -20 -16zM215 569h-1q-10 0 -14 6.5t1 19.5l40 91q10 22 26 22h1q15 0 20 -11t-3 -25l-50 -87q-8 -16 -20 -16z" />
    <glyph glyph-name="Uogonek" unicode="&#x172;" horiz-adv-x="672" 
d="M593 678v-441q0 -175 -149 -230q-100 -37 -100 -92q0 -43 48 -43h21q15 0 15 -15v-1q0 -14 -15 -17q-14 -3 -35 -3q-38 0 -60 19t-22 52q0 27 19 52t45 38q-12 -1 -21 -1q-117 0 -188 58t-71 183v440q0 26 26 26h1q26 0 26 -26v-442q0 -195 209 -195q200 0 200 195v443
q0 25 25 25h1q25 0 25 -25z" />
    <glyph glyph-name="uogonek" unicode="&#x173;" horiz-adv-x="547" 
d="M424 46v30q-108 -82 -217 -82q-141 0 -141 136v370q0 24 24 24h3q24 0 24 -24v-365q0 -56 25.5 -78t71.5 -22q96 0 210 83v382q0 24 24 24h2q24 0 24 -24v-479q0 -14 -8 -22q-31 -31 -42.5 -47t-11.5 -37q0 -43 49 -43h21q15 0 15 -15v-1q0 -14 -15 -17q-14 -3 -35 -3
q-38 0 -60 19t-22 52q0 48 67 97q-8 11 -8 42z" />
    <glyph glyph-name="Ydieresis" unicode="&#x178;" horiz-adv-x="548" 
d="M518 667l-216 -372v-272q0 -26 -26 -26h-2q-26 0 -26 26v270l-215 370q-8 16 -1.5 28t21.5 12h1q15 0 25 -19l196 -341h2l197 343q10 17 23 17h1q14 0 21 -10.5t-1 -25.5zM239 773q0 -14 -10 -24t-24 -10t-24 10t-10 24t10 24t24 10t24 -10t10 -24zM382 773
q0 -14 -10 -24t-24 -10t-23.5 10t-9.5 24t10 24t23 10q14 0 24 -10t10 -24z" />
    <glyph glyph-name="Zacute" unicode="&#x179;" horiz-adv-x="530" 
d="M497 635l-422 -591v-2h407q20 0 20 -20v-2q0 -20 -20 -20h-443q-22 0 -22 23v5q0 18 13 36l423 592v1h-392q-20 0 -20 21v2q0 20 21 20h426q22 0 22 -23v-5q0 -19 -13 -37zM284 728h-1q-11 0 -14.5 9.5t5.5 24.5l44 70q10 16 23 16h1q16 0 22 -13.5t-6 -28.5l-54 -65
q-11 -13 -20 -13z" />
    <glyph glyph-name="zacute" unicode="&#x17a;" horiz-adv-x="456" 
d="M70 521h346q19 0 19 -19v-4q0 -17 -12 -32l-333 -427h324q18 0 18 -18v-2q0 -19 -18 -19h-362q-19 0 -19 19v5q0 14 15 34l330 424h-308q-19 0 -19 19v2q0 18 19 18zM340 664l-74 -85q-9 -10 -17 -10h-1q-11 0 -15.5 9.5t2.5 19.5l60 88q15 22 30 22h1q16 0 21.5 -14
t-7.5 -30z" />
    <glyph glyph-name="Zdotaccent" unicode="&#x17b;" horiz-adv-x="530" 
d="M497 635l-422 -591v-2h407q20 0 20 -20v-2q0 -20 -20 -20h-443q-22 0 -22 23v5q0 18 13 36l423 592v1h-392q-20 0 -20 21v2q0 20 21 20h426q22 0 22 -23v-5q0 -19 -13 -37zM317 774q0 -14 -10.5 -24t-23.5 -10q-14 0 -24 10t-10 24t10 24t24 10t24 -10t10 -24z" />
    <glyph glyph-name="zdotaccent" unicode="&#x17c;" horiz-adv-x="456" 
d="M70 521h346q19 0 19 -19v-4q0 -17 -12 -32l-333 -427h324q18 0 18 -18v-2q0 -19 -18 -19h-362q-19 0 -19 19v5q0 14 15 34l330 424h-308q-19 0 -19 19v2q0 18 19 18zM281 635q0 -14 -10 -24t-24 -10t-24 10t-10 24t10 24t24 10q13 0 23.5 -10.5t10.5 -23.5z" />
    <glyph glyph-name="Zcaron" unicode="&#x17d;" horiz-adv-x="530" 
d="M497 635l-422 -591v-2h407q20 0 20 -20v-2q0 -20 -20 -20h-443q-22 0 -22 23v5q0 18 13 36l423 592v1h-392q-20 0 -20 21v2q0 20 21 20h426q22 0 22 -23v-5q0 -19 -13 -37zM377 812l-63 -67q-14 -16 -31 -16h-4q-17 0 -31 16l-62 67q-10 11 -6.5 21t14.5 10h1q7 0 18 -9
l68 -63l69 63q11 9 18 9h1q11 0 14.5 -10t-6.5 -21z" />
    <glyph glyph-name="zcaron" unicode="&#x17e;" horiz-adv-x="456" 
d="M70 521h346q19 0 19 -19v-4q0 -17 -12 -32l-333 -427h324q18 0 18 -18v-2q0 -19 -18 -19h-362q-19 0 -19 19v5q0 14 15 34l330 424h-308q-19 0 -19 19v2q0 18 19 18zM351 675l-71 -88q-15 -18 -31 -18h-2q-15 0 -31 18l-74 88q-9 12 -5 21.5t15 9.5h1q9 0 18 -11l75 -80
l76 80q9 11 18 11h1q11 0 15 -9.5t-5 -21.5z" />
    <glyph glyph-name="florin" unicode="&#x192;" horiz-adv-x="328" 
d="M257 387h-99l-54 -447q-4 -25 -25 -25h-2q-27 0 -24 33l53 439h-50q-21 0 -21 19v2q0 19 21 19h55l18 146q15 130 138 130q24 0 39 -4q17 -5 17 -18v-1q0 -18 -20 -18h-25q-86 0 -97 -93l-18 -142h94q21 0 21 -19v-2q0 -19 -21 -19z" />
    <glyph glyph-name="Scommaaccent" unicode="&#x218;" horiz-adv-x="508" 
d="M238 -4q-128 0 -195 53q-21 17 -21 34v1q0 10 6 16.5t16 6.5q8 0 22 -10.5t29.5 -23.5t53 -23.5t88.5 -10.5q84 0 132.5 37t48.5 113q0 25 -5.5 44.5t-20 34.5t-26.5 24.5t-39 19t-41.5 14t-49.5 13.5q-103 27 -150 67t-47 120q0 78 55.5 128t155.5 50q104 0 166 -42
q22 -15 22 -34v-1q0 -22 -22 -22q-9 0 -21 8.5t-25.5 19.5t-45 19.5t-73.5 8.5q-81 0 -121 -36t-40 -95q0 -35 10.5 -59t35.5 -39.5t48.5 -24.5t66.5 -20q118 -31 168.5 -70t50.5 -124q0 -98 -62.5 -147.5t-169.5 -49.5zM283 -84q0 -69 -63 -86q-19 -5 -19 11v1q0 11 16 18
q24 11 24 25q0 4 -2 7.5t-3.5 5t-6 4.5t-5.5 4q-14 9 -14 29q0 13 10 22t25 9q38 0 38 -50z" />
    <glyph glyph-name="scommaaccent" unicode="&#x219;" horiz-adv-x="425" 
d="M391 151q0 -74 -47 -114.5t-142 -40.5q-86 0 -144 34q-25 15 -25 32v1q0 21 21 21q7 0 22.5 -12t47 -24.5t76.5 -12.5q142 0 142 112q0 46 -30 68t-110 35q-81 13 -122 44.5t-41 94.5q0 66 47.5 102t127.5 36q77 0 125 -25q26 -13 26 -30v-2q0 -21 -19 -21
q-7 0 -19.5 9.5t-40.5 19.5t-71 10q-129 0 -129 -95q0 -44 29.5 -65.5t106.5 -34.5q87 -14 128 -45t41 -97zM249 -84q0 -69 -63 -86q-19 -5 -19 11v1q0 11 16 18q24 11 24 25q0 4 -2 7.5t-3.5 5t-6 4.5t-5.5 4q-14 9 -14 29q0 13 10 22t25 9q38 0 38 -50z" />
    <glyph glyph-name="uni0237" unicode="&#x237;" horiz-adv-x="197" 
d="M73 -52v552q0 24 22 24h1q14 0 20.5 -9.5t6.5 -36.5v-532q0 -110 -105 -110q-15 0 -23 1q-22 3 -22 19v2q0 16 21 18q46 2 62.5 17.5t16.5 54.5z" />
    <glyph glyph-name="circumflex" unicode="&#x2c6;" horiz-adv-x="411" 
d="M239 688l71 -88q9 -12 5 -21.5t-15 -9.5h-1q-9 0 -18 11l-76 80l-75 -80q-9 -11 -18 -11h-1q-11 0 -15 9.5t5 21.5l74 88q16 18 31 18h2q16 0 31 -18z" />
    <glyph glyph-name="caron" unicode="&#x2c7;" horiz-adv-x="411" 
d="M310 675l-71 -88q-15 -18 -31 -18h-2q-15 0 -31 18l-74 88q-9 12 -5 21.5t15 9.5h1q9 0 18 -11l75 -80l76 80q9 11 18 11h1q11 0 15 -9.5t-5 -21.5z" />
    <glyph glyph-name="breve" unicode="&#x2d8;" 
d="M206 575q-42 0 -71 23.5t-42 61.5q-5 14 -0.5 23t14.5 9h1q11 0 23 -24q26 -54 75 -54t75 54q12 24 23 24h1q10 0 14.5 -9t-0.5 -23q-13 -38 -42 -61.5t-71 -23.5z" />
    <glyph glyph-name="dotaccent" unicode="&#x2d9;" 
d="M241 635q0 -14 -10 -24t-24 -10t-24 10t-10 24t10 24t24 10q13 0 23.5 -10.5t10.5 -23.5z" />
    <glyph glyph-name="ring" unicode="&#x2da;" 
d="M293 659q0 -38 -26 -61.5t-61 -23.5q-36 0 -62 23.5t-26 61.5t26 62t62 24q35 0 61 -24t26 -62zM155 659q0 -23 14.5 -37.5t36.5 -14.5q21 0 36 14.5t15 37.5q0 24 -15 39t-36 15q-22 0 -36.5 -15t-14.5 -39z" />
    <glyph glyph-name="ogonek" unicode="&#x2db;" horiz-adv-x="400" 
d="M145 -93q0 49 63 93h45q-61 -47 -61 -85q0 -43 49 -43h21q15 0 15 -15v-1q0 -14 -15 -17q-13 -3 -35 -3q-38 0 -60 19t-22 52z" />
    <glyph glyph-name="tilde" unicode="&#x2dc;" 
d="M259 589q-25 0 -59.5 20t-46.5 20q-27 0 -38 -27q-8 -19 -20 -19h-1q-11 0 -14.5 9t-0.5 22q6 25 25.5 40.5t45.5 15.5q24 0 58.5 -19.5t47.5 -19.5q26 0 37 27q8 19 20 19h1q11 0 14.5 -9t0.5 -22q-6 -25 -25 -41t-45 -16z" />
    <glyph glyph-name="hungarumlaut" unicode="&#x2dd;" 
d="M152 569h-1q-10 0 -14 6.5t1 19.5l40 91q10 22 26 22h1q15 0 20 -11t-3 -25l-50 -87q-8 -16 -20 -16zM270 569h-1q-10 0 -14 6.5t1 19.5l40 91q10 22 26 22h1q15 0 20 -11t-3 -25l-50 -87q-8 -16 -20 -16z" />
    <glyph glyph-name="uni2009" unicode="&#x2009;" horiz-adv-x="110" 
 />
    <glyph glyph-name="endash" unicode="&#x2013;" horiz-adv-x="393" 
d="M348 265h-302q-22 0 -22 22v2q0 21 22 21h302q21 0 21 -21v-2q0 -22 -21 -22z" />
    <glyph glyph-name="emdash" unicode="&#x2014;" horiz-adv-x="658" 
d="M613 265h-567q-22 0 -22 22v2q0 21 22 21h567q21 0 21 -21v-2q0 -22 -21 -22z" />
    <glyph glyph-name="quoteleft" unicode="&#x2018;" horiz-adv-x="144" 
d="M116 687v-1q0 -10 -15 -17q-25 -11 -25 -32q0 -12 16 -22q16 -11 16 -30q0 -14 -10.5 -24t-26.5 -10q-41 0 -41 54q0 82 63 94q23 4 23 -12z" />
    <glyph glyph-name="quoteright" unicode="&#x2019;" horiz-adv-x="144" 
d="M28 566v1q0 10 15 17q25 11 25 32q0 12 -16 22q-16 11 -16 30q0 14 10.5 24t26.5 10q41 0 41 -54q0 -82 -63 -94q-23 -4 -23 12z" />
    <glyph glyph-name="quotesinglbase" unicode="&#x201a;" horiz-adv-x="144" 
d="M28 -55v1q0 10 15 17q25 11 25 32q0 12 -16 22q-16 11 -16 30q0 14 10.5 24t26.5 10q41 0 41 -54q0 -82 -63 -94q-23 -4 -23 12z" />
    <glyph glyph-name="quotedblleft" unicode="&#x201c;" horiz-adv-x="261" 
d="M116 687v-1q0 -10 -15 -17q-25 -11 -25 -32q0 -12 16 -22q16 -11 16 -30q0 -14 -10.5 -24t-26.5 -10q-41 0 -41 54q0 82 63 94q23 4 23 -12zM233 687v-1q0 -10 -15 -17q-25 -11 -25 -32q0 -12 16 -22q16 -11 16 -30q0 -14 -10.5 -24t-26.5 -10q-41 0 -41 54q0 82 63 94
q23 4 23 -12z" />
    <glyph glyph-name="quotedblright" unicode="&#x201d;" horiz-adv-x="261" 
d="M28 566v1q0 10 15 17q25 11 25 32q0 12 -16 22q-16 11 -16 30q0 14 10.5 24t26.5 10q41 0 41 -54q0 -82 -63 -94q-23 -4 -23 12zM145 566v1q0 10 15 17q25 11 25 32q0 12 -16 22q-16 11 -16 30q0 14 10.5 24t26.5 10q41 0 41 -54q0 -82 -63 -94q-23 -4 -23 12z" />
    <glyph glyph-name="quotedblbase" unicode="&#x201e;" horiz-adv-x="261" 
d="M28 -55v1q0 10 15 17q25 11 25 32q0 12 -16 22q-16 11 -16 30q0 14 10.5 24t26.5 10q41 0 41 -54q0 -82 -63 -94q-23 -4 -23 12zM145 -55v1q0 10 15 17q25 11 25 32q0 12 -16 22q-16 11 -16 30q0 14 10.5 24t26.5 10q41 0 41 -54q0 -82 -63 -94q-23 -4 -23 12z" />
    <glyph glyph-name="dagger" unicode="&#x2020;" horiz-adv-x="417" 
d="M193 464q-82 -11 -139 -11q-29 0 -29 24v1q0 24 29 24q25 0 60 -2.5t57 -5.5l22 -2q-10 106 -10 183q0 29 25 29h2q25 0 25 -29q0 -34 -2.5 -80t-4.5 -75l-2 -28q81 10 138 10q29 0 29 -24v-1q0 -24 -29 -24q-25 0 -59.5 2.5t-56.5 4.5l-22 3q10 -73 10 -128l-7 -367
q0 -21 -19 -21h-2q-19 0 -19 21q-7 259 -7 366q0 25 3 57.5t5 52.5z" />
    <glyph glyph-name="daggerdbl" unicode="&#x2021;" horiz-adv-x="417" 
d="M236 326q0 -25 -2.5 -61t-5.5 -60l-2 -24q81 10 138 10q29 0 29 -24v-1q0 -24 -29 -24q-25 0 -59.5 2.5t-56.5 5.5l-22 2q9 -105 9 -176q0 -29 -25 -29h-2q-25 0 -25 29q0 32 2.5 76t4.5 72l3 28q-82 -10 -139 -10q-29 0 -29 24v1q0 24 29 24q25 0 60 -2.5t57 -5.5l22 -3
q-11 90 -11 146q0 25 3 61l5 60l3 24q-82 -11 -139 -11q-29 0 -29 24v1q0 24 29 24q25 0 60 -2.5t57 -4.5l22 -3q-10 105 -10 176q0 29 25 29h2q25 0 25 -29q0 -32 -2.5 -76t-4.5 -72l-2 -28q81 10 138 10q29 0 29 -24v-1q0 -24 -29 -24q-25 0 -59.5 2.5t-56.5 5.5l-22 2
q10 -89 10 -144z" />
    <glyph glyph-name="bullet" unicode="&#x2022;" horiz-adv-x="284" 
d="M259 301q0 -53 -33 -84.5t-84 -31.5q-50 0 -83.5 31.5t-33.5 84.5q0 52 33.5 84t83.5 32q51 0 84 -32t33 -84z" />
    <glyph glyph-name="ellipsis" unicode="&#x2026;" horiz-adv-x="465" 
d="M110 34q0 -16 -11.5 -27t-27.5 -11q-17 0 -27.5 11t-10.5 27t11 27.5t27 11.5t27.5 -11.5t11.5 -27.5zM271 34q0 -16 -11 -27t-28 -11q-16 0 -27 11t-11 27t11 27.5t27 11.5t27.5 -11.5t11.5 -27.5zM433 34q0 -16 -11.5 -27t-27.5 -11t-27 11t-11 27t11 27.5t27 11.5
t27.5 -11.5t11.5 -27.5z" />
    <glyph glyph-name="perthousand" unicode="&#x2030;" horiz-adv-x="1060" 
d="M80 529q0 -64 28 -100t76 -36q47 0 75.5 36t28.5 100q0 66 -28.5 102.5t-75.5 36.5q-48 0 -76 -36.5t-28 -102.5zM335 531q0 -83 -43.5 -128.5t-107.5 -45.5q-65 0 -108.5 45.5t-43.5 128.5t43.5 128t108.5 45q64 0 107.5 -45.5t43.5 -127.5zM609 698l-466 -721
q-9 -14 -20 -14h-1q-12 0 -17 10.5t3 23.5l466 721q9 14 20 14h1q12 0 17 -10t-3 -24zM429 169q0 -65 28 -101t76 -36q47 0 75.5 36.5t28.5 100.5q0 65 -28.5 101.5t-75.5 36.5q-48 0 -76 -36.5t-28 -101.5zM684 170q0 -83 -43.5 -128.5t-107.5 -45.5q-65 0 -108.5 45.5
t-43.5 128.5t43.5 128.5t108.5 45.5q64 0 107.5 -45.5t43.5 -128.5zM772 169q0 -65 28 -101t76 -36q47 0 75.5 36.5t28.5 100.5q0 65 -28.5 101.5t-75.5 36.5q-48 0 -76 -36.5t-28 -101.5zM1027 170q0 -83 -43.5 -128.5t-107.5 -45.5q-65 0 -108.5 45.5t-43.5 128.5
t43.5 128.5t108.5 45.5q64 0 107.5 -45.5t43.5 -128.5z" />
    <glyph glyph-name="guilsinglleft" unicode="&#x2039;" horiz-adv-x="259" 
d="M180 59l-143 176q-11 14 -11 24v2q0 10 11 24l143 176q11 16 23 16h1q14 0 20 -12.5t-4 -25.5l-140 -178v-2l140 -178q10 -13 4 -25.5t-20 -12.5h-1q-12 0 -23 16z" />
    <glyph glyph-name="guilsinglright" unicode="&#x203a;" horiz-adv-x="259" 
d="M222 235l-143 -176q-11 -16 -23 -16h-1q-14 0 -20 12.5t4 25.5l140 178v2l-140 178q-10 13 -4 25.5t20 12.5h1q12 0 23 -16l143 -176q11 -14 11 -24v-2q0 -10 -11 -24z" />
    <glyph glyph-name="fraction" unicode="&#x2044;" horiz-adv-x="193" 
d="M-157 -3l470 719q11 17 22 17h1q13 0 17.5 -10.5t-3.5 -24.5l-470 -719q-11 -17 -22 -17h-1q-13 0 -17.5 10.5t3.5 24.5z" />
    <glyph glyph-name="Euro" unicode="&#x20ac;" horiz-adv-x="591" 
d="M368 278h-225q14 -117 70 -178t149 -61q46 0 81 10.5t51 23t30 23t23 10.5t15 -6t6 -14v-1q0 -13 -14 -25q-73 -64 -193 -64q-112 0 -184.5 72.5t-87.5 209.5h-54q-19 0 -19 19v1q0 19 19 19h51q-1 11 -1 35t1 36h-51q-19 0 -19 19v2q0 19 19 19h55q18 131 94 203.5
t183 72.5t168 -46q19 -14 19 -29v-1q0 -9 -5.5 -15t-13.5 -6q-11 0 -24 8.5t-26.5 18.5t-43.5 18.5t-71 8.5q-90 0 -150.5 -60t-75.5 -173h243q19 0 19 -19v-2q0 -19 -19 -19h-247q-1 -11 -1 -34q0 -25 1 -37h228q19 0 19 -19v-1q0 -19 -19 -19z" />
    <glyph glyph-name="trademark" unicode="&#x2122;" horiz-adv-x="617" 
d="M151 664v-220q0 -22 -22 -22h-2q-22 0 -22 22v220h-71q-18 0 -18 17v2q0 17 18 17h189q18 0 18 -17v-2q0 -17 -18 -17h-72zM306 422h-2q-19 0 -19 19v233q0 26 26 26h17q25 0 33 -23l64 -183h1l65 183q8 23 33 23h18q26 0 26 -26v-231q0 -21 -21 -21h-2q-21 0 -21 21v216
h-1l-79 -222q-5 -15 -19 -15h-2q-15 0 -20 15l-78 222h-1v-219q0 -18 -18 -18z" />
    <glyph glyph-name="onethird" unicode="&#x2153;" horiz-adv-x="669" 
d="M47 -3l470 719q11 17 22 17h1q13 0 17.5 -10.5t-3.5 -24.5l-470 -719q-11 -17 -22 -17h-1q-13 0 -17.5 10.5t3.5 24.5zM651 106q0 -52 -36 -80.5t-98 -28.5q-64 0 -102 29q-13 9 -13 21v1q0 17 17 17q7 0 17 -8t29.5 -16t49.5 -8q43 0 67 20t24 56q0 35 -25.5 51.5
t-62.5 16.5h-25q-16 0 -16 16v2q0 15 16 15h22q38 0 60.5 17.5t22.5 49.5q0 63 -78 63q-34 0 -59.5 -15t-29.5 -15q-7 0 -12 5t-5 12v1q0 11 12 20q42 28 99 28q54 0 85.5 -24.5t31.5 -70.5q0 -62 -65 -84v-2q74 -18 74 -89zM152 678v-332q0 -23 -23 -23h-1q-23 0 -23 23
v304l-68 -38q-9 -5 -15 -5q-16 0 -16 18v1q0 10 15 19l84 47q14 8 24 8h1q22 0 22 -22z" />
    <glyph glyph-name="twothirds" unicode="&#x2154;" horiz-adv-x="737" 
d="M718 106q0 -52 -36 -80.5t-98 -28.5q-64 0 -102 29q-13 9 -13 21v1q0 17 17 17q7 0 17 -8t29.5 -16t49.5 -8q43 0 67 20t24 56q0 35 -25.5 51.5t-62.5 16.5h-25q-16 0 -16 16v2q0 15 16 15h22q38 0 60.5 17.5t22.5 49.5q0 63 -78 63q-34 0 -59.5 -15t-29.5 -15
q-7 0 -12 5t-5 12v1q0 11 12 20q42 28 99 28q54 0 85.5 -24.5t31.5 -70.5q0 -62 -65 -84v-2q74 -18 74 -89zM129 -3l470 719q11 17 22 17h1q13 0 17.5 -10.5t-3.5 -24.5l-470 -719q-11 -17 -22 -17h-1q-13 0 -17.5 10.5t3.5 24.5zM75 365h176q18 0 18 -18v-2q0 -18 -18 -18
h-216q-18 0 -18 19v1q0 11 4.5 18t21.5 22l90 82q47 44 65.5 71t18.5 57q0 33 -19.5 51.5t-56.5 18.5q-36 0 -61 -19t-33 -19q-7 0 -12.5 5.5t-5.5 12.5v1q0 12 13 22q42 33 104 33q54 0 86.5 -28t32.5 -74q0 -38 -24 -72t-78 -83z" />
    <glyph glyph-name="oneeighth" unicode="&#x215b;" horiz-adv-x="686" 
d="M528 -3q-65 0 -102 29t-37 78q0 70 78 95v2q-28 8 -44 29.5t-16 52.5q0 42 33 67.5t88 25.5q54 0 88 -25.5t34 -67.5q0 -58 -59 -82v-2q77 -23 77 -95q0 -49 -37 -78t-103 -29zM53 -3l470 719q11 17 22 17h1q13 0 17.5 -10.5t-3.5 -24.5l-470 -719q-11 -17 -22 -17h-1
q-13 0 -17.5 10.5t3.5 24.5zM528 30q47 0 71.5 21t24.5 55t-24.5 55t-71.5 21q-46 0 -70 -21t-24 -55t24 -55t70 -21zM152 678v-332q0 -23 -23 -23h-1q-23 0 -23 23v304l-68 -38q-9 -5 -15 -5q-16 0 -16 18v1q0 10 15 19l84 47q14 8 24 8h1q22 0 22 -22zM528 215
q38 0 59 17.5t21 46.5t-21 46.5t-59 17.5t-59 -17.5t-21 -46.5t21 -46.5t59 -17.5z" />
    <glyph glyph-name="threeeighths" unicode="&#x215c;" horiz-adv-x="699" 
d="M257 433q0 -52 -36 -80.5t-98 -28.5q-64 0 -102 29q-13 9 -13 21v1q0 17 17 17q7 0 17 -8t29.5 -16t49.5 -8q43 0 67 20t24 56q0 35 -25.5 51.5t-62.5 16.5h-25q-16 0 -16 16v2q0 15 16 15h22q38 0 60.5 17.5t22.5 49.5q0 63 -78 63q-34 0 -59.5 -15t-29.5 -15
q-7 0 -12 5t-5 12v1q0 11 12 20q42 28 99 28q54 0 85.5 -24.5t31.5 -70.5q0 -62 -65 -84v-2q74 -18 74 -89zM542 -3q-65 0 -102 29t-37 78q0 70 78 95v2q-28 8 -44 29.5t-16 52.5q0 42 33 67.5t88 25.5q54 0 88 -25.5t34 -67.5q0 -58 -59 -82v-2q77 -23 77 -95
q0 -49 -37 -78t-103 -29zM542 30q47 0 71.5 21t24.5 55t-24.5 55t-71.5 21q-46 0 -70 -21t-24 -55t24 -55t70 -21zM542 215q38 0 59 17.5t21 46.5t-21 46.5t-59 17.5t-59 -17.5t-21 -46.5t21 -46.5t59 -17.5zM86 -3l470 719q11 17 22 17h1q13 0 17.5 -10.5t-3.5 -24.5
l-470 -719q-11 -17 -22 -17h-1q-13 0 -17.5 10.5t3.5 24.5z" />
    <glyph glyph-name="fiveeighths" unicode="&#x215d;" horiz-adv-x="709" 
d="M156 565q50 0 82 -29.5t32 -85.5t-40 -91t-103 -35q-59 0 -98 26q-13 9 -13 22v1q0 18 17 18q7 0 17 -8t28.5 -16t46.5 -8q45 0 72 25t27 66q0 40 -21.5 60.5t-57.5 20.5q-39 0 -71 -26q-14 -12 -23 -12q-19 0 -19 20v159q0 28 28 28h173q17 0 17 -17v-2q0 -17 -17 -17
h-165v-131h1q32 32 87 32zM552 -3q-65 0 -102 29t-37 78q0 70 78 95v2q-28 8 -44 29.5t-16 52.5q0 42 33 67.5t88 25.5q54 0 88 -25.5t34 -67.5q0 -58 -59 -82v-2q77 -23 77 -95q0 -49 -37 -78t-103 -29zM552 30q47 0 71.5 21t24.5 55t-24.5 55t-71.5 21q-46 0 -70 -21
t-24 -55t24 -55t70 -21zM552 215q38 0 59 17.5t21 46.5t-21 46.5t-59 17.5t-59 -17.5t-21 -46.5t21 -46.5t59 -17.5zM93 -3l470 719q11 17 22 17h1q13 0 17.5 -10.5t-3.5 -24.5l-470 -719q-11 -17 -22 -17h-1q-13 0 -17.5 10.5t3.5 24.5z" />
    <glyph glyph-name="seveneighths" unicode="&#x215e;" horiz-adv-x="686" 
d="M94 323h-1q-14 0 -20 10.5t1 26.5l155 301v2h-197q-17 0 -17 18v2q0 17 18 17h213q23 0 23 -23v-1q0 -16 -11 -39l-141 -295q-9 -19 -23 -19zM528 -3q-65 0 -102 29t-37 78q0 70 78 95v2q-28 8 -44 29.5t-16 52.5q0 42 33 67.5t88 25.5q54 0 88 -25.5t34 -67.5
q0 -58 -59 -82v-2q77 -23 77 -95q0 -49 -37 -78t-103 -29zM528 30q47 0 71.5 21t24.5 55t-24.5 55t-71.5 21q-46 0 -70 -21t-24 -55t24 -55t70 -21zM528 215q38 0 59 17.5t21 46.5t-21 46.5t-59 17.5t-59 -17.5t-21 -46.5t21 -46.5t59 -17.5zM47 -3l470 719q11 17 22 17h1
q13 0 17.5 -10.5t-3.5 -24.5l-470 -719q-11 -17 -22 -17h-1q-13 0 -17.5 10.5t3.5 24.5z" />
    <glyph glyph-name="minus" unicode="&#x2212;" horiz-adv-x="472" 
d="M439 347v-2q0 -22 -21 -22h-363q-22 0 -22 22v2q0 21 22 21h363q21 0 21 -21z" />
    <glyph glyph-name="fi" unicode="&#xfb01;" horiz-adv-x="457" 
d="M80 483h-52q-20 0 -20 18v2q0 18 20 18h52v52q0 65 33.5 97.5t88.5 32.5q28 0 45 -4q21 -5 21 -20v-1q0 -20 -23 -18q-4 0 -15 1t-16 1q-43 0 -63.5 -20t-20.5 -72v-49h109q20 0 20 -18v-2q0 -18 -20 -18h-109v-462q0 -24 -24 -24h-2q-24 0 -24 24v462zM393 635
q0 -14 -10 -24t-24 -10t-24 10t-10 24t10 24t24 10t24 -10t10 -24zM383 478v-457q0 -24 -24 -24h-2q-24 0 -24 24v479q0 24 22 24h1q14 0 20.5 -9.5t6.5 -36.5z" />
    <glyph glyph-name="fl" unicode="&#xfb02;" horiz-adv-x="454" 
d="M80 483h-52q-20 0 -20 18v2q0 18 20 18h52v52q0 65 33.5 97.5t88.5 32.5q28 0 45 -4q21 -5 21 -20v-1q0 -20 -23 -18q-4 0 -15 1t-16 1q-43 0 -63.5 -20t-20.5 -72v-49h109q20 0 20 -18v-2q0 -18 -20 -18h-109v-462q0 -24 -24 -24h-2q-24 0 -24 24v462zM383 657v-636
q0 -24 -24 -24h-2q-25 0 -25 24v658q0 24 23 24h1q14 0 20.5 -9.5t6.5 -36.5z" />
    <glyph glyph-name="idotaccent" horiz-adv-x="197" 
d="M133 635q0 -14 -10 -24t-24 -10t-24 10t-10 24t10 24t24 10t24 -10t10 -24zM123 478v-457q0 -24 -24 -24h-2q-24 0 -24 24v479q0 24 22 24h1q14 0 20.5 -9.5t6.5 -36.5z" />
    <glyph glyph-name="space_uni0326" 
d="M242 -84q0 -69 -63 -86q-19 -5 -19 11v1q0 11 16 18q24 11 24 25q0 4 -2 7.5t-3.5 5t-6 4.5t-5.5 4q-14 9 -14 29q0 13 10 22t25 9q38 0 38 -50z" />
    <glyph glyph-name="zero.numerator" horiz-adv-x="372" 
d="M348 515q0 -92 -46.5 -141.5t-115.5 -49.5t-115.5 49.5t-46.5 141.5q0 90 46.5 139t115.5 49t115.5 -49t46.5 -139zM72 513q0 -77 31 -115t83 -38t83 38t31 115q0 76 -31.5 115t-82.5 39q-52 0 -83 -38.5t-31 -115.5z" />
    <glyph glyph-name="one.numerator" horiz-adv-x="214" 
d="M152 678v-332q0 -23 -23 -23h-1q-23 0 -23 23v304l-68 -38q-9 -5 -15 -5q-16 0 -16 18v1q0 10 15 19l84 47q14 8 24 8h1q22 0 22 -22z" />
    <glyph glyph-name="two.numerator" horiz-adv-x="285" 
d="M75 365h176q18 0 18 -18v-2q0 -18 -18 -18h-216q-18 0 -18 19v1q0 11 4.5 18t21.5 22l90 82q47 44 65.5 71t18.5 57q0 33 -19.5 51.5t-56.5 18.5q-36 0 -61 -19t-33 -19q-7 0 -12.5 5.5t-5.5 12.5v1q0 12 13 22q42 33 104 33q54 0 86.5 -28t32.5 -74q0 -38 -24 -72
t-78 -83z" />
    <glyph glyph-name="three.numerator" horiz-adv-x="276" 
d="M257 433q0 -52 -36 -80.5t-98 -28.5q-64 0 -102 29q-13 9 -13 21v1q0 17 17 17q7 0 17 -8t29.5 -16t49.5 -8q43 0 67 20t24 56q0 35 -25.5 51.5t-62.5 16.5h-25q-16 0 -16 16v2q0 15 16 15h22q38 0 60.5 17.5t22.5 49.5q0 63 -78 63q-34 0 -59.5 -15t-29.5 -15
q-7 0 -12 5t-5 12v1q0 11 12 20q42 28 99 28q54 0 85.5 -24.5t31.5 -70.5q0 -62 -65 -84v-2q74 -18 74 -89z" />
    <glyph glyph-name="four.numerator" horiz-adv-x="325" 
d="M208 640l-150 -185v-2h151v187h-1zM229 700h3q9 0 15 -6t6 -15v-226h41q16 0 16 -16v-2q0 -16 -16 -16h-41v-75q0 -9 -6 -15t-15 -6h-2q-9 0 -15 6t-6 15v75h-174q-19 0 -19 20v1q0 15 17 36l164 208q13 16 32 16z" />
    <glyph glyph-name="five.numerator" horiz-adv-x="293" 
d="M155 565q50 0 82 -29.5t32 -85.5t-40 -91t-103 -35q-59 0 -98 26q-13 9 -13 22v1q0 18 17 18q7 0 17 -8t28.5 -16t46.5 -8q45 0 72 25t27 66q0 40 -21.5 60.5t-57.5 20.5q-39 0 -71 -26q-14 -12 -23 -12q-19 0 -19 20v159q0 28 28 28h173q17 0 17 -17v-2q0 -17 -17 -17
h-165v-131h1q32 32 87 32z" />
    <glyph glyph-name="six.numerator" horiz-adv-x="326" 
d="M185 557q52 0 86 -27.5t34 -82.5q0 -57 -37 -90t-95 -33q-66 0 -107.5 45t-41.5 137q0 93 50 145t130 52q40 0 68 -14q15 -7 15 -20v-1q0 -19 -17 -19q-6 0 -25 8.5t-42 8.5q-60 0 -96 -39t-37 -113q45 43 115 43zM171 523q-61 0 -100 -43q9 -121 100 -121
q41 0 64.5 22.5t23.5 63.5q0 78 -88 78z" />
    <glyph glyph-name="seven.numerator" horiz-adv-x="285" 
d="M94 323h-1q-14 0 -20 10.5t1 26.5l155 301v2h-197q-17 0 -17 18v2q0 17 18 17h213q23 0 23 -23v-1q0 -16 -11 -39l-141 -295q-9 -19 -23 -19z" />
    <glyph glyph-name="eight.numerator" horiz-adv-x="315" 
d="M157 324q-65 0 -102 29t-37 78q0 70 78 95v2q-28 8 -44 29.5t-16 52.5q0 42 33 67.5t88 25.5q54 0 88 -25.5t34 -67.5q0 -58 -59 -82v-2q77 -23 77 -95q0 -49 -37 -78t-103 -29zM157 357q47 0 71.5 21t24.5 55t-24.5 55t-71.5 21q-46 0 -70 -21t-24 -55t24 -55t70 -21z
M157 542q38 0 59 17.5t21 46.5t-21 46.5t-59 17.5t-59 -17.5t-21 -46.5t21 -46.5t59 -17.5z" />
    <glyph glyph-name="nine.numerator" horiz-adv-x="325" 
d="M144 470q-52 0 -87 28.5t-35 84.5t36.5 88t95.5 32q65 0 106.5 -45t41.5 -135q0 -96 -46 -147.5t-133 -51.5q-43 0 -69 13q-17 9 -17 22v1q0 19 17 19q5 0 25 -9t44 -9q128 0 134 150q-43 -41 -113 -41zM154 504q64 0 102 43q-4 64 -32 93.5t-69 29.5t-65 -22t-24 -64
t25 -61t63 -19z" />
    <glyph glyph-name="zero.denominator" horiz-adv-x="372" 
d="M348 188q0 -92 -46.5 -141.5t-115.5 -49.5t-115.5 49.5t-46.5 141.5q0 90 46.5 139t115.5 49t115.5 -49t46.5 -139zM72 186q0 -77 31 -115t83 -38t83 38t31 115q0 76 -31.5 115t-82.5 39q-52 0 -83 -38.5t-31 -115.5z" />
    <glyph glyph-name="one.denominator" horiz-adv-x="214" 
d="M152 351v-332q0 -23 -23 -23h-1q-23 0 -23 23v304l-68 -38q-9 -5 -15 -5q-16 0 -16 18v1q0 10 15 19l84 47q14 8 24 8h1q22 0 22 -22z" />
    <glyph glyph-name="two.denominator" horiz-adv-x="285" 
d="M75 38h176q18 0 18 -18v-2q0 -18 -18 -18h-216q-18 0 -18 19v1q0 11 4.5 18t21.5 22l90 82q47 44 65.5 71t18.5 57q0 33 -19.5 51.5t-56.5 18.5q-36 0 -61 -19t-33 -19q-7 0 -12.5 5t-5.5 13v1q0 12 13 22q42 33 104 33q54 0 86.5 -28t32.5 -74q0 -38 -24 -72t-78 -83z
" />
    <glyph glyph-name="three.denominator" horiz-adv-x="276" 
d="M257 106q0 -52 -36 -80.5t-98 -28.5q-64 0 -102 29q-13 9 -13 21v1q0 17 17 17q7 0 17 -8t29.5 -16t49.5 -8q43 0 67 20t24 56q0 35 -25.5 51.5t-62.5 16.5h-25q-16 0 -16 16v2q0 15 16 15h22q38 0 60.5 17.5t22.5 49.5q0 63 -78 63q-34 0 -59.5 -15t-29.5 -15
q-7 0 -12 5t-5 12v1q0 11 12 20q42 28 99 28q54 0 85.5 -24.5t31.5 -70.5q0 -62 -65 -84v-2q74 -18 74 -89z" />
    <glyph glyph-name="four.denominator" horiz-adv-x="325" 
d="M208 313l-150 -185v-2h151v187h-1zM229 373h3q9 0 15 -6t6 -15v-226h41q16 0 16 -16v-2q0 -16 -16 -16h-41v-75q0 -9 -6 -15t-15 -6h-2q-9 0 -15 6t-6 15v75h-174q-19 0 -19 20v1q0 15 17 36l164 208q13 16 32 16z" />
    <glyph glyph-name="five.denominator" horiz-adv-x="293" 
d="M155 238q50 0 82 -29.5t32 -85.5t-40 -91t-103 -35q-59 0 -98 26q-13 9 -13 22v1q0 18 17 18q7 0 17 -8t28.5 -16t46.5 -8q45 0 72 25t27 66q0 40 -21.5 60.5t-57.5 20.5q-39 0 -71 -26q-14 -12 -23 -12q-19 0 -19 20v159q0 28 28 28h173q17 0 17 -17v-2q0 -17 -17 -17
h-165v-131h1q32 32 87 32z" />
    <glyph glyph-name="six.denominator" horiz-adv-x="326" 
d="M185 230q52 0 86 -27.5t34 -82.5q0 -57 -37 -90t-95 -33q-66 0 -107.5 45t-41.5 137q0 93 50 145t130 52q40 0 68 -14q15 -8 15 -20v-1q0 -19 -17 -19q-6 0 -25 8.5t-42 8.5q-60 0 -96 -39t-37 -113q45 43 115 43zM171 196q-61 0 -100 -43q9 -121 100 -121
q41 0 64.5 22.5t23.5 63.5q0 78 -88 78z" />
    <glyph glyph-name="seven.denominator" horiz-adv-x="285" 
d="M94 -4h-1q-14 0 -20 10t1 27l155 301v2h-197q-17 0 -17 18v2q0 17 18 17h213q23 0 23 -23v-1q0 -16 -11 -39l-141 -295q-9 -19 -23 -19z" />
    <glyph glyph-name="eight.denominator" horiz-adv-x="315" 
d="M157 -3q-65 0 -102 29t-37 78q0 70 78 95v2q-28 8 -44 29.5t-16 52.5q0 42 33 67.5t88 25.5q54 0 88 -25.5t34 -67.5q0 -58 -59 -82v-2q77 -23 77 -95q0 -49 -37 -78t-103 -29zM157 30q47 0 71.5 21t24.5 55t-24.5 55t-71.5 21q-46 0 -70 -21t-24 -55t24 -55t70 -21z
M157 215q38 0 59 17.5t21 46.5t-21 46.5t-59 17.5t-59 -17.5t-21 -46.5t21 -46.5t59 -17.5z" />
    <glyph glyph-name="nine.denominator" horiz-adv-x="325" 
d="M144 143q-52 0 -87 28.5t-35 84.5t36.5 88t95.5 32q65 0 106.5 -45t41.5 -135q0 -96 -46 -147.5t-133 -51.5q-43 0 -69 13q-17 8 -17 22v1q0 19 17 19q5 0 25 -9t44 -9q128 0 134 150q-43 -41 -113 -41zM154 177q64 0 102 43q-4 64 -32 93.5t-69 29.5t-65 -22t-24 -64
t25 -61t63 -19z" />
    <glyph glyph-name="Q.alt" horiz-adv-x="714" 
d="M96 349q0 -149 72.5 -230t187.5 -81q113 0 185.5 81.5t72.5 229.5q0 149 -72.5 231t-185.5 82q-115 0 -187.5 -82t-72.5 -231zM691 -80q10 -13 10 -26v-1q0 -9 -7.5 -16t-16.5 -7q-6 0 -10.5 1.5t-8.5 5t-6 5.5t-6.5 8t-5.5 8q-37 48 -105.5 69.5t-183.5 27.5
q-95 5 -162 47q-148 95 -148 308q0 166 90 260t225 94q134 0 223.5 -94t89.5 -260q0 -136 -58.5 -220t-149.5 -108v-1q164 -14 230 -101z" />
    <glyph glyph-name="Q.alt1" horiz-adv-x="714" 
d="M669 350q0 -154 -83 -252l81 -65q17 -13 3 -29q-11 -17 -30 -2l-82 67q-82 -73 -202 -73q-135 0 -225 94t-90 260t90 260t225 94q134 0 223.5 -94.5t89.5 -259.5zM445 214l104 -85q65 85 65 220q0 149 -72.5 231t-185.5 82q-115 0 -187.5 -82t-72.5 -231t72.5 -230
t187.5 -81q99 0 165 60l-103 85q-17 13 -3 29q11 17 30 2z" />
    <glyph glyph-name="f.short" horiz-adv-x="260" 
d="M80 483h-52q-20 0 -20 18v2q0 18 20 18h52v52q0 64 32.5 97t88.5 33q21 0 36 -3q22 -4 22 -19v-1q0 -19 -22 -19q-3 0 -13 0.5t-14 0.5q-41 0 -60.5 -21.5t-19.5 -70.5v-49h109q20 0 20 -18v-2q0 -18 -20 -18h-109v-462q0 -24 -24 -24h-2q-24 0 -24 24v462z" />
    <glyph glyph-name="f_f.short" horiz-adv-x="516" 
d="M336 521v52q0 64 32.5 97t88.5 33q21 0 36 -3q22 -4 22 -19v-1q0 -19 -22 -19q-3 0 -13 0.5t-14 0.5q-41 0 -60.5 -21.5t-19.5 -70.5v-49h109q20 0 20 -18v-2q0 -18 -20 -18h-109v-462q0 -24 -24 -24h-2q-24 0 -24 24v462h-206v-462q0 -24 -24 -24h-2q-24 0 -24 24v462
h-52q-20 0 -20 18v2q0 18 20 18h52v46q0 65 33.5 97.5t88.5 32.5q28 0 45 -4q21 -5 21 -20v-1q0 -20 -23 -18q-4 0 -15 1t-16 1q-43 0 -63.5 -20t-20.5 -72v-43h206z" />
    <glyph glyph-name="less.cap" horiz-adv-x="444" 
d="M360 9l-315 311q-15 15 -15 29v2q0 14 15 29l315 311q14 14 25 14h1q14 0 19 -13.5t-7 -26.5l-315 -313v-3l315 -314q12 -13 7 -26.5t-19 -13.5h-1q-11 0 -25 14z" />
    <glyph glyph-name="greater.cap" horiz-adv-x="444" 
d="M400 320l-315 -311q-14 -14 -25 -14h-1q-14 0 -19 13.5t7 26.5l315 314v3l-315 313q-12 13 -7 26.5t19 13.5h1q11 0 25 -14l315 -311q15 -15 15 -29v-2q0 -14 -15 -29z" />
    <glyph glyph-name="questiondown.cap" horiz-adv-x="428" 
d="M221 666q0 16 11.5 27t27.5 11t27 -11t11 -27t-11 -27.5t-27 -11.5t-27.5 11.5t-11.5 27.5zM216 38q40 0 69 9t41.5 20t25 20t22.5 9q20 0 20 -23v-1q0 -18 -27 -36q-64 -40 -152 -40q-86 0 -134 40.5t-48 118.5q0 23 6 44t12 35t23.5 35t25 29.5t32.5 32t32 30.5
q57 55 70 90q10 26 10 87q0 21 20 21h2q20 0 21 -21q5 -68 -14 -108t-75 -98q-4 -4 -24 -23.5t-27 -27t-22 -26t-21 -31.5t-11.5 -32t-5.5 -39q0 -55 33 -85t96 -30z" />
    <glyph glyph-name="exclamdown.cap" horiz-adv-x="225" 
d="M91 538q1 21 20 21h2q19 0 20 -21q6 -348 6 -514q0 -27 -26 -27h-2q-26 0 -26 27zM74 666q0 16 11 27t28 11t27.5 -11t10.5 -27t-11 -27.5t-27 -11.5t-27.5 11.5t-11.5 27.5z" />
    <glyph glyph-name="bullet.cap" horiz-adv-x="296" 
d="M265 328q0 -52 -33.5 -83t-83.5 -31t-83.5 31t-33.5 83q0 53 33.5 85t83.5 32t83.5 -32t33.5 -85z" />
    <glyph glyph-name="hyphen.cap" horiz-adv-x="238" 
d="M197 313h-154q-23 0 -23 23v2q0 22 23 22h154q22 0 22 -22v-2q0 -23 -22 -23z" />
    <glyph glyph-name="endash.cap" horiz-adv-x="388" 
d="M345 314h-302q-21 0 -21 21v2q0 21 21 21h302q21 0 21 -21v-2q0 -21 -21 -21z" />
    <glyph glyph-name="emdash.cap" horiz-adv-x="653" 
d="M610 314h-567q-21 0 -21 21v2q0 21 21 21h567q21 0 21 -21v-2q0 -21 -21 -21z" />
    <glyph glyph-name="dagger.cap" horiz-adv-x="417" 
d="M193 468q-82 -11 -139 -11q-29 0 -29 24v1q0 24 29 24q25 0 60 -2.5t57 -5.5l22 -2q-10 102 -10 179q0 29 25 29h2q25 0 25 -29q0 -34 -2.5 -79t-4.5 -72l-2 -28q81 10 138 10q29 0 29 -24v-1q0 -24 -29 -24q-25 0 -59.5 2.5t-56.5 4.5l-22 3q10 -73 10 -128l-7 -322
q0 -21 -19 -21h-2q-19 0 -19 21q-7 214 -7 321q0 25 3 57.5t5 52.5z" />
    <glyph glyph-name="daggerdbl.cap" horiz-adv-x="417" 
d="M236 351q0 -25 -2.5 -56.5t-5.5 -50.5l-2 -19q81 10 138 10q29 0 29 -24v-1q0 -24 -29 -24q-25 0 -59.5 2.5t-56.5 5.5l-22 2q9 -100 9 -171q0 -29 -25 -29h-2q-25 0 -25 29q0 32 2.5 74.5t4.5 69.5l3 27q-82 -10 -139 -10q-29 0 -29 24v1q0 24 29 24q25 0 60 -2.5
t57 -5.5l22 -3q-11 71 -11 127q0 25 3 56t5 50l3 19q-82 -11 -139 -11q-29 0 -29 24v1q0 24 29 24q25 0 60 -2.5t57 -5.5l22 -2q-10 100 -10 171q0 29 25 29h2q25 0 25 -29q0 -32 -2.5 -74.5t-4.5 -69.5l-2 -27q81 10 138 10q29 0 29 -24v-1q0 -24 -29 -24q-25 0 -59.5 2.5
t-56.5 4.5l-22 3q10 -69 10 -124z" />
    <glyph glyph-name="quoteleft.cap" horiz-adv-x="505" 
d="M472 182q0 -78 -53.5 -132t-146.5 -54q-105 0 -172 71.5t-67 207.5q0 179 109.5 292t303.5 131q9 1 16.5 -4.5t7.5 -15.5v-1q0 -20 -24 -22q-143 -20 -223 -87t-80 -144q0 -27 11 -43.5t32 -22.5t41.5 -8t51 -3t47.5 -3q64 -6 105 -47.5t41 -114.5z" />
    <glyph glyph-name="quoteright.cap" horiz-adv-x="506" 
d="M33 518q0 78 53.5 132t146.5 54q105 0 172 -71.5t67 -207.5q0 -179 -109.5 -292t-303.5 -131q-9 -1 -16.5 4.5t-7.5 15.5v1q0 20 24 22q143 20 223 87t80 144q0 27 -11 43.5t-32 22.5t-41.5 8t-51 3t-47.5 3q-64 6 -105 47.5t-41 114.5z" />
    <glyph glyph-name="quotedblleft.cap" horiz-adv-x="987" 
d="M472 182q0 -78 -53.5 -132t-146.5 -54q-105 0 -172 71.5t-67 207.5q0 179 109.5 292t303.5 131q9 1 16.5 -4.5t7.5 -15.5v-1q0 -20 -24 -22q-143 -20 -223 -87t-80 -144q0 -27 11 -43.5t32 -22.5t41.5 -8t51 -3t47.5 -3q64 -6 105 -47.5t41 -114.5zM954 182
q0 -78 -53.5 -132t-146.5 -54q-105 0 -172 71.5t-67 207.5q0 179 109.5 292t303.5 131q9 1 16.5 -4.5t7.5 -15.5v-1q0 -20 -24 -22q-143 -20 -223 -87t-80 -144q0 -27 11 -43.5t32 -22.5t41.5 -8t51 -3t47.5 -3q64 -6 105 -47.5t41 -114.5z" />
    <glyph glyph-name="quotedblright.cap" horiz-adv-x="988" 
d="M33 518q0 78 53.5 132t146.5 54q105 0 172 -71.5t67 -207.5q0 -179 -109.5 -292t-303.5 -131q-9 -1 -16.5 4.5t-7.5 15.5v1q0 20 24 22q143 20 223 87t80 144q0 27 -11 43.5t-32 22.5t-41.5 8t-51 3t-47.5 3q-64 6 -105 47.5t-41 114.5zM515 518q0 78 53.5 132t146.5 54
q105 0 172 -71.5t67 -207.5q0 -179 -109.5 -292t-303.5 -131q-9 -1 -16.5 4.5t-7.5 15.5v1q0 20 24 22q143 20 223 87t80 144q0 27 -11 43.5t-32 22.5t-41.5 8t-51 3t-47.5 3q-64 6 -105 47.5t-41 114.5z" />
    <glyph glyph-name="guillemotleft.cap" horiz-adv-x="611" 
d="M315 9l-272 312q-11 11 -11 28v2q0 17 11 28l272 312q14 14 25 14h1q14 0 19 -13.5t-7 -27.5l-271 -312v-3l271 -313q12 -14 7 -27.5t-19 -13.5h-1q-11 0 -25 14zM527 9l-272 312q-11 11 -11 28v2q0 17 11 28l272 312q14 14 25 14h1q14 0 19 -13.5t-7 -27.5l-271 -312v-3
l271 -313q12 -14 7 -27.5t-19 -13.5h-1q-11 0 -25 14z" />
    <glyph glyph-name="guillemotright.cap" horiz-adv-x="611" 
d="M569 321l-272 -312q-14 -14 -25 -14h-1q-14 0 -19 13.5t7 27.5l271 313v3l-271 312q-12 14 -7 27.5t19 13.5h1q11 0 25 -14l272 -312q11 -11 11 -28v-2q0 -17 -11 -28zM357 321l-272 -312q-14 -14 -25 -14h-1q-14 0 -19 13.5t7 27.5l271 313v3l-271 312q-12 14 -7 27.5
t19 13.5h1q11 0 25 -14l272 -312q11 -11 11 -28v-2q0 -17 -11 -28z" />
    <glyph glyph-name="at.cap" horiz-adv-x="841" 
d="M281 286q0 -42 20.5 -62t53.5 -20q41 0 74.5 22.5t70.5 64.5l42 181q-34 25 -80 25q-75 0 -128 -64.5t-53 -146.5zM599 513l-54 -234q-17 -75 49 -75q65 0 114 50.5t49 156.5q0 125 -86 197.5t-225 72.5q-65 0 -128 -23t-115 -66t-83.5 -112t-31.5 -152
q0 -156 90.5 -233.5t237.5 -77.5q64 0 113.5 11.5t73 25t42 25t26.5 11.5q18 0 18 -17v-1q0 -15 -17 -27q-43 -31 -112 -48.5t-144 -17.5q-76 0 -141.5 21t-118.5 62t-83.5 109.5t-30.5 156.5q0 90 36.5 166t95.5 123.5t129.5 74t142.5 26.5q152 0 252.5 -82.5t100.5 -224.5
q0 -62 -19 -110.5t-50 -76.5t-67 -42.5t-73 -14.5q-50 0 -72 21.5t-22 55.5q-69 -79 -153 -79q-47 0 -78 30.5t-31 89.5q0 94 66.5 172.5t158.5 78.5q61 0 96 -33q6 20 11.5 28t16.5 8h1q21 0 15 -26z" />
    <glyph glyph-name="paragraph.cap" horiz-adv-x="546" 
d="M307 -4h-2q-22 0 -22 22v320h-16q-52 0 -92.5 8.5t-73.5 28.5t-50.5 56t-17.5 88q0 53 17.5 90t52 56t75 27t95.5 8h163q11 0 18.5 -7t7.5 -19v-656q0 -22 -22 -22h-2q-22 0 -22 22v638h-87v-638q0 -22 -22 -22z" />
    <glyph glyph-name="grave.cap" 
d="M210 728h-1q-9 0 -20 13l-54 65q-12 15 -6 28.5t22 13.5h1q13 0 23 -16l44 -70q9 -15 5.5 -24.5t-14.5 -9.5z" />
    <glyph glyph-name="dieresis.cap" 
d="M168 773q0 -14 -10 -24t-24 -10t-24 10t-10 24t10 24t24 10t24 -10t10 -24zM311 773q0 -14 -10 -24t-24 -10t-23.5 10t-9.5 24t10 24t23 10q14 0 24 -10t10 -24z" />
    <glyph glyph-name="macron.cap" 
d="M106 795h201q18 0 18 -18v-2q0 -19 -18 -19h-201q-19 0 -19 19v2q0 18 19 18z" />
    <glyph glyph-name="acute.cap" 
d="M203 728h-1q-11 0 -14.5 9.5t5.5 24.5l44 70q10 16 23 16h1q16 0 22 -13.5t-6 -28.5l-54 -65q-11 -13 -20 -13z" />
    <glyph glyph-name="circumflex.cap" 
d="M238 827l63 -67q10 -11 6.5 -21t-14.5 -10h-1q-7 0 -18 9l-69 63l-68 -63q-11 -9 -18 -9h-1q-11 0 -14.5 10t6.5 21l62 67q14 16 31 16h4q17 0 31 -16z" />
    <glyph glyph-name="caron.cap" 
d="M301 812l-63 -67q-14 -16 -31 -16h-4q-17 0 -31 16l-62 67q-10 11 -6.5 21t14.5 10h1q7 0 18 -9l68 -63l69 63q11 9 18 9h1q11 0 14.5 -10t-6.5 -21z" />
    <glyph glyph-name="breve.cap" 
d="M206 731q-85 0 -113 77q-4 14 -0.5 22.5t14.5 8.5h1q10 0 21 -19q1 -3 2 -4q25 -46 75 -46t75 46q16 21 23 23h1q11 0 14.5 -8.5t-0.5 -22.5q-28 -77 -113 -77z" />
    <glyph glyph-name="dotaccent.cap" 
d="M241 774q0 -14 -10.5 -24t-23.5 -10q-14 0 -24 10t-10 24t10 24t24 10t24 -10t10 -24z" />
    <glyph glyph-name="ring.cap" 
d="M293 820q0 -38 -26 -61.5t-61 -23.5q-36 0 -62 23.5t-26 61.5t26 62t62 24q35 0 61 -24t26 -62zM155 820q0 -24 14.5 -38t36.5 -14t36.5 14.5t14.5 37.5t-15 38t-36 15q-22 0 -36.5 -15t-14.5 -38z" />
    <glyph glyph-name="tilde.cap" 
d="M259 741q-25 0 -59.5 20t-46.5 20q-27 0 -38 -27q-8 -19 -20 -19h-1q-11 0 -14.5 9t-0.5 22q6 25 25.5 40.5t45.5 15.5q24 0 58.5 -19.5t47.5 -19.5q26 0 37 27q8 19 20 19h1q11 0 14.5 -9t0.5 -22q-6 -25 -25 -41t-45 -16z" />
    <glyph glyph-name="hungarumlaut.cap" 
d="M153 728h-1q-10 0 -14 8t0 18l31 71q9 23 25 23h1q14 0 20 -11.5t-3 -27.5l-42 -69q-7 -12 -17 -12zM271 729h-1q-10 0 -14 7.5t0 18.5l31 71q9 23 25 23h1q14 0 20 -11.5t-3 -27.5l-42 -69q-7 -12 -17 -12z" />
    </font>
</defs>
</svg>
