<?xml version="1.0" standalone="no"?>
<!DOCTYPE svg PUBLIC "-//W3C//DTD SVG 1.1//EN" "http://www.w3.org/Graphics/SVG/1.1/DTD/svg11.dtd" >
<svg>
<metadata>
Created by FontForge 20110222 at Sat Jun 14 13:47:33 2014
 By Orthosie Webhosting
(c)2009 Christian Schwartz, under exclusive license to Schwartzco Inc./Commercial Type. All rights reserved.
</metadata>
<defs>
<font id="StagSansRoundLightItalic" horiz-adv-x="412" >
  <font-face 
    font-family="StagSansRoundLightItalic"
    font-weight="300"
    font-style="italic"
    font-stretch="normal"
    units-per-em="1000"
    panose-1="2 11 3 3 4 0 0 2 0 4"
    ascent="838"
    descent="-162"
    x-height="521"
    cap-height="703"
    bbox="-210 -174 1042 898"
    underline-thickness="50"
    underline-position="-50"
    slope="-12"
    unicode-range="U+0020-FB02"
  />
<missing-glyph horiz-adv-x="500" 
 />
    <glyph glyph-name="f_f" unicode="ff" horiz-adv-x="538" 
d="M396 483h-206l-105 -461q-5 -25 -26 -25h-1q-12 0 -18.5 9t-2.5 25l103 452h-46q-20 0 -20 18v2q0 18 20 18h55l12 55q28 121 141 121q24 0 44 -4q22 -4 22 -20v-1q0 -18 -21 -18q-3 0 -18 1t-25 1q-73 0 -92 -81l-12 -54h205l13 59q29 123 141 123q24 0 44 -4
q22 -4 22 -20v-1q0 -18 -21 -18q-3 0 -18 1t-25 1q-73 0 -92 -83l-13 -58h100q20 0 20 -18v-2q0 -18 -20 -18h-110l-105 -461q-5 -25 -26 -25h-1q-12 0 -18.5 9t-2.5 25z" />
    <glyph glyph-name=".notdef" horiz-adv-x="500" 
 />
    <glyph glyph-name=".null" horiz-adv-x="0" 
 />
    <glyph glyph-name="nonmarkingreturn" horiz-adv-x="333" 
 />
    <glyph glyph-name="space" unicode=" " horiz-adv-x="196" 
 />
    <glyph glyph-name="exclam" unicode="!" horiz-adv-x="215" 
d="M64 167q92 418 112 510q6 26 27 26h1q14 0 20.5 -10t3.5 -24l-124 -509q-5 -19 -21 -19h-1q-23 0 -18 26zM93 34q0 -16 -11 -27t-28 -11q-16 0 -27 11t-11 27t11 27.5t27 11.5t27.5 -11.5t11.5 -27.5z" />
    <glyph glyph-name="quotedbl" unicode="&#x22;" horiz-adv-x="218" 
d="M107 547q15 90 21 130q3 26 26 26h1q15 0 22 -10t3 -23l-38 -128q-5 -17 -18 -17h-1q-19 0 -16 22zM214 547q15 90 21 130q3 26 26 26h1q15 0 22 -10t3 -23l-38 -128q-5 -17 -18 -17h-1q-19 0 -16 22z" />
    <glyph glyph-name="numbersign" unicode="#" horiz-adv-x="442" 
d="M196 427l-34 -127h129l34 127h-129zM104 254h-56q-23 0 -23 22v2q0 22 23 22h69l34 127h-56q-23 0 -23 22v2q0 21 23 21h69l57 210q6 21 21 21h1q12 0 18 -8t3 -20l-55 -203h129l57 210q6 21 21 21h1q12 0 18 -8t3 -20l-55 -203h58q22 0 22 -21v-2q0 -22 -22 -22h-71
l-34 -127h57q23 0 23 -22v-2q0 -22 -23 -22h-70l-64 -236q-6 -21 -21 -21h-1q-12 0 -18 8t-3 20l61 229h-129l-63 -236q-6 -21 -21 -21h-1q-12 0 -18 8t-3 20z" />
    <glyph glyph-name="dollar" unicode="$" horiz-adv-x="492" 
d="M450 215q0 -107 -65 -163t-173 -56h-14l-18 -81q-5 -20 -20 -20h-1q-25 0 -19 29l17 76q-98 13 -157 67q-16 15 -16 30v1q0 10 6.5 17t18.5 7q10 0 22.5 -11t26 -24.5t42.5 -27t67 -18.5l71 307q-76 28 -112 62t-36 99q0 88 61 141.5t162 53.5h9l10 43q5 20 20 20h1
q25 0 19 -29l-9 -37q74 -10 124 -54q16 -15 16 -29v-1q0 -10 -6.5 -17t-16.5 -7q-12 0 -25.5 13.5t-38.5 30t-63 22.5l-64 -279q79 -30 120 -66t41 -99zM399 211q0 46 -30.5 73t-91.5 50l-69 -296h5q84 0 135 44.5t51 128.5zM139 513q0 -47 27.5 -72.5t82.5 -46.5l63 268h-1
q-77 0 -124.5 -39.5t-47.5 -109.5z" />
    <glyph glyph-name="percent" unicode="%" horiz-adv-x="717" 
d="M120 490q0 -44 23 -70.5t64 -26.5q57 0 95.5 51.5t38.5 125.5q0 44 -22.5 71t-64.5 27q-57 0 -95.5 -52t-38.5 -126zM387 568q0 -87 -53.5 -149t-128.5 -62q-60 0 -95.5 36.5t-35.5 98.5q0 87 54 149.5t128 62.5q61 0 96 -36.5t35 -99.5zM687 699l-594 -721
q-13 -15 -23 -15h-1q-11 0 -15.5 10.5t4.5 22.5l594 721q12 15 23 15h1q11 0 15.5 -10.5t-4.5 -22.5zM405 129q0 -44 23 -70.5t64 -26.5q57 0 95.5 51.5t38.5 125.5q0 44 -22.5 71t-64.5 27q-57 0 -95.5 -52t-38.5 -126zM672 207q0 -87 -53.5 -149t-128.5 -62
q-60 0 -95.5 36.5t-35.5 98.5q0 87 54 149.5t128 62.5q61 0 96 -36.5t35 -99.5z" />
    <glyph glyph-name="ampersand" unicode="&#x26;" horiz-adv-x="638" 
d="M442 88q-98 -93 -221 -93q-91 0 -144.5 50.5t-53.5 128.5q0 91 60 149.5t151 87.5q-26 52 -26 105q0 79 56.5 133.5t148.5 54.5q80 0 124 -38q15 -14 15 -27v-1q0 -8 -6 -14.5t-16 -6.5t-22 11.5t-35 22.5t-60 11q-69 0 -111 -40.5t-42 -102.5q0 -63 43 -129l152 -232
q59 77 99 212q7 21 23 21h1q14 0 20 -9t2 -24q-40 -136 -123 -233l58 -88q10 -16 3 -28t-21 -12h-1q-14 0 -26 18zM77 179q0 -61 39.5 -102.5t110.5 -41.5q111 0 195 84l-171 259q-174 -58 -174 -199z" />
    <glyph glyph-name="quotesingle" unicode="'" horiz-adv-x="117" 
d="M107 547q15 90 21 130q3 26 26 26h1q15 0 22 -10t3 -23l-38 -128q-5 -17 -18 -17h-1q-19 0 -16 22z" />
    <glyph glyph-name="parenleft" unicode="(" horiz-adv-x="302" 
d="M56 225q0 161 76.5 300.5t218.5 210.5q12 6 20.5 1.5t8.5 -13.5v-1q0 -12 -20 -22q-122 -67 -188 -196t-66 -279q0 -163 88 -233q19 -15 19 -26v-1q0 -12 -11.5 -15.5t-24.5 4.5q-121 76 -121 270z" />
    <glyph glyph-name="parenright" unicode=")" horiz-adv-x="302" 
d="M286 467q0 -161 -76.5 -300.5t-218.5 -210.5q-12 -6 -20.5 -1.5t-8.5 13.5v1q0 12 20 22q122 67 188 196t66 279q0 163 -88 233q-19 15 -19 26v1q0 12 11.5 15.5t24.5 -4.5q121 -76 121 -270z" />
    <glyph glyph-name="asterisk" unicode="*" horiz-adv-x="353" 
d="M241 679q3 24 23 24h1q11 0 17.5 -7.5t3.5 -22.5l-27 -114l104 29q16 4 24.5 -2t8.5 -18v-1q0 -21 -26 -24l-107 -12l59 -97q8 -14 2 -25.5t-20 -11.5h-1q-14 0 -22 17l-45 106l-80 -90q-9 -9 -18 -9h-1q-13 0 -18.5 13.5t7.5 26.5l89 77l-104 44q-18 7 -18 22v1
q0 14 11.5 21t25.5 -1l99 -63z" />
    <glyph glyph-name="plus" unicode="+" horiz-adv-x="462" 
d="M185 167l36 156h-152q-22 0 -22 22v2q0 21 22 21h162l39 165q5 26 25 26h1q12 0 18.5 -9t2.5 -26l-37 -156h152q21 0 21 -21v-2q0 -22 -21 -22h-162l-38 -165q-5 -26 -25 -26h-1q-12 0 -18.5 9t-2.5 26z" />
    <glyph glyph-name="comma" unicode="," horiz-adv-x="143" 
d="M67 22q0 -80 -91 -98q-23 -5 -23 12v1q0 12 18 18q42 14 42 34q0 10 -12 20q-14 12 -14 28q0 15 11.5 25.5t27.5 10.5q41 0 41 -51z" />
    <glyph glyph-name="hyphen" unicode="-" horiz-adv-x="226" 
d="M192 276h-142q-21 0 -21 21v2q0 21 21 21h142q21 0 21 -21v-2q0 -21 -21 -21z" />
    <glyph glyph-name="period" unicode="." horiz-adv-x="143" 
d="M64 36q0 -16 -12 -28t-28 -12t-26.5 10t-10.5 27t11.5 28.5t28.5 11.5t27 -10.5t10 -26.5z" />
    <glyph glyph-name="slash" unicode="/" horiz-adv-x="300" 
d="M392 709l-406 -743q-10 -18 -23 -18h-1q-13 0 -18.5 10.5t1.5 24.5l406 743q10 18 23 18h1q13 0 18.5 -10.5t-1.5 -24.5z" />
    <glyph glyph-name="zero" unicode="0" horiz-adv-x="651" 
d="M109 249q0 -100 47 -155.5t135 -55.5q126 0 208.5 120t82.5 294q0 98 -46.5 154t-133.5 56q-123 0 -208 -124.5t-85 -288.5zM635 451q0 -200 -100 -327.5t-245 -127.5q-108 0 -171 68t-63 187q0 191 101.5 322t245.5 131q107 0 169.5 -67t62.5 -186z" />
    <glyph glyph-name="one" unicode="1" horiz-adv-x="307" 
d="M303 674l-150 -652q-5 -25 -26 -25h-2q-14 0 -20.5 10.5t-2.5 27.5l140 606l-117 -59q-12 -6 -18 -6q-17 0 -17 19v1q0 12 25 25l139 70q20 10 28 10h1q25 0 20 -27z" />
    <glyph glyph-name="two" unicode="2" horiz-adv-x="511" 
d="M393 0h-402q-21 0 -21 20v3q0 17 26 37l242 190q108 85 146 127q75 82 75 163q0 60 -38.5 90t-105.5 30q-41 0 -74 -10.5t-49 -23.5t-31.5 -23.5t-25.5 -10.5q-11 0 -17.5 6t-6.5 16v1q0 17 26 35q34 25 85 39.5t100 14.5q84 0 137 -41t53 -121q0 -38 -15.5 -76.5
t-35 -67t-57 -64.5t-62 -56t-69.5 -55l-228 -178h348q21 0 21 -22v-1q0 -22 -21 -22z" />
    <glyph glyph-name="three" unicode="3" horiz-adv-x="500" 
d="M445 542q0 60 -39.5 89.5t-100.5 29.5q-42 0 -73 -9t-45 -19.5t-27 -19.5t-22 -9q-10 0 -16 6t-6 15v1q0 17 26 34q66 44 168 44q79 0 132.5 -40t53.5 -120q0 -73 -43 -120.5t-118 -60.5v-2q51 -15 81.5 -54t30.5 -95q0 -96 -65 -156t-171 -60q-136 0 -207 77
q-13 14 -13 28v1q0 9 6 15.5t17 6.5q9 0 23.5 -13.5t31 -29t54 -29t86.5 -13.5q85 0 135.5 46.5t50.5 128.5q0 61 -39 94.5t-115 33.5h-27q-22 0 -22 21v2q0 21 22 21h43q85 0 136.5 38.5t51.5 117.5z" />
    <glyph glyph-name="four" unicode="4" horiz-adv-x="551" 
d="M68 225v-2h306l93 402h-2zM331 35l34 146h-334q-22 0 -22 22v1q0 17 26 43l431 435q19 19 37 19h4q31 0 23 -32l-103 -446h70q20 0 20 -20v-2q0 -20 -20 -20h-79l-37 -159q-5 -25 -26 -25h-1q-14 0 -20.5 10.5t-2.5 27.5z" />
    <glyph glyph-name="five" unicode="5" horiz-adv-x="518" 
d="M186 700h325q22 0 22 -22v-2q0 -22 -22 -22h-318l-60 -263h2q64 60 164 60q83 0 132 -48t49 -128q0 -121 -82.5 -200t-206.5 -79q-114 0 -177 54q-18 15 -18 31v1q0 9 6.5 16t17.5 7q10 0 22.5 -10.5t25.5 -23t45 -23t77 -10.5q101 0 168 65.5t67 170.5q0 63 -36.5 98.5
t-103.5 35.5q-38 0 -70 -12t-48.5 -26.5t-33.5 -26.5t-29 -12q-13 0 -20 8.5t-4 22.5l71 312q7 26 35 26z" />
    <glyph glyph-name="six" unicode="6" horiz-adv-x="581" 
d="M236 576q-92 -90 -121 -239q99 89 226 89q86 0 140 -45.5t54 -129.5q0 -108 -74.5 -181.5t-181.5 -73.5q-105 0 -165.5 66t-60.5 179q0 101 41 202t115 168q101 93 237 93q79 0 127 -27q22 -12 22 -31v-1q0 -24 -23 -24q-10 0 -24.5 10.5t-40 20.5t-63.5 10
q-120 0 -208 -86zM326 384q-58 0 -116 -25.5t-101 -66.5q-3 -27 -3 -52q0 -93 43.5 -147.5t130.5 -54.5t144.5 59t57.5 152q0 66 -41 100.5t-115 34.5z" />
    <glyph glyph-name="seven" unicode="7" horiz-adv-x="506" 
d="M536 628l-407 -613q-12 -19 -28 -19h-1q-16 0 -22.5 14t4.5 30l421 612v2h-372q-22 0 -22 22v2q0 22 22 22h406q22 0 22 -21v-1q0 -14 -23 -50z" />
    <glyph glyph-name="eight" unicode="8" horiz-adv-x="565" 
d="M514 209q0 -98 -74.5 -155.5t-189.5 -57.5q-92 0 -160 45t-68 136q0 80 57 134t148 68v2q-97 39 -97 134q0 84 66.5 136.5t161.5 52.5q84 0 140.5 -42.5t56.5 -119.5q0 -73 -43.5 -116t-116.5 -57v-2q119 -38 119 -158zM75 180q0 -72 49 -107.5t127 -35.5
q93 0 151.5 45.5t58.5 127.5q0 72 -50.5 107.5t-124.5 35.5q-93 0 -152 -49.5t-59 -123.5zM182 514q0 -61 43.5 -90t105.5 -29q79 0 125.5 37.5t46.5 107.5q0 62 -40.5 92.5t-105.5 30.5q-75 0 -125 -39.5t-50 -109.5z" />
    <glyph glyph-name="nine" unicode="9" horiz-adv-x="579" 
d="M277 275q-86 0 -140.5 45.5t-54.5 128.5q0 106 76 180.5t183 74.5q104 0 163 -64.5t59 -167.5q0 -120 -41.5 -226t-118.5 -171q-94 -80 -226 -80q-91 0 -144 35q-17 11 -17 27v1q0 24 24 24q9 0 22 -11t41.5 -22t74.5 -11q116 0 199 73q96 86 124 250q-100 -86 -224 -86z
M292 316q57 0 114.5 25.5t100.5 66.5q4 44 4 67q0 84 -43.5 135.5t-127.5 51.5q-88 0 -146.5 -59t-58.5 -152q0 -66 41.5 -100.5t115.5 -34.5z" />
    <glyph glyph-name="colon" unicode=":" horiz-adv-x="148" 
d="M67 36q0 -16 -11.5 -28t-28.5 -12t-27 10t-10 27t12 28.5t28 11.5t26.5 -10.5t10.5 -26.5zM141 347q0 -17 -11.5 -28.5t-28.5 -11.5t-27 10.5t-10 26.5t12 28t28 12t26.5 -10t10.5 -27z" />
    <glyph glyph-name="semicolon" unicode=";" horiz-adv-x="148" 
d="M141 347q0 -17 -11.5 -28.5t-28.5 -11.5t-27 10.5t-10 26.5t12 28t28 12t26.5 -10t10.5 -27zM70 22q0 -80 -91 -98q-23 -5 -23 12v1q0 12 18 18q42 14 42 34q0 10 -12 20q-14 12 -14 28q0 15 11.5 25.5t27.5 10.5q41 0 41 -51z" />
    <glyph glyph-name="less" unicode="&#x3c;" horiz-adv-x="444" 
d="M63 366l380 171q17 7 26 1.5t9 -16.5v-1q0 -14 -25 -25l-353 -159v-1l273 -175q15 -10 15 -22v-1q0 -13 -11.5 -19t-28.5 4l-291 190q-15 10 -15 24v1q0 19 21 28z" />
    <glyph glyph-name="equal" unicode="=" horiz-adv-x="472" 
d="M77 420h382q21 0 21 -21v-2q0 -21 -21 -21h-382q-21 0 -21 21v2q0 21 21 21zM39 253h382q21 0 21 -21v-2q0 -21 -21 -21h-382q-21 0 -21 21v2q0 21 21 21z" />
    <glyph glyph-name="greater" unicode="&#x3e;" horiz-adv-x="444" 
d="M413 293l-380 -171q-17 -7 -26 -1.5t-9 16.5v1q0 14 25 25l353 159v1l-273 175q-15 10 -15 22v1q0 13 11.5 19t28.5 -4l291 -190q15 -10 15 -24v-1q0 -19 -21 -28z" />
    <glyph glyph-name="question" unicode="?" horiz-adv-x="428" 
d="M136 141h-1q-22 0 -20 27q4 65 36 109.5t100 94.5q10 8 38.5 26.5t43.5 31t34.5 33.5t28.5 46t9 56q0 51 -33.5 74t-83.5 23q-42 0 -71.5 -8.5t-40.5 -18.5t-22.5 -18.5t-21.5 -8.5q-9 0 -15 6t-6 15v1q0 20 26 36q59 38 155 38q69 0 118 -35t49 -104q0 -38 -11.5 -69
t-36.5 -56.5t-46.5 -42.5t-56.5 -41q-8 -5 -12 -8q-35 -24 -53 -38.5t-39 -36.5t-31 -48.5t-15 -61.5q-2 -22 -22 -22zM156 34q0 -16 -11 -27t-28 -11t-27.5 11t-10.5 27t11 27.5t27 11.5t27.5 -11.5t11.5 -27.5z" />
    <glyph glyph-name="at" unicode="@" horiz-adv-x="867" 
d="M621 72q-52 0 -75.5 24.5t-21.5 62.5q-79 -89 -164 -89q-51 0 -82.5 33t-31.5 95q0 99 69.5 184t169.5 85q62 0 103 -35q6 20 11.5 28t16.5 8h1q21 0 15 -24l-58 -245q-21 -90 55 -90q68 0 117.5 56t49.5 170q0 134 -89.5 209t-236.5 75q-69 0 -135 -24.5t-120.5 -69.5
t-87.5 -118t-33 -162q0 -166 96 -246.5t250 -80.5q64 0 113.5 11.5t73 25.5t42 25.5t26.5 11.5q18 0 18 -17v-1q0 -15 -17 -27q-43 -31 -112 -48.5t-144 -17.5q-79 0 -147.5 21t-124 63t-87.5 114t-32 166q0 96 38 176.5t99 130.5t135 77.5t149 27.5q160 0 265 -85.5
t105 -236.5q0 -129 -65.5 -196t-153.5 -67zM292 198q0 -45 21 -67.5t54 -22.5q32 0 64 17t49.5 33.5t48.5 49.5l45 192q-37 28 -88 28q-78 0 -136 -71t-58 -159z" />
    <glyph glyph-name="A" unicode="A" horiz-adv-x="616" 
d="M-13 33l378 643q15 24 39 24h6q29 0 33 -31l83 -640q5 -32 -25 -32h-1q-22 0 -25 26l-25 196h-303l-115 -198q-15 -25 -29 -25h-1q-12 0 -17.5 11.5t2.5 25.5zM394 641l-221 -378h271l-48 378h-2z" />
    <glyph glyph-name="B" unicode="B" horiz-adv-x="589" 
d="M251 0h-188q-13 0 -19.5 9.5t-3.5 23.5l148 639q7 28 34 28h153q86 0 136 -39.5t50 -114.5t-43.5 -119t-118.5 -59v-2q61 -11 96.5 -49.5t35.5 -103.5q0 -105 -79 -159t-201 -54zM165 346l-70 -303h159q99 0 161 42.5t62 129.5q0 65 -43 98t-122 33h-147zM237 657
l-63 -268h141q84 0 138.5 38t54.5 115q0 57 -36.5 86t-98.5 29h-136z" />
    <glyph glyph-name="C" unicode="C" horiz-adv-x="625" 
d="M525 48q-77 -52 -195 -52q-125 0 -196.5 71t-71.5 201q0 108 45 206t138.5 164t216.5 66q107 0 161 -40q22 -16 22 -33v-1q0 -10 -6.5 -17t-17.5 -7q-10 0 -21.5 8.5t-23 19t-42.5 19t-76 8.5q-65 0 -121.5 -23t-96.5 -61.5t-68.5 -89t-42 -106.5t-13.5 -113
q0 -110 56 -169.5t160 -59.5q49 0 86.5 11t55 23.5t32.5 23.5t23 11q24 0 24 -23v-1q0 -18 -28 -36z" />
    <glyph glyph-name="D" unicode="D" horiz-adv-x="682" 
d="M222 700h166q129 0 200.5 -72t71.5 -198q0 -113 -44.5 -209.5t-134 -158.5t-206.5 -62h-212q-14 0 -19.5 10.5t-2.5 24.5l147 638q7 27 34 27zM236 657l-141 -614h179q79 0 143 33t104.5 88t62.5 123.5t22 142.5q0 104 -55.5 165.5t-164.5 61.5h-150z" />
    <glyph glyph-name="E" unicode="E" horiz-adv-x="557" 
d="M423 340h-259l-68 -297h353q21 0 21 -21v-1q0 -21 -21 -21h-386q-14 0 -19.5 10.5t-2.5 24.5l147 638q7 27 34 27h357q21 0 21 -21v-2q0 -21 -21 -21h-342l-64 -273h250q21 0 21 -21v-1q0 -21 -21 -21z" />
    <glyph glyph-name="F" unicode="F" horiz-adv-x="540" 
d="M160 321l-69 -300q-5 -24 -26 -24h-1q-14 0 -20.5 10t-2.5 27l147 640q6 26 34 26h358q21 0 21 -21v-2q0 -21 -21 -21h-343l-67 -292h247q21 0 21 -21v-1q0 -21 -21 -21h-257z" />
    <glyph glyph-name="G" unicode="G" horiz-adv-x="667" 
d="M428 343h152q17 0 24.5 -10.5t4.5 -24.5l-53 -232q-6 -29 -38 -45q-70 -35 -184 -35q-122 0 -197 66t-75 202q0 79 26 156.5t73 141t122.5 103t165.5 39.5q117 0 183 -47q21 -15 21 -32v-1q0 -11 -7 -18.5t-19 -7.5q-11 0 -23.5 10t-26.5 21.5t-48.5 21.5t-83.5 10
q-63 0 -117 -23.5t-92.5 -63t-66 -91t-41 -108t-13.5 -112.5q0 -112 58.5 -168t163.5 -56q99 0 167 37l50 224h-126q-21 0 -21 21v1q0 21 21 21z" />
    <glyph glyph-name="H" unicode="H" horiz-adv-x="687" 
d="M691 665l-148 -643q-5 -25 -26 -25h-1q-14 0 -20.5 10.5t-2.5 27.5l70 304h-399l-73 -317q-5 -25 -26 -25h-1q-14 0 -20.5 10.5t-2.5 27.5l148 643q5 25 26 25h1q14 0 20.5 -10.5t2.5 -27.5l-65 -282h399l68 295q5 25 26 25h1q14 0 20.5 -10.5t2.5 -27.5z" />
    <glyph glyph-name="I" unicode="I" horiz-adv-x="238" 
d="M43 35l148 643q5 25 26 25h1q14 0 20.5 -10.5t2.5 -27.5l-148 -643q-5 -25 -26 -25h-1q-14 0 -20.5 10.5t-2.5 27.5z" />
    <glyph glyph-name="J" unicode="J" horiz-adv-x="414" 
d="M422 665l-120 -519q-35 -151 -196 -151q-74 0 -121 31q-16 11 -16 27v1q0 24 24 24q8 0 19.5 -10t35 -20t59.5 -10q63 0 97 29t48 89l120 522q5 25 26 25h1q14 0 20.5 -10.5t2.5 -27.5z" />
    <glyph glyph-name="K" unicode="K" horiz-adv-x="617" 
d="M41 34l148 644q5 25 26 25h1q14 0 20.5 -10t2.5 -27l-84 -364l447 389q14 12 24 12h1q14 0 18.5 -13.5t-8.5 -25.5l-294 -254l180 -375q7 -14 0 -26t-22 -12h-1q-17 0 -27 22l-170 357l-163 -141l-49 -213q-5 -25 -26 -25h-1q-14 0 -20.5 10t-2.5 27z" />
    <glyph glyph-name="L" unicode="L" horiz-adv-x="543" 
d="M433 0h-370q-13 0 -19 10t-3 24l148 644q5 25 26 25h1q14 0 20.5 -10t2.5 -27l-143 -623h337q21 0 21 -21v-1q0 -21 -21 -21z" />
    <glyph glyph-name="M" unicode="M" horiz-adv-x="807" 
d="M811 665l-148 -643q-5 -25 -26 -25h-1q-14 0 -20.5 10t-2.5 27l140 611h-5l-374 -627q-13 -21 -28 -21h-2q-19 0 -22 25l-86 623h-4l-144 -623q-5 -25 -26 -25h-1q-28 0 -21 34l147 639q7 30 34 30h25q31 0 34 -29l82 -592h1l352 594q15 27 44 27h24q18 0 24.5 -10
t3.5 -25z" />
    <glyph glyph-name="N" unicode="N" horiz-adv-x="682" 
d="M688 669l-148 -643q-6 -28 -30 -28h-1q-24 0 -36 30l-242 611h-2l-142 -617q-5 -25 -24 -25h-1q-29 0 -22 34l147 639q7 30 35 30h12q26 0 36 -26l233 -587h2l136 591q5 25 24 25h1q29 0 22 -34z" />
    <glyph glyph-name="O" unicode="O" horiz-adv-x="716" 
d="M115 272q0 -107 54 -170.5t161 -63.5q93 0 166 59.5t109 147.5t36 184q0 105 -53.5 169t-160.5 64q-92 0 -165 -59.5t-110 -147.5t-37 -183zM694 429q0 -109 -43.5 -207t-129 -162t-193.5 -64q-126 0 -196 75.5t-70 201.5q0 108 44 205.5t129.5 161.5t192.5 64
q126 0 196 -74.5t70 -200.5z" />
    <glyph glyph-name="P" unicode="P" horiz-adv-x="577" 
d="M237 656l-74 -321h129q234 0 234 199q0 122 -165 122h-124zM222 700h143q213 0 213 -168q0 -123 -77.5 -181t-211.5 -58h-136l-62 -272q-5 -24 -26 -24h-1q-14 0 -20.5 10t-2.5 27l147 639q7 27 34 27z" />
    <glyph glyph-name="Q" unicode="Q" horiz-adv-x="716" 
d="M589 -94q-11 0 -36 7l-278 78q-213 60 -213 282q0 108 44 205.5t129.5 161.5t192.5 64q126 0 196 -74.5t70 -200.5q0 -103 -39 -196.5t-113.5 -156t-167.5 -70.5v-2l216 -47q23 -4 23 -24v-1q0 -26 -24 -26zM116 272q0 -107 53.5 -170.5t160.5 -63.5q93 0 165.5 59.5
t108 147.5t35.5 184q0 105 -52.5 169t-159.5 64q-92 0 -165 -59.5t-109.5 -147.5t-36.5 -183z" />
    <glyph glyph-name="R" unicode="R" horiz-adv-x="602" 
d="M160 318l-69 -297q-5 -24 -27 -24h-1q-13 0 -19.5 10t-2.5 27l147 639q7 27 34 27h149q97 0 149 -41t52 -120q0 -177 -181 -213l112 -290q6 -16 -1 -27.5t-21 -11.5h-1q-16 0 -25 21l-114 301q-13 -1 -40 -1h-141zM237 656l-68 -296h131q107 0 163 42t56 139
q0 115 -152 115h-130z" />
    <glyph glyph-name="S" unicode="S" horiz-adv-x="527" 
d="M467 215q0 -107 -65 -163t-173 -56q-130 0 -211 68q-17 14 -17 31v1q0 11 7 18.5t19 7.5q11 0 26 -13t31.5 -28.5t55 -28.5t90.5 -13q84 0 134.5 44t50.5 128q0 51 -34.5 77.5t-110.5 53.5q-42 15 -67.5 27.5t-49.5 31.5t-35 45.5t-11 62.5q0 87 62 141t161 54
q103 0 169 -50q23 -17 23 -37v-1q0 -25 -25 -25q-11 0 -24.5 11t-27 24t-44.5 24t-73 11q-73 0 -122 -39.5t-49 -108.5q0 -29 9.5 -49.5t33 -35.5t41.5 -22.5t57 -21.5q84 -30 126.5 -66t42.5 -103z" />
    <glyph glyph-name="T" unicode="T" horiz-adv-x="556" 
d="M400 657l-147 -635q-5 -25 -26 -25h-1q-14 0 -20.5 10t-2.5 27l144 623h-203q-21 0 -21 21v1q0 21 21 21h465q21 0 21 -21v-1q0 -21 -21 -21h-209z" />
    <glyph glyph-name="U" unicode="U" horiz-adv-x="679" 
d="M686 669l-107 -464q-48 -209 -263 -209q-133 0 -195.5 65.5t-32.5 195.5l97 421q5 25 26 25h1q14 0 20.5 -10.5t2.5 -27.5l-95 -413q-48 -210 177 -212q86 0 139.5 37.5t74.5 131.5l108 469q5 25 24 25h1q12 0 19 -9t3 -25z" />
    <glyph glyph-name="V" unicode="V" horiz-adv-x="603" 
d="M251 -3h-2q-26 0 -30 25l-87 648q-2 15 4.5 24t20.5 9h1q22 0 25 -26l80 -607h2l354 616q10 17 23 17h1q14 0 20 -12t-2 -26l-375 -646q-14 -22 -35 -22z" />
    <glyph glyph-name="W" unicode="W" horiz-adv-x="891" 
d="M572 677l35 -596h3l292 602q10 20 25 20h1q17 0 22.5 -12.5t-1.5 -26.5l-318 -644q-11 -23 -35 -23h-5q-27 0 -29 26l-35 584h-1l-296 -587q-12 -23 -35 -23h-5q-27 0 -29 26l-27 648q-2 32 26 32h1q23 0 25 -30l21 -592h3l304 599q10 22 31 22h3q23 0 24 -25z" />
    <glyph glyph-name="X" unicode="X" horiz-adv-x="604" 
d="M317 330l-277 -318q-14 -15 -24 -15h-1q-14 0 -19.5 13t4.5 25l291 331l-130 299q-6 14 1 26t22 12h1q17 0 25 -21l123 -287l256 293q14 15 24 15h1q14 0 19.5 -13t-4.5 -25l-269 -306l141 -324q6 -14 -1 -26t-22 -12h-1q-15 0 -25 21z" />
    <glyph glyph-name="Y" unicode="Y" horiz-adv-x="552" 
d="M317 291l-62 -269q-5 -25 -27 -25h-1q-14 0 -20.5 10t-2.5 27l60 261l-135 371q-5 15 1.5 26t21.5 11h1q18 0 26 -22l123 -338h1l271 343q13 17 24 17h1q15 0 20.5 -13.5t-4.5 -26.5z" />
    <glyph glyph-name="Z" unicode="Z" horiz-adv-x="581" 
d="M13 59l549 596v2h-372q-20 0 -20 21v2q0 20 21 20h422q21 0 21 -20v-2q0 -13 -21 -37l-551 -597v-2h388q20 0 20 -20v-2q0 -20 -20 -20h-437q-21 0 -21 20v2q0 13 21 37z" />
    <glyph glyph-name="bracketleft" unicode="[" horiz-adv-x="292" 
d="M178 -49h-133q-13 0 -19.5 9.5t-3.5 23.5l170 729q5 28 34 28h125q19 0 19 -19v-1q0 -20 -19 -20h-113l-164 -710h104q19 0 19 -19v-1q0 -20 -19 -20z" />
    <glyph glyph-name="backslash" unicode="\" horiz-adv-x="312" 
d="M200 -27l-88 743q-2 12 4 20t18 8h1q20 0 23 -25l88 -743q2 -12 -4 -20t-18 -8h-1q-20 0 -23 25z" />
    <glyph glyph-name="bracketright" unicode="]" horiz-adv-x="292" 
d="M157 741h133q13 0 19.5 -9.5t3.5 -23.5l-170 -729q-5 -28 -34 -28h-125q-19 0 -19 19v1q0 20 19 20h113l164 710h-104q-19 0 -19 19v1q0 20 19 20z" />
    <glyph glyph-name="asciicircum" unicode="^" horiz-adv-x="391" 
d="M105 465h-1q-12 0 -16.5 11t4.5 22l171 189q13 15 31 15h2q20 0 28 -18l84 -189q5 -10 -0.5 -20t-18.5 -10h-1q-14 0 -21 16l-78 173h-1l-162 -176q-11 -13 -21 -13z" />
    <glyph glyph-name="underscore" unicode="_" horiz-adv-x="327" 
d="M223 -162h-302q-17 0 -17 17v1q0 17 17 17h302q17 0 17 -17v-1q0 -17 -17 -17z" />
    <glyph glyph-name="grave" unicode="`" 
d="M252 682l45 -81q7 -13 3 -22t-14 -9h-1q-10 0 -20 14l-57 78q-10 15 -3.5 28t20.5 13h1q15 0 26 -21z" />
    <glyph glyph-name="a" unicode="a" horiz-adv-x="479" 
d="M154 -4q-66 0 -104.5 34.5t-38.5 96.5q0 82 61 127t165 45q63 0 128 -24l17 72q17 72 -12.5 106t-90.5 34q-49 0 -82 -11.5t-49.5 -23t-24.5 -11.5q-21 0 -21 20v1q0 20 35 37q59 28 145 28q84 0 127 -46t22 -138l-74 -321q-7 -25 -25 -25h-1q-30 0 -22 33l9 40
q-70 -74 -164 -74zM162 33q91 0 168 89l27 118q-58 23 -119 23q-84 0 -131.5 -34.5t-47.5 -99.5q0 -46 27.5 -71t75.5 -25z" />
    <glyph glyph-name="b" unicode="b" horiz-adv-x="556" 
d="M238 -4q-101 0 -161 64l-9 -38q-5 -25 -26 -25h-1q-12 0 -18.5 9t-2.5 25l149 647q6 25 26 25h1q12 0 18.5 -9t2.5 -25l-57 -248q104 106 212 106q66 0 107 -43t41 -131q0 -146 -78.5 -251.5t-203.5 -105.5zM361 486q-59 0 -107.5 -30t-105.5 -85l-62 -269
q57 -67 145 -67q74 0 129 45.5t82 116t27 153.5q0 70 -29 103t-79 33z" />
    <glyph glyph-name="c" unicode="c" horiz-adv-x="482" 
d="M390 42q-69 -46 -161 -46q-94 0 -144 56t-50 148q0 135 85 231t214 96q89 0 136 -43q13 -13 13 -26v-1q0 -10 -6 -16t-15 -6t-22 13t-38.5 26t-66.5 13q-110 0 -179.5 -85t-69.5 -201q0 -77 36.5 -121t109.5 -44q41 0 72 9t44 20t25 20t20 9q10 0 15.5 -6t5.5 -13v-1
q0 -16 -24 -32z" />
    <glyph glyph-name="d" unicode="d" horiz-adv-x="559" 
d="M576 669l-149 -647q-5 -25 -25 -25h-1q-30 0 -22 36l15 66q-99 -103 -208 -103q-66 0 -108 43.5t-42 132.5q0 138 84.5 246.5t211.5 108.5q91 0 147 -62l49 213q6 25 25 25h1q13 0 19.5 -9t2.5 -25zM200 35q56 0 104 30.5t102 84.5l63 274q-52 64 -132 64
q-76 0 -134.5 -47t-87 -118t-28.5 -151q0 -137 113 -137z" />
    <glyph glyph-name="e" unicode="e" horiz-adv-x="502" 
d="M85 198q0 -161 150 -161q52 0 86 14.5t51 28.5t27 14t15.5 -6t5.5 -13v-1q0 -18 -24 -33q-72 -45 -165 -45q-95 0 -145.5 55.5t-50.5 146.5q0 133 80.5 231t201.5 98q80 -1 121.5 -44t41.5 -120q0 -31 -9 -76q-5 -28 -34 -28h-347q-5 -25 -5 -61zM98 297h327q9 35 9 66
q0 126 -119 126q-78 0 -136 -54t-81 -138z" />
    <glyph glyph-name="f" unicode="f" horiz-adv-x="282" 
d="M37 31l103 452h-46q-20 0 -20 18v2q0 18 20 18h55l13 59q29 123 141 123q24 0 44 -4q22 -4 22 -20v-1q0 -18 -21 -18q-3 0 -18 1t-25 1q-73 0 -92 -83l-13 -58h100q20 0 20 -18v-2q0 -18 -20 -18h-110l-105 -461q-5 -25 -26 -25h-1q-12 0 -18.5 9t-2.5 25z" />
    <glyph glyph-name="g" unicode="g" horiz-adv-x="552" 
d="M534 490l-111 -478q-22 -97 -84 -137.5t-162 -40.5q-94 0 -154 37q-20 12 -20 28v1q0 23 23 23q8 0 24.5 -12.5t48.5 -24.5t79 -12q79 0 128 31.5t67 107.5l22 98q-103 -107 -212 -107q-66 0 -107 42t-41 129q0 88 35.5 168t104.5 132t156 52t145 -62l9 36q6 23 26 23h1
q12 0 19 -9t3 -25zM197 43q56 0 104.5 31.5t105.5 87.5l60 263q-56 63 -131 63q-76 0 -134.5 -47t-87 -117.5t-28.5 -148.5q0 -132 111 -132z" />
    <glyph glyph-name="h" unicode="h" horiz-adv-x="545" 
d="M217 669l-57 -247q131 105 244 105q59 0 86.5 -40t10.5 -116l-81 -349q-7 -25 -25 -25h-1q-12 0 -19 8.5t-3 24.5l78 339q27 116 -65 116q-98 0 -236 -112l-81 -351q-5 -25 -26 -25h-1q-12 0 -18.5 9t-2.5 25l149 647q6 25 26 25h1q12 0 18.5 -9t2.5 -25z" />
    <glyph glyph-name="i" unicode="i" horiz-adv-x="202" 
d="M220 635q0 -14 -10 -24t-24 -10t-24 10t-10 24t10 24t24 10t24 -10t10 -24zM177 489l-107 -467q-5 -25 -26 -25h-1q-12 0 -18.5 9t-2.5 25l108 468q7 25 25 25h1q28 0 21 -35z" />
    <glyph glyph-name="j" unicode="j" horiz-adv-x="201" 
d="M221 635q0 -14 -10 -24t-24 -10t-24 10t-10 24t10 24t24 10t24 -10t10 -24zM-80 -125q36 1 55 15.5t27 48.5l129 560q5 25 25 25h1q13 0 19 -9.5t2 -26.5l-127 -554q-23 -98 -119 -98q-12 0 -20 1q-22 3 -22 18v1q0 18 30 19z" />
    <glyph glyph-name="k" unicode="k" horiz-adv-x="466" 
d="M115 226l318 284q15 14 25 14h1q13 0 17 -13.5t-9 -25.5l-215 -188l141 -262q8 -15 2 -26.5t-21 -11.5h-1q-13 0 -22 16l-136 251l-115 -102l-32 -140q-5 -25 -26 -25h-1q-12 0 -18.5 9t-2.5 25l149 648q6 24 26 24h1q12 0 18.5 -9t2.5 -25z" />
    <glyph glyph-name="l" unicode="l" horiz-adv-x="203" 
d="M219 669l-149 -647q-5 -25 -26 -25h-1q-12 0 -18.5 9t-2.5 25l149 647q6 25 26 25h1q12 0 18.5 -9t2.5 -25z" />
    <glyph glyph-name="m" unicode="m" horiz-adv-x="842" 
d="M704 527q57 0 83.5 -40.5t9.5 -115.5l-81 -350q-5 -24 -25 -24h-1q-13 0 -19.5 9t-2.5 24l78 339q27 116 -61 116q-85 0 -209 -104l-2 -10l-81 -349q-5 -25 -26 -25h-1q-12 0 -18.5 9t-2.5 25l77 338q27 116 -61 116q-83 0 -211 -108l-82 -355q-5 -25 -26 -25h-1
q-12 0 -18.5 9t-2.5 25l108 468q5 25 26 25h1q12 0 18.5 -9t2.5 -25l-15 -65q123 102 219 102q45 0 72 -26.5t28 -74.5q123 101 224 101z" />
    <glyph glyph-name="n" unicode="n" horiz-adv-x="545" 
d="M20 31l108 468q7 25 26 25h1q12 0 18.5 -9t2.5 -25l-16 -68q131 105 244 105q59 0 86.5 -40t10.5 -116l-81 -349q-7 -25 -25 -25h-1q-12 0 -19 8.5t-3 24.5l78 339q27 116 -65 116q-100 0 -236 -112l-81 -351q-5 -25 -26 -25h-1q-12 0 -18.5 9t-2.5 25z" />
    <glyph glyph-name="o" unicode="o" horiz-adv-x="555" 
d="M85 201q0 -82 40 -124t114 -42q102 0 166.5 86t64.5 203q0 79 -40 121.5t-113 42.5q-101 0 -166.5 -84t-65.5 -203zM520 323q0 -136 -79.5 -231.5t-202.5 -95.5q-95 0 -149 54t-54 151q0 135 81 230.5t202 95.5q94 0 148 -55t54 -149z" />
    <glyph glyph-name="p" unicode="p" horiz-adv-x="555" 
d="M-17 -131l144 625q6 27 26 27h1q28 0 21 -36l-15 -63q103 105 214 105q65 0 105.5 -43.5t40.5 -132.5q0 -145 -78 -248.5t-207 -103.5q-100 0 -158 62l-46 -201q-5 -25 -26 -25h-1q-12 0 -18.5 9t-2.5 25zM357 486q-93 0 -208 -113l-62 -270q50 -64 143 -64
q112 0 175.5 91.5t63.5 219.5q0 136 -112 136z" />
    <glyph glyph-name="q" unicode="q" horiz-adv-x="559" 
d="M341 -131l54 234q-102 -104 -209 -104q-66 0 -108 42.5t-42 129.5q0 91 36.5 172t105.5 132.5t155 51.5q88 0 146 -60l6 26q6 28 26 28h1q13 0 20 -9t3 -26l-145 -626q-5 -25 -26 -25h-1q-13 0 -19.5 9t-2.5 25zM197 39q57 0 106.5 31t103.5 85l62 271q-16 19 -29 30
t-41 21.5t-63 10.5q-111 0 -180 -95.5t-69 -218.5q0 -135 110 -135z" />
    <glyph glyph-name="r" unicode="r" horiz-adv-x="340" 
d="M341 482q-56 -6 -101.5 -34t-92.5 -83l-79 -343q-5 -25 -26 -25h-1q-12 0 -18.5 9t-2.5 25l108 468q7 25 25 25h1q12 0 18.5 -8.5t3.5 -25.5l-16 -69q89 104 185 104q24 0 24 -19v-1q0 -20 -28 -23z" />
    <glyph glyph-name="s" unicode="s" horiz-adv-x="407" 
d="M347 161q0 -73 -50.5 -119t-146.5 -46q-94 0 -150 46q-16 12 -16 28v1q0 23 23 23q8 0 19.5 -9t23.5 -20.5t38.5 -20.5t61.5 -9q75 0 111.5 32.5t36.5 86.5q0 37 -24 56.5t-80 37.5q-68 22 -100 49t-32 79q0 68 48.5 109.5t134.5 41.5q81 0 130 -34q19 -13 19 -29v-1
q0 -21 -21 -21q-9 0 -22.5 11.5t-40 23t-67.5 11.5q-64 0 -98.5 -29t-34.5 -78q0 -36 24 -55t80 -36q68 -21 100.5 -48.5t32.5 -80.5z" />
    <glyph glyph-name="t" unicode="t" horiz-adv-x="306" 
d="M197 521h105q20 0 20 -18v-2q0 -18 -20 -18h-114l-80 -349q-22 -97 63 -97q7 0 22 1t18 1q22 0 22 -18v-1q0 -16 -21 -20t-54 -4q-132 0 -99 142l79 345h-45q-20 0 -20 18v2q0 18 20 18h54l28 123q7 25 26 25h1q12 0 18.5 -9t2.5 -25z" />
    <glyph glyph-name="u" unicode="u" horiz-adv-x="543" 
d="M518 490l-108 -468q-7 -25 -26 -25h-1q-12 0 -19 8.5t-3 25.5l15 67q-127 -104 -231 -104q-61 0 -91.5 40t-12.5 116l81 349q7 25 26 25h1q12 0 19 -8.5t3 -25.5l-78 -337q-26 -118 66 -118t228 110l82 354q5 25 26 25h1q12 0 19 -8.5t3 -25.5z" />
    <glyph glyph-name="v" unicode="v" horiz-adv-x="482" 
d="M190 -3h-1q-25 0 -29 27l-79 462q-4 16 2.5 27t22.5 11h1q21 0 24 -28l70 -428h2l255 439q9 17 23 17h1q13 0 19 -10.5t-2 -26.5l-276 -470q-12 -20 -33 -20z" />
    <glyph glyph-name="w" unicode="w" horiz-adv-x="708" 
d="M177 16q-9 -19 -29 -19h-4q-23 0 -25 26l-39 473q-2 28 24 28h1q22 0 24 -25l34 -419h2l214 423q10 20 28 20h3q20 0 22 -22l42 -421h2l208 428q7 16 20 16h1q14 0 20 -10t0 -23l-235 -475q-10 -19 -28 -19h-3q-23 0 -25 23l-40 420h-1z" />
    <glyph glyph-name="x" unicode="x" horiz-adv-x="489" 
d="M279 270l112 -236q7 -14 1 -25.5t-21 -11.5h-1q-14 0 -24 20l-105 221l-211 -226q-13 -15 -24 -15h-1q-14 0 -18.5 13t6.5 25l224 239l-103 213q-7 14 -1 25.5t21 11.5h1q14 0 24 -20l96 -199l190 204q13 15 24 15h1q15 0 19 -13.5t-7 -24.5z" />
    <glyph glyph-name="y" unicode="y" horiz-adv-x="485" 
d="M504 488l-415 -636q-12 -18 -25 -18h-1q-14 0 -20 12t3 26l116 174l-84 446q-5 32 24 32h1q19 0 23 -22l74 -401h1l261 406q11 17 24 17h1q14 0 19.5 -12t-2.5 -24z" />
    <glyph glyph-name="z" unicode="z" horiz-adv-x="459" 
d="M461 466l-418 -427h305q18 0 18 -18v-2q0 -19 -18 -19h-351q-20 0 -20 19v1q0 14 21 35l417 427h-286q-19 0 -19 19v2q0 18 19 18h333q20 0 20 -19v-1q0 -14 -21 -35z" />
    <glyph glyph-name="braceleft" unicode="{" horiz-adv-x="321" 
d="M206 -49h-34q-122 0 -95 117l48 208q13 58 -48 58h-10q-19 0 -19 19v2q0 19 19 19h16q63 0 77 59l46 195q14 59 44 86t86 27h44q19 0 19 -19v-2q0 -19 -19 -19h-41q-36 0 -55.5 -17.5t-28.5 -55.5l-45 -195q-16 -69 -76 -80v-1q55 -17 40 -79l-48 -208q-9 -40 2.5 -57
t50.5 -17h27q19 0 19 -19v-2q0 -19 -19 -19z" />
    <glyph glyph-name="bar" unicode="|" horiz-adv-x="233" 
d="M116 721q0 20 21 20h2q20 0 20 -20v-753q0 -20 -20 -20h-2q-21 0 -21 20v753z" />
    <glyph glyph-name="braceright" unicode="}" horiz-adv-x="321" 
d="M158 741h34q122 0 95 -117l-48 -208q-13 -58 48 -58h10q19 0 19 -19v-2q0 -19 -19 -19h-16q-63 0 -77 -59l-46 -195q-14 -59 -44 -86t-86 -27h-44q-19 0 -19 19v2q0 19 19 19h41q36 0 55.5 17.5t28.5 55.5l45 195q16 69 76 80v1q-55 17 -40 79l48 208q9 40 -2.5 57
t-50.5 17h-27q-19 0 -19 19v2q0 19 19 19z" />
    <glyph glyph-name="asciitilde" unicode="~" horiz-adv-x="326" 
d="M226 243q-24 0 -65 20.5t-55 20.5t-23 -7.5t-13 -17t-10 -17t-14 -7.5h-1q-25 0 -17 31q6 27 28 45t52 18q25 0 65.5 -20.5t54.5 -20.5t23.5 7.5t13 17t9.5 17t13 7.5h1q25 0 18 -31q-7 -29 -29 -46t-51 -17z" />
    <glyph glyph-name="exclamdown" unicode="&#xa1;" horiz-adv-x="215" 
d="M172 457q-92 -418 -112 -510q-6 -26 -27 -26h-1q-14 0 -20.5 10t-3.5 24l124 509q5 19 21 19h1q23 0 18 -26zM143 590q0 16 11 27t28 11q16 0 27 -11t11 -27t-11 -27.5t-27 -11.5t-27.5 11.5t-11.5 27.5z" />
    <glyph glyph-name="cent" unicode="&#xa2;" horiz-adv-x="490" 
d="M367 559l-8 -33q71 -5 114 -41q16 -13 16 -29v-1q0 -9 -6 -15t-15 -6q-10 0 -22.5 12t-36 25t-59.5 15l-103 -450q45 2 77 16.5t49 27.5t27 13q19 0 19 -18v-1q0 -16 -23 -31q-67 -44 -159 -47l-19 -81q-5 -20 -20 -20h-1q-24 0 -18 29l17 74q-79 9 -120 63.5t-41 138.5
q0 131 80 225.5t203 100.5l10 42q5 20 20 20h1q24 0 18 -29zM86 201q0 -147 119 -163l104 447q-100 -10 -161.5 -92.5t-61.5 -191.5z" />
    <glyph glyph-name="sterling" unicode="&#xa3;" horiz-adv-x="493" 
d="M356 324h-188q0 -84 -13 -141q-20 -88 -99 -140h348q20 0 20 -21v-1q0 -21 -20 -21h-408q-21 0 -21 20v1q0 10 4.5 14.5t16.5 11.5q91 52 111 139q13 55 11 138h-46q-19 0 -19 19v2q0 19 19 19h45q-6 121 6 172q38 168 231 168q98 0 153 -45q18 -15 18 -30v-1
q0 -10 -6.5 -16.5t-16.5 -6.5q-11 0 -27 13.5t-47 27.5t-77 14q-145 0 -176 -132q-8 -31 -8.5 -77.5t1.5 -86.5h188q19 0 19 -19v-2q0 -19 -19 -19z" />
    <glyph glyph-name="yen" unicode="&#xa5;" horiz-adv-x="524" 
d="M433 196h-159l-40 -174q-5 -25 -26 -25h-1q-14 0 -20.5 10t-2.5 27l36 162h-150q-18 0 -18 19v1q0 19 18 19h159l16 68h-151q-18 0 -18 19v1q0 19 18 19h150l-116 326q-5 14 3 24.5t22 10.5h1q16 0 23 -20l109 -310h1l252 313q13 17 25 17h1q15 0 20.5 -14t-6.5 -28
l-261 -319h139q18 0 18 -19v-1q0 -19 -18 -19h-159l-15 -68h150q18 0 18 -19v-1q0 -19 -18 -19z" />
    <glyph glyph-name="brokenbar" unicode="&#xa6;" horiz-adv-x="233" 
d="M116 -28v321q0 21 21 21h3q21 0 21 -21v-321q0 -21 -21 -21h-3q-21 0 -21 21zM161 723v-321q0 -21 -21 -21h-3q-21 0 -21 21v321q0 21 21 21h3q21 0 21 -21z" />
    <glyph glyph-name="section" unicode="&#xa7;" horiz-adv-x="505" 
d="M481 276q0 -63 -46 -102t-121 -51q54 -40 54 -103q0 -71 -52.5 -111t-139.5 -40q-99 0 -161 51q-15 12 -15 27v1q0 22 23 22q8 0 20 -9.5t24.5 -21t42 -21t69.5 -9.5q63 0 100.5 28t37.5 80q0 39 -29 66.5t-104 61.5q-78 36 -112 69.5t-34 81.5q0 62 46 99t127 47
q-55 41 -55 109q0 70 51.5 111.5t136.5 41.5t137 -40q16 -12 16 -27v-1q0 -10 -6 -16t-15 -6t-23 12.5t-41.5 25t-71.5 12.5q-61 0 -98.5 -29.5t-37.5 -79.5q0 -41 25 -67.5t89 -52.5q81 -33 122 -68t41 -91zM206 184q59 -29 65 -33q161 18 161 120q0 42 -31 68.5t-103 56.5
q-30 12 -40 17q-171 -14 -171 -110q0 -38 25 -62.5t94 -56.5z" />
    <glyph glyph-name="dieresis" unicode="&#xa8;" 
d="M256 635q0 -14 -10 -24t-24 -10t-24 10t-10 24t10 24t24 10t24 -10t10 -24zM400 635q0 -14 -10 -24t-24 -10t-24 10t-10 24t10 24t24 10t24 -10t10 -24z" />
    <glyph glyph-name="copyright" unicode="&#xa9;" horiz-adv-x="795" 
d="M776 350q0 -166 -102.5 -261t-252.5 -95t-252.5 95t-102.5 261t102.5 261t252.5 95t252.5 -95t102.5 -261zM109 350q0 -149 89 -234t223 -85t223.5 85t89.5 234t-89.5 234.5t-223.5 85.5t-223 -85.5t-89 -234.5zM544 190q-45 -34 -115 -34q-89 0 -138.5 52t-49.5 143
q0 89 53 141.5t137 52.5q72 0 109 -26q17 -12 17 -26v-1q0 -10 -6 -16t-14 -6q-9 0 -19.5 9t-31.5 17.5t-55 8.5q-62 0 -100 -40.5t-38 -113.5q0 -76 36 -115t102 -39q35 0 56.5 10.5t32 21t20.5 10.5q8 0 14 -5.5t6 -14.5v-1q0 -16 -16 -28z" />
    <glyph glyph-name="ordfeminine" unicode="&#xaa;" horiz-adv-x="415" 
d="M419 529l-58 -255q-5 -20 -23 -20h-1q-12 0 -18 8t-3 21l8 36q-62 -65 -138 -65q-59 0 -93.5 30t-34.5 83q0 73 53.5 109.5t137.5 36.5q62 0 115 -20l10 41q15 66 -9.5 98.5t-82.5 32.5q-42 0 -68 -9.5t-38.5 -18.5t-21.5 -9q-19 0 -19 19v1q0 18 27 31q53 25 124 25
q81 0 117 -44t16 -131zM193 290q74 0 142 74l22 96q-49 18 -107 18q-65 0 -104.5 -27.5t-39.5 -82.5q0 -78 87 -78z" />
    <glyph glyph-name="guillemotleft" unicode="&#xab;" horiz-adv-x="442" 
d="M355 78q7 -12 0.5 -22.5t-19.5 -10.5h-1q-13 0 -22 17l-103 177q-6 11 -6 19v1q0 12 10 22l184 182q13 13 23 13h1q14 0 18 -13t-6 -23l-181 -181v-3zM188 78q7 -12 0.5 -22.5t-19.5 -10.5h-1q-13 0 -22 17l-103 177q-6 11 -6 19v1q0 12 10 22l184 182q13 13 23 13h1
q14 0 18 -13t-6 -23l-181 -181v-3z" />
    <glyph glyph-name="registered" unicode="&#xae;" horiz-adv-x="414" 
d="M84 529q0 79 51.5 129t130.5 50t130.5 -50t51.5 -129t-51.5 -129t-130.5 -50q-80 0 -131 50t-51 129zM116 529q0 -67 41.5 -108.5t108.5 -41.5t108.5 41.5t41.5 108.5t-41.5 108.5t-108.5 41.5t-108.5 -41.5t-41.5 -108.5zM198 452v151q0 26 26 26h49q71 0 71 -58
q0 -39 -36 -53l35 -56q6 -11 0.5 -20t-15.5 -9h-1q-10 0 -19 14l-38 65h-33v-60q0 -19 -18 -19h-2q-19 0 -19 19zM237 601v-62h33q36 0 36 32q0 30 -36 30h-33z" />
    <glyph glyph-name="macron" unicode="&#xaf;" 
d="M389 611h-191q-18 0 -18 18v2q0 17 18 17h191q17 0 17 -17v-2q0 -18 -17 -18z" />
    <glyph glyph-name="degree" unicode="&#xb0;" horiz-adv-x="310" 
d="M144 576q0 -38 22.5 -62.5t58.5 -24.5q38 0 63 26.5t25 67.5q0 39 -22.5 63t-59.5 24q-38 0 -62.5 -26.5t-24.5 -67.5zM354 583q0 -57 -38 -93.5t-92 -36.5q-52 0 -86.5 33.5t-34.5 88.5q0 58 37.5 94.5t91.5 36.5q53 0 87.5 -33.5t34.5 -89.5z" />
    <glyph glyph-name="two.superior" unicode="&#xb2;" horiz-adv-x="301" 
d="M281 327h-218q-18 0 -18 18v1q0 14 22 31l120 89q43 32 62.5 48.5t35.5 41t16 51.5q0 28 -18.5 44t-53.5 16q-37 0 -63 -17.5t-32 -17.5q-16 0 -16 16v1q0 15 22 28q43 26 95 26q53 0 82.5 -25t29.5 -67q0 -46 -29.5 -80t-101.5 -88l-106 -78h171q18 0 18 -18v-2
q0 -18 -18 -18z" />
    <glyph glyph-name="three.superior" unicode="&#xb3;" horiz-adv-x="291" 
d="M170 537h31q38 0 61.5 17.5t23.5 52.5q0 60 -75 60q-31 0 -53.5 -14t-28.5 -14q-16 0 -16 16v1q0 16 20 27q33 20 86 20q52 0 81.5 -23.5t29.5 -67.5q0 -39 -23.5 -62t-61.5 -30v-2q26 -7 43.5 -28.5t17.5 -51.5q0 -54 -39 -84t-98 -30q-70 0 -114 36q-14 11 -14 25v1
q0 18 19 18q8 0 19.5 -11t33.5 -22t55 -11q40 0 66 20.5t26 57.5q0 33 -20 49.5t-52 16.5h-18q-16 0 -16 16v2q0 15 16 15z" />
    <glyph glyph-name="acute" unicode="&#xb4;" 
d="M339 685q14 18 27 18h1q16 0 20.5 -14.5t-9.5 -28.5l-81 -79q-11 -11 -19 -11h-1q-10 0 -13.5 10t5.5 20z" />
    <glyph glyph-name="paragraph" unicode="&#xb6;" horiz-adv-x="537" 
d="M356 700h163q13 0 19.5 -9.5t3.5 -23.5l-172 -740q-5 -21 -23 -21h-1q-12 0 -17.5 9.5t-1.5 24.5l166 716h-87l-169 -729q-5 -21 -23 -21h-1q-12 0 -17.5 9.5t-1.5 24.5l93 398h-7q-90 0 -144.5 39.5t-54.5 115.5q0 109 68.5 158t206.5 49z" />
    <glyph glyph-name="periodcentered" unicode="&#xb7;" horiz-adv-x="143" 
d="M121 316q0 -16 -11.5 -28t-28.5 -12t-27 10t-10 27t12 28.5t28 11.5t26.5 -10.5t10.5 -26.5z" />
    <glyph glyph-name="cedilla" unicode="&#xb8;" 
d="M147 9l-11 -51q30 -2 46 -19t16 -43q0 -35 -24.5 -52.5t-61.5 -17.5q-40 0 -63 15q-12 8 -12 21v1q0 17 17 17q5 0 21 -9t35 -9q45 0 45 35q0 30 -46 30h-1q-17 0 -12 17l15 65h36z" />
    <glyph glyph-name="one.superior" unicode="&#xb9;" horiz-adv-x="221" 
d="M151 324h-1q-12 0 -18 8.5t-2 23.5l69 294l-81 -40q-6 -3 -11 -3q-15 0 -15 16v1q0 13 20 22l98 48q16 8 24 8h1q23 0 17 -24l-77 -331q-5 -23 -24 -23z" />
    <glyph glyph-name="ordmasculine" unicode="&#xba;" horiz-adv-x="474" 
d="M127 428q0 -65 33.5 -100t91.5 -35q83 0 137 70t54 169q0 62 -33.5 98t-91.5 36q-82 0 -136.5 -67.5t-54.5 -170.5zM493 531q0 -115 -69.5 -196t-172.5 -81q-81 0 -127.5 47.5t-46.5 128.5q0 115 68.5 195t172.5 80q80 0 127.5 -47t47.5 -127z" />
    <glyph glyph-name="guillemotright" unicode="&#xbb;" horiz-adv-x="442" 
d="M107 476h1q13 0 22 -17l103 -177q6 -11 6 -19v-1q0 -12 -10 -22l-184 -182q-13 -13 -23 -13h-1q-14 0 -18 12.5t6 23.5l181 181v3l-102 178q-7 12 -0.5 22.5t19.5 10.5zM274 476h1q13 0 22 -17l103 -177q6 -11 6 -19v-1q0 -12 -10 -22l-184 -182q-13 -13 -23 -13h-1
q-14 0 -18 12.5t6 23.5l181 181v3l-102 178q-7 12 -0.5 22.5t19.5 10.5z" />
    <glyph glyph-name="onequarter" unicode="&#xbc;" horiz-adv-x="656" 
d="M641 699l-597 -722q-11 -14 -21 -14h-1q-12 0 -16.5 10.5t4.5 22.5l597 722q11 14 21 14h1q12 0 16.5 -10.5t-4.5 -22.5zM232 702h1q23 0 17 -24l-77 -331q-5 -23 -24 -23h-1q-12 0 -18 8.5t-2 23.5l69 294l-81 -40q-6 -3 -11 -3q-15 0 -15 16v1q0 13 20 22l98 48
q16 8 24 8zM359 128v-2h144l43 188h-2zM584 92h-45l-16 -73q-5 -22 -22 -22h-1q-11 0 -17 8t-2 22l14 65h-170q-18 0 -18 18v1q0 12 21 33l213 213q17 17 32 17h4q27 0 21 -27l-51 -221h37q16 0 16 -16v-2q0 -16 -16 -16z" />
    <glyph glyph-name="onehalf" unicode="&#xbd;" horiz-adv-x="694" 
d="M633 699l-597 -722q-11 -14 -21 -14h-1q-12 0 -16.5 10.5t4.5 22.5l597 722q11 14 21 14h1q12 0 16.5 -10.5t-4.5 -22.5zM595 0h-218q-18 0 -18 18v1q0 14 22 31l120 89q43 32 62.5 48.5t35.5 41t16 51.5q0 28 -18.5 44t-53.5 16q-37 0 -63 -17.5t-32 -17.5q-16 0 -16 16
v1q0 15 22 28q43 26 95 26q53 0 82.5 -25t29.5 -67q0 -46 -29.5 -80t-101.5 -88l-106 -78h171q18 0 18 -18v-2q0 -18 -18 -18zM146 324h-1q-12 0 -18 8.5t-2 23.5l69 294l-81 -40q-6 -3 -11 -3q-15 0 -15 16v1q0 13 20 22l98 48q16 8 24 8h1q23 0 17 -24l-77 -331
q-5 -23 -24 -23z" />
    <glyph glyph-name="threequarters" unicode="&#xbe;" horiz-adv-x="698" 
d="M176 537h31q38 0 61.5 17.5t23.5 52.5q0 60 -75 60q-31 0 -53.5 -14t-28.5 -14q-16 0 -16 16v1q0 16 20 27q33 20 86 20q52 0 81.5 -23.5t29.5 -67.5q0 -39 -23.5 -62t-61.5 -30v-2q26 -7 43.5 -28.5t17.5 -51.5q0 -54 -39 -84t-98 -30q-70 0 -114 36q-14 11 -14 25v1
q0 18 19 18q8 0 19.5 -11t33.5 -22t55 -11q40 0 66 20.5t26 57.5q0 33 -20 49.5t-52 16.5h-18q-16 0 -16 16v2q0 15 16 15zM700 699l-597 -722q-11 -14 -21 -14h-1q-12 0 -16.5 10.5t4.5 22.5l597 722q11 14 21 14h1q12 0 16.5 -10.5t-4.5 -22.5zM407 128v-2h144l43 188h-2z
M632 92h-45l-16 -73q-5 -22 -22 -22h-1q-11 0 -17 8t-2 22l14 65h-170q-18 0 -18 18v1q0 12 21 33l213 213q17 17 32 17h4q27 0 21 -27l-51 -221h37q16 0 16 -16v-2q0 -16 -16 -16z" />
    <glyph glyph-name="questiondown" unicode="&#xbf;" horiz-adv-x="428" 
d="M341 483h1q22 0 20 -27q-4 -65 -36 -109.5t-100 -94.5q-10 -8 -38.5 -26.5t-43.5 -31t-34.5 -33.5t-28.5 -46t-9 -56q0 -51 33.5 -74t83.5 -23q42 0 71.5 8.5t40.5 18.5t22.5 18.5t21.5 8.5q9 0 15 -6t6 -15v-1q0 -20 -26 -36q-59 -38 -155 -38q-69 0 -118 35t-49 104
q0 38 11.5 69t36.5 56.5t46.5 42.5t56.5 41q8 5 12 8q35 24 53 38.5t39 36.5t31 48.5t15 61.5q2 22 22 22zM321 590q0 16 11 27t28 11q16 0 27 -11t11 -27t-11 -27.5t-27 -11.5t-27.5 11.5t-11.5 27.5z" />
    <glyph glyph-name="Agrave" unicode="&#xc0;" horiz-adv-x="616" 
d="M-13 33l378 643q15 24 39 24h6q29 0 33 -31l83 -640q5 -32 -25 -32h-1q-22 0 -25 26l-25 196h-303l-115 -198q-15 -25 -29 -25h-1q-12 0 -17.5 11.5t2.5 25.5zM394 641l-221 -378h271l-48 378h-2zM382 815l37 -67q6 -10 1.5 -19t-14.5 -9h-1q-10 0 -18 11l-48 64
q-10 13 -4.5 27t20.5 14h1q15 0 26 -21z" />
    <glyph glyph-name="Aacute" unicode="&#xc1;" horiz-adv-x="616" 
d="M-13 33l378 643q15 24 39 24h6q29 0 33 -31l83 -640q5 -32 -25 -32h-1q-22 0 -25 26l-25 196h-303l-115 -198q-15 -25 -29 -25h-1q-12 0 -17.5 11.5t2.5 25.5zM394 641l-221 -378h271l-48 378h-2zM402 748l59 72q13 16 25 16h1q16 0 21 -14.5t-7 -25.5l-69 -65
q-11 -11 -19 -11h-1q-10 0 -13.5 9.5t3.5 18.5z" />
    <glyph glyph-name="Acircumflex" unicode="&#xc2;" horiz-adv-x="616" 
d="M-13 33l378 643q15 24 39 24h6q29 0 33 -31l83 -640q5 -32 -25 -32h-1q-22 0 -25 26l-25 196h-303l-115 -198q-15 -25 -29 -25h-1q-12 0 -17.5 11.5t2.5 25.5zM394 641l-221 -378h271l-48 378h-2zM477 731l-55 60l-84 -62q-11 -8 -18 -8h-1q-11 0 -14 10.5t7 20.5l80 69
q18 15 32 15h1q18 0 31 -17l51 -68q9 -13 4 -22t-15 -9h-1q-9 0 -18 11z" />
    <glyph glyph-name="Atilde" unicode="&#xc3;" horiz-adv-x="616" 
d="M-13 33l378 643q15 24 39 24h6q29 0 33 -31l83 -640q5 -32 -25 -32h-1q-22 0 -25 26l-25 196h-303l-115 -198q-15 -25 -29 -25h-1q-12 0 -17.5 11.5t2.5 25.5zM394 641l-221 -378h271l-48 378h-2zM470 734q-23 0 -57.5 20t-47.5 20q-27 0 -38 -27q-8 -19 -20 -19h-1
q-21 0 -15 27q6 25 25.5 42.5t48.5 17.5q22 0 57 -19.5t49 -19.5q25 0 36 27q8 19 20 19h1q22 0 15 -29q-6 -25 -26 -42t-47 -17z" />
    <glyph glyph-name="Adieresis" unicode="&#xc4;" horiz-adv-x="616" 
d="M-13 33l378 643q15 24 39 24h6q29 0 33 -31l83 -640q5 -32 -25 -32h-1q-22 0 -25 26l-25 196h-303l-115 -198q-15 -25 -29 -25h-1q-12 0 -17.5 11.5t2.5 25.5zM394 641l-221 -378h271l-48 378h-2zM373 767q0 -14 -10 -24t-24 -10t-24 10t-10 24t10 24t24 10t24 -10
t10 -24zM517 767q0 -14 -10 -24t-24 -10t-24 10t-10 24t10 24t24 10t24 -10t10 -24z" />
    <glyph glyph-name="Aring" unicode="&#xc5;" horiz-adv-x="616" 
d="M-13 33l378 643q15 24 39 24h6q29 0 33 -31l83 -640q5 -32 -25 -32h-1q-22 0 -25 26l-25 196h-303l-115 -198q-15 -25 -29 -25h-1q-12 0 -17.5 11.5t2.5 25.5zM394 641l-221 -378h271l-48 378h-2zM504 815q0 -39 -28 -63.5t-63 -24.5q-36 0 -60 21.5t-24 59.5
q0 39 27 64.5t64 25.5q35 0 59.5 -23t24.5 -60zM365 808q0 -23 13.5 -36t34.5 -13q22 0 38.5 16t16.5 41q0 21 -14 35.5t-35 14.5q-24 0 -39 -16t-15 -42z" />
    <glyph glyph-name="AE" unicode="&#xc6;" horiz-adv-x="923" 
d="M413 33l43 186h-277l-152 -204q-12 -18 -27 -18h-1q-14 0 -19.5 12.5t4.5 26.5l485 641q16 23 43 23h432q21 0 21 -21v-2q0 -21 -21 -21h-334l-64 -273h242q21 0 21 -21v-1q0 -21 -21 -21h-251l-68 -297h345q21 0 21 -21v-1q0 -21 -21 -21h-378q-13 0 -19.5 9.5
t-3.5 23.5zM506 656l-294 -393h254l91 393h-51z" />
    <glyph glyph-name="Ccedilla" unicode="&#xc7;" horiz-adv-x="625" 
d="M525 48q-77 -52 -195 -52q-22 0 -33 1l-8 -39q30 -2 46 -19t16 -43q0 -35 -24.5 -52.5t-61.5 -17.5q-40 0 -63 15q-12 8 -12 21v1q0 17 17 17q5 0 21 -9t35 -9q45 0 45 35q0 30 -46 30h-1q-17 0 -12 17l13 58q-95 17 -147.5 85.5t-52.5 180.5q0 108 45 206t138.5 164
t216.5 66q107 0 161 -40q22 -16 22 -33v-1q0 -10 -6.5 -17t-17.5 -7q-10 0 -21.5 8.5t-23 19t-42.5 19t-76 8.5q-65 0 -121.5 -23t-96.5 -61.5t-68.5 -89t-42 -106.5t-13.5 -113q0 -110 56 -169.5t160 -59.5q49 0 86.5 11t55 23.5t32.5 23.5t23 11q24 0 24 -23v-1
q0 -18 -28 -36z" />
    <glyph glyph-name="Egrave" unicode="&#xc8;" horiz-adv-x="557" 
d="M423 340h-259l-68 -297h353q21 0 21 -21v-1q0 -21 -21 -21h-386q-14 0 -19.5 10.5t-2.5 24.5l147 638q7 27 34 27h357q21 0 21 -21v-2q0 -21 -21 -21h-342l-64 -273h250q21 0 21 -21v-1q0 -21 -21 -21zM385 815l37 -67q6 -10 1.5 -19t-14.5 -9h-1q-10 0 -18 11l-48 64
q-10 13 -4.5 27t20.5 14h1q15 0 26 -21z" />
    <glyph glyph-name="Eacute" unicode="&#xc9;" horiz-adv-x="557" 
d="M423 340h-259l-68 -297h353q21 0 21 -21v-1q0 -21 -21 -21h-386q-14 0 -19.5 10.5t-2.5 24.5l147 638q7 27 34 27h357q21 0 21 -21v-2q0 -21 -21 -21h-342l-64 -273h250q21 0 21 -21v-1q0 -21 -21 -21zM390 748l59 72q13 16 25 16h1q16 0 21 -14.5t-7 -25.5l-69 -65
q-11 -11 -19 -11h-1q-10 0 -13.5 9.5t3.5 18.5z" />
    <glyph glyph-name="Ecircumflex" unicode="&#xca;" horiz-adv-x="557" 
d="M423 340h-259l-68 -297h353q21 0 21 -21v-1q0 -21 -21 -21h-386q-14 0 -19.5 10.5t-2.5 24.5l147 638q7 27 34 27h357q21 0 21 -21v-2q0 -21 -21 -21h-342l-64 -273h250q21 0 21 -21v-1q0 -21 -21 -21zM479 731l-55 60l-84 -62q-11 -8 -18 -8h-1q-11 0 -14 10.5t7 20.5
l80 69q18 15 32 15h1q18 0 31 -17l51 -68q9 -13 4 -22t-15 -9h-1q-9 0 -18 11z" />
    <glyph glyph-name="Edieresis" unicode="&#xcb;" horiz-adv-x="557" 
d="M423 340h-259l-68 -297h353q21 0 21 -21v-1q0 -21 -21 -21h-386q-14 0 -19.5 10.5t-2.5 24.5l147 638q7 27 34 27h357q21 0 21 -21v-2q0 -21 -21 -21h-342l-64 -273h250q21 0 21 -21v-1q0 -21 -21 -21zM367 767q0 -14 -10 -24t-24 -10t-24 10t-10 24t10 24t24 10t24 -10
t10 -24zM511 767q0 -14 -10 -24t-24 -10t-24 10t-10 24t10 24t24 10t24 -10t10 -24z" />
    <glyph glyph-name="Igrave" unicode="&#xcc;" horiz-adv-x="238" 
d="M43 35l148 643q5 25 26 25h1q14 0 20.5 -10.5t2.5 -27.5l-148 -643q-5 -25 -26 -25h-1q-14 0 -20.5 10.5t-2.5 27.5zM203 815l37 -67q6 -10 1.5 -19t-14.5 -9h-1q-10 0 -18 11l-48 64q-10 13 -4.5 27t20.5 14h1q15 0 26 -21z" />
    <glyph glyph-name="Iacute" unicode="&#xcd;" horiz-adv-x="238" 
d="M43 35l148 643q5 25 26 25h1q14 0 20.5 -10.5t2.5 -27.5l-148 -643q-5 -25 -26 -25h-1q-14 0 -20.5 10.5t-2.5 27.5zM218 748l59 72q13 16 25 16h1q16 0 21 -14.5t-7 -25.5l-69 -65q-11 -11 -19 -11h-1q-10 0 -13.5 9.5t3.5 18.5z" />
    <glyph glyph-name="Icircumflex" unicode="&#xce;" horiz-adv-x="238" 
d="M43 35l148 643q5 25 26 25h1q14 0 20.5 -10.5t2.5 -27.5l-148 -643q-5 -25 -26 -25h-1q-14 0 -20.5 10.5t-2.5 27.5zM298 731l-55 60l-84 -62q-11 -8 -18 -8h-1q-11 0 -14 10.5t7 20.5l80 69q18 15 32 15h1q18 0 31 -17l51 -68q9 -13 4 -22t-15 -9h-1q-9 0 -18 11z" />
    <glyph glyph-name="Idieresis" unicode="&#xcf;" horiz-adv-x="238" 
d="M43 35l148 643q5 25 26 25h1q14 0 20.5 -10.5t2.5 -27.5l-148 -643q-5 -25 -26 -25h-1q-14 0 -20.5 10.5t-2.5 27.5zM190 767q0 -14 -10 -24t-24 -10t-24 10t-10 24t10 24t24 10t24 -10t10 -24zM334 767q0 -14 -10 -24t-24 -10t-24 10t-10 24t10 24t24 10t24 -10t10 -24z
" />
    <glyph glyph-name="Eth" unicode="&#xd0;" horiz-adv-x="682" 
d="M222 700h166q129 0 200.5 -72t71.5 -198q0 -113 -44.5 -209.5t-134 -158.5t-206.5 -62h-212q-14 0 -19.5 10.5t-2.5 24.5l67 294h-56q-8 0 -14.5 6.5t-6.5 14.5v2q0 9 6 15t15 6h66l70 300q7 27 34 27zM236 657l-65 -284h184q9 0 15 -6t6 -15v-2q0 -9 -6 -15t-15 -6h-194
l-66 -286h179q79 0 143 33t104.5 88t62.5 123.5t22 142.5q0 104 -55.5 165.5t-164.5 61.5h-150z" />
    <glyph glyph-name="Ntilde" unicode="&#xd1;" horiz-adv-x="682" 
d="M688 669l-148 -643q-6 -28 -30 -28h-1q-24 0 -36 30l-242 611h-2l-142 -617q-5 -25 -24 -25h-1q-29 0 -22 34l147 639q7 30 35 30h12q26 0 36 -26l233 -587h2l136 591q5 25 24 25h1q29 0 22 -34zM519 734q-23 0 -57.5 20t-47.5 20q-27 0 -38 -27q-8 -19 -20 -19h-1
q-21 0 -15 27q6 25 25.5 42.5t48.5 17.5q22 0 57 -19.5t49 -19.5q25 0 36 27q8 19 20 19h1q22 0 15 -29q-6 -25 -26 -42t-47 -17z" />
    <glyph glyph-name="Ograve" unicode="&#xd2;" horiz-adv-x="716" 
d="M115 272q0 -107 54 -170.5t161 -63.5q93 0 166 59.5t109 147.5t36 184q0 105 -53.5 169t-160.5 64q-92 0 -165 -59.5t-110 -147.5t-37 -183zM694 429q0 -109 -43.5 -207t-129 -162t-193.5 -64q-126 0 -196 75.5t-70 201.5q0 108 44 205.5t129.5 161.5t192.5 64
q126 0 196 -74.5t70 -200.5zM421 815l37 -67q6 -10 1.5 -19t-14.5 -9h-1q-10 0 -18 11l-48 64q-10 13 -4.5 27t20.5 14h1q15 0 26 -21z" />
    <glyph glyph-name="Oacute" unicode="&#xd3;" horiz-adv-x="716" 
d="M115 272q0 -107 54 -170.5t161 -63.5q93 0 166 59.5t109 147.5t36 184q0 105 -53.5 169t-160.5 64q-92 0 -165 -59.5t-110 -147.5t-37 -183zM694 429q0 -109 -43.5 -207t-129 -162t-193.5 -64q-126 0 -196 75.5t-70 201.5q0 108 44 205.5t129.5 161.5t192.5 64
q126 0 196 -74.5t70 -200.5zM436 748l59 72q13 16 25 16h1q16 0 21 -14.5t-7 -25.5l-69 -65q-11 -11 -19 -11h-1q-10 0 -13.5 9.5t3.5 18.5z" />
    <glyph glyph-name="Ocircumflex" unicode="&#xd4;" horiz-adv-x="716" 
d="M115 272q0 -107 54 -170.5t161 -63.5q93 0 166 59.5t109 147.5t36 184q0 105 -53.5 169t-160.5 64q-92 0 -165 -59.5t-110 -147.5t-37 -183zM694 429q0 -109 -43.5 -207t-129 -162t-193.5 -64q-126 0 -196 75.5t-70 201.5q0 108 44 205.5t129.5 161.5t192.5 64
q126 0 196 -74.5t70 -200.5zM517 731l-55 60l-84 -62q-11 -8 -18 -8h-1q-11 0 -14 10.5t7 20.5l80 69q18 15 32 15h1q18 0 31 -17l51 -68q9 -13 4 -22t-15 -9h-1q-9 0 -18 11z" />
    <glyph glyph-name="Otilde" unicode="&#xd5;" horiz-adv-x="716" 
d="M115 272q0 -107 54 -170.5t161 -63.5q93 0 166 59.5t109 147.5t36 184q0 105 -53.5 169t-160.5 64q-92 0 -165 -59.5t-110 -147.5t-37 -183zM694 429q0 -109 -43.5 -207t-129 -162t-193.5 -64q-126 0 -196 75.5t-70 201.5q0 108 44 205.5t129.5 161.5t192.5 64
q126 0 196 -74.5t70 -200.5zM509 734q-23 0 -57.5 20t-47.5 20q-27 0 -38 -27q-8 -19 -20 -19h-1q-21 0 -15 27q6 25 25.5 42.5t48.5 17.5q22 0 57 -19.5t49 -19.5q25 0 36 27q8 19 20 19h1q22 0 15 -29q-6 -25 -26 -42t-47 -17z" />
    <glyph glyph-name="Odieresis" unicode="&#xd6;" horiz-adv-x="716" 
d="M115 272q0 -107 54 -170.5t161 -63.5q93 0 166 59.5t109 147.5t36 184q0 105 -53.5 169t-160.5 64q-92 0 -165 -59.5t-110 -147.5t-37 -183zM694 429q0 -109 -43.5 -207t-129 -162t-193.5 -64q-126 0 -196 75.5t-70 201.5q0 108 44 205.5t129.5 161.5t192.5 64
q126 0 196 -74.5t70 -200.5zM407 767q0 -14 -10 -24t-24 -10t-24 10t-10 24t10 24t24 10t24 -10t10 -24zM551 767q0 -14 -10 -24t-24 -10t-24 10t-10 24t10 24t24 10t24 -10t10 -24z" />
    <glyph glyph-name="multiply" unicode="&#xd7;" horiz-adv-x="458" 
d="M242 306l-159 -136q-16 -13 -24 -13h-1q-14 0 -18.5 13.5t9.5 27.5l167 142l-106 140q-11 14 -5.5 27t20.5 13h1q12 0 23 -14l102 -135l160 136q16 13 24 13h1q14 0 18.5 -14t-9.5 -27l-167 -143l106 -139q11 -14 5.5 -27t-20.5 -13h-1q-12 0 -23 14z" />
    <glyph glyph-name="Oslash" unicode="&#xd8;" horiz-adv-x="716" 
d="M694 429q0 -109 -43.5 -207t-129 -162t-193.5 -64q-118 0 -188 68l-75 -82q-12 -12 -20 -12h-1q-12 0 -16 11t5 22l82 90q-53 73 -53 180q0 108 44 205.5t129.5 161.5t192.5 64q115 0 187 -67l67 73q12 12 20 12h1q12 0 16 -11t-5 -22l-74 -80q54 -73 54 -180zM641 429
q0 85 -34 143l-436 -474q55 -60 159 -60q93 0 166 59.5t109 147.5t36 184zM115 272q0 -88 33 -143l436 474q-57 60 -157 60q-92 0 -165 -59.5t-110 -148t-37 -183.5z" />
    <glyph glyph-name="Ugrave" unicode="&#xd9;" horiz-adv-x="679" 
d="M686 669l-107 -464q-48 -209 -263 -209q-133 0 -195.5 65.5t-32.5 195.5l97 421q5 25 26 25h1q14 0 20.5 -10.5t2.5 -27.5l-95 -413q-48 -210 177 -212q86 0 139.5 37.5t74.5 131.5l108 469q5 25 24 25h1q12 0 19 -9t3 -25zM417 815l37 -67q6 -10 1.5 -19t-14.5 -9h-1
q-10 0 -18 11l-48 64q-10 13 -4.5 27t20.5 14h1q15 0 26 -21z" />
    <glyph glyph-name="Uacute" unicode="&#xda;" horiz-adv-x="679" 
d="M686 669l-107 -464q-48 -209 -263 -209q-133 0 -195.5 65.5t-32.5 195.5l97 421q5 25 26 25h1q14 0 20.5 -10.5t2.5 -27.5l-95 -413q-48 -210 177 -212q86 0 139.5 37.5t74.5 131.5l108 469q5 25 24 25h1q12 0 19 -9t3 -25zM429 748l59 72q13 16 25 16h1q16 0 21 -14.5
t-7 -25.5l-69 -65q-11 -11 -19 -11h-1q-10 0 -13.5 9.5t3.5 18.5z" />
    <glyph glyph-name="Ucircumflex" unicode="&#xdb;" horiz-adv-x="679" 
d="M686 669l-107 -464q-48 -209 -263 -209q-133 0 -195.5 65.5t-32.5 195.5l97 421q5 25 26 25h1q14 0 20.5 -10.5t2.5 -27.5l-95 -413q-48 -210 177 -212q86 0 139.5 37.5t74.5 131.5l108 469q5 25 24 25h1q12 0 19 -9t3 -25zM513 731l-55 60l-84 -62q-11 -8 -18 -8h-1
q-11 0 -14 10.5t7 20.5l80 69q18 15 32 15h1q18 0 31 -17l51 -68q9 -13 4 -22t-15 -9h-1q-9 0 -18 11z" />
    <glyph glyph-name="Udieresis" unicode="&#xdc;" horiz-adv-x="679" 
d="M686 669l-107 -464q-48 -209 -263 -209q-133 0 -195.5 65.5t-32.5 195.5l97 421q5 25 26 25h1q14 0 20.5 -10.5t2.5 -27.5l-95 -413q-48 -210 177 -212q86 0 139.5 37.5t74.5 131.5l108 469q5 25 24 25h1q12 0 19 -9t3 -25zM409 767q0 -14 -10 -24t-24 -10t-24 10t-10 24
t10 24t24 10t24 -10t10 -24zM553 767q0 -14 -10 -24t-24 -10t-24 10t-10 24t10 24t24 10t24 -10t10 -24z" />
    <glyph glyph-name="Yacute" unicode="&#xdd;" horiz-adv-x="552" 
d="M317 291l-62 -269q-5 -25 -27 -25h-1q-14 0 -20.5 10t-2.5 27l60 261l-135 371q-5 15 1.5 26t21.5 11h1q18 0 26 -22l123 -338h1l271 343q13 17 24 17h1q15 0 20.5 -13.5t-4.5 -26.5zM368 748l59 72q13 16 25 16h1q16 0 21 -14.5t-7 -25.5l-69 -65q-11 -11 -19 -11h-1
q-10 0 -13.5 9.5t3.5 18.5z" />
    <glyph glyph-name="Thorn" unicode="&#xde;" horiz-adv-x="561" 
d="M204 512l-71 -308h129q231 0 231 188q0 120 -165 120h-124zM239 665l-25 -109h118q102 0 157.5 -41.5t55.5 -124.5q0 -117 -76.5 -172.5t-209.5 -55.5h-136l-32 -140q-5 -25 -26 -25h-1q-31 0 -23 38l148 643q5 25 26 25h1q14 0 20.5 -10.5t2.5 -27.5z" />
    <glyph glyph-name="germandbls" unicode="&#xdf;" horiz-adv-x="549" 
d="M177 497l-108 -475q-5 -25 -25 -25h-1q-13 0 -20 9t-3 24l108 468q47 207 244 207q73 0 116.5 -30.5t43.5 -83.5q0 -31 -21 -60.5t-43.5 -46.5t-67.5 -48q-4 -3 -13.5 -9.5t-13.5 -9t-11.5 -8.5t-11 -8.5t-9 -7.5t-8 -8.5t-6.5 -8.5t-5.5 -9t-2.5 -8.5t-1 -9.5
q0 -18 18 -32t57 -35q54 -30 82.5 -59.5t28.5 -77.5q0 -66 -48.5 -107.5t-134.5 -41.5q-82 0 -124 32q-13 10 -13 23v1q0 20 21 20q9 0 20.5 -9t34.5 -18.5t61 -9.5q66 0 100.5 30t34.5 76q0 36 -24.5 59.5t-69.5 46.5q-49 25 -70 46t-21 51q0 17 7 32t24 31.5t30 26.5
t41 30q5 4 24.5 17.5t26.5 19.5t21.5 18.5t20.5 21.5t11.5 22t5.5 26q0 37 -29.5 57t-83.5 20q-155 0 -193 -169z" />
    <glyph glyph-name="agrave" unicode="&#xe0;" horiz-adv-x="479" 
d="M154 -4q-66 0 -104.5 34.5t-38.5 96.5q0 82 61 127t165 45q63 0 128 -24l17 72q17 72 -12.5 106t-90.5 34q-49 0 -82 -11.5t-49.5 -23t-24.5 -11.5q-21 0 -21 20v1q0 20 35 37q59 28 145 28q84 0 127 -46t22 -138l-74 -321q-7 -25 -25 -25h-1q-30 0 -22 33l9 40
q-70 -74 -164 -74zM162 33q91 0 168 89l27 118q-58 23 -119 23q-84 0 -131.5 -34.5t-47.5 -99.5q0 -46 27.5 -71t75.5 -25zM257 682l45 -81q7 -13 3 -22t-14 -9h-1q-10 0 -20 14l-57 78q-10 15 -3.5 28t20.5 13h1q15 0 26 -21z" />
    <glyph glyph-name="aacute" unicode="&#xe1;" horiz-adv-x="479" 
d="M154 -4q-66 0 -104.5 34.5t-38.5 96.5q0 82 61 127t165 45q63 0 128 -24l17 72q17 72 -12.5 106t-90.5 34q-49 0 -82 -11.5t-49.5 -23t-24.5 -11.5q-21 0 -21 20v1q0 20 35 37q59 28 145 28q84 0 127 -46t22 -138l-74 -321q-7 -25 -25 -25h-1q-30 0 -22 33l9 40
q-70 -74 -164 -74zM162 33q91 0 168 89l27 118q-58 23 -119 23q-84 0 -131.5 -34.5t-47.5 -99.5q0 -46 27.5 -71t75.5 -25zM357 685q14 18 27 18h1q16 0 20.5 -14.5t-9.5 -28.5l-81 -79q-11 -11 -19 -11h-1q-10 0 -13.5 10t5.5 20z" />
    <glyph glyph-name="acircumflex" unicode="&#xe2;" horiz-adv-x="479" 
d="M154 -4q-66 0 -104.5 34.5t-38.5 96.5q0 82 61 127t165 45q63 0 128 -24l17 72q17 72 -12.5 106t-90.5 34q-49 0 -82 -11.5t-49.5 -23t-24.5 -11.5q-21 0 -21 20v1q0 20 35 37q59 28 145 28q84 0 127 -46t22 -138l-74 -321q-7 -25 -25 -25h-1q-30 0 -22 33l9 40
q-70 -74 -164 -74zM162 33q91 0 168 89l27 118q-58 23 -119 23q-84 0 -131.5 -34.5t-47.5 -99.5q0 -46 27.5 -71t75.5 -25zM197 570h-1q-11 0 -14.5 10t5.5 19l93 88q16 16 32 16h1q19 0 30 -19l53 -85q7 -11 2.5 -20t-15.5 -9h-1q-9 0 -16 10l-57 80l-94 -80
q-11 -10 -18 -10z" />
    <glyph glyph-name="atilde" unicode="&#xe3;" horiz-adv-x="479" 
d="M154 -4q-66 0 -104.5 34.5t-38.5 96.5q0 82 61 127t165 45q63 0 128 -24l17 72q17 72 -12.5 106t-90.5 34q-49 0 -82 -11.5t-49.5 -23t-24.5 -11.5q-21 0 -21 20v1q0 20 35 37q59 28 145 28q84 0 127 -46t22 -138l-74 -321q-7 -25 -25 -25h-1q-30 0 -22 33l9 40
q-70 -74 -164 -74zM162 33q91 0 168 89l27 118q-58 23 -119 23q-84 0 -131.5 -34.5t-47.5 -99.5q0 -46 27.5 -71t75.5 -25zM431 648q-6 -25 -26 -42t-47 -17q-23 0 -57.5 20t-47.5 20q-27 0 -38 -27q-8 -19 -20 -19h-1q-21 0 -15 27q6 25 25.5 42.5t48.5 17.5q22 0 57 -19.5
t49 -19.5q25 0 36 27q8 19 20 19h1q22 0 15 -29z" />
    <glyph glyph-name="adieresis" unicode="&#xe4;" horiz-adv-x="479" 
d="M154 -4q-66 0 -104.5 34.5t-38.5 96.5q0 82 61 127t165 45q63 0 128 -24l17 72q17 72 -12.5 106t-90.5 34q-49 0 -82 -11.5t-49.5 -23t-24.5 -11.5q-21 0 -21 20v1q0 20 35 37q59 28 145 28q84 0 127 -46t22 -138l-74 -321q-7 -25 -25 -25h-1q-30 0 -22 33l9 40
q-70 -74 -164 -74zM162 33q91 0 168 89l27 118q-58 23 -119 23q-84 0 -131.5 -34.5t-47.5 -99.5q0 -46 27.5 -71t75.5 -25zM265 635q0 -14 -10 -24t-24 -10t-24 10t-10 24t10 24t24 10t24 -10t10 -24zM409 635q0 -14 -10 -24t-24 -10t-24 10t-10 24t10 24t24 10t24 -10
t10 -24z" />
    <glyph glyph-name="aring" unicode="&#xe5;" horiz-adv-x="479" 
d="M154 -4q-66 0 -104.5 34.5t-38.5 96.5q0 82 61 127t165 45q63 0 128 -24l17 72q17 72 -12.5 106t-90.5 34q-49 0 -82 -11.5t-49.5 -23t-24.5 -11.5q-21 0 -21 20v1q0 20 35 37q59 28 145 28q84 0 127 -46t22 -138l-74 -321q-7 -25 -25 -25h-1q-30 0 -22 33l9 40
q-70 -74 -164 -74zM162 33q91 0 168 89l27 118q-58 23 -119 23q-84 0 -131.5 -34.5t-47.5 -99.5q0 -46 27.5 -71t75.5 -25zM392 662q0 -39 -28 -63.5t-63 -24.5q-36 0 -60 21.5t-24 59.5q0 39 27 64.5t64 25.5q35 0 59.5 -23t24.5 -60zM253 655q0 -23 13.5 -36t34.5 -13
q22 0 38.5 16t16.5 41q0 21 -14 35.5t-35 14.5q-24 0 -39 -16t-15 -42z" />
    <glyph glyph-name="ae" unicode="&#xe6;" horiz-adv-x="824" 
d="M158 -4q-68 0 -107.5 34.5t-39.5 96.5q0 82 61 126t165 44h133l3 9l9 41q17 72 -12.5 106t-90.5 34q-49 0 -82 -11.5t-49.5 -23t-24.5 -11.5q-21 0 -21 20v1q0 20 35 37q59 28 145 28q63 0 102 -27t46 -81q83 108 209 108q80 -1 121.5 -44t41.5 -120q0 -31 -9 -76
q-5 -28 -34 -28h-347q-5 -25 -5 -61q0 -161 150 -161q52 0 86 14.5t51 28.5t27 14t15.5 -6t5.5 -13v-1q0 -18 -24 -33q-72 -45 -165 -45q-139 0 -182 115q-81 -115 -213 -115zM168 33q116 0 192 121q-3 21 -3 44q0 14 1 20q0 13 1 19l3 22h-125q-85 0 -131.5 -32.5
t-46.5 -97.5q0 -46 29 -71t80 -25zM637 489q-78 0 -136 -54t-81 -138h327q9 35 9 66q0 126 -119 126z" />
    <glyph glyph-name="ccedilla" unicode="&#xe7;" horiz-adv-x="482" 
d="M390 42q-69 -46 -161 -46q-10 0 -19 1l-8 -39q30 -2 46 -19t16 -43q0 -35 -24.5 -52.5t-61.5 -17.5q-40 0 -63 15q-12 8 -12 21v1q0 17 17 17q5 0 21 -9t35 -9q45 0 45 35q0 30 -46 30h-1q-17 0 -12 17l13 57q-69 15 -104.5 68t-35.5 131q0 135 85 231t214 96
q89 0 136 -43q13 -13 13 -26v-1q0 -10 -6 -16t-15 -6t-22 13t-38.5 26t-66.5 13q-110 0 -179.5 -85t-69.5 -201q0 -77 36.5 -121t109.5 -44q41 0 72 9t44 20t25 20t20 9q10 0 15.5 -6t5.5 -13v-1q0 -16 -24 -32z" />
    <glyph glyph-name="egrave" unicode="&#xe8;" horiz-adv-x="502" 
d="M85 198q0 -161 150 -161q52 0 86 14.5t51 28.5t27 14t15.5 -6t5.5 -13v-1q0 -18 -24 -33q-72 -45 -165 -45q-95 0 -145.5 55.5t-50.5 146.5q0 133 80.5 231t201.5 98q80 -1 121.5 -44t41.5 -120q0 -31 -9 -76q-5 -28 -34 -28h-347q-5 -25 -5 -61zM98 297h327q9 35 9 66
q0 126 -119 126q-78 0 -136 -54t-81 -138zM289 682l45 -81q7 -13 3 -22t-14 -9h-1q-10 0 -20 14l-57 78q-10 15 -3.5 28t20.5 13h1q15 0 26 -21z" />
    <glyph glyph-name="eacute" unicode="&#xe9;" horiz-adv-x="502" 
d="M85 198q0 -161 150 -161q52 0 86 14.5t51 28.5t27 14t15.5 -6t5.5 -13v-1q0 -18 -24 -33q-72 -45 -165 -45q-95 0 -145.5 55.5t-50.5 146.5q0 133 80.5 231t201.5 98q80 -1 121.5 -44t41.5 -120q0 -31 -9 -76q-5 -28 -34 -28h-347q-5 -25 -5 -61zM98 297h327q9 35 9 66
q0 126 -119 126q-78 0 -136 -54t-81 -138zM387 685q14 18 27 18h1q16 0 20.5 -14.5t-9.5 -28.5l-81 -79q-11 -11 -19 -11h-1q-10 0 -13.5 10t5.5 20z" />
    <glyph glyph-name="ecircumflex" unicode="&#xea;" horiz-adv-x="502" 
d="M85 198q0 -161 150 -161q52 0 86 14.5t51 28.5t27 14t15.5 -6t5.5 -13v-1q0 -18 -24 -33q-72 -45 -165 -45q-95 0 -145.5 55.5t-50.5 146.5q0 133 80.5 231t201.5 98q80 -1 121.5 -44t41.5 -120q0 -31 -9 -76q-5 -28 -34 -28h-347q-5 -25 -5 -61zM98 297h327q9 35 9 66
q0 126 -119 126q-78 0 -136 -54t-81 -138zM234 570h-1q-11 0 -14.5 10t5.5 19l93 88q16 16 32 16h1q19 0 30 -19l53 -85q7 -11 2.5 -20t-15.5 -9h-1q-9 0 -16 10l-57 80l-94 -80q-11 -10 -18 -10z" />
    <glyph glyph-name="edieresis" unicode="&#xeb;" horiz-adv-x="502" 
d="M85 198q0 -161 150 -161q52 0 86 14.5t51 28.5t27 14t15.5 -6t5.5 -13v-1q0 -18 -24 -33q-72 -45 -165 -45q-95 0 -145.5 55.5t-50.5 146.5q0 133 80.5 231t201.5 98q80 -1 121.5 -44t41.5 -120q0 -31 -9 -76q-5 -28 -34 -28h-347q-5 -25 -5 -61zM98 297h327q9 35 9 66
q0 126 -119 126q-78 0 -136 -54t-81 -138zM297 635q0 -14 -10 -24t-24 -10t-24 10t-10 24t10 24t24 10t24 -10t10 -24zM441 635q0 -14 -10 -24t-24 -10t-24 10t-10 24t10 24t24 10t24 -10t10 -24z" />
    <glyph glyph-name="igrave" unicode="&#xec;" horiz-adv-x="202" 
d="M177 489l-107 -467q-5 -25 -26 -25h-1q-12 0 -18.5 9t-2.5 25l108 468q7 25 25 25h1q28 0 21 -35zM132 682l45 -81q7 -13 3 -22t-14 -9h-1q-10 0 -20 14l-57 78q-10 15 -3.5 28t20.5 13h1q15 0 26 -21z" />
    <glyph glyph-name="iacute" unicode="&#xed;" horiz-adv-x="202" 
d="M177 489l-107 -467q-5 -25 -26 -25h-1q-12 0 -18.5 9t-2.5 25l108 468q7 25 25 25h1q28 0 21 -35zM231 685q14 18 27 18h1q16 0 20.5 -14.5t-9.5 -28.5l-81 -79q-11 -11 -19 -11h-1q-10 0 -13.5 10t5.5 20z" />
    <glyph glyph-name="icircumflex" unicode="&#xee;" horiz-adv-x="202" 
d="M177 489l-107 -467q-5 -25 -26 -25h-1q-12 0 -18.5 9t-2.5 25l108 468q7 25 25 25h1q28 0 21 -35zM78 570h-1q-11 0 -14.5 10t5.5 19l93 88q16 16 32 16h1q19 0 30 -19l53 -85q7 -11 2.5 -20t-15.5 -9h-1q-9 0 -16 10l-57 80l-94 -80q-11 -10 -18 -10z" />
    <glyph glyph-name="idieresis" unicode="&#xef;" horiz-adv-x="202" 
d="M177 489l-107 -467q-5 -25 -26 -25h-1q-12 0 -18.5 9t-2.5 25l108 468q7 25 25 25h1q28 0 21 -35zM141 635q0 -14 -10 -24t-24 -10t-24 10t-10 24t10 24t24 10t24 -10t10 -24zM285 635q0 -14 -10 -24t-24 -10t-24 10t-10 24t10 24t24 10t24 -10t10 -24z" />
    <glyph glyph-name="eth" unicode="&#xf0;" horiz-adv-x="554" 
d="M450 672l-62 -38q128 -98 128 -303q0 -143 -79 -239t-201 -96q-94 0 -147.5 54.5t-53.5 150.5q0 133 78.5 229.5t194.5 96.5q100 0 146 -72q-25 97 -105 155l-82 -51q-11 -6 -16 -6h-1q-12 0 -15 11.5t9 19.5l74 46q-34 18 -80 31q-18 5 -18 19v1q0 19 20 19q7 0 15 -2
q61 -18 103 -43l69 42q10 6 16 6h1q12 0 15 -11.5t-9 -19.5zM85 199q0 -79 39.5 -121.5t113.5 -42.5q101 0 164 86t63 203q0 77 -40 120.5t-113 43.5q-100 0 -163.5 -84.5t-63.5 -204.5z" />
    <glyph glyph-name="ntilde" unicode="&#xf1;" horiz-adv-x="545" 
d="M20 31l108 468q7 25 26 25h1q12 0 18.5 -9t2.5 -25l-16 -68q131 105 244 105q59 0 86.5 -40t10.5 -116l-81 -349q-7 -25 -25 -25h-1q-12 0 -19 8.5t-3 24.5l78 339q27 116 -65 116q-100 0 -236 -112l-81 -351q-5 -25 -26 -25h-1q-12 0 -18.5 9t-2.5 25zM465 648
q-6 -25 -26 -42t-47 -17q-23 0 -57.5 20t-47.5 20q-27 0 -38 -27q-8 -19 -20 -19h-1q-21 0 -15 27q6 25 25.5 42.5t48.5 17.5q22 0 57 -19.5t49 -19.5q25 0 36 27q8 19 20 19h1q22 0 15 -29z" />
    <glyph glyph-name="ograve" unicode="&#xf2;" horiz-adv-x="555" 
d="M85 201q0 -82 40 -124t114 -42q102 0 166.5 86t64.5 203q0 79 -40 121.5t-113 42.5q-101 0 -166.5 -84t-65.5 -203zM520 323q0 -136 -79.5 -231.5t-202.5 -95.5q-95 0 -149 54t-54 151q0 135 81 230.5t202 95.5q94 0 148 -55t54 -149zM295 682l45 -81q7 -13 3 -22t-14 -9
h-1q-10 0 -20 14l-57 78q-10 15 -3.5 28t20.5 13h1q15 0 26 -21z" />
    <glyph glyph-name="oacute" unicode="&#xf3;" horiz-adv-x="555" 
d="M85 201q0 -82 40 -124t114 -42q102 0 166.5 86t64.5 203q0 79 -40 121.5t-113 42.5q-101 0 -166.5 -84t-65.5 -203zM520 323q0 -136 -79.5 -231.5t-202.5 -95.5q-95 0 -149 54t-54 151q0 135 81 230.5t202 95.5q94 0 148 -55t54 -149zM394 685q14 18 27 18h1
q16 0 20.5 -14.5t-9.5 -28.5l-81 -79q-11 -11 -19 -11h-1q-10 0 -13.5 10t5.5 20z" />
    <glyph glyph-name="ocircumflex" unicode="&#xf4;" horiz-adv-x="555" 
d="M85 201q0 -82 40 -124t114 -42q102 0 166.5 86t64.5 203q0 79 -40 121.5t-113 42.5q-101 0 -166.5 -84t-65.5 -203zM520 323q0 -136 -79.5 -231.5t-202.5 -95.5q-95 0 -149 54t-54 151q0 135 81 230.5t202 95.5q94 0 148 -55t54 -149zM245 570h-1q-11 0 -14.5 10t5.5 19
l93 88q16 16 32 16h1q19 0 30 -19l53 -85q7 -11 2.5 -20t-15.5 -9h-1q-9 0 -16 10l-57 80l-94 -80q-11 -10 -18 -10z" />
    <glyph glyph-name="otilde" unicode="&#xf5;" horiz-adv-x="555" 
d="M85 201q0 -82 40 -124t114 -42q102 0 166.5 86t64.5 203q0 79 -40 121.5t-113 42.5q-101 0 -166.5 -84t-65.5 -203zM520 323q0 -136 -79.5 -231.5t-202.5 -95.5q-95 0 -149 54t-54 151q0 135 81 230.5t202 95.5q94 0 148 -55t54 -149zM468 648q-6 -25 -26 -42t-47 -17
q-23 0 -57.5 20t-47.5 20q-27 0 -38 -27q-8 -19 -20 -19h-1q-21 0 -15 27q6 25 25.5 42.5t48.5 17.5q22 0 57 -19.5t49 -19.5q25 0 36 27q8 19 20 19h1q22 0 15 -29z" />
    <glyph glyph-name="odieresis" unicode="&#xf6;" horiz-adv-x="555" 
d="M85 201q0 -82 40 -124t114 -42q102 0 166.5 86t64.5 203q0 79 -40 121.5t-113 42.5q-101 0 -166.5 -84t-65.5 -203zM520 323q0 -136 -79.5 -231.5t-202.5 -95.5q-95 0 -149 54t-54 151q0 135 81 230.5t202 95.5q94 0 148 -55t54 -149zM303 635q0 -14 -10 -24t-24 -10
t-24 10t-10 24t10 24t24 10t24 -10t10 -24zM447 635q0 -14 -10 -24t-24 -10t-24 10t-10 24t10 24t24 10t24 -10t10 -24z" />
    <glyph glyph-name="divide" unicode="&#xf7;" horiz-adv-x="462" 
d="M257 199q0 -17 -11.5 -28.5t-28.5 -11.5t-27 10.5t-10 26.5t12 28t28 12t26.5 -10t10.5 -27zM320 495q0 -17 -12 -28.5t-28 -11.5t-26.5 10.5t-10.5 26.5t11.5 28t28.5 12t27 -10t10 -27zM69 368h363q21 0 21 -21v-2q0 -22 -21 -22h-363q-22 0 -22 22v2q0 21 22 21z" />
    <glyph glyph-name="oslash" unicode="&#xf8;" horiz-adv-x="555" 
d="M530 513l-52 -56q42 -53 42 -134q0 -136 -79.5 -231.5t-202.5 -95.5q-90 0 -143 48l-56 -60q-10 -11 -18 -11h-1q-11 0 -15.5 10.5t4.5 20.5l62 67q-36 49 -36 130q0 135 81 230.5t202 95.5q82 0 135 -44l47 50q10 11 18 11h1q11 0 15.5 -10t-4.5 -21zM470 324
q0 60 -23 100l-323 -348q39 -41 115 -41q102 0 166.5 86t64.5 203zM85 201q0 -58 19 -95l321 346q-39 36 -108 36q-101 0 -166.5 -84t-65.5 -203z" />
    <glyph glyph-name="ugrave" unicode="&#xf9;" horiz-adv-x="543" 
d="M518 490l-108 -468q-7 -25 -26 -25h-1q-12 0 -19 8.5t-3 25.5l15 67q-127 -104 -231 -104q-61 0 -91.5 40t-12.5 116l81 349q7 25 26 25h1q12 0 19 -8.5t3 -25.5l-78 -337q-26 -118 66 -118t228 110l82 354q5 25 26 25h1q12 0 19 -8.5t3 -25.5zM304 682l45 -81
q7 -13 3 -22t-14 -9h-1q-10 0 -20 14l-57 78q-10 15 -3.5 28t20.5 13h1q15 0 26 -21z" />
    <glyph glyph-name="uacute" unicode="&#xfa;" horiz-adv-x="543" 
d="M518 490l-108 -468q-7 -25 -26 -25h-1q-12 0 -19 8.5t-3 25.5l15 67q-127 -104 -231 -104q-61 0 -91.5 40t-12.5 116l81 349q7 25 26 25h1q12 0 19 -8.5t3 -25.5l-78 -337q-26 -118 66 -118t228 110l82 354q5 25 26 25h1q12 0 19 -8.5t3 -25.5zM396 685q14 18 27 18h1
q16 0 20.5 -14.5t-9.5 -28.5l-81 -79q-11 -11 -19 -11h-1q-10 0 -13.5 10t5.5 20z" />
    <glyph glyph-name="ucircumflex" unicode="&#xfb;" horiz-adv-x="543" 
d="M518 490l-108 -468q-7 -25 -26 -25h-1q-12 0 -19 8.5t-3 25.5l15 67q-127 -104 -231 -104q-61 0 -91.5 40t-12.5 116l81 349q7 25 26 25h1q12 0 19 -8.5t3 -25.5l-78 -337q-26 -118 66 -118t228 110l82 354q5 25 26 25h1q12 0 19 -8.5t3 -25.5zM246 570h-1
q-11 0 -14.5 10t5.5 19l93 88q16 16 32 16h1q19 0 30 -19l53 -85q7 -11 2.5 -20t-15.5 -9h-1q-9 0 -16 10l-57 80l-94 -80q-11 -10 -18 -10z" />
    <glyph glyph-name="udieresis" unicode="&#xfc;" horiz-adv-x="543" 
d="M518 490l-108 -468q-7 -25 -26 -25h-1q-12 0 -19 8.5t-3 25.5l15 67q-127 -104 -231 -104q-61 0 -91.5 40t-12.5 116l81 349q7 25 26 25h1q12 0 19 -8.5t3 -25.5l-78 -337q-26 -118 66 -118t228 110l82 354q5 25 26 25h1q12 0 19 -8.5t3 -25.5zM448 635q0 -14 -10 -24
t-24 -10t-24 10t-10 24t10 24t24 10t24 -10t10 -24zM304 635q0 -14 -10 -24t-24 -10t-24 10t-10 24t10 24t24 10t24 -10t10 -24z" />
    <glyph glyph-name="yacute" unicode="&#xfd;" horiz-adv-x="485" 
d="M504 488l-415 -636q-12 -18 -25 -18h-1q-14 0 -20 12t3 26l116 174l-84 446q-5 32 24 32h1q19 0 23 -22l74 -401h1l261 406q11 17 24 17h1q14 0 19.5 -12t-2.5 -24zM368 685q14 18 27 18h1q16 0 20.5 -14.5t-9.5 -28.5l-81 -79q-11 -11 -19 -11h-1q-10 0 -13.5 10t5.5 20
z" />
    <glyph glyph-name="thorn" unicode="&#xfe;" horiz-adv-x="556" 
d="M238 -4q-101 0 -161 64l-46 -200q-5 -25 -26 -25h-1q-12 0 -18.5 9t-2.5 25l186 809q6 25 26 25h1q12 0 18.5 -9t2.5 -25l-57 -248q104 106 212 106q66 0 107 -43t41 -131q0 -146 -78.5 -251.5t-203.5 -105.5zM361 486q-59 0 -107.5 -30t-105.5 -85l-62 -269
q57 -67 145 -67q74 0 129 45.5t82 116t27 153.5q0 70 -29 103t-79 33z" />
    <glyph glyph-name="ydieresis" unicode="&#xff;" horiz-adv-x="485" 
d="M504 488l-415 -636q-12 -18 -25 -18h-1q-14 0 -20 12t3 26l116 174l-84 446q-5 32 24 32h1q19 0 23 -22l74 -401h1l261 406q11 17 24 17h1q14 0 19.5 -12t-2.5 -24zM269 635q0 -14 -10 -24t-24 -10t-24 10t-10 24t10 24t24 10t24 -10t10 -24zM413 635q0 -14 -10 -24
t-24 -10t-24 10t-10 24t10 24t24 10t24 -10t10 -24z" />
    <glyph glyph-name="Amacron" unicode="&#x100;" horiz-adv-x="616" 
d="M-13 33l378 643q15 24 39 24h6q29 0 33 -31l83 -640q5 -32 -25 -32h-1q-22 0 -25 26l-25 196h-303l-115 -198q-15 -25 -29 -25h-1q-12 0 -17.5 11.5t2.5 25.5zM394 641l-221 -378h271l-48 378h-2zM516 750h-197q-19 0 -19 19v2q0 18 19 18h197q18 0 18 -18v-2
q0 -19 -18 -19z" />
    <glyph glyph-name="amacron" unicode="&#x101;" horiz-adv-x="479" 
d="M154 -4q-66 0 -104.5 34.5t-38.5 96.5q0 82 61 127t165 45q63 0 128 -24l17 72q17 72 -12.5 106t-90.5 34q-49 0 -82 -11.5t-49.5 -23t-24.5 -11.5q-21 0 -21 20v1q0 20 35 37q59 28 145 28q84 0 127 -46t22 -138l-74 -321q-7 -25 -25 -25h-1q-30 0 -22 33l9 40
q-70 -74 -164 -74zM162 33q91 0 168 89l27 118q-58 23 -119 23q-84 0 -131.5 -34.5t-47.5 -99.5q0 -46 27.5 -71t75.5 -25zM403 611h-191q-18 0 -18 18v2q0 17 18 17h191q17 0 17 -17v-2q0 -18 -17 -18z" />
    <glyph glyph-name="Abreve" unicode="&#x102;" horiz-adv-x="616" 
d="M-13 33l378 643q15 24 39 24h6q29 0 33 -31l83 -640q5 -32 -25 -32h-1q-22 0 -25 26l-25 196h-303l-115 -198q-15 -25 -29 -25h-1q-12 0 -17.5 11.5t2.5 25.5zM394 641l-221 -378h271l-48 378h-2zM533 797q-15 -37 -47.5 -54.5t-70.5 -17.5q-42 0 -71.5 22t-32.5 61
q-2 23 19 23h1q10 0 20 -21q18 -44 67 -44q53 0 78 46q10 19 22 19h1q12 0 16 -10.5t-2 -23.5z" />
    <glyph glyph-name="abreve" unicode="&#x103;" horiz-adv-x="479" 
d="M154 -4q-66 0 -104.5 34.5t-38.5 96.5q0 82 61 127t165 45q63 0 128 -24l17 72q17 72 -12.5 106t-90.5 34q-49 0 -82 -11.5t-49.5 -23t-24.5 -11.5q-21 0 -21 20v1q0 20 35 37q59 28 145 28q84 0 127 -46t22 -138l-74 -321q-7 -25 -25 -25h-1q-30 0 -22 33l9 40
q-70 -74 -164 -74zM162 33q91 0 168 89l27 118q-58 23 -119 23q-84 0 -131.5 -34.5t-47.5 -99.5q0 -46 27.5 -71t75.5 -25zM413 658q-34 -83 -121 -83q-47 0 -74 26t-30 68q-2 22 19 22h1q13 0 19 -21q15 -55 66 -55q55 0 83 58q9 18 21 18h1q12 0 16 -9.5t-1 -23.5z" />
    <glyph glyph-name="Aogonek" unicode="&#x104;" horiz-adv-x="616" 
d="M389 -101q0 63 88 104l-28 216h-302l-115 -198q-15 -25 -29 -25h-1q-12 0 -17.5 11.5t2.5 25.5l378 643q15 24 39 24h6q29 0 33 -30l83 -640q3 -25 -16 -39q-3 -2 -19.5 -14t-21.5 -17t-15.5 -15t-14 -18.5t-3.5 -18.5q0 -36 45 -36h17q15 0 15 -15v-1q0 -14 -15 -17
q-14 -3 -31 -3q-36 0 -57 18t-21 45zM394 641l-221 -378h271l-48 378h-2z" />
    <glyph glyph-name="aogonek" unicode="&#x105;" horiz-adv-x="479" 
d="M279 487q-49 0 -82 -11.5t-49.5 -23t-24.5 -11.5q-21 0 -21 20v1q0 20 35 37q59 28 145 28q84 0 127 -46t22 -138l-74 -321q-4 -19 -22 -31q-34 -21 -54 -40.5t-20 -42.5q0 -36 45 -36h17q15 0 15 -15v-1q0 -14 -15 -17q-14 -3 -31 -3q-36 0 -57 18t-21 45q0 66 96 108
q-4 10 1 31l7 32q-70 -74 -164 -74q-66 0 -104.5 34.5t-38.5 96.5q0 82 61 127t165 45q63 0 128 -24l17 72q17 72 -12.5 106t-90.5 34zM238 263q-84 0 -131.5 -34.5t-47.5 -99.5q0 -46 27.5 -71t75.5 -25q91 0 168 89l27 118q-58 23 -119 23z" />
    <glyph glyph-name="Cacute" unicode="&#x106;" horiz-adv-x="625" 
d="M525 48q-77 -52 -195 -52q-125 0 -196.5 71t-71.5 201q0 108 45 206t138.5 164t216.5 66q107 0 161 -40q22 -16 22 -33v-1q0 -10 -6.5 -17t-17.5 -7q-10 0 -21.5 8.5t-23 19t-42.5 19t-76 8.5q-65 0 -121.5 -23t-96.5 -61.5t-68.5 -89t-42 -106.5t-13.5 -113
q0 -110 56 -169.5t160 -59.5q49 0 86.5 11t55 23.5t32.5 23.5t23 11q24 0 24 -23v-1q0 -18 -28 -36zM442 748l59 72q13 16 25 16h1q16 0 21 -14.5t-7 -25.5l-69 -65q-11 -11 -19 -11h-1q-10 0 -13.5 9.5t3.5 18.5z" />
    <glyph glyph-name="cacute" unicode="&#x107;" horiz-adv-x="482" 
d="M390 42q-69 -46 -161 -46q-94 0 -144 56t-50 148q0 135 85 231t214 96q89 0 136 -43q13 -13 13 -26v-1q0 -10 -6 -16t-15 -6t-22 13t-38.5 26t-66.5 13q-110 0 -179.5 -85t-69.5 -201q0 -77 36.5 -121t109.5 -44q41 0 72 9t44 20t25 20t20 9q10 0 15.5 -6t5.5 -13v-1
q0 -16 -24 -32zM392 685q14 18 27 18h1q16 0 20.5 -14.5t-9.5 -28.5l-81 -79q-11 -11 -19 -11h-1q-10 0 -13.5 10t5.5 20z" />
    <glyph glyph-name="Ccircumflex" unicode="&#x108;" horiz-adv-x="625" 
d="M525 48q-77 -52 -195 -52q-125 0 -196.5 71t-71.5 201q0 108 45 206t138.5 164t216.5 66q107 0 161 -40q22 -16 22 -33v-1q0 -10 -6.5 -17t-17.5 -7q-10 0 -21.5 8.5t-23 19t-42.5 19t-76 8.5q-65 0 -121.5 -23t-96.5 -61.5t-68.5 -89t-42 -106.5t-13.5 -113
q0 -110 56 -169.5t160 -59.5q49 0 86.5 11t55 23.5t32.5 23.5t23 11q24 0 24 -23v-1q0 -18 -28 -36zM523 731l-55 60l-84 -62q-11 -8 -18 -8h-1q-11 0 -14 10.5t7 20.5l80 69q18 15 32 15h1q18 0 31 -17l51 -68q9 -13 4 -22t-15 -9h-1q-9 0 -18 11z" />
    <glyph glyph-name="ccircumflex" unicode="&#x109;" horiz-adv-x="482" 
d="M390 42q-69 -46 -161 -46q-94 0 -144 56t-50 148q0 135 85 231t214 96q89 0 136 -43q13 -13 13 -26v-1q0 -10 -6 -16t-15 -6t-22 13t-38.5 26t-66.5 13q-110 0 -179.5 -85t-69.5 -201q0 -77 36.5 -121t109.5 -44q41 0 72 9t44 20t25 20t20 9q10 0 15.5 -6t5.5 -13v-1
q0 -16 -24 -32zM238 570h-1q-11 0 -14.5 10t5.5 19l93 88q16 16 32 16h1q19 0 30 -19l53 -85q7 -11 2.5 -20t-15.5 -9h-1q-9 0 -16 10l-57 80l-94 -80q-11 -10 -18 -10z" />
    <glyph glyph-name="Cdotaccent" unicode="&#x10a;" horiz-adv-x="625" 
d="M525 48q-77 -52 -195 -52q-125 0 -196.5 71t-71.5 201q0 108 45 206t138.5 164t216.5 66q107 0 161 -40q22 -16 22 -33v-1q0 -10 -6.5 -17t-17.5 -7q-10 0 -21.5 8.5t-23 19t-42.5 19t-76 8.5q-65 0 -121.5 -23t-96.5 -61.5t-68.5 -89t-42 -106.5t-13.5 -113
q0 -110 56 -169.5t160 -59.5q49 0 86.5 11t55 23.5t32.5 23.5t23 11q24 0 24 -23v-1q0 -18 -28 -36zM493 768q0 -14 -10 -24t-24 -10t-24 10t-10 24t10 24t24 10t24 -10t10 -24z" />
    <glyph glyph-name="cdotaccent" unicode="&#x10b;" horiz-adv-x="482" 
d="M390 42q-69 -46 -161 -46q-94 0 -144 56t-50 148q0 135 85 231t214 96q89 0 136 -43q13 -13 13 -26v-1q0 -10 -6 -16t-15 -6t-22 13t-38.5 26t-66.5 13q-110 0 -179.5 -85t-69.5 -201q0 -77 36.5 -121t109.5 -44q41 0 72 9t44 20t25 20t20 9q10 0 15.5 -6t5.5 -13v-1
q0 -16 -24 -32zM376 635q0 -14 -10 -24t-24 -10t-24 10t-10 24t10 24t24 10t24 -10t10 -24z" />
    <glyph glyph-name="Ccaron" unicode="&#x10c;" horiz-adv-x="625" 
d="M525 48q-77 -52 -195 -52q-125 0 -196.5 71t-71.5 201q0 108 45 206t138.5 164t216.5 66q107 0 161 -40q22 -16 22 -33v-1q0 -10 -6.5 -17t-17.5 -7q-10 0 -21.5 8.5t-23 19t-42.5 19t-76 8.5q-65 0 -121.5 -23t-96.5 -61.5t-68.5 -89t-42 -106.5t-13.5 -113
q0 -110 56 -169.5t160 -59.5q49 0 86.5 11t55 23.5t32.5 23.5t23 11q24 0 24 -23v-1q0 -18 -28 -36zM402 825l55 -60l84 62q11 8 18 8h1q11 0 14 -10.5t-7 -20.5l-80 -69q-18 -15 -32 -15h-1q-18 0 -31 17l-51 68q-9 13 -4 22t15 9h1q9 0 18 -11z" />
    <glyph glyph-name="ccaron" unicode="&#x10d;" horiz-adv-x="482" 
d="M390 42q-69 -46 -161 -46q-94 0 -144 56t-50 148q0 135 85 231t214 96q89 0 136 -43q13 -13 13 -26v-1q0 -10 -6 -16t-15 -6t-22 13t-38.5 26t-66.5 13q-110 0 -179.5 -85t-69.5 -201q0 -77 36.5 -121t109.5 -44q41 0 72 9t44 20t25 20t20 9q10 0 15.5 -6t5.5 -13v-1
q0 -16 -24 -32zM447 703h1q11 0 14.5 -10t-5.5 -19l-93 -88q-16 -16 -32 -16h-1q-19 0 -30 19l-53 85q-7 10 -2.5 19.5t15.5 9.5h1q9 0 16 -10l57 -80l94 80q11 10 18 10z" />
    <glyph glyph-name="Dcaron" unicode="&#x10e;" horiz-adv-x="682" 
d="M222 700h166q129 0 200.5 -72t71.5 -198q0 -113 -44.5 -209.5t-134 -158.5t-206.5 -62h-212q-14 0 -19.5 10.5t-2.5 24.5l147 638q7 27 34 27zM236 657l-141 -614h179q79 0 143 33t104.5 88t62.5 123.5t22 142.5q0 104 -55.5 165.5t-164.5 61.5h-150zM353 825l55 -60
l84 62q11 8 18 8h1q11 0 14 -10.5t-7 -20.5l-80 -69q-18 -15 -32 -15h-1q-18 0 -31 17l-51 68q-9 13 -4 22t15 9h1q9 0 18 -11z" />
    <glyph glyph-name="dcaron" unicode="&#x10f;" horiz-adv-x="559" 
d="M576 669l-149 -647q-5 -25 -25 -25h-1q-30 0 -22 36l15 66q-99 -103 -208 -103q-66 0 -108 43.5t-42 132.5q0 138 84.5 246.5t211.5 108.5q91 0 147 -62l49 213q6 25 25 25h1q13 0 19.5 -9t2.5 -25zM200 35q56 0 104 30.5t102 84.5l63 274q-52 64 -132 64
q-76 0 -134.5 -47t-87 -118t-28.5 -151q0 -137 113 -137zM613 595l25 87q5 21 23 21h1q14 0 20.5 -11t0.5 -24l-38 -81q-7 -16 -18 -16h-1q-8 0 -12 6.5t-1 17.5z" />
    <glyph glyph-name="Dcroat" unicode="&#x110;" horiz-adv-x="682" 
d="M222 700h166q129 0 200.5 -72t71.5 -198q0 -113 -44.5 -209.5t-134 -158.5t-206.5 -62h-212q-14 0 -19.5 10.5t-2.5 24.5l67 294h-56q-8 0 -14.5 6.5t-6.5 14.5v2q0 9 6 15t15 6h66l70 300q7 27 34 27zM236 657l-65 -284h184q9 0 15 -6t6 -15v-2q0 -9 -6 -15t-15 -6h-194
l-66 -286h179q79 0 143 33t104.5 88t62.5 123.5t22 142.5q0 104 -55.5 165.5t-164.5 61.5h-150z" />
    <glyph glyph-name="dcroat" unicode="&#x111;" horiz-adv-x="559" 
d="M576 669l-12 -49h50q17 0 17 -17v-2q0 -18 -17 -18h-58l-129 -561q-5 -25 -25 -25h-1q-30 0 -22 36l15 66q-99 -103 -208 -103q-66 0 -108 43.5t-42 132.5q0 138 84.5 246.5t211.5 108.5q91 0 147 -62l27 118h-136q-18 0 -18 18v2q0 17 18 17h144l14 58q6 25 25 25h1
q13 0 19.5 -9t2.5 -25zM200 35q56 0 104 30.5t102 84.5l63 274q-52 64 -132 64q-76 0 -134.5 -47t-87 -118t-28.5 -151q0 -137 113 -137z" />
    <glyph glyph-name="Emacron" unicode="&#x112;" horiz-adv-x="557" 
d="M423 340h-259l-68 -297h353q21 0 21 -21v-1q0 -21 -21 -21h-386q-14 0 -19.5 10.5t-2.5 24.5l147 638q7 27 34 27h357q21 0 21 -21v-2q0 -21 -21 -21h-342l-64 -273h250q21 0 21 -21v-1q0 -21 -21 -21zM510 750h-197q-19 0 -19 19v2q0 18 19 18h197q18 0 18 -18v-2
q0 -19 -18 -19z" />
    <glyph glyph-name="emacron" unicode="&#x113;" horiz-adv-x="502" 
d="M85 198q0 -161 150 -161q52 0 86 14.5t51 28.5t27 14t15.5 -6t5.5 -13v-1q0 -18 -24 -33q-72 -45 -165 -45q-95 0 -145.5 55.5t-50.5 146.5q0 133 80.5 231t201.5 98q80 -1 121.5 -44t41.5 -120q0 -31 -9 -76q-5 -28 -34 -28h-347q-5 -25 -5 -61zM98 297h327q9 35 9 66
q0 126 -119 126q-78 0 -136 -54t-81 -138zM434 611h-191q-18 0 -18 18v2q0 17 18 17h191q17 0 17 -17v-2q0 -18 -17 -18z" />
    <glyph glyph-name="Ebreve" unicode="&#x114;" horiz-adv-x="557" 
d="M423 340h-259l-68 -297h353q21 0 21 -21v-1q0 -21 -21 -21h-386q-14 0 -19.5 10.5t-2.5 24.5l147 638q7 27 34 27h357q21 0 21 -21v-2q0 -21 -21 -21h-342l-64 -273h250q21 0 21 -21v-1q0 -21 -21 -21zM524 797q-15 -37 -47.5 -54.5t-70.5 -17.5q-42 0 -71.5 22t-32.5 61
q-2 23 19 23h1q10 0 20 -21q18 -44 67 -44q53 0 78 46q10 19 22 19h1q12 0 16 -10.5t-2 -23.5z" />
    <glyph glyph-name="ebreve" unicode="&#x115;" horiz-adv-x="502" 
d="M85 198q0 -161 150 -161q52 0 86 14.5t51 28.5t27 14t15.5 -6t5.5 -13v-1q0 -18 -24 -33q-72 -45 -165 -45q-95 0 -145.5 55.5t-50.5 146.5q0 133 80.5 231t201.5 98q80 -1 121.5 -44t41.5 -120q0 -31 -9 -76q-5 -28 -34 -28h-347q-5 -25 -5 -61zM98 297h327q9 35 9 66
q0 126 -119 126q-78 0 -136 -54t-81 -138zM449 658q-34 -83 -121 -83q-47 0 -74 26t-30 68q-2 22 19 22h1q13 0 19 -21q15 -55 66 -55q55 0 83 58q9 18 21 18h1q12 0 16 -9.5t-1 -23.5z" />
    <glyph glyph-name="Edotaccent" unicode="&#x116;" horiz-adv-x="557" 
d="M423 340h-259l-68 -297h353q21 0 21 -21v-1q0 -21 -21 -21h-386q-14 0 -19.5 10.5t-2.5 24.5l147 638q7 27 34 27h357q21 0 21 -21v-2q0 -21 -21 -21h-342l-64 -273h250q21 0 21 -21v-1q0 -21 -21 -21zM441 768q0 -14 -10 -24t-24 -10t-24 10t-10 24t10 24t24 10t24 -10
t10 -24z" />
    <glyph glyph-name="edotaccent" unicode="&#x117;" horiz-adv-x="502" 
d="M85 198q0 -161 150 -161q52 0 86 14.5t51 28.5t27 14t15.5 -6t5.5 -13v-1q0 -18 -24 -33q-72 -45 -165 -45q-95 0 -145.5 55.5t-50.5 146.5q0 133 80.5 231t201.5 98q80 -1 121.5 -44t41.5 -120q0 -31 -9 -76q-5 -28 -34 -28h-347q-5 -25 -5 -61zM98 297h327q9 35 9 66
q0 126 -119 126q-78 0 -136 -54t-81 -138zM372 635q0 -14 -10 -24t-24 -10t-24 10t-10 24t10 24t24 10t24 -10t10 -24z" />
    <glyph glyph-name="Eogonek" unicode="&#x118;" horiz-adv-x="557" 
d="M237 656l-64 -273h250q21 0 21 -21v-1q0 -21 -21 -21h-259l-68 -297h353q21 0 21 -21v-1q0 -21 -21 -21h-19q-25 -14 -41 -24.5t-33 -30t-17 -37.5q0 -36 45 -36h17q15 0 15 -15v-1q0 -14 -15 -17q-13 -3 -31 -3q-36 0 -57 18t-21 45q0 62 89 101h-318q-13 0 -19.5 9.5
t-3.5 23.5l148 639q5 28 34 28h357q21 0 21 -21v-2q0 -21 -21 -21h-342z" />
    <glyph glyph-name="eogonek" unicode="&#x119;" horiz-adv-x="502" 
d="M324 3q-82 -43 -82 -95q0 -36 45 -36h17q15 0 15 -15v-1q0 -14 -15 -17q-14 -3 -31 -3q-36 0 -57 18t-21 45q0 63 74 99q-14 -2 -38 -2q-95 0 -145.5 55.5t-50.5 146.5q0 133 80.5 231t201.5 98q80 0 121.5 -43.5t41.5 -120.5q0 -31 -9 -76q-5 -28 -34 -28h-347
q-5 -25 -5 -61q0 -161 150 -161q52 0 86 14.5t51 28.5t27 14t15.5 -6t5.5 -13v-1q0 -17 -24 -32q-10 -7 -72 -39zM98 297h327q9 35 9 66q0 126 -119 126q-78 0 -136 -54t-81 -138z" />
    <glyph glyph-name="Ecaron" unicode="&#x11a;" horiz-adv-x="557" 
d="M423 340h-259l-68 -297h353q21 0 21 -21v-1q0 -21 -21 -21h-386q-14 0 -19.5 10.5t-2.5 24.5l147 638q7 27 34 27h357q21 0 21 -21v-2q0 -21 -21 -21h-342l-64 -273h250q21 0 21 -21v-1q0 -21 -21 -21zM350 825l55 -60l84 62q11 8 18 8h1q11 0 14 -10.5t-7 -20.5l-80 -69
q-18 -15 -32 -15h-1q-18 0 -31 17l-51 68q-9 13 -4 22t15 9h1q9 0 18 -11z" />
    <glyph glyph-name="ecaron" unicode="&#x11b;" horiz-adv-x="502" 
d="M85 198q0 -161 150 -161q52 0 86 14.5t51 28.5t27 14t15.5 -6t5.5 -13v-1q0 -18 -24 -33q-72 -45 -165 -45q-95 0 -145.5 55.5t-50.5 146.5q0 133 80.5 231t201.5 98q80 -1 121.5 -44t41.5 -120q0 -31 -9 -76q-5 -28 -34 -28h-347q-5 -25 -5 -61zM98 297h327q9 35 9 66
q0 126 -119 126q-78 0 -136 -54t-81 -138zM443 703h1q11 0 14.5 -10t-5.5 -19l-93 -88q-16 -16 -32 -16h-1q-19 0 -30 19l-53 85q-7 10 -2.5 19.5t15.5 9.5h1q9 0 16 -10l57 -80l94 80q11 10 18 10z" />
    <glyph glyph-name="Gcircumflex" unicode="&#x11c;" horiz-adv-x="667" 
d="M428 343h152q17 0 24.5 -10.5t4.5 -24.5l-53 -232q-6 -29 -38 -45q-70 -35 -184 -35q-122 0 -197 66t-75 202q0 79 26 156.5t73 141t122.5 103t165.5 39.5q117 0 183 -47q21 -15 21 -32v-1q0 -11 -7 -18.5t-19 -7.5q-11 0 -23.5 10t-26.5 21.5t-48.5 21.5t-83.5 10
q-63 0 -117 -23.5t-92.5 -63t-66 -91t-41 -108t-13.5 -112.5q0 -112 58.5 -168t163.5 -56q99 0 167 37l50 224h-126q-21 0 -21 21v1q0 21 21 21zM521 731l-55 60l-84 -62q-11 -8 -18 -8h-1q-11 0 -14 10.5t7 20.5l80 69q18 15 32 15h1q18 0 31 -17l51 -68q9 -13 4 -22
t-15 -9h-1q-9 0 -18 11z" />
    <glyph glyph-name="gcircumflex" unicode="&#x11d;" horiz-adv-x="552" 
d="M534 490l-111 -478q-22 -97 -84 -137.5t-162 -40.5q-94 0 -154 37q-20 12 -20 28v1q0 23 23 23q8 0 24.5 -12.5t48.5 -24.5t79 -12q79 0 128 31.5t67 107.5l22 98q-103 -107 -212 -107q-66 0 -107 42t-41 129q0 88 35.5 168t104.5 132t156 52t145 -62l9 36q6 23 26 23h1
q12 0 19 -9t3 -25zM197 43q56 0 104.5 31.5t105.5 87.5l60 263q-56 63 -131 63q-76 0 -134.5 -47t-87 -117.5t-28.5 -148.5q0 -132 111 -132zM267 570h-1q-11 0 -14.5 10t5.5 19l93 88q16 16 32 16h1q19 0 30 -19l53 -85q7 -11 2.5 -20t-15.5 -9h-1q-9 0 -16 10l-57 80
l-94 -80q-11 -10 -18 -10z" />
    <glyph glyph-name="Gbreve" unicode="&#x11e;" horiz-adv-x="667" 
d="M428 343h152q17 0 24.5 -10.5t4.5 -24.5l-53 -232q-6 -29 -38 -45q-70 -35 -184 -35q-122 0 -197 66t-75 202q0 79 26 156.5t73 141t122.5 103t165.5 39.5q117 0 183 -47q21 -15 21 -32v-1q0 -11 -7 -18.5t-19 -7.5q-11 0 -23.5 10t-26.5 21.5t-48.5 21.5t-83.5 10
q-63 0 -117 -23.5t-92.5 -63t-66 -91t-41 -108t-13.5 -112.5q0 -112 58.5 -168t163.5 -56q99 0 167 37l50 224h-126q-21 0 -21 21v1q0 21 21 21zM565 797q-15 -37 -47.5 -54.5t-70.5 -17.5q-42 0 -71.5 22t-32.5 61q-2 23 19 23h1q10 0 20 -21q18 -44 67 -44q53 0 78 46
q10 19 22 19h1q12 0 16 -10.5t-2 -23.5z" />
    <glyph glyph-name="gbreve" unicode="&#x11f;" horiz-adv-x="552" 
d="M534 490l-111 -478q-22 -97 -84 -137.5t-162 -40.5q-94 0 -154 37q-20 12 -20 28v1q0 23 23 23q8 0 24.5 -12.5t48.5 -24.5t79 -12q79 0 128 31.5t67 107.5l22 98q-103 -107 -212 -107q-66 0 -107 42t-41 129q0 88 35.5 168t104.5 132t156 52t145 -62l9 36q6 23 26 23h1
q12 0 19 -9t3 -25zM197 43q56 0 104.5 31.5t105.5 87.5l60 263q-56 63 -131 63q-76 0 -134.5 -47t-87 -117.5t-28.5 -148.5q0 -132 111 -132zM478 658q-34 -83 -121 -83q-47 0 -74 26t-30 68q-2 22 19 22h1q13 0 19 -21q15 -55 66 -55q55 0 83 58q9 18 21 18h1q12 0 16 -9.5
t-1 -23.5z" />
    <glyph glyph-name="Gdotaccent" unicode="&#x120;" horiz-adv-x="667" 
d="M428 343h152q17 0 24.5 -10.5t4.5 -24.5l-53 -232q-6 -29 -38 -45q-70 -35 -184 -35q-122 0 -197 66t-75 202q0 79 26 156.5t73 141t122.5 103t165.5 39.5q117 0 183 -47q21 -15 21 -32v-1q0 -11 -7 -18.5t-19 -7.5q-11 0 -23.5 10t-26.5 21.5t-48.5 21.5t-83.5 10
q-63 0 -117 -23.5t-92.5 -63t-66 -91t-41 -108t-13.5 -112.5q0 -112 58.5 -168t163.5 -56q99 0 167 37l50 224h-126q-21 0 -21 21v1q0 21 21 21zM490 768q0 -14 -10 -24t-24 -10t-24 10t-10 24t10 24t24 10t24 -10t10 -24z" />
    <glyph glyph-name="gdotaccent" unicode="&#x121;" horiz-adv-x="552" 
d="M534 490l-111 -478q-22 -97 -84 -137.5t-162 -40.5q-94 0 -154 37q-20 12 -20 28v1q0 23 23 23q8 0 24.5 -12.5t48.5 -24.5t79 -12q79 0 128 31.5t67 107.5l22 98q-103 -107 -212 -107q-66 0 -107 42t-41 129q0 88 35.5 168t104.5 132t156 52t145 -62l9 36q6 23 26 23h1
q12 0 19 -9t3 -25zM197 43q56 0 104.5 31.5t105.5 87.5l60 263q-56 63 -131 63q-76 0 -134.5 -47t-87 -117.5t-28.5 -148.5q0 -132 111 -132zM405 635q0 -14 -10 -24t-24 -10t-24 10t-10 24t10 24t24 10t24 -10t10 -24z" />
    <glyph glyph-name="Gcommaaccent" unicode="&#x122;" horiz-adv-x="667" 
d="M428 343h152q17 0 24.5 -10.5t4.5 -24.5l-53 -232q-6 -29 -38 -45q-70 -35 -184 -35q-122 0 -197 66t-75 202q0 79 26 156.5t73 141t122.5 103t165.5 39.5q117 0 183 -47q21 -15 21 -32v-1q0 -11 -7 -18.5t-19 -7.5q-11 0 -23.5 10t-26.5 21.5t-48.5 21.5t-83.5 10
q-63 0 -117 -23.5t-92.5 -63t-66 -91t-41 -108t-13.5 -112.5q0 -112 58.5 -168t163.5 -56q99 0 167 37l50 224h-126q-21 0 -21 21v1q0 21 21 21zM323 -79q0 -79 -81 -92q-17 -3 -17 12v1q0 10 18 16q33 10 33 28q0 6 -12 18q-14 12 -14 26q0 16 11 26t25 10q15 0 26 -11.5
t11 -33.5z" />
    <glyph glyph-name="gcommaaccent" unicode="&#x123;" horiz-adv-x="552" 
d="M534 490l-111 -478q-22 -97 -84 -137.5t-162 -40.5q-94 0 -154 37q-20 12 -20 28v1q0 23 23 23q8 0 24.5 -12.5t48.5 -24.5t79 -12q79 0 128 31.5t67 107.5l22 98q-103 -107 -212 -107q-66 0 -107 42t-41 129q0 88 35.5 168t104.5 132t156 52t145 -62l9 36q6 23 26 23h1
q12 0 19 -9t3 -25zM197 43q56 0 104.5 31.5t105.5 87.5l60 263q-56 63 -131 63q-76 0 -134.5 -47t-87 -117.5t-28.5 -148.5q0 -132 111 -132zM311 633q0 79 81 92q17 3 17 -12v-1q0 -10 -18 -16q-33 -10 -33 -28q0 -6 12 -18q14 -12 14 -26q0 -16 -11 -26t-25 -10
q-15 0 -26 11.5t-11 33.5z" />
    <glyph glyph-name="Hcircumflex" unicode="&#x124;" horiz-adv-x="687" 
d="M691 665l-148 -643q-5 -25 -26 -25h-1q-14 0 -20.5 10.5t-2.5 27.5l70 304h-399l-73 -317q-5 -25 -26 -25h-1q-14 0 -20.5 10.5t-2.5 27.5l148 643q5 25 26 25h1q14 0 20.5 -10.5t2.5 -27.5l-65 -282h399l68 295q5 25 26 25h1q14 0 20.5 -10.5t2.5 -27.5zM516 731l-55 60
l-84 -62q-11 -8 -18 -8h-1q-11 0 -14 10.5t7 20.5l80 69q18 15 32 15h1q18 0 31 -17l51 -68q9 -13 4 -22t-15 -9h-1q-9 0 -18 11z" />
    <glyph glyph-name="hcircumflex" unicode="&#x125;" horiz-adv-x="545" 
d="M217 669l-57 -247q131 105 244 105q59 0 86.5 -40t10.5 -116l-81 -349q-7 -25 -25 -25h-1q-12 0 -19 8.5t-3 24.5l78 339q27 116 -65 116q-98 0 -236 -112l-81 -351q-5 -25 -26 -25h-1q-12 0 -18.5 9t-2.5 25l149 647q6 25 26 25h1q12 0 18.5 -9t2.5 -25zM441 731l-55 60
l-84 -62q-11 -8 -18 -8h-1q-11 0 -14 10.5t7 20.5l80 69q18 15 32 15h1q18 0 31 -17l51 -68q9 -13 4 -22t-15 -9h-1q-9 0 -18 11z" />
    <glyph glyph-name="Hbar" unicode="&#x126;" horiz-adv-x="687" 
d="M691 665l-25 -106h61q19 0 19 -19v-2q0 -20 -19 -20h-70l-114 -496q-5 -25 -26 -25h-1q-14 0 -20.5 10.5t-2.5 27.5l70 304h-399l-73 -317q-5 -25 -26 -25h-1q-14 0 -20.5 10.5t-2.5 27.5l111 483h-59q-20 0 -20 20v2q0 19 20 19h68l28 119q5 25 26 25h1q14 0 20.5 -10.5
t2.5 -27.5l-25 -106h399l28 119q5 25 26 25h1q14 0 20.5 -10.5t2.5 -27.5zM174 383h399l31 135h-399z" />
    <glyph glyph-name="hbar" unicode="&#x127;" horiz-adv-x="545" 
d="M501 371l-81 -349q-7 -25 -25 -25h-1q-12 0 -19 8.5t-3 24.5l78 339q27 116 -65 116q-98 0 -236 -112l-81 -351q-5 -25 -26 -25h-1q-12 0 -18.5 9t-2.5 25l127 552h-48q-18 0 -18 18v2q0 17 18 17h56l14 58q6 25 26 25h1q12 0 18.5 -9t2.5 -25l-12 -49h138q17 0 17 -17
v-2q0 -18 -17 -18h-146l-37 -161q131 105 244 105q59 0 86.5 -40t10.5 -116z" />
    <glyph glyph-name="Imacron" unicode="&#x12a;" horiz-adv-x="238" 
d="M43 35l148 643q5 25 26 25h1q14 0 20.5 -10.5t2.5 -27.5l-148 -643q-5 -25 -26 -25h-1q-14 0 -20.5 10.5t-2.5 27.5zM337 750h-197q-19 0 -19 19v2q0 18 19 18h197q18 0 18 -18v-2q0 -19 -18 -19z" />
    <glyph glyph-name="imacron" unicode="&#x12b;" horiz-adv-x="202" 
d="M270 611h-175q-18 0 -18 18v2q0 17 18 17h175q17 0 17 -17v-2q0 -18 -17 -18zM177 489l-107 -467q-5 -25 -26 -25h-1q-12 0 -18.5 9t-2.5 25l108 468q7 25 25 25h1q28 0 21 -35z" />
    <glyph glyph-name="Iogonek" unicode="&#x12e;" horiz-adv-x="238" 
d="M-50 -101q0 59 85 100l156 679q5 25 26 25h1q14 0 20.5 -10t2.5 -27l-148 -644q-4 -19 -22 -31q-34 -21 -54 -40.5t-20 -42.5q0 -36 45 -36h17q15 0 15 -15v-1q0 -14 -15 -17q-13 -3 -31 -3q-36 0 -57 18t-21 45z" />
    <glyph glyph-name="iogonek" unicode="&#x12f;" horiz-adv-x="202" 
d="M220 635q0 -14 -10 -24t-24 -10t-24 10t-10 24t10 24t24 10t24 -10t10 -24zM177 489l-107 -467q-4 -19 -22 -31q-34 -21 -54 -40.5t-20 -42.5q0 -36 45 -36h17q15 0 15 -15v-1q0 -14 -15 -17q-14 -3 -31 -3q-36 0 -57 18t-21 45q0 63 95 107q-4 8 0 25l108 468
q5 25 25 25h1q28 0 21 -35z" />
    <glyph glyph-name="Idotaccent" unicode="&#x130;" horiz-adv-x="238" 
d="M43 35l148 643q5 25 26 25h1q14 0 20.5 -10.5t2.5 -27.5l-148 -643q-5 -25 -26 -25h-1q-14 0 -20.5 10.5t-2.5 27.5zM269 768q0 -14 -10 -24t-24 -10t-24 10t-10 24t10 24t24 10t24 -10t10 -24z" />
    <glyph glyph-name="dotlessi" unicode="&#x131;" horiz-adv-x="202" 
d="M177 489l-107 -467q-5 -25 -26 -25h-1q-12 0 -18.5 9t-2.5 25l108 468q7 25 25 25h1q28 0 21 -35z" />
    <glyph glyph-name="Jcircumflex" unicode="&#x134;" horiz-adv-x="414" 
d="M422 665l-120 -519q-35 -151 -196 -151q-74 0 -121 31q-16 11 -16 27v1q0 24 24 24q8 0 19.5 -10t35 -20t59.5 -10q63 0 97 29t48 89l120 522q5 25 26 25h1q14 0 20.5 -10.5t2.5 -27.5zM476 731l-55 60l-84 -62q-11 -8 -18 -8h-1q-11 0 -14 10.5t7 20.5l80 69
q18 15 32 15h1q18 0 31 -17l51 -68q9 -13 4 -22t-15 -9h-1q-9 0 -18 11z" />
    <glyph glyph-name="jcircumflex" unicode="&#x135;" horiz-adv-x="201" 
d="M72 570h-1q-11 0 -14.5 10t5.5 19l93 88q16 16 32 16h1q19 0 30 -19l53 -85q7 -11 2.5 -20t-15.5 -9h-1q-9 0 -16 10l-57 80l-94 -80q-11 -10 -18 -10zM178 490l-127 -554q-23 -98 -119 -98q-12 0 -20 1q-22 3 -22 18v1q0 18 30 19q36 1 55 15.5t27 48.5l129 560
q5 25 25 25h1q13 0 19 -9.5t2 -26.5z" />
    <glyph glyph-name="Kcommaaccent" unicode="&#x136;" horiz-adv-x="617" 
d="M41 34l148 644q5 25 26 25h1q14 0 20.5 -10t2.5 -27l-84 -364l447 389q14 12 24 12h1q14 0 18.5 -13.5t-8.5 -25.5l-294 -254l180 -375q7 -14 0 -26t-22 -12h-1q-17 0 -27 22l-170 357l-163 -141l-49 -213q-5 -25 -26 -25h-1q-14 0 -20.5 10t-2.5 27zM295 -79
q0 -79 -81 -92q-17 -3 -17 12v1q0 10 18 16q33 10 33 28q0 6 -12 18q-14 12 -14 26q0 16 11 26t25 10q15 0 26 -11.5t11 -33.5z" />
    <glyph glyph-name="kcommaaccent" unicode="&#x137;" horiz-adv-x="466" 
d="M115 226l318 284q15 14 25 14h1q13 0 17 -13.5t-9 -25.5l-215 -188l141 -262q8 -15 2 -26.5t-21 -11.5h-1q-13 0 -22 16l-136 251l-115 -102l-32 -140q-5 -25 -26 -25h-1q-12 0 -18.5 9t-2.5 25l149 648q6 24 26 24h1q12 0 18.5 -9t2.5 -25zM221 -79q0 -79 -81 -92
q-17 -3 -17 12v1q0 10 18 16q33 10 33 28q0 6 -12 18q-14 12 -14 26q0 16 11 26t25 10q15 0 26 -11.5t11 -33.5z" />
    <glyph glyph-name="Lacute" unicode="&#x139;" horiz-adv-x="543" 
d="M433 0h-370q-13 0 -19 10t-3 24l148 644q5 25 26 25h1q14 0 20.5 -10t2.5 -27l-143 -623h337q21 0 21 -21v-1q0 -21 -21 -21zM218 748l59 72q13 16 25 16h1q16 0 21 -14.5t-7 -25.5l-69 -65q-11 -11 -19 -11h-1q-10 0 -13.5 9.5t3.5 18.5z" />
    <glyph glyph-name="lacute" unicode="&#x13a;" horiz-adv-x="203" 
d="M219 669l-149 -647q-5 -25 -26 -25h-1q-12 0 -18.5 9t-2.5 25l149 647q6 25 26 25h1q12 0 18.5 -9t2.5 -25zM201 748l59 72q13 16 25 16h1q16 0 21 -14.5t-7 -25.5l-69 -65q-11 -11 -19 -11h-1q-10 0 -13.5 9.5t3.5 18.5z" />
    <glyph glyph-name="Lcommaaccent" unicode="&#x13b;" horiz-adv-x="543" 
d="M433 0h-370q-13 0 -19 10t-3 24l148 644q5 25 26 25h1q14 0 20.5 -10t2.5 -27l-143 -623h337q21 0 21 -21v-1q0 -21 -21 -21zM265 -79q0 -79 -81 -92q-17 -3 -17 12v1q0 10 18 16q33 10 33 28q0 6 -12 18q-14 12 -14 26q0 16 11 26t25 10q15 0 26 -11.5t11 -33.5z" />
    <glyph glyph-name="lcommaaccent" unicode="&#x13c;" horiz-adv-x="203" 
d="M219 669l-149 -647q-5 -25 -26 -25h-1q-12 0 -18.5 9t-2.5 25l149 647q6 25 26 25h1q12 0 18.5 -9t2.5 -25zM58 -79q0 -79 -81 -92q-17 -3 -17 12v1q0 10 18 16q33 10 33 28q0 6 -12 18q-14 12 -14 26q0 16 11 26t25 10q15 0 26 -11.5t11 -33.5z" />
    <glyph glyph-name="Lcaron" unicode="&#x13d;" horiz-adv-x="543" 
d="M462 668l-38 -81q-7 -16 -18 -16h-1q-8 0 -12 6.5t-1 17.5l25 87q5 21 23 21h1q14 0 20.5 -11t0.5 -24zM433 0h-370q-13 0 -19 10t-3 24l148 644q5 25 26 25h1q14 0 20.5 -10t2.5 -27l-143 -623h337q21 0 21 -21v-1q0 -21 -21 -21z" />
    <glyph glyph-name="lcaron" unicode="&#x13e;" horiz-adv-x="203" 
d="M327 668l-38 -81q-7 -16 -18 -16h-1q-8 0 -12 6.5t-1 17.5l25 87q5 21 23 21h1q14 0 20.5 -11t0.5 -24zM219 669l-149 -647q-5 -25 -26 -25h-1q-12 0 -18.5 9t-2.5 25l149 647q6 25 26 25h1q12 0 18.5 -9t2.5 -25z" />
    <glyph glyph-name="Lslash" unicode="&#x141;" horiz-adv-x="543" 
d="M433 0h-370q-13 0 -19 10t-3 24l52 228l-54 -20q-25 -9 -31 11t14 28l83 31l84 366q5 25 26 25h1q14 0 20.5 -10t2.5 -27l-76 -333l221 83q24 9 31 -11q8 -20 -14 -28l-250 -93l-55 -241h337q21 0 21 -21v-1q0 -21 -21 -21z" />
    <glyph glyph-name="lslash" unicode="&#x142;" horiz-adv-x="210" 
d="M247 457l-82 -43l-90 -392q-5 -25 -26 -25h-1q-12 0 -18.5 9t-2.5 25l81 352l-50 -26q-20 -12 -28 5q-9 16 9 26l80 42l57 248q6 25 26 25h1q12 0 18.5 -9t2.5 -25l-49 -209l53 28q20 10 28 -5q9 -16 -9 -26z" />
    <glyph glyph-name="Nacute" unicode="&#x143;" horiz-adv-x="682" 
d="M688 669l-148 -643q-6 -28 -30 -28h-1q-24 0 -36 30l-242 611h-2l-142 -617q-5 -25 -24 -25h-1q-29 0 -22 34l147 639q7 30 35 30h12q26 0 36 -26l233 -587h2l136 591q5 25 24 25h1q29 0 22 -34zM446 748l59 72q13 16 25 16h1q16 0 21 -14.5t-7 -25.5l-69 -65
q-11 -11 -19 -11h-1q-10 0 -13.5 9.5t3.5 18.5z" />
    <glyph glyph-name="nacute" unicode="&#x144;" horiz-adv-x="545" 
d="M20 31l108 468q7 25 26 25h1q12 0 18.5 -9t2.5 -25l-16 -68q131 105 244 105q59 0 86.5 -40t10.5 -116l-81 -349q-7 -25 -25 -25h-1q-12 0 -19 8.5t-3 24.5l78 339q27 116 -65 116q-100 0 -236 -112l-81 -351q-5 -25 -26 -25h-1q-12 0 -18.5 9t-2.5 25zM394 685
q14 18 27 18h1q16 0 20.5 -14.5t-9.5 -28.5l-81 -79q-11 -11 -19 -11h-1q-10 0 -13.5 10t5.5 20z" />
    <glyph glyph-name="Ncommaaccent" unicode="&#x145;" horiz-adv-x="682" 
d="M688 669l-148 -643q-6 -28 -30 -28h-1q-24 0 -36 30l-242 611h-2l-142 -617q-5 -25 -24 -25h-1q-29 0 -22 34l147 639q7 30 35 30h12q26 0 36 -26l233 -587h2l136 591q5 25 24 25h1q29 0 22 -34zM307 -79q0 -79 -81 -92q-17 -3 -17 12v1q0 10 18 16q33 10 33 28
q0 6 -12 18q-14 12 -14 26q0 16 11 26t25 10q15 0 26 -11.5t11 -33.5z" />
    <glyph glyph-name="ncommaaccent" unicode="&#x146;" horiz-adv-x="545" 
d="M20 31l108 468q7 25 26 25h1q12 0 18.5 -9t2.5 -25l-16 -68q131 105 244 105q59 0 86.5 -40t10.5 -116l-81 -349q-7 -25 -25 -25h-1q-12 0 -19 8.5t-3 24.5l78 339q27 116 -65 116q-100 0 -236 -112l-81 -351q-5 -25 -26 -25h-1q-12 0 -18.5 9t-2.5 25zM226 -79
q0 -79 -81 -92q-17 -3 -17 12v1q0 10 18 16q33 10 33 28q0 6 -12 18q-14 12 -14 26q0 16 11 26t25 10q15 0 26 -11.5t11 -33.5z" />
    <glyph glyph-name="Ncaron" unicode="&#x147;" horiz-adv-x="682" 
d="M688 669l-148 -643q-6 -28 -30 -28h-1q-24 0 -36 30l-242 611h-2l-142 -617q-5 -25 -24 -25h-1q-29 0 -22 34l147 639q7 30 35 30h12q26 0 36 -26l233 -587h2l136 591q5 25 24 25h1q29 0 22 -34zM406 825l55 -60l84 62q11 8 18 8h1q11 0 14 -10.5t-7 -20.5l-80 -69
q-18 -15 -32 -15h-1q-18 0 -31 17l-51 68q-9 13 -4 22t15 9h1q9 0 18 -11z" />
    <glyph glyph-name="ncaron" unicode="&#x148;" horiz-adv-x="545" 
d="M20 31l108 468q7 25 26 25h1q12 0 18.5 -9t2.5 -25l-16 -68q131 105 244 105q59 0 86.5 -40t10.5 -116l-81 -349q-7 -25 -25 -25h-1q-12 0 -19 8.5t-3 24.5l78 339q27 116 -65 116q-100 0 -236 -112l-81 -351q-5 -25 -26 -25h-1q-12 0 -18.5 9t-2.5 25zM449 703h1
q11 0 14.5 -10t-5.5 -19l-93 -88q-16 -16 -32 -16h-1q-19 0 -30 19l-53 85q-7 10 -2.5 19.5t15.5 9.5h1q9 0 16 -10l57 -80l94 80q11 10 18 10z" />
    <glyph glyph-name="Omacron" unicode="&#x14c;" horiz-adv-x="716" 
d="M115 272q0 -107 54 -170.5t161 -63.5q93 0 166 59.5t109 147.5t36 184q0 105 -53.5 169t-160.5 64q-92 0 -165 -59.5t-110 -147.5t-37 -183zM694 429q0 -109 -43.5 -207t-129 -162t-193.5 -64q-126 0 -196 75.5t-70 201.5q0 108 44 205.5t129.5 161.5t192.5 64
q126 0 196 -74.5t70 -200.5zM556 750h-197q-19 0 -19 19v2q0 18 19 18h197q18 0 18 -18v-2q0 -19 -18 -19z" />
    <glyph glyph-name="omacron" unicode="&#x14d;" horiz-adv-x="555" 
d="M85 201q0 -82 40 -124t114 -42q102 0 166.5 86t64.5 203q0 79 -40 121.5t-113 42.5q-101 0 -166.5 -84t-65.5 -203zM520 323q0 -136 -79.5 -231.5t-202.5 -95.5q-95 0 -149 54t-54 151q0 135 81 230.5t202 95.5q94 0 148 -55t54 -149zM440 611h-191q-18 0 -18 18v2
q0 17 18 17h191q17 0 17 -17v-2q0 -18 -17 -18z" />
    <glyph glyph-name="Ohungarumlaut" unicode="&#x150;" horiz-adv-x="716" 
d="M115 272q0 -107 54 -170.5t161 -63.5q93 0 166 59.5t109 147.5t36 184q0 105 -53.5 169t-160.5 64q-92 0 -165 -59.5t-110 -147.5t-37 -183zM694 429q0 -109 -43.5 -207t-129 -162t-193.5 -64q-126 0 -196 75.5t-70 201.5q0 108 44 205.5t129.5 161.5t192.5 64
q126 0 196 -74.5t70 -200.5zM371 745l42 71q11 19 25 19h1q14 0 19.5 -12t-4.5 -26l-52 -65q-9 -12 -18 -12h-1q-9 0 -13 7.5t1 17.5zM489 745l42 71q11 19 25 19h1q14 0 19.5 -12t-4.5 -26l-52 -65q-9 -12 -18 -12h-1q-9 0 -13 7.5t1 17.5z" />
    <glyph glyph-name="ohungarumlaut" unicode="&#x151;" horiz-adv-x="555" 
d="M85 201q0 -82 40 -124t114 -42q102 0 166.5 86t64.5 203q0 79 -40 121.5t-113 42.5q-101 0 -166.5 -84t-65.5 -203zM520 323q0 -136 -79.5 -231.5t-202.5 -95.5q-95 0 -149 54t-54 151q0 135 81 230.5t202 95.5q94 0 148 -55t54 -149zM258 597l55 90q9 16 23 16h1
q14 0 19.5 -12.5t-3.5 -24.5l-64 -84q-9 -12 -18 -12h-1q-10 0 -14 8t2 19zM376 597l55 90q9 16 23 16h1q14 0 19.5 -12.5t-3.5 -24.5l-64 -84q-9 -12 -18 -12h-1q-10 0 -14 8t2 19z" />
    <glyph glyph-name="OE" unicode="&#x152;" horiz-adv-x="972" 
d="M993 656h-336l-64 -273h244q21 0 21 -21v-1q0 -21 -21 -21h-253l-68 -297h347q21 0 21 -21v-1q0 -21 -21 -21h-527q-133 0 -203.5 71t-70.5 198q0 83 26.5 160t74 137.5t121.5 97t163 36.5h546q21 0 21 -21v-2q0 -21 -21 -21zM449 657q-78 0 -142.5 -33.5t-105 -88.5
t-62.5 -123.5t-22 -142.5q0 -104 54 -165t166 -61h126l141 614h-155z" />
    <glyph glyph-name="oe" unicode="&#x153;" horiz-adv-x="926" 
d="M318 527q81 0 130.5 -41t60.5 -114q35 71 95 113t137 42q80 -1 121.5 -44t41.5 -120q0 -31 -9 -76q-5 -28 -34 -28h-347q-5 -25 -5 -61q0 -161 150 -161q52 0 86 14.5t51 28.5t27 14t15.5 -6t5.5 -13v-1q0 -18 -24 -33q-72 -45 -165 -45q-82 0 -128 40.5t-56 110.5
q-35 -70 -95.5 -110.5t-137.5 -40.5q-95 0 -149 54t-54 151q0 135 81 230.5t202 95.5zM85 201q0 -82 40 -124t114 -42q102 0 166.5 86t64.5 203q0 79 -40 121.5t-113 42.5q-101 0 -166.5 -84t-65.5 -203zM849 297q9 35 9 66q0 126 -119 126q-78 0 -136 -54t-81 -138h327z
" />
    <glyph glyph-name="Racute" unicode="&#x154;" horiz-adv-x="602" 
d="M160 318l-69 -297q-5 -24 -27 -24h-1q-13 0 -19.5 10t-2.5 27l147 639q7 27 34 27h149q97 0 149 -41t52 -120q0 -177 -181 -213l112 -290q6 -16 -1 -27.5t-21 -11.5h-1q-16 0 -25 21l-114 301q-13 -1 -40 -1h-141zM237 656l-68 -296h131q107 0 163 42t56 139
q0 115 -152 115h-130zM361 748l59 72q13 16 25 16h1q16 0 21 -14.5t-7 -25.5l-69 -65q-11 -11 -19 -11h-1q-10 0 -13.5 9.5t3.5 18.5z" />
    <glyph glyph-name="racute" unicode="&#x155;" horiz-adv-x="340" 
d="M341 482q-56 -6 -101.5 -34t-92.5 -83l-79 -343q-5 -25 -26 -25h-1q-12 0 -18.5 9t-2.5 25l108 468q7 25 25 25h1q12 0 18.5 -8.5t3.5 -25.5l-16 -69q89 104 185 104q24 0 24 -19v-1q0 -20 -28 -23zM318 685q14 18 27 18h1q16 0 20.5 -14.5t-9.5 -28.5l-81 -79
q-11 -11 -19 -11h-1q-10 0 -13.5 10t5.5 20z" />
    <glyph glyph-name="Rcommaaccent" unicode="&#x156;" horiz-adv-x="602" 
d="M160 318l-69 -297q-5 -24 -27 -24h-1q-13 0 -19.5 10t-2.5 27l147 639q7 27 34 27h149q97 0 149 -41t52 -120q0 -177 -181 -213l112 -290q6 -16 -1 -27.5t-21 -11.5h-1q-16 0 -25 21l-114 301q-13 -1 -40 -1h-141zM237 656l-68 -296h131q107 0 163 42t56 139
q0 115 -152 115h-130zM292 -79q0 -79 -81 -92q-17 -3 -17 12v1q0 10 18 16q33 10 33 28q0 6 -12 18q-14 12 -14 26q0 16 11 26t25 10q15 0 26 -11.5t11 -33.5z" />
    <glyph glyph-name="rcommaaccent" unicode="&#x157;" horiz-adv-x="340" 
d="M341 482q-56 -6 -101.5 -34t-92.5 -83l-79 -343q-5 -25 -26 -25h-1q-12 0 -18.5 9t-2.5 25l108 468q7 25 25 25h1q12 0 18.5 -8.5t3.5 -25.5l-16 -69q89 104 185 104q24 0 24 -19v-1q0 -20 -28 -23zM64 -79q0 -79 -81 -92q-17 -3 -17 12v1q0 10 18 16q33 10 33 28
q0 6 -12 18q-14 12 -14 26q0 16 11 26t25 10q15 0 26 -11.5t11 -33.5z" />
    <glyph glyph-name="Rcaron" unicode="&#x158;" horiz-adv-x="602" 
d="M160 318l-69 -297q-5 -24 -27 -24h-1q-13 0 -19.5 10t-2.5 27l147 639q7 27 34 27h149q97 0 149 -41t52 -120q0 -177 -181 -213l112 -290q6 -16 -1 -27.5t-21 -11.5h-1q-16 0 -25 21l-114 301q-13 -1 -40 -1h-141zM237 656l-68 -296h131q107 0 163 42t56 139
q0 115 -152 115h-130zM321 825l55 -60l84 62q11 8 18 8h1q11 0 14 -10.5t-7 -20.5l-80 -69q-18 -15 -32 -15h-1q-18 0 -31 17l-51 68q-9 13 -4 22t15 9h1q9 0 18 -11z" />
    <glyph glyph-name="rcaron" unicode="&#x159;" horiz-adv-x="340" 
d="M341 482q-56 -6 -101.5 -34t-92.5 -83l-79 -343q-5 -25 -26 -25h-1q-12 0 -18.5 9t-2.5 25l108 468q7 25 25 25h1q12 0 18.5 -8.5t3.5 -25.5l-16 -69q89 104 185 104q24 0 24 -19v-1q0 -20 -28 -23zM373 703h1q11 0 14.5 -10t-5.5 -19l-93 -88q-16 -16 -32 -16h-1
q-19 0 -30 19l-53 85q-7 10 -2.5 19.5t15.5 9.5h1q9 0 16 -10l57 -80l94 80q11 10 18 10z" />
    <glyph glyph-name="Sacute" unicode="&#x15a;" horiz-adv-x="527" 
d="M463 215q0 -107 -65 -163t-173 -56q-130 0 -211 68q-17 14 -17 31v1q0 11 7 18.5t19 7.5q11 0 26 -13t31.5 -28.5t55 -28.5t90.5 -13q84 0 134.5 44t50.5 128q0 51 -34.5 77.5t-110.5 53.5q-42 15 -67.5 27.5t-49.5 31.5t-35 45.5t-11 62.5q0 87 62 141t161 54
q103 0 169 -50q23 -17 23 -37v-1q0 -25 -25 -25q-11 0 -24.5 11t-27 24t-44.5 24t-73 11q-73 0 -122 -39.5t-49 -108.5q0 -29 9.5 -49.5t33 -35.5t41.5 -22.5t57 -21.5q84 -30 126.5 -66t42.5 -103zM339 748l59 72q13 16 25 16h1q16 0 21 -14.5t-7 -25.5l-69 -65
q-11 -11 -19 -11h-1q-10 0 -13.5 9.5t3.5 18.5z" />
    <glyph glyph-name="sacute" unicode="&#x15b;" horiz-adv-x="407" 
d="M347 161q0 -73 -50.5 -119t-146.5 -46q-94 0 -150 46q-16 12 -16 28v1q0 23 23 23q8 0 19.5 -9t23.5 -20.5t38.5 -20.5t61.5 -9q75 0 111.5 32.5t36.5 86.5q0 37 -24 56.5t-80 37.5q-68 22 -100 49t-32 79q0 68 48.5 109.5t134.5 41.5q81 0 130 -34q19 -13 19 -29v-1
q0 -21 -21 -21q-9 0 -22.5 11.5t-40 23t-67.5 11.5q-64 0 -98.5 -29t-34.5 -78q0 -36 24 -55t80 -36q68 -21 100.5 -48.5t32.5 -80.5zM328 685q14 18 27 18h1q16 0 20.5 -14.5t-9.5 -28.5l-81 -79q-11 -11 -19 -11h-1q-10 0 -13.5 10t5.5 20z" />
    <glyph glyph-name="Scircumflex" unicode="&#x15c;" horiz-adv-x="527" 
d="M463 215q0 -107 -65 -163t-173 -56q-130 0 -211 68q-17 14 -17 31v1q0 11 7 18.5t19 7.5q11 0 26 -13t31.5 -28.5t55 -28.5t90.5 -13q84 0 134.5 44t50.5 128q0 51 -34.5 77.5t-110.5 53.5q-42 15 -67.5 27.5t-49.5 31.5t-35 45.5t-11 62.5q0 87 62 141t161 54
q103 0 169 -50q23 -17 23 -37v-1q0 -25 -25 -25q-11 0 -24.5 11t-27 24t-44.5 24t-73 11q-73 0 -122 -39.5t-49 -108.5q0 -29 9.5 -49.5t33 -35.5t41.5 -22.5t57 -21.5q84 -30 126.5 -66t42.5 -103zM420 731l-55 60l-84 -62q-11 -8 -18 -8h-1q-11 0 -14 10.5t7 20.5l80 69
q18 15 32 15h1q18 0 31 -17l51 -68q9 -13 4 -22t-15 -9h-1q-9 0 -18 11z" />
    <glyph glyph-name="scircumflex" unicode="&#x15d;" horiz-adv-x="407" 
d="M347 161q0 -73 -50.5 -119t-146.5 -46q-94 0 -150 46q-16 12 -16 28v1q0 23 23 23q8 0 19.5 -9t23.5 -20.5t38.5 -20.5t61.5 -9q75 0 111.5 32.5t36.5 86.5q0 37 -24 56.5t-80 37.5q-68 22 -100 49t-32 79q0 68 48.5 109.5t134.5 41.5q81 0 130 -34q19 -13 19 -29v-1
q0 -21 -21 -21q-9 0 -22.5 11.5t-40 23t-67.5 11.5q-64 0 -98.5 -29t-34.5 -78q0 -36 24 -55t80 -36q68 -21 100.5 -48.5t32.5 -80.5zM174 570h-1q-11 0 -14.5 10t5.5 19l93 88q16 16 32 16h1q19 0 30 -19l53 -85q7 -11 2.5 -20t-15.5 -9h-1q-9 0 -16 10l-57 80l-94 -80
q-11 -10 -18 -10z" />
    <glyph glyph-name="Scedilla" unicode="&#x15e;" horiz-adv-x="527" 
d="M463 215q0 -107 -65 -163t-173 -56h-12l-8 -38q30 -2 46 -19t16 -43q0 -35 -24.5 -52.5t-61.5 -17.5q-40 0 -63 15q-12 8 -12 21v1q0 17 17 17q5 0 21 -9t35 -9q45 0 45 35q0 30 -46 30h-1q-17 0 -12 17l12 55q-99 11 -163 65q-17 14 -17 31v1q0 11 7 18.5t19 7.5
q11 0 26 -13t31.5 -28.5t55 -28.5t90.5 -13q84 0 134.5 44t50.5 128q0 51 -34.5 77.5t-110.5 53.5q-42 15 -67.5 27.5t-49.5 31.5t-35 45.5t-11 62.5q0 87 62 141t161 54q103 0 169 -50q23 -17 23 -37v-1q0 -25 -25 -25q-11 0 -24.5 11t-27 24t-44.5 24t-73 11
q-73 0 -122 -39.5t-49 -108.5q0 -29 9.5 -49.5t33 -35.5t41.5 -22.5t57 -21.5q84 -30 126.5 -66t42.5 -103z" />
    <glyph glyph-name="scedilla" unicode="&#x15f;" horiz-adv-x="407" 
d="M347 161q0 -72 -48.5 -117.5t-141.5 -47.5l-8 -38q30 -2 46 -19t16 -43q0 -35 -24.5 -52.5t-61.5 -17.5q-40 0 -63 15q-12 8 -12 21v1q0 17 17 17q5 0 21 -9t35 -9q45 0 45 35q0 30 -46 30h-1q-17 0 -12 17l12 54q-75 5 -121 44q-16 12 -16 28v1q0 23 23 23q8 0 19.5 -9
t23.5 -20.5t38.5 -20.5t61.5 -9q75 0 111.5 32.5t36.5 86.5q0 37 -24 56.5t-80 37.5q-68 22 -100 49t-32 79q0 68 48.5 109.5t134.5 41.5q81 0 130 -34q19 -13 19 -29v-1q0 -21 -21 -21q-9 0 -22.5 11.5t-40 23t-67.5 11.5q-64 0 -98.5 -29t-34.5 -78q0 -36 24 -55t80 -36
q68 -21 100.5 -48.5t32.5 -80.5z" />
    <glyph glyph-name="Scaron" unicode="&#x160;" horiz-adv-x="527" 
d="M459 215q0 -107 -65 -163t-173 -56q-130 0 -211 68q-17 14 -17 31v1q0 11 7 18.5t19 7.5q11 0 26 -13t31.5 -28.5t55 -28.5t90.5 -13q84 0 134.5 44t50.5 128q0 51 -34.5 77.5t-110.5 53.5q-42 15 -67.5 27.5t-49.5 31.5t-35 45.5t-11 62.5q0 87 62 141t161 54
q103 0 169 -50q23 -17 23 -37v-1q0 -25 -25 -25q-11 0 -24.5 11t-27 24t-44.5 24t-73 11q-73 0 -122 -39.5t-49 -108.5q0 -29 9.5 -49.5t33 -35.5t41.5 -22.5t57 -21.5q84 -30 126.5 -66t42.5 -103zM288 825l55 -60l84 62q11 8 18 8h1q11 0 14 -10.5t-7 -20.5l-80 -69
q-18 -15 -32 -15h-1q-18 0 -31 17l-51 68q-9 13 -4 22t15 9h1q9 0 18 -11z" />
    <glyph glyph-name="scaron" unicode="&#x161;" horiz-adv-x="407" 
d="M347 161q0 -73 -50.5 -119t-146.5 -46q-94 0 -150 46q-16 12 -16 28v1q0 23 23 23q8 0 19.5 -9t23.5 -20.5t38.5 -20.5t61.5 -9q75 0 111.5 32.5t36.5 86.5q0 37 -24 56.5t-80 37.5q-68 22 -100 49t-32 79q0 68 48.5 109.5t134.5 41.5q81 0 130 -34q19 -13 19 -29v-1
q0 -21 -21 -21q-9 0 -22.5 11.5t-40 23t-67.5 11.5q-64 0 -98.5 -29t-34.5 -78q0 -36 24 -55t80 -36q68 -21 100.5 -48.5t32.5 -80.5zM382 703h1q11 0 14.5 -10t-5.5 -19l-93 -88q-16 -16 -32 -16h-1q-19 0 -30 19l-53 85q-7 10 -2.5 19.5t15.5 9.5h1q9 0 16 -10l57 -80
l94 80q11 10 18 10z" />
    <glyph glyph-name="Tcommaaccent" unicode="&#x162;" horiz-adv-x="556" 
d="M400 657l-147 -635q-5 -25 -26 -25h-1q-14 0 -20.5 10t-2.5 27l144 623h-203q-21 0 -21 21v1q0 21 21 21h465q21 0 21 -21v-1q0 -21 -21 -21h-209zM239 -79q0 -79 -81 -92q-17 -3 -17 12v1q0 10 18 16q33 10 33 28q0 6 -12 18q-14 12 -14 26q0 16 11 26t25 10
q15 0 26 -11.5t11 -33.5z" />
    <glyph glyph-name="tcommaaccent" unicode="&#x163;" horiz-adv-x="306" 
d="M197 521h105q20 0 20 -18v-2q0 -18 -20 -18h-114l-80 -349q-22 -97 63 -97q7 0 22 1t18 1q22 0 22 -18v-1q0 -16 -21 -20t-54 -4q-132 0 -99 142l79 345h-45q-20 0 -20 18v2q0 18 20 18h54l28 123q7 25 26 25h1q12 0 18.5 -9t2.5 -25zM136 -79q0 -79 -81 -92
q-17 -3 -17 12v1q0 10 18 16q33 10 33 28q0 6 -12 18q-14 12 -14 26q0 16 11 26t25 10q15 0 26 -11.5t11 -33.5z" />
    <glyph glyph-name="Tcaron" unicode="&#x164;" horiz-adv-x="556" 
d="M400 657l-147 -635q-5 -25 -26 -25h-1q-14 0 -20.5 10t-2.5 27l144 623h-203q-21 0 -21 21v1q0 21 21 21h465q21 0 21 -21v-1q0 -21 -21 -21h-209zM328 825l55 -60l84 62q11 8 18 8h1q11 0 14 -10.5t-7 -20.5l-80 -69q-18 -15 -32 -15h-1q-18 0 -31 17l-51 68
q-9 13 -4 22t15 9h1q9 0 18 -11z" />
    <glyph glyph-name="tcaron" unicode="&#x165;" horiz-adv-x="306" 
d="M348 668l-38 -81q-7 -16 -18 -16h-1q-8 0 -12 6.5t-1 17.5l25 87q5 21 23 21h1q14 0 20.5 -11t0.5 -24zM197 521h105q20 0 20 -18v-2q0 -18 -20 -18h-114l-80 -349q-22 -97 63 -97q7 0 22 1t18 1q22 0 22 -18v-1q0 -16 -21 -20t-54 -4q-132 0 -99 142l79 345h-45
q-20 0 -20 18v2q0 18 20 18h54l28 123q7 25 26 25h1q12 0 18.5 -9t2.5 -25z" />
    <glyph glyph-name="Umacron" unicode="&#x16a;" horiz-adv-x="679" 
d="M686 669l-107 -464q-48 -209 -263 -209q-133 0 -195.5 65.5t-32.5 195.5l97 421q5 25 26 25h1q14 0 20.5 -10.5t2.5 -27.5l-95 -413q-48 -210 177 -212q86 0 139.5 37.5t74.5 131.5l108 469q5 25 24 25h1q12 0 19 -9t3 -25zM553 750h-197q-19 0 -19 19v2q0 18 19 18h197
q18 0 18 -18v-2q0 -19 -18 -19z" />
    <glyph glyph-name="umacron" unicode="&#x16b;" horiz-adv-x="543" 
d="M518 490l-108 -468q-7 -25 -26 -25h-1q-12 0 -19 8.5t-3 25.5l15 67q-127 -104 -231 -104q-61 0 -91.5 40t-12.5 116l81 349q7 25 26 25h1q12 0 19 -8.5t3 -25.5l-78 -337q-26 -118 66 -118t228 110l82 354q5 25 26 25h1q12 0 19 -8.5t3 -25.5zM443 611h-191
q-18 0 -18 18v2q0 17 18 17h191q17 0 17 -17v-2q0 -18 -17 -18z" />
    <glyph glyph-name="Ubreve" unicode="&#x16c;" horiz-adv-x="679" 
d="M686 669l-107 -464q-48 -209 -263 -209q-133 0 -195.5 65.5t-32.5 195.5l97 421q5 25 26 25h1q14 0 20.5 -10.5t2.5 -27.5l-95 -413q-48 -210 177 -212q86 0 139.5 37.5t74.5 131.5l108 469q5 25 24 25h1q12 0 19 -9t3 -25zM566 797q-15 -37 -47.5 -54.5t-70.5 -17.5
q-42 0 -71.5 22t-32.5 61q-2 23 19 23h1q10 0 20 -21q18 -44 67 -44q53 0 78 46q10 19 22 19h1q12 0 16 -10.5t-2 -23.5z" />
    <glyph glyph-name="ubreve" unicode="&#x16d;" horiz-adv-x="543" 
d="M518 490l-108 -468q-7 -25 -26 -25h-1q-12 0 -19 8.5t-3 25.5l15 67q-127 -104 -231 -104q-61 0 -91.5 40t-12.5 116l81 349q7 25 26 25h1q12 0 19 -8.5t3 -25.5l-78 -337q-26 -118 66 -118t228 110l82 354q5 25 26 25h1q12 0 19 -8.5t3 -25.5zM450 658q-34 -83 -121 -83
q-47 0 -74 26t-30 68q-2 22 19 22h1q13 0 19 -21q15 -55 66 -55q55 0 83 58q9 18 21 18h1q12 0 16 -9.5t-1 -23.5z" />
    <glyph glyph-name="Uring" unicode="&#x16e;" horiz-adv-x="679" 
d="M686 669l-107 -464q-48 -209 -263 -209q-133 0 -195.5 65.5t-32.5 195.5l97 421q5 25 26 25h1q14 0 20.5 -10.5t2.5 -27.5l-95 -413q-48 -210 177 -212q86 0 139.5 37.5t74.5 131.5l108 469q5 25 24 25h1q12 0 19 -9t3 -25zM542 785q0 -39 -28 -63.5t-63 -24.5
q-36 0 -60 21.5t-24 59.5q0 39 27 64.5t64 25.5q35 0 59.5 -23t24.5 -60zM403 778q0 -23 13.5 -36t34.5 -13q22 0 38.5 16t16.5 41q0 21 -14 35.5t-35 14.5q-24 0 -39 -16t-15 -42z" />
    <glyph glyph-name="uring" unicode="&#x16f;" horiz-adv-x="543" 
d="M518 490l-108 -468q-7 -25 -26 -25h-1q-12 0 -19 8.5t-3 25.5l15 67q-127 -104 -231 -104q-61 0 -91.5 40t-12.5 116l81 349q7 25 26 25h1q12 0 19 -8.5t3 -25.5l-78 -337q-26 -118 66 -118t228 110l82 354q5 25 26 25h1q12 0 19 -8.5t3 -25.5zM422 662q0 -39 -28 -63.5
t-63 -24.5q-36 0 -60 21.5t-24 59.5q0 39 27 64.5t64 25.5q35 0 59.5 -23t24.5 -60zM283 655q0 -23 13.5 -36t34.5 -13q22 0 38.5 16t16.5 41q0 21 -14 35.5t-35 14.5q-24 0 -39 -16t-15 -42z" />
    <glyph glyph-name="Uhungarumlaut" unicode="&#x170;" horiz-adv-x="679" 
d="M686 669l-107 -464q-48 -209 -263 -209q-133 0 -195.5 65.5t-32.5 195.5l97 421q5 25 26 25h1q14 0 20.5 -10.5t2.5 -27.5l-95 -413q-48 -210 177 -212q86 0 139.5 37.5t74.5 131.5l108 469q5 25 24 25h1q12 0 19 -9t3 -25zM367 745l42 71q11 19 25 19h1q14 0 19.5 -12
t-4.5 -26l-52 -65q-9 -12 -18 -12h-1q-9 0 -13 7.5t1 17.5zM485 745l42 71q11 19 25 19h1q14 0 19.5 -12t-4.5 -26l-52 -65q-9 -12 -18 -12h-1q-9 0 -13 7.5t1 17.5z" />
    <glyph glyph-name="uhungarumlaut" unicode="&#x171;" horiz-adv-x="543" 
d="M518 490l-108 -468q-7 -25 -26 -25h-1q-12 0 -19 8.5t-3 25.5l15 67q-127 -104 -231 -104q-61 0 -91.5 40t-12.5 116l81 349q7 25 26 25h1q12 0 19 -8.5t3 -25.5l-78 -337q-26 -118 66 -118t228 110l82 354q5 25 26 25h1q12 0 19 -8.5t3 -25.5zM382 597l55 90q9 16 23 16
h1q14 0 19.5 -12.5t-3.5 -24.5l-64 -84q-9 -12 -18 -12h-1q-10 0 -14 8t2 19zM264 597l55 90q9 16 23 16h1q14 0 19.5 -12.5t-3.5 -24.5l-64 -84q-9 -12 -18 -12h-1q-10 0 -14 8t2 19z" />
    <glyph glyph-name="Uogonek" unicode="&#x172;" horiz-adv-x="679" 
d="M88 257l97 421q5 25 26 25h1q14 0 20.5 -10t2.5 -27l-95 -414q-48 -210 177 -212q86 0 139.5 37.5t74.5 131.5l108 469q5 25 24 25h2q12 0 19 -9t3 -25l-107 -464q-32 -139 -134 -184q-4 -2 -59 -19.5t-79 -34.5q-40 -29 -40 -60q0 -35 45 -35h17q15 0 15 -15v-1
q0 -14 -15 -17q-13 -3 -31 -3q-36 0 -57 18t-21 45q0 59 80 97q-126 3 -184 68.5t-29 192.5z" />
    <glyph glyph-name="uogonek" unicode="&#x173;" horiz-adv-x="543" 
d="M518 490l-108 -469q-4 -18 -22 -30q-34 -21 -54 -40.5t-20 -42.5q0 -36 45 -36h17q15 0 15 -15v-1q0 -14 -15 -17q-14 -3 -31 -3q-36 0 -57 18t-21 45q0 63 95 107q-4 8 2 36l13 56q-129 -104 -232 -104q-61 0 -91.5 40t-12.5 116l81 349q7 25 26 25h1q12 0 19 -8.5
t3 -25.5l-78 -337q-26 -118 66 -118q94 0 229 111l81 353q5 25 26 25h1q12 0 19 -8.5t3 -25.5z" />
    <glyph glyph-name="Ydieresis" unicode="&#x178;" horiz-adv-x="552" 
d="M317 291l-62 -269q-5 -25 -27 -25h-1q-14 0 -20.5 10t-2.5 27l60 261l-135 371q-5 15 1.5 26t21.5 11h1q18 0 26 -22l123 -338h1l271 343q13 17 24 17h1q15 0 20.5 -13.5t-4.5 -26.5zM344 767q0 -14 -10 -24t-24 -10t-24 10t-10 24t10 24t24 10t24 -10t10 -24zM488 767
q0 -14 -10 -24t-24 -10t-24 10t-10 24t10 24t24 10t24 -10t10 -24z" />
    <glyph glyph-name="Zacute" unicode="&#x179;" horiz-adv-x="581" 
d="M13 59l549 596v2h-372q-20 0 -20 21v2q0 20 21 20h422q21 0 21 -20v-2q0 -13 -21 -37l-551 -597v-2h388q20 0 20 -20v-2q0 -20 -20 -20h-437q-21 0 -21 20v2q0 13 21 37zM396 748l59 72q13 16 25 16h1q16 0 21 -14.5t-7 -25.5l-69 -65q-11 -11 -19 -11h-1
q-10 0 -13.5 9.5t3.5 18.5z" />
    <glyph glyph-name="zacute" unicode="&#x17a;" horiz-adv-x="459" 
d="M461 466l-418 -427h305q18 0 18 -18v-2q0 -19 -18 -19h-351q-20 0 -20 19v1q0 14 21 35l417 427h-286q-19 0 -19 19v2q0 18 19 18h333q20 0 20 -19v-1q0 -14 -21 -35zM360 685q14 18 27 18h1q16 0 20.5 -14.5t-9.5 -28.5l-81 -79q-11 -11 -19 -11h-1q-10 0 -13.5 10
t5.5 20z" />
    <glyph glyph-name="Zdotaccent" unicode="&#x17b;" horiz-adv-x="581" 
d="M13 59l549 596v2h-372q-20 0 -20 21v2q0 20 21 20h422q21 0 21 -20v-2q0 -13 -21 -37l-551 -597v-2h388q20 0 20 -20v-2q0 -20 -20 -20h-437q-21 0 -21 20v2q0 13 21 37zM449 768q0 -14 -10 -24t-24 -10t-24 10t-10 24t10 24t24 10t24 -10t10 -24z" />
    <glyph glyph-name="zdotaccent" unicode="&#x17c;" horiz-adv-x="459" 
d="M461 466l-418 -427h305q18 0 18 -18v-2q0 -19 -18 -19h-351q-20 0 -20 19v1q0 14 21 35l417 427h-286q-19 0 -19 19v2q0 18 19 18h333q20 0 20 -19v-1q0 -14 -21 -35zM342 635q0 -14 -10 -24t-24 -10t-24 10t-10 24t10 24t24 10t24 -10t10 -24z" />
    <glyph glyph-name="Zcaron" unicode="&#x17d;" horiz-adv-x="581" 
d="M13 59l549 596v2h-372q-20 0 -20 21v2q0 20 21 20h422q21 0 21 -20v-2q0 -13 -21 -37l-551 -597v-2h388q20 0 20 -20v-2q0 -20 -20 -20h-437q-21 0 -21 20v2q0 13 21 37zM349 825l55 -60l84 62q11 8 18 8h1q11 0 14 -10.5t-7 -20.5l-80 -69q-18 -15 -32 -15h-1
q-18 0 -31 17l-51 68q-9 13 -4 22t15 9h1q9 0 18 -11z" />
    <glyph glyph-name="zcaron" unicode="&#x17e;" horiz-adv-x="459" 
d="M461 466l-418 -427h305q18 0 18 -18v-2q0 -19 -18 -19h-351q-20 0 -20 19v1q0 14 21 35l417 427h-286q-19 0 -19 19v2q0 18 19 18h333q20 0 20 -19v-1q0 -14 -21 -35zM419 703h1q11 0 14.5 -10t-5.5 -19l-93 -88q-16 -16 -32 -16h-1q-19 0 -30 19l-53 85q-7 10 -2.5 19.5
t15.5 9.5h1q9 0 16 -10l57 -80l94 80q11 10 18 10z" />
    <glyph glyph-name="florin" unicode="&#x192;" horiz-adv-x="322" 
d="M285 387h-99l-104 -449q-6 -26 -27 -26h-1q-13 0 -19.5 9t-2.5 26l101 440h-54q-21 0 -21 19v2q0 19 21 19h63l34 146q18 74 55 102t96 28q24 0 39 -4q17 -5 17 -18v-1q0 -18 -20 -18h-27q-46 0 -70.5 -18.5t-37.5 -73.5l-33 -143h90q21 0 21 -19v-2q0 -19 -21 -19z" />
    <glyph glyph-name="Scommaaccent" unicode="&#x218;" horiz-adv-x="527" 
d="M463 215q0 -107 -65 -163t-173 -56q-130 0 -211 68q-17 14 -17 31v1q0 11 7 18.5t19 7.5q11 0 26 -13t31.5 -28.5t55 -28.5t90.5 -13q84 0 134.5 44t50.5 128q0 51 -34.5 77.5t-110.5 53.5q-42 15 -67.5 27.5t-49.5 31.5t-35 45.5t-11 62.5q0 87 62 141t161 54
q103 0 169 -50q23 -17 23 -37v-1q0 -25 -25 -25q-11 0 -24.5 11t-27 24t-44.5 24t-73 11q-73 0 -122 -39.5t-49 -108.5q0 -29 9.5 -49.5t33 -35.5t41.5 -22.5t57 -21.5q84 -30 126.5 -66t42.5 -103zM224 -79q0 -79 -81 -92q-17 -3 -17 12v1q0 10 18 16q33 10 33 28
q0 6 -12 18q-14 12 -14 26q0 16 11 26t25 10q15 0 26 -11.5t11 -33.5z" />
    <glyph glyph-name="scommaaccent" unicode="&#x219;" horiz-adv-x="407" 
d="M347 161q0 -73 -50.5 -119t-146.5 -46q-94 0 -150 46q-16 12 -16 28v1q0 23 23 23q8 0 19.5 -9t23.5 -20.5t38.5 -20.5t61.5 -9q75 0 111.5 32.5t36.5 86.5q0 37 -24 56.5t-80 37.5q-68 22 -100 49t-32 79q0 68 48.5 109.5t134.5 41.5q81 0 130 -34q19 -13 19 -29v-1
q0 -21 -21 -21q-9 0 -22.5 11.5t-40 23t-67.5 11.5q-64 0 -98.5 -29t-34.5 -78q0 -36 24 -55t80 -36q68 -21 100.5 -48.5t32.5 -80.5zM153 -79q0 -79 -81 -92q-17 -3 -17 12v1q0 10 18 16q33 10 33 28q0 6 -12 18q-14 12 -14 26q0 16 11 26t25 10q15 0 26 -11.5t11 -33.5z
" />
    <glyph glyph-name="uni0237" unicode="&#x237;" horiz-adv-x="201" 
d="M178 490l-127 -554q-23 -98 -119 -98q-12 0 -20 1q-22 3 -22 18v1q0 18 30 19q36 1 55 15.5t27 48.5l129 560q5 25 25 25h1q13 0 19 -9.5t2 -26.5z" />
    <glyph glyph-name="circumflex" unicode="&#x2c6;" 
d="M191 570h-1q-11 0 -14.5 10t5.5 19l93 88q16 16 32 16h1q19 0 30 -19l53 -85q7 -11 2.5 -20t-15.5 -9h-1q-9 0 -16 10l-57 80l-94 -80q-11 -10 -18 -10z" />
    <glyph glyph-name="caron" unicode="&#x2c7;" 
d="M398 703h1q11 0 14.5 -10t-5.5 -19l-93 -88q-16 -16 -32 -16h-1q-19 0 -30 19l-53 85q-7 10 -2.5 19.5t15.5 9.5h1q9 0 16 -10l57 -80l94 80q11 10 18 10z" />
    <glyph glyph-name="breve" unicode="&#x2d8;" 
d="M409 658q-34 -83 -121 -83q-47 0 -74 26t-30 68q-2 22 19 22h1q13 0 19 -21q15 -55 66 -55q55 0 83 58q9 18 21 18h1q12 0 16 -9.5t-1 -23.5z" />
    <glyph glyph-name="dotaccent" unicode="&#x2d9;" 
d="M328 635q0 -14 -10 -24t-24 -10t-24 10t-10 24t10 24t24 10t24 -10t10 -24z" />
    <glyph glyph-name="ring" unicode="&#x2da;" 
d="M247 655q0 -23 13.5 -36t34.5 -13q22 0 38.5 16t16.5 41q0 21 -14 35.5t-35 14.5q-24 0 -39 -16t-15 -42zM386 662q0 -39 -28 -63.5t-63 -24.5q-36 0 -60 21.5t-24 59.5q0 39 27 64.5t64 25.5q35 0 59.5 -23t24.5 -60z" />
    <glyph glyph-name="ogonek" unicode="&#x2db;" horiz-adv-x="400" 
d="M198 0q-25 -14 -41 -24.5t-33 -30t-17 -37.5q0 -36 45 -36h17q15 0 15 -15v-1q0 -14 -15 -17q-13 -3 -31 -3q-36 0 -57 18t-21 45q0 62 89 101h49z" />
    <glyph glyph-name="tilde" unicode="&#x2dc;" 
d="M416 648q-6 -25 -26 -42t-47 -17q-23 0 -57.5 20t-47.5 20q-27 0 -38 -27q-8 -19 -20 -19h-1q-21 0 -15 27q6 25 25.5 42.5t48.5 17.5q22 0 57 -19.5t49 -19.5q25 0 36 27q8 19 20 19h1q22 0 15 -29z" />
    <glyph glyph-name="hungarumlaut" unicode="&#x2dd;" 
d="M217 597l55 90q9 16 23 16h1q14 0 19.5 -12.5t-3.5 -24.5l-64 -84q-9 -12 -18 -12h-1q-10 0 -14 8t2 19zM335 597l55 90q9 16 23 16h1q14 0 19.5 -12.5t-3.5 -24.5l-64 -84q-9 -12 -18 -12h-1q-10 0 -14 8t2 19z" />
    <glyph glyph-name="uni2009" unicode="&#x2009;" horiz-adv-x="110" 
 />
    <glyph glyph-name="endash" unicode="&#x2013;" horiz-adv-x="393" 
d="M355 268h-304q-20 0 -20 20v1q0 20 20 20h304q20 0 20 -20v-1q0 -20 -20 -20z" />
    <glyph glyph-name="emdash" unicode="&#x2014;" horiz-adv-x="658" 
d="M619 268h-568q-20 0 -20 20v1q0 20 20 20h568q20 0 20 -20v-1q0 -20 -20 -20z" />
    <glyph glyph-name="quoteleft" unicode="&#x2018;" horiz-adv-x="145" 
d="M103 597q0 37 24 67.5t63 36.5q18 3 18 -10v-1q0 -9 -19 -17q-35 -15 -35 -40q0 -9 9 -18q14 -14 14 -26q0 -16 -11 -26.5t-26 -10.5t-26 11.5t-11 33.5z" />
    <glyph glyph-name="quoteright" unicode="&#x2019;" horiz-adv-x="145" 
d="M200 657q0 -37 -24 -67.5t-63 -36.5q-18 -3 -18 10v1q0 9 19 17q35 15 35 40q0 9 -9 18q-14 14 -14 26q0 16 11 26.5t26 10.5t26 -11.5t11 -33.5z" />
    <glyph glyph-name="quotesinglbase" unicode="&#x201a;" horiz-adv-x="145" 
d="M65 36q0 -37 -24 -67.5t-63 -36.5q-18 -3 -18 10v1q0 9 19 17q35 15 35 40q0 9 -9 18q-14 14 -14 26q0 16 11 26.5t26 10.5t26 -11.5t11 -33.5z" />
    <glyph glyph-name="quotedblleft" unicode="&#x201c;" horiz-adv-x="261" 
d="M103 597q0 37 24 67.5t63 36.5q18 3 18 -10v-1q0 -9 -19 -17q-35 -15 -35 -40q0 -9 9 -18q14 -14 14 -26q0 -16 -11 -26.5t-26 -10.5t-26 11.5t-11 33.5zM219 597q0 37 24 67.5t63 36.5q18 3 18 -10v-1q0 -9 -19 -17q-35 -15 -35 -40q0 -9 9 -18q14 -14 14 -26
q0 -16 -11 -26.5t-26 -10.5t-26 11.5t-11 33.5z" />
    <glyph glyph-name="quotedblright" unicode="&#x201d;" horiz-adv-x="261" 
d="M200 657q0 -37 -24 -67.5t-63 -36.5q-18 -3 -18 10v1q0 9 19 17q35 15 35 40q0 9 -9 18q-14 14 -14 26q0 16 11 26.5t26 10.5t26 -11.5t11 -33.5zM316 657q0 -37 -24 -67.5t-63 -36.5q-18 -3 -18 10v1q0 9 19 17q35 15 35 40q0 9 -9 18q-14 14 -14 26q0 16 11 26.5
t26 10.5t26 -11.5t11 -33.5z" />
    <glyph glyph-name="quotedblbase" unicode="&#x201e;" horiz-adv-x="261" 
d="M65 36q0 -37 -24 -67.5t-63 -36.5q-18 -3 -18 10v1q0 9 19 17q35 15 35 40q0 9 -9 18q-14 14 -14 26q0 16 11 26.5t26 10.5t26 -11.5t11 -33.5zM181 36q0 -37 -24 -67.5t-63 -36.5q-18 -3 -18 10v1q0 9 19 17q35 15 35 40q0 9 -9 18q-14 14 -14 26q0 16 11 26.5t26 10.5
t26 -11.5t11 -33.5z" />
    <glyph glyph-name="dagger" unicode="&#x2020;" horiz-adv-x="429" 
d="M278 464q-9 -86 -19 -131l-92 -366q-5 -19 -19 -19h-1q-10 0 -15 7t-2 19q49 245 76 361q6 28 39 129q-84 -10 -132 -10q-30 0 -30 24v1q0 24 31 24q25 0 60 -2.5t57 -4.5l22 -3q10 91 32 185q5 25 26 25h1q13 0 20 -9t3 -24q-21 -92 -50 -177q85 9 133 9q30 0 30 -24v-1
q0 -24 -30 -24q-25 0 -60 2.5t-58 5.5z" />
    <glyph glyph-name="daggerdbl" unicode="&#x2021;" horiz-adv-x="429" 
d="M258 324q-19 -78 -45 -143q84 10 132 10q30 0 30 -24v-1q0 -24 -31 -24q-25 0 -60 2.5t-57 5.5l-22 2q-11 -97 -30 -179q-5 -25 -26 -25h-1q-13 0 -20 9t-3 24q21 91 48 171q-85 -9 -133 -9q-30 0 -30 24v1q0 24 30 24q25 0 60 -3t58 -5l22 -3q9 96 22 146l44 142
q-83 -9 -131 -9q-30 0 -30 24v1q0 24 31 24q25 0 60 -2.5t57 -4.5l22 -3q11 97 30 179q5 25 26 25h1q13 0 20 -9t3 -24q-21 -92 -48 -171q85 9 133 9q30 0 30 -24v-1q0 -24 -30 -24q-25 0 -60 2.5t-58 5.5l-22 3q-9 -96 -22 -146z" />
    <glyph glyph-name="bullet" unicode="&#x2022;" horiz-adv-x="290" 
d="M272 317q0 -59 -37.5 -95.5t-92.5 -36.5q-46 0 -76 27t-30 73q0 58 39.5 95t93.5 37q45 0 74 -27.5t29 -72.5z" />
    <glyph glyph-name="ellipsis" unicode="&#x2026;" horiz-adv-x="465" 
d="M64 36q0 -16 -12 -28t-28 -12t-26.5 10t-10.5 27t11.5 28.5t28.5 11.5t27 -10.5t10 -26.5zM225 36q0 -16 -11.5 -28t-28.5 -12t-27 10t-10 27t12 28.5t28 11.5t26.5 -10.5t10.5 -26.5zM386 36q0 -16 -12 -28t-28 -12t-26.5 10t-10.5 27t11.5 28.5t28.5 11.5t27 -10.5
t10 -26.5z" />
    <glyph glyph-name="perthousand" unicode="&#x2030;" horiz-adv-x="1029" 
d="M120 490q0 -44 23 -70.5t64 -26.5q57 0 95.5 51.5t38.5 125.5q0 44 -22.5 71t-64.5 27q-57 0 -95.5 -52t-38.5 -126zM387 568q0 -87 -53.5 -149t-128.5 -62q-60 0 -95.5 36.5t-35.5 98.5q0 87 54 149.5t128 62.5q61 0 96 -36.5t35 -99.5zM405 129q0 -44 23 -70.5
t64 -26.5q57 0 95.5 51.5t38.5 125.5q0 44 -22.5 71t-64.5 27q-57 0 -95.5 -52t-38.5 -126zM672 207q0 -87 -53.5 -149t-128.5 -62q-60 0 -95.5 36.5t-35.5 98.5q0 87 54 149.5t128 62.5q61 0 96 -36.5t35 -99.5zM757 129q0 -44 23 -70.5t64 -26.5q57 0 95.5 51.5
t38.5 125.5q0 44 -22.5 71t-64.5 27q-57 0 -95.5 -52t-38.5 -126zM1024 207q0 -87 -53.5 -149t-128.5 -62q-60 0 -95.5 36.5t-35.5 98.5q0 87 54 149.5t128 62.5q61 0 96 -36.5t35 -99.5zM687 699l-594 -721q-13 -15 -23 -15h-1q-11 0 -15.5 10.5t4.5 22.5l594 721
q12 15 23 15h1q11 0 15.5 -10.5t-4.5 -22.5z" />
    <glyph glyph-name="guilsinglleft" unicode="&#x2039;" horiz-adv-x="276" 
d="M169 45h-1q-13 0 -22 17l-103 177q-6 11 -6 19v1q0 12 10 22l184 182q13 13 23 13h1q14 0 18 -13t-6 -23l-181 -181v-3l102 -178q7 -12 0.5 -22.5t-19.5 -10.5z" />
    <glyph glyph-name="guilsinglright" unicode="&#x203a;" horiz-adv-x="276" 
d="M107 476h1q13 0 22 -17l103 -177q6 -11 6 -19v-1q0 -12 -10 -22l-184 -182q-13 -13 -23 -13h-1q-14 0 -18 12.5t6 23.5l181 181v3l-102 178q-7 12 -0.5 22.5t19.5 10.5z" />
    <glyph glyph-name="fraction" unicode="&#x2044;" horiz-adv-x="185" 
d="M427 699l-597 -722q-11 -14 -21 -14h-1q-12 0 -16.5 10.5t4.5 22.5l597 722q11 14 21 14h1q12 0 16.5 -10.5t-4.5 -22.5z" />
    <glyph glyph-name="Euro" unicode="&#x20ac;" horiz-adv-x="609" 
d="M69 428h60q40 123 127 199.5t214 76.5q99 0 152 -40q20 -15 20 -30v-1q0 -23 -24 -23q-10 0 -21.5 8t-23 17.5t-39.5 17.5t-68 8q-102 0 -174.5 -64t-108.5 -169h237q19 0 19 -19v-2q0 -19 -19 -19h-248q-10 -38 -14 -71h221q19 0 19 -19v-1q0 -19 -19 -19h-224
q-1 -12 -1 -35q0 -204 184 -204q47 0 81.5 10.5t49 22.5t27.5 22.5t22 10.5q11 0 17.5 -6.5t6.5 -15.5v-1q0 -17 -27 -36q-70 -50 -181 -50q-113 0 -173 64.5t-60 182.5q0 23 1 35h-58q-19 0 -19 19v1q0 19 19 19h61q3 21 13 71h-49q-19 0 -19 19v2q0 19 19 19z" />
    <glyph glyph-name="trademark" unicode="&#x2122;" horiz-adv-x="617" 
d="M664 670l-52 -227q-5 -20 -21 -20h-1q-11 0 -17 7.5t-3 20.5l48 208h-1l-130 -221q-9 -14 -22 -14h-1q-17 0 -19 18l-26 217h-1l-50 -216q-5 -20 -20 -20h-1q-9 0 -14.5 6.5t-2.5 18.5l52 226q5 26 33 26h12q27 0 30 -25l22 -181h1l106 182q14 24 38 24h16
q14 0 20.5 -8.5t3.5 -21.5zM202 664h-68q-18 0 -18 17v2q0 17 18 17h187q18 0 18 -17v-2q0 -17 -18 -17h-73l-51 -220q-5 -21 -22 -21h-1q-28 0 -21 29z" />
    <glyph glyph-name="onethird" unicode="&#x2153;" horiz-adv-x="677" 
d="M629 699l-597 -722q-11 -14 -21 -14h-1q-12 0 -16.5 10.5t4.5 22.5l597 722q11 14 21 14h1q12 0 16.5 -10.5t-4.5 -22.5zM480 210h31q38 0 61.5 17.5t23.5 52.5q0 60 -75 60q-31 0 -53.5 -14t-28.5 -14q-16 0 -16 16v1q0 16 20 27q33 20 86 20q52 0 81.5 -23.5
t29.5 -67.5q0 -39 -23.5 -62t-61.5 -30v-2q26 -7 43.5 -28.5t17.5 -51.5q0 -54 -39 -84t-98 -30q-70 0 -114 36q-14 11 -14 25v1q0 18 19 18q8 0 19.5 -11t33.5 -22t55 -11q40 0 66 20.5t26 57.5q0 33 -20 49.5t-52 16.5h-18q-16 0 -16 16v2q0 15 16 15zM148 324h-1
q-12 0 -18 8.5t-2 23.5l69 294l-81 -40q-6 -3 -11 -3q-15 0 -15 16v1q0 13 20 22l98 48q16 8 24 8h1q23 0 17 -24l-77 -331q-5 -23 -24 -23z" />
    <glyph glyph-name="twothirds" unicode="&#x2154;" horiz-adv-x="750" 
d="M722 699l-597 -722q-11 -14 -21 -14h-1q-12 0 -16.5 10.5t4.5 22.5l597 722q11 14 21 14h1q12 0 16.5 -10.5t-4.5 -22.5zM282 327h-218q-18 0 -18 18v1q0 14 22 31l120 89q43 32 62.5 48.5t35.5 41t16 51.5q0 28 -18.5 44t-53.5 16q-37 0 -63 -17.5t-32 -17.5
q-16 0 -16 16v1q0 15 22 28q43 26 95 26q53 0 82.5 -25t29.5 -67q0 -46 -29.5 -80t-101.5 -88l-106 -78h171q18 0 18 -18v-2q0 -18 -18 -18zM557 210h31q38 0 61.5 17.5t23.5 52.5q0 60 -75 60q-31 0 -53.5 -14t-28.5 -14q-16 0 -16 16v1q0 16 20 27q33 20 86 20
q52 0 81.5 -23.5t29.5 -67.5q0 -39 -23.5 -62t-61.5 -30v-2q26 -7 43.5 -28.5t17.5 -51.5q0 -54 -39 -84t-98 -30q-70 0 -114 36q-14 11 -14 25v1q0 18 19 18q8 0 19.5 -11t33.5 -22t55 -11q40 0 66 20.5t26 57.5q0 33 -20 49.5t-52 16.5h-18q-16 0 -16 16v2q0 15 16 15z
" />
    <glyph glyph-name="oneeighth" unicode="&#x215b;" horiz-adv-x="694" 
d="M148 324h-1q-12 0 -18 8.5t-2 23.5l69 294l-81 -40q-6 -3 -11 -3q-15 0 -15 16v1q0 13 20 22l98 48q16 8 24 8h1q23 0 17 -24l-77 -331q-5 -23 -24 -23zM634 699l-597 -722q-11 -14 -21 -14h-1q-12 0 -16.5 10.5t4.5 22.5l597 722q11 14 21 14h1q12 0 16.5 -10.5
t-4.5 -22.5zM636 107q0 -47 -41 -78.5t-106 -31.5q-57 0 -96.5 26.5t-39.5 75.5q0 43 29.5 69t74.5 34v2q-48 20 -48 71q0 44 35.5 72.5t91.5 28.5q52 0 84.5 -25.5t32.5 -66.5q0 -34 -22.5 -57t-58.5 -31v-2q64 -23 64 -87zM398 102q0 -35 26 -53.5t66 -18.5
q46 0 73.5 22.5t27.5 57.5q0 33 -24 52.5t-69 19.5q-46 0 -73 -22t-27 -58zM452 273q0 -59 77 -59q38 0 59.5 18.5t21.5 49.5q0 28 -19 44.5t-56 16.5q-39 0 -61 -19.5t-22 -50.5z" />
    <glyph glyph-name="threeeighths" unicode="&#x215c;" horiz-adv-x="714" 
d="M680 698l-597 -722q-11 -14 -21 -14h-1q-12 0 -16.5 10.5t4.5 22.5l597 722q11 14 21 14h1q12 0 16.5 -10.5t-4.5 -22.5zM661 107q0 -47 -41 -78.5t-106 -31.5q-57 0 -96.5 26.5t-39.5 75.5q0 43 29.5 69t74.5 34v2q-48 20 -48 71q0 44 35.5 72.5t91.5 28.5
q52 0 84.5 -25.5t32.5 -66.5q0 -34 -22.5 -57t-58.5 -31v-2q64 -23 64 -87zM423 102q0 -35 26 -53.5t66 -18.5q46 0 73.5 22.5t27.5 57.5q0 33 -24 52.5t-69 19.5q-46 0 -73 -22t-27 -58zM477 273q0 -59 77 -59q38 0 59.5 18.5t21.5 49.5q0 28 -19 44.5t-56 16.5
q-39 0 -61 -19.5t-22 -50.5zM172 537h31q38 0 61.5 17.5t23.5 52.5q0 60 -75 60q-31 0 -53.5 -14t-28.5 -14q-16 0 -16 16v1q0 16 20 27q33 20 86 20q52 0 81.5 -23.5t29.5 -67.5q0 -39 -23.5 -62t-61.5 -30v-2q26 -7 43.5 -28.5t17.5 -51.5q0 -54 -39 -84t-98 -30
q-70 0 -114 36q-14 11 -14 25v1q0 18 19 18q8 0 19.5 -11t33.5 -22t55 -11q40 0 66 20.5t26 57.5q0 33 -20 49.5t-52 16.5h-18q-16 0 -16 16v2q0 15 16 15z" />
    <glyph glyph-name="fiveeighths" unicode="&#x215d;" horiz-adv-x="716" 
d="M330 664h-164l-30 -131h1q32 32 86 32q44 0 69.5 -24.5t25.5 -69.5q0 -64 -46 -105.5t-116 -41.5q-60 0 -99 29q-15 11 -15 24v1q0 18 19 18q7 0 18.5 -9t31 -18.5t46.5 -9.5q51 0 83 30.5t32 78.5q0 63 -66 63q-38 0 -70 -26q-18 -14 -27 -14q-8 0 -12 5.5t-3 12.5
l38 163q3 15 10 21.5t24 6.5h164q17 0 17 -17v-2q0 -17 -17 -17zM681 699l-597 -722q-11 -14 -21 -14h-1q-12 0 -16.5 10.5t4.5 22.5l597 722q11 14 21 14h1q12 0 16.5 -10.5t-4.5 -22.5zM664 107q0 -47 -41 -78.5t-106 -31.5q-57 0 -96.5 26.5t-39.5 75.5q0 43 29.5 69
t74.5 34v2q-48 20 -48 71q0 44 35.5 72.5t91.5 28.5q52 0 84.5 -25.5t32.5 -66.5q0 -34 -22.5 -57t-58.5 -31v-2q64 -23 64 -87zM426 102q0 -35 26 -53.5t66 -18.5q46 0 73.5 22.5t27.5 57.5q0 33 -24 52.5t-69 19.5q-46 0 -73 -22t-27 -58zM480 273q0 -59 77 -59
q38 0 59.5 18.5t21.5 49.5q0 28 -19 44.5t-56 16.5q-39 0 -61 -19.5t-22 -50.5z" />
    <glyph glyph-name="seveneighths" unicode="&#x215e;" horiz-adv-x="696" 
d="M128 700h212q23 0 23 -21v-1q0 -10 -20 -39l-207 -300q-10 -15 -22 -15h-1q-13 0 -18 12t4 24l219 301v2h-191q-17 0 -17 18v2q0 17 18 17zM632 699l-597 -722q-11 -14 -21 -14h-1q-12 0 -16.5 10.5t4.5 22.5l597 722q11 14 21 14h1q12 0 16.5 -10.5t-4.5 -22.5zM640 107
q0 -47 -41 -78.5t-106 -31.5q-57 0 -96.5 26.5t-39.5 75.5q0 43 29.5 69t74.5 34v2q-48 20 -48 71q0 44 35.5 72.5t91.5 28.5q52 0 84.5 -25.5t32.5 -66.5q0 -34 -22.5 -57t-58.5 -31v-2q64 -23 64 -87zM402 102q0 -35 26 -53.5t66 -18.5q46 0 73.5 22.5t27.5 57.5
q0 33 -24 52.5t-69 19.5q-46 0 -73 -22t-27 -58zM456 273q0 -59 77 -59q38 0 59.5 18.5t21.5 49.5q0 28 -19 44.5t-56 16.5q-39 0 -61 -19.5t-22 -50.5z" />
    <glyph glyph-name="minus" unicode="&#x2212;" horiz-adv-x="462" 
d="M69 368h364q21 0 21 -21v-2q0 -22 -21 -22h-364q-22 0 -22 22v2q0 21 22 21z" />
    <glyph glyph-name="fi" unicode="&#xfb01;" horiz-adv-x="484" 
d="M37 31l103 452h-46q-20 0 -20 18v2q0 18 20 18h55l13 59q29 123 141 123q24 0 44 -4q22 -4 22 -20v-1q0 -18 -21 -18q-4 0 -17 1t-17 1q-40 0 -65 -18.5t-36 -64.5l-13 -58h100q20 0 20 -18v-2q0 -18 -20 -18h-110l-105 -461q-5 -25 -26 -25h-1q-12 0 -18.5 9t-2.5 25z
M502 635q0 -14 -10 -24t-24 -10t-24 10t-10 24t10 24t24 10t24 -10t10 -24zM459 489l-107 -467q-5 -25 -26 -25h-1q-12 0 -18.5 9t-2.5 25l108 468q7 25 25 25h1q28 0 21 -35z" />
    <glyph glyph-name="fl" unicode="&#xfb02;" horiz-adv-x="483" 
d="M37 31l103 452h-46q-20 0 -20 18v2q0 18 20 18h55l13 59q29 123 141 123q24 0 44 -4q22 -4 22 -20v-1q0 -18 -21 -18q-4 0 -17 1t-17 1q-40 0 -65 -18.5t-36 -64.5l-13 -58h100q20 0 20 -18v-2q0 -18 -20 -18h-110l-105 -461q-5 -25 -26 -25h-1q-12 0 -18.5 9t-2.5 25z
M499 669l-149 -647q-5 -25 -26 -25h-1q-12 0 -18.5 9t-2.5 25l149 647q6 25 26 25h1q12 0 18.5 -9t2.5 -25z" />
    <glyph glyph-name="idotaccent" horiz-adv-x="202" 
d="M220 635q0 -14 -10 -24t-24 -10t-24 10t-10 24t10 24t24 10t24 -10t10 -24zM177 489l-107 -467q-5 -25 -26 -25h-1q-12 0 -18.5 9t-2.5 25l108 468q7 25 25 25h1q28 0 21 -35z" />
    <glyph glyph-name="space_uni0326" horiz-adv-x="400" 
d="M201 -79q0 -79 -81 -92q-17 -3 -17 12v1q0 10 18 16q33 10 33 28q0 6 -12 18q-14 12 -14 26q0 16 11 26t25 10q15 0 26 -11.5t11 -33.5z" />
    <glyph glyph-name="zero.numerator" horiz-adv-x="376" 
d="M127 465q0 -51 24 -78t68 -27q59 0 101.5 55.5t42.5 146.5q0 51 -23 78t-67 27q-59 0 -102.5 -57t-43.5 -145zM409 561q0 -108 -57.5 -172.5t-133.5 -64.5q-63 0 -100 38t-37 104q0 105 59 171t134 66q63 0 99 -38t36 -104z" />
    <glyph glyph-name="one.numerator" horiz-adv-x="221" 
d="M148 324h-1q-12 0 -18 8.5t-2 23.5l69 294l-81 -40q-6 -3 -11 -3q-15 0 -15 16v1q0 13 20 22l98 48q16 8 24 8h1q23 0 17 -24l-77 -331q-5 -23 -24 -23z" />
    <glyph glyph-name="two.numerator" horiz-adv-x="301" 
d="M278 327h-218q-18 0 -18 18v1q0 14 22 31l120 89q43 32 62.5 48.5t35.5 41t16 51.5q0 28 -18.5 44t-53.5 16q-37 0 -63 -17.5t-32 -17.5q-16 0 -16 16v1q0 15 22 28q43 26 95 26q53 0 82.5 -25t29.5 -67q0 -46 -29.5 -80t-101.5 -88l-106 -78h171q18 0 18 -18v-2
q0 -18 -18 -18z" />
    <glyph glyph-name="three.numerator" horiz-adv-x="291" 
d="M167 537h31q38 0 61.5 17.5t23.5 52.5q0 60 -75 60q-31 0 -53.5 -14t-28.5 -14q-16 0 -16 16v1q0 16 20 27q33 20 86 20q52 0 81.5 -23.5t29.5 -67.5q0 -39 -23.5 -62t-61.5 -30v-2q26 -7 43.5 -28.5t17.5 -51.5q0 -54 -39 -84t-98 -30q-70 0 -114 36q-14 11 -14 25v1
q0 18 19 18q8 0 19.5 -11t33.5 -22t55 -11q40 0 66 20.5t26 57.5q0 33 -20 49.5t-52 16.5h-18q-16 0 -16 16v2q0 15 16 15z" />
    <glyph glyph-name="four.numerator" horiz-adv-x="336" 
d="M111 455v-2h144l43 188h-2zM336 419h-45l-16 -73q-5 -22 -22 -22h-1q-11 0 -17 8t-2 22l14 65h-170q-18 0 -18 18v1q0 12 21 33l213 213q17 17 32 17h4q27 0 21 -27l-51 -221h37q16 0 16 -16v-2q0 -16 -16 -16z" />
    <glyph glyph-name="five.numerator" horiz-adv-x="294" 
d="M326 664h-164l-30 -131h1q32 32 86 32q44 0 69.5 -24.5t25.5 -69.5q0 -64 -46 -105.5t-116 -41.5q-60 0 -99 29q-15 11 -15 24v1q0 18 19 18q7 0 18.5 -9t31 -18.5t46.5 -9.5q51 0 83 30.5t32 78.5q0 63 -66 63q-38 0 -70 -26q-17 -14 -27 -14q-8 0 -12 5.5t-3 12.5
l38 163q3 15 10 21.5t24 6.5h164q17 0 17 -17v-2q0 -17 -17 -17z" />
    <glyph glyph-name="six.numerator" horiz-adv-x="332" 
d="M177 613q-34 -42 -47 -96q51 40 115 40q47 0 77 -26t30 -77q0 -57 -42.5 -93.5t-101.5 -36.5t-94 36.5t-35 101.5q0 45 18 92t45 78q62 71 154 71q44 0 73 -18q17 -11 17 -25v-1q0 -18 -18 -18q-6 0 -27 13.5t-49 13.5q-70 0 -115 -55zM231 523q-59 0 -107 -42
q-1 -7 -1 -21q0 -51 23.5 -76.5t63.5 -25.5q41 0 69 24.5t28 70.5q0 70 -76 70z" />
    <glyph glyph-name="seven.numerator" horiz-adv-x="293" 
d="M125 700h212q23 0 23 -21v-1q0 -10 -20 -39l-207 -300q-10 -15 -22 -15h-1q-13 0 -18 12t4 24l219 301v2h-191q-17 0 -17 18v2q0 17 18 17z" />
    <glyph glyph-name="eight.numerator" horiz-adv-x="330" 
d="M346 434q0 -47 -41 -78.5t-106 -31.5q-57 0 -96.5 26.5t-39.5 75.5q0 43 29.5 69t74.5 34v2q-48 20 -48 71q0 44 35.5 72.5t91.5 28.5q52 0 84.5 -25.5t32.5 -66.5q0 -34 -22.5 -57t-58.5 -31v-2q64 -23 64 -87zM108 429q0 -35 26 -53.5t66 -18.5q46 0 73.5 22.5
t27.5 57.5q0 33 -24 52.5t-69 19.5q-46 0 -73 -22t-27 -58zM162 600q0 -59 77 -59q38 0 59.5 18.5t21.5 49.5q0 28 -19 44.5t-56 16.5q-39 0 -61 -19.5t-22 -50.5z" />
    <glyph glyph-name="nine.numerator" horiz-adv-x="331" 
d="M199 470q-47 0 -77 26.5t-30 75.5q0 59 44 95t102 36q57 0 91.5 -35.5t34.5 -103.5q0 -45 -16.5 -93.5t-42.5 -78.5q-60 -67 -149 -67q-51 0 -80 18q-18 11 -18 25v1q0 18 18 18q5 0 27 -13t54 -13q71 0 113 50q32 38 44 97q-48 -38 -115 -38zM211 504q62 0 108 40
q0 4 0.5 11.5t0.5 10.5q0 52 -22.5 77.5t-60.5 25.5q-41 0 -70.5 -25t-29.5 -69q0 -71 74 -71z" />
    <glyph glyph-name="zero.denominator" horiz-adv-x="376" 
d="M52 138q0 -51 24 -78t68 -27q59 0 101.5 55.5t42.5 146.5q0 51 -23 78t-67 27q-59 0 -102.5 -57t-43.5 -145zM334 234q0 -108 -57.5 -172.5t-133.5 -64.5q-63 0 -100 38t-37 104q0 105 59 171t134 66q63 0 99 -38t36 -104z" />
    <glyph glyph-name="one.denominator" horiz-adv-x="221" 
d="M156 375h1q23 0 17 -24l-77 -331q-5 -23 -24 -23h-1q-12 0 -18 8.5t-2 23.5l69 294l-81 -40q-6 -3 -11 -3q-15 0 -15 16v1q0 13 20 22l98 48q16 8 24 8z" />
    <glyph glyph-name="two.denominator" horiz-adv-x="301" 
d="M203 0h-218q-18 0 -18 18v1q0 14 22 31l120 89q43 32 62.5 48.5t35.5 41t16 51.5q0 28 -18.5 44t-53.5 16q-37 0 -63 -17.5t-32 -17.5q-16 0 -16 16v1q0 15 22 28q43 26 95 26q53 0 82.5 -25t29.5 -67q0 -46 -29.5 -80t-101.5 -88l-106 -78h171q18 0 18 -18v-2
q0 -18 -18 -18z" />
    <glyph glyph-name="three.denominator" horiz-adv-x="291" 
d="M92 210h31q38 0 61.5 17.5t23.5 52.5q0 60 -75 60q-31 0 -53.5 -14t-28.5 -14q-16 0 -16 16v1q0 16 20 27q33 20 86 20q52 0 81.5 -23.5t29.5 -67.5q0 -39 -23.5 -62t-61.5 -30v-2q26 -7 43.5 -28.5t17.5 -51.5q0 -54 -39 -84t-98 -30q-70 0 -114 36q-14 11 -14 25v1
q0 18 19 18q8 0 19.5 -11t33.5 -22t55 -11q40 0 66 20.5t26 57.5q0 33 -20 49.5t-52 16.5h-18q-16 0 -16 16v2q0 15 16 15z" />
    <glyph glyph-name="four.denominator" horiz-adv-x="336" 
d="M36 128v-2h144l43 188h-2zM5 144l213 213q17 17 32 17h4q27 0 21 -27l-51 -221h37q16 0 16 -16v-2q0 -16 -16 -16h-45l-16 -73q-5 -22 -22 -22h-1q-11 0 -17 8t-2 22l14 65h-170q-18 0 -18 18v1q0 12 21 33z" />
    <glyph glyph-name="five.denominator" horiz-adv-x="294" 
d="M15 182l38 163q3 15 10 21.5t24 6.5h164q17 0 17 -17v-2q0 -17 -17 -17h-164l-30 -131h1q32 32 86 32q44 0 69.5 -24.5t25.5 -69.5q0 -64 -46 -105.5t-116 -41.5q-60 0 -99 29q-15 10 -15 24v1q0 18 19 18q7 0 18.5 -9.5t31 -18.5t46.5 -9q51 0 83 30.5t32 78.5
q0 63 -66 63q-38 0 -70 -26q-17 -14 -27 -14q-8 0 -12 5.5t-3 12.5z" />
    <glyph glyph-name="six.denominator" horiz-adv-x="332" 
d="M102 286q-34 -42 -47 -96q51 40 115 40q47 0 77 -26t30 -77q0 -57 -42.5 -93.5t-101.5 -36.5t-94 36.5t-35 101.5q0 45 18 92t45 78q62 71 154 71q45 0 73 -18q17 -11 17 -25v-1q0 -18 -18 -18q-6 0 -27 13.5t-49 13.5q-70 0 -115 -55zM156 196q-59 0 -107 -42
q-1 -7 -1 -21q0 -51 23.5 -76.5t63.5 -25.5q41 0 69 24.5t28 70.5q0 70 -76 70z" />
    <glyph glyph-name="seven.denominator" horiz-adv-x="293" 
d="M21 33l219 301v2h-191q-17 0 -17 18v2q0 17 18 17h212q23 0 23 -21v-1q0 -10 -20 -39l-207 -300q-10 -15 -22 -15h-1q-13 0 -18 12t4 24z" />
    <glyph glyph-name="eight.denominator" horiz-adv-x="330" 
d="M271 107q0 -47 -41 -78.5t-106 -31.5q-57 0 -96.5 26.5t-39.5 75.5q0 43 29.5 69t74.5 34v2q-48 20 -48 71q0 44 35.5 72.5t91.5 28.5q52 0 84.5 -25.5t32.5 -66.5q0 -34 -22.5 -57t-58.5 -31v-2q64 -23 64 -87zM33 102q0 -35 26 -53.5t66 -18.5q46 0 73.5 22.5
t27.5 57.5q0 33 -24 52.5t-69 19.5q-46 0 -73 -22t-27 -58zM87 273q0 -59 77 -59q38 0 59.5 18.5t21.5 49.5q0 28 -19 44.5t-56 16.5q-39 0 -61 -19.5t-22 -50.5z" />
    <glyph glyph-name="nine.denominator" horiz-adv-x="331" 
d="M124 143q-47 0 -77 26.5t-30 75.5q0 59 44 95t102 36q57 0 91.5 -35.5t34.5 -103.5q0 -45 -16.5 -93.5t-42.5 -78.5q-60 -67 -149 -67q-51 0 -80 18q-18 11 -18 25v1q0 18 18 18q5 0 27 -13t54 -13q71 0 113 50q32 38 44 97q-48 -38 -115 -38zM136 177q62 0 108 40
q0 4 0.5 11.5t0.5 10.5q0 52 -22.5 77.5t-60.5 25.5q-41 0 -70.5 -25t-29.5 -69q0 -71 74 -71z" />
    <glyph glyph-name="a.alt" horiz-adv-x="556" 
d="M530 487l-107 -465q-5 -25 -25 -25h-1q-13 0 -19.5 9.5t-2.5 27.5l15 65q-101 -103 -205 -103q-67 0 -108 43t-41 131q0 137 86.5 247t213.5 110q86 0 139 -57l7 29q5 25 25 25h1q13 0 19.5 -9.5t2.5 -27.5zM198 35q55 0 101.5 30t102.5 86l64 279q-16 18 -29.5 28.5
t-38.5 20t-56 9.5q-109 0 -182 -98t-73 -220q0 -135 111 -135z" />
    <glyph glyph-name="aacute.alt" horiz-adv-x="556" 
d="M530 487l-107 -465q-5 -25 -25 -25h-1q-13 0 -19.5 9.5t-2.5 27.5l15 65q-101 -103 -205 -103q-67 0 -108 43t-41 131q0 137 86.5 247t213.5 110q86 0 139 -57l7 29q5 25 25 25h1q13 0 19.5 -9.5t2.5 -27.5zM198 35q55 0 101.5 30t102.5 86l64 279q-16 18 -29.5 28.5
t-38.5 20t-56 9.5q-109 0 -182 -98t-73 -220q0 -135 111 -135zM420 685q14 18 27 18h1q16 0 20.5 -14.5t-9.5 -28.5l-81 -79q-11 -11 -19 -11h-1q-10 0 -13.5 10t5.5 20z" />
    <glyph glyph-name="abreve.alt" horiz-adv-x="556" 
d="M530 487l-107 -465q-5 -25 -25 -25h-1q-13 0 -19.5 9.5t-2.5 27.5l15 65q-101 -103 -205 -103q-67 0 -108 43t-41 131q0 137 86.5 247t213.5 110q86 0 139 -57l7 29q5 25 25 25h1q13 0 19.5 -9.5t2.5 -27.5zM198 35q55 0 101.5 30t102.5 86l64 279q-16 18 -29.5 28.5
t-38.5 20t-56 9.5q-109 0 -182 -98t-73 -220q0 -135 111 -135zM477 658q-34 -83 -121 -83q-47 0 -74 26t-30 68q-2 22 19 22h1q13 0 19 -21q15 -55 66 -55q55 0 83 58q9 18 21 18h1q12 0 16 -9.5t-1 -23.5z" />
    <glyph glyph-name="acircumflex.alt" horiz-adv-x="556" 
d="M530 487l-107 -465q-5 -25 -25 -25h-1q-13 0 -19.5 9.5t-2.5 27.5l15 65q-101 -103 -205 -103q-67 0 -108 43t-41 131q0 137 86.5 247t213.5 110q86 0 139 -57l7 29q5 25 25 25h1q13 0 19.5 -9.5t2.5 -27.5zM198 35q55 0 101.5 30t102.5 86l64 279q-16 18 -29.5 28.5
t-38.5 20t-56 9.5q-109 0 -182 -98t-73 -220q0 -135 111 -135zM267 570h-1q-11 0 -14.5 10t5.5 19l93 88q16 16 32 16h1q19 0 30 -19l53 -85q7 -11 2.5 -20t-15.5 -9h-1q-9 0 -16 10l-57 80l-94 -80q-11 -10 -18 -10z" />
    <glyph glyph-name="adieresis.alt" horiz-adv-x="556" 
d="M530 487l-107 -465q-5 -25 -25 -25h-1q-13 0 -19.5 9.5t-2.5 27.5l15 65q-101 -103 -205 -103q-67 0 -108 43t-41 131q0 137 86.5 247t213.5 110q86 0 139 -57l7 29q5 25 25 25h1q13 0 19.5 -9.5t2.5 -27.5zM198 35q55 0 101.5 30t102.5 86l64 279q-16 18 -29.5 28.5
t-38.5 20t-56 9.5q-109 0 -182 -98t-73 -220q0 -135 111 -135zM330 635q0 -14 -10 -24t-24 -10t-24 10t-10 24t10 24t24 10t24 -10t10 -24zM474 635q0 -14 -10 -24t-24 -10t-24 10t-10 24t10 24t24 10t24 -10t10 -24z" />
    <glyph glyph-name="agrave.alt" horiz-adv-x="556" 
d="M530 487l-107 -465q-5 -25 -25 -25h-1q-13 0 -19.5 9.5t-2.5 27.5l15 65q-101 -103 -205 -103q-67 0 -108 43t-41 131q0 137 86.5 247t213.5 110q86 0 139 -57l7 29q5 25 25 25h1q13 0 19.5 -9.5t2.5 -27.5zM198 35q55 0 101.5 30t102.5 86l64 279q-16 18 -29.5 28.5
t-38.5 20t-56 9.5q-109 0 -182 -98t-73 -220q0 -135 111 -135zM322 682l45 -81q7 -13 3 -22t-14 -9h-1q-10 0 -20 14l-57 78q-10 15 -3.5 28t20.5 13h1q15 0 26 -21z" />
    <glyph glyph-name="amacron.alt" horiz-adv-x="556" 
d="M530 487l-107 -465q-5 -25 -25 -25h-1q-13 0 -19.5 9.5t-2.5 27.5l15 65q-101 -103 -205 -103q-67 0 -108 43t-41 131q0 137 86.5 247t213.5 110q86 0 139 -57l7 29q5 25 25 25h1q13 0 19.5 -9.5t2.5 -27.5zM198 35q55 0 101.5 30t102.5 86l64 279q-16 18 -29.5 28.5
t-38.5 20t-56 9.5q-109 0 -182 -98t-73 -220q0 -135 111 -135zM467 611h-191q-18 0 -18 18v2q0 17 18 17h191q17 0 17 -17v-2q0 -18 -17 -18z" />
    <glyph glyph-name="aogonek.alt" horiz-adv-x="556" 
d="M482 499q5 25 25 25h1q13 0 19.5 -9.5t2.5 -27.5l-107 -465q-4 -19 -22 -31q-34 -21 -54 -40.5t-20 -42.5q0 -36 45 -36h17q15 0 15 -15v-1q0 -14 -15 -17q-13 -3 -31 -3q-36 0 -57 18t-21 45q0 60 88 104l22 96q-101 -103 -205 -103q-67 0 -108 43t-41 131
q0 137 86.5 247t213.5 110q86 0 139 -57zM198 35q55 0 101.5 30t102.5 86l64 279q-16 18 -29.5 28.5t-38.5 20t-56 9.5q-109 0 -182 -98t-73 -220q0 -135 111 -135z" />
    <glyph glyph-name="aring.alt" horiz-adv-x="556" 
d="M530 487l-107 -465q-5 -25 -25 -25h-1q-13 0 -19.5 9.5t-2.5 27.5l15 65q-101 -103 -205 -103q-67 0 -108 43t-41 131q0 137 86.5 247t213.5 110q86 0 139 -57l7 29q5 25 25 25h1q13 0 19.5 -9.5t2.5 -27.5zM198 35q55 0 101.5 30t102.5 86l64 279q-16 18 -29.5 28.5
t-38.5 20t-56 9.5q-109 0 -182 -98t-73 -220q0 -135 111 -135zM456 662q0 -39 -28 -63.5t-63 -24.5q-36 0 -60 21.5t-24 59.5q0 39 27 64.5t64 25.5q35 0 59.5 -23t24.5 -60zM317 655q0 -23 13.5 -36t34.5 -13q22 0 38.5 16t16.5 41q0 21 -14 35.5t-35 14.5q-24 0 -39 -16
t-15 -42z" />
    <glyph glyph-name="atilde.alt" horiz-adv-x="556" 
d="M530 487l-107 -465q-5 -25 -25 -25h-1q-13 0 -19.5 9.5t-2.5 27.5l15 65q-101 -103 -205 -103q-67 0 -108 43t-41 131q0 137 86.5 247t213.5 110q86 0 139 -57l7 29q5 25 25 25h1q13 0 19.5 -9.5t2.5 -27.5zM198 35q55 0 101.5 30t102.5 86l64 279q-16 18 -29.5 28.5
t-38.5 20t-56 9.5q-109 0 -182 -98t-73 -220q0 -135 111 -135zM495 648q-6 -25 -26 -42t-47 -17q-23 0 -57.5 20t-47.5 20q-27 0 -38 -27q-8 -19 -20 -19h-1q-21 0 -15 27q6 25 25.5 42.5t48.5 17.5q22 0 57 -19.5t49 -19.5q25 0 36 27q8 19 20 19h1q22 0 15 -29z" />
    <glyph glyph-name="Q.alt" horiz-adv-x="716" 
d="M620 -78q12 -15 12 -27v-1q0 -10 -6.5 -17t-18.5 -7q-8 0 -15 5t-9.5 7.5t-12.5 15.5q-39 47 -99 66t-177 33q-114 13 -173 86.5t-59 189.5q0 108 44 205.5t129.5 161.5t192.5 64q126 0 196 -74.5t70 -200.5q0 -143 -73 -261t-197 -150v-3q135 -18 196 -93zM115 272
q0 -107 54 -170.5t161 -63.5q93 0 166 59.5t109 147.5t36 184q0 105 -53.5 169t-160.5 64q-92 0 -165 -59.5t-110 -147.5t-37 -183z" />
    <glyph glyph-name="Q.alt1" horiz-adv-x="716" 
d="M595 4l-67 61q-88 -69 -200 -69q-126 0 -196 75.5t-70 201.5q0 108 44 205.5t129.5 161.5t192.5 64q126 0 196 -74.5t70 -200.5q0 -94 -34.5 -182.5t-96.5 -150.5l64 -58q17 -16 2 -33q-6 -7 -16.5 -7.5t-17.5 6.5zM115 272q0 -107 54 -170.5t161 -63.5q94 0 166 56
l-92 85q-17 16 -2 33q15 18 34 1l95 -87q53 56 81.5 136.5t28.5 166.5q0 105 -53.5 169t-160.5 64q-92 0 -165 -59.5t-110 -147.5t-37 -183z" />
    <glyph glyph-name="f.short" horiz-adv-x="278" 
d="M37 31l103 452h-47q-20 0 -20 18v2q0 18 20 18h56l13 59q29 123 141 123q21 0 36 -3q22 -4 22 -19v-1q0 -19 -22 -19q-3 0 -14 0.5t-20 0.5q-73 0 -92 -83l-13 -58h101q20 0 20 -18v-2q0 -18 -20 -18h-111l-105 -461q-5 -25 -26 -25h-1q-12 0 -18.5 9t-2.5 25z" />
    <glyph glyph-name="f_f.short" horiz-adv-x="534" 
d="M190 483l-105 -461q-5 -25 -26 -25h-1q-12 0 -18.5 9t-2.5 25l103 452h-46q-20 0 -20 18v2q0 18 20 18h55l12 55q28 121 141 121q24 0 44 -4q22 -4 22 -20v-1q0 -18 -21 -18q-3 0 -18 1t-25 1q-73 0 -92 -81l-12 -54h205l13 59q29 123 141 123q21 0 36 -3q22 -4 22 -19
v-1q0 -19 -22 -19q-3 0 -14 0.5t-20 0.5q-73 0 -92 -83l-13 -58h101q20 0 20 -18v-2q0 -18 -20 -18h-111l-105 -461q-5 -25 -26 -25h-1q-12 0 -18.5 9t-2.5 25l103 452h-206z" />
    <glyph glyph-name="less.cap" horiz-adv-x="399" 
d="M448 666l-344 -316v-2l210 -313q9 -14 3 -26t-21 -12h-1q-12 0 -20 12l-217 319q-8 12 -8 21v1q0 14 19 31l343 310q13 12 23 12h1q14 0 18.5 -13.5t-6.5 -23.5z" />
    <glyph glyph-name="greater.cap" horiz-adv-x="399" 
d="M-7 34l344 316v2l-210 313q-9 14 -3 26t21 12h1q12 0 20 -12l217 -319q8 -12 8 -21v-1q0 -14 -19 -31l-343 -310q-13 -12 -23 -12h-1q-14 0 -18.5 13.5t6.5 23.5z" />
    <glyph glyph-name="questiondown.cap" horiz-adv-x="428" 
d="M347 559h1q22 0 20 -27q-4 -65 -36 -109.5t-100 -94.5q-10 -8 -38.5 -26.5t-43.5 -31t-34.5 -33.5t-28.5 -46t-9 -56q0 -51 33.5 -74t83.5 -23q42 0 71.5 8.5t40.5 18.5t22.5 18.5t21.5 8.5q9 0 15 -6t6 -15v-1q0 -20 -26 -36q-59 -38 -155 -38q-69 0 -118 35t-49 104
q0 38 11.5 69t36.5 56.5t46.5 42.5t56.5 41q8 5 12 8q35 24 53 38.5t39 36.5t31 48.5t15 61.5q2 22 22 22zM327 666q0 16 11 27t28 11q16 0 27 -11t11 -27t-11 -27.5t-27 -11.5t-27.5 11.5t-11.5 27.5z" />
    <glyph glyph-name="exclamdown.cap" horiz-adv-x="215" 
d="M188 533q-92 -418 -112 -510q-6 -26 -27 -26h-1q-14 0 -20.5 10t-3.5 24l124 509q5 19 21 19h1q23 0 18 -26zM159 666q0 16 11 27t28 11q16 0 27 -11t11 -27t-11 -27.5t-27 -11.5t-27.5 11.5t-11.5 27.5z" />
    <glyph glyph-name="bullet.cap" horiz-adv-x="290" 
d="M279 346q0 -59 -37.5 -95.5t-92.5 -36.5q-46 0 -76 27t-30 73q0 58 39.5 95t93.5 37q45 0 74 -27.5t29 -72.5z" />
    <glyph glyph-name="hyphen.cap" horiz-adv-x="237" 
d="M215 314h-158q-21 0 -21 21v2q0 21 21 21h158q21 0 21 -21v-2q0 -21 -21 -21z" />
    <glyph glyph-name="endash.cap" horiz-adv-x="382" 
d="M361 316h-306q-20 0 -20 20v1q0 20 20 20h306q20 0 20 -20v-1q0 -20 -20 -20z" />
    <glyph glyph-name="emdash.cap" horiz-adv-x="634" 
d="M613 316h-558q-20 0 -20 20v1q0 20 20 20h558q20 0 20 -20v-1q0 -20 -20 -20z" />
    <glyph glyph-name="dagger.cap" horiz-adv-x="429" 
d="M278 467q-10 -92 -19 -134l-81 -317q-5 -19 -19 -19h-1q-10 0 -15 7t-2 19q38 196 65 312q8 37 39 132q-84 -10 -132 -10q-30 0 -30 24v1q0 24 31 24q25 0 60 -2.5t57 -5.5l22 -2q10 85 32 182q5 25 26 25h1q13 0 20 -9t3 -24q-19 -83 -50 -174q85 9 133 9q30 0 30 -24
v-1q0 -24 -30 -24q-25 0 -60 3t-58 5z" />
    <glyph glyph-name="daggerdbl.cap" horiz-adv-x="429" 
d="M264 350q-15 -64 -40 -126q84 10 132 10q30 0 30 -24v-1q0 -24 -31 -24q-25 0 -60 2.5t-57 4.5l-22 3q-11 -97 -30 -179q-5 -25 -26 -25h-1q-13 0 -20 9t-3 24q21 92 48 171q-85 -9 -133 -9q-30 0 -30 24v1q0 24 30 24q25 0 60 -2.5t57 -5.5l23 -3q7 82 17 126
q15 64 40 126q-84 -10 -132 -10q-30 0 -30 24v1q0 24 31 24q25 0 60 -2.5t57 -4.5l22 -3q11 93 29 173q5 25 26 25h1q13 0 20 -9t3 -24q-19 -82 -47 -165q85 9 133 9q30 0 30 -24v-1q0 -24 -30 -24q-25 0 -60 2.5t-57 5.5l-23 3q-7 -82 -17 -126z" />
    <glyph glyph-name="quoteleft.cap" horiz-adv-x="501" 
d="M460 198q0 -86 -60 -143.5t-148 -57.5q-104 0 -160.5 65.5t-56.5 167.5q0 203 139.5 330.5t361.5 139.5q26 1 26 -20v-1q0 -19 -27 -22q-176 -20 -266.5 -89t-90.5 -150q0 -27 19 -43t40 -20.5t59 -10t54 -9.5q110 -27 110 -137z" />
    <glyph glyph-name="quoteright.cap" horiz-adv-x="501" 
d="M84 502q0 86 60 143.5t148 57.5q104 0 160.5 -65.5t56.5 -167.5q0 -203 -139.5 -330.5t-361.5 -139.5q-26 -1 -26 20v1q0 19 27 22q176 20 266.5 89t90.5 150q0 27 -19 43t-40 20.5t-59 10t-54 9.5q-110 27 -110 137z" />
    <glyph glyph-name="quotedblleft.cap" horiz-adv-x="981" 
d="M940 198q0 -86 -60 -143.5t-148 -57.5q-104 0 -160.5 65.5t-56.5 167.5q0 203 139.5 330.5t361.5 139.5q26 1 26 -20v-1q0 -19 -27 -22q-176 -20 -266.5 -89t-90.5 -150q0 -27 19 -43t40 -20.5t59 -10t54 -9.5q110 -27 110 -137zM460 198q0 -86 -60 -143.5t-148 -57.5
q-104 0 -160.5 65.5t-56.5 167.5q0 203 139.5 330.5t361.5 139.5q26 1 26 -20v-1q0 -19 -27 -22q-176 -20 -266.5 -89t-90.5 -150q0 -27 19 -43t40 -20.5t59 -10t54 -9.5q110 -27 110 -137z" />
    <glyph glyph-name="quotedblright.cap" horiz-adv-x="981" 
d="M84 502q0 86 60 143.5t148 57.5q104 0 160.5 -65.5t56.5 -167.5q0 -203 -139.5 -330.5t-361.5 -139.5q-26 -1 -26 20v1q0 19 27 22q176 20 266.5 89t90.5 150q0 27 -19 43t-40 20.5t-59 10t-54 9.5q-110 27 -110 137zM564 502q0 86 60 143.5t148 57.5q104 0 160.5 -65.5
t56.5 -167.5q0 -203 -139.5 -330.5t-361.5 -139.5q-26 -1 -26 20v1q0 19 27 22q176 20 266.5 89t90.5 150q0 27 -19 43t-40 20.5t-59 10t-54 9.5q-110 27 -110 137z" />
    <glyph glyph-name="guillemotleft.cap" horiz-adv-x="610" 
d="M434 702h1q14 0 18.5 -13.5t-6.5 -23.5l-344 -316v-2l210 -313q9 -14 3 -26t-21 -12h-1q-12 0 -20 12l-217 319q-8 12 -8 21v1q0 14 19 31l343 310q13 12 23 12zM645 702h1q14 0 18.5 -13.5t-6.5 -23.5l-344 -316v-2l210 -313q9 -14 3 -26t-21 -12h-1q-12 0 -20 12
l-217 319q-8 12 -8 21v1q0 14 19 31l343 310q13 12 23 12z" />
    <glyph glyph-name="guillemotright.cap" horiz-adv-x="610" 
d="M218 -2h-1q-14 0 -18.5 13.5t6.5 23.5l344 316v2l-210 313q-9 14 -3 26t21 12h1q12 0 20 -12l217 -319q8 -12 8 -21v-1q0 -14 -19 -31l-343 -310q-13 -12 -23 -12zM7 -2h-1q-14 0 -18.5 13.5t6.5 23.5l344 316v2l-210 313q-9 14 -3 26t21 12h1q12 0 20 -12l217 -319
q8 -12 8 -21v-1q0 -14 -19 -31l-343 -310q-13 -12 -23 -12z" />
    <glyph glyph-name="at.cap" horiz-adv-x="853" 
d="M311 286q0 -42 20.5 -62t53.5 -20q41 0 74.5 22.5t70.5 64.5l42 181q-34 25 -80 25q-75 0 -128 -64.5t-53 -146.5zM446 -21q-76 0 -141.5 20t-118.5 60.5t-83.5 108.5t-30.5 156q0 90 37 166.5t96 125t130 75.5t143 27q152 0 251.5 -81t99.5 -223q0 -120 -64 -183.5
t-145 -63.5q-50 0 -72 21.5t-22 55.5q-69 -79 -153 -79q-47 0 -78 30.5t-31 89.5q0 94 66.5 172.5t158.5 78.5q61 0 96 -33q6 20 11.5 28t16.5 8h1q21 0 15 -26l-54 -234q-17 -75 49 -75q64 0 113.5 52t49.5 158q0 125 -85 196t-224 71q-65 0 -128.5 -24t-115.5 -67.5
t-84 -113t-32 -152.5q0 -156 90.5 -231.5t237.5 -75.5q64 0 113.5 11.5t73 25t42 25t26.5 11.5q18 0 18 -17v-1q0 -15 -17 -27q-43 -31 -112 -48.5t-144 -17.5z" />
    <glyph glyph-name="paragraph.cap" horiz-adv-x="537" 
d="M215 31l72 307h-7q-90 0 -144.5 39.5t-54.5 115.5q0 109 68.5 158t206.5 49h163q13 0 19.5 -9.5t3.5 -23.5l-151 -649q-5 -21 -23 -21h-1q-12 0 -17.5 9.5t-1.5 24.5l145 625h-87l-148 -638q-5 -21 -23 -21h-1q-12 0 -17.5 9.5t-1.5 24.5z" />
    <glyph glyph-name="grave.cap" 
d="M298 815l37 -67q6 -10 1.5 -19t-14.5 -9h-1q-10 0 -18 11l-48 64q-10 13 -4.5 27t20.5 14h1q15 0 26 -21z" />
    <glyph glyph-name="dieresis.cap" 
d="M274 767q0 -14 -10 -24t-24 -10t-24 10t-10 24t10 24t24 10t24 -10t10 -24zM418 767q0 -14 -10 -24t-24 -10t-24 10t-10 24t10 24t24 10t24 -10t10 -24z" />
    <glyph glyph-name="macron.cap" 
d="M424 750h-197q-19 0 -19 19v2q0 18 19 18h197q18 0 18 -18v-2q0 -19 -18 -19z" />
    <glyph glyph-name="acute.cap" 
d="M302 748l59 72q13 16 25 16h1q16 0 21 -14.5t-7 -25.5l-69 -65q-11 -11 -19 -11h-1q-10 0 -13.5 9.5t3.5 18.5z" />
    <glyph glyph-name="circumflex.cap" 
d="M384 731l-55 60l-84 -62q-11 -8 -18 -8h-1q-11 0 -14 10.5t7 20.5l80 69q18 15 32 15h1q18 0 31 -17l51 -68q9 -13 4 -22t-15 -9h-1q-9 0 -18 11z" />
    <glyph glyph-name="caron.cap" 
d="M267 825l55 -60l84 62q11 8 18 8h1q11 0 14 -10.5t-7 -20.5l-80 -69q-18 -15 -32 -15h-1q-18 0 -31 17l-51 68q-9 13 -4 22t15 9h1q9 0 18 -11z" />
    <glyph glyph-name="breve.cap" 
d="M443 797q-15 -37 -47.5 -54.5t-70.5 -17.5q-42 0 -71.5 22t-32.5 61q-2 23 19 23h1q10 0 20 -21q18 -44 67 -44q53 0 78 46q10 19 22 19h1q12 0 16 -10.5t-2 -23.5z" />
    <glyph glyph-name="dotaccent.cap" 
d="M358 768q0 -14 -10 -24t-24 -10t-24 10t-10 24t10 24t24 10t24 -10t10 -24z" />
    <glyph glyph-name="ring.cap" 
d="M420 815q0 -39 -28 -63.5t-63 -24.5q-36 0 -60 21.5t-24 59.5q0 39 27 64.5t64 25.5q35 0 59.5 -23t24.5 -60zM281 808q0 -23 13.5 -36t34.5 -13q22 0 38.5 16t16.5 41q0 21 -14 35.5t-35 14.5q-24 0 -39 -16t-15 -42z" />
    <glyph glyph-name="tilde.cap" 
d="M379 734q-23 0 -57.5 20t-47.5 20q-27 0 -38 -27q-8 -19 -20 -19h-1q-21 0 -15 27q6 25 25.5 42.5t48.5 17.5q22 0 57 -19.5t49 -19.5q25 0 36 27q8 19 20 19h1q22 0 15 -29q-6 -25 -26 -42t-47 -17z" />
    <glyph glyph-name="hungarumlaut.cap" 
d="M250 745l42 71q11 19 25 19h1q14 0 19.5 -12t-4.5 -26l-52 -65q-9 -12 -18 -12h-1q-9 0 -13 7.5t1 17.5zM368 745l42 71q11 19 25 19h1q14 0 19.5 -12t-4.5 -26l-52 -65q-9 -12 -18 -12h-1q-9 0 -13 7.5t1 17.5z" />
    </font>
</defs>
</svg>
